<?xml version="1.0" encoding="UTF-8" standalone="no"?>
<!-- Created with Inkscape (http://www.inkscape.org/) -->

<svg
   width="42cm"
   height="50.700001cm"
   viewBox="0 0 420 507.00001"
   version="1.1"
   id="svg1"
   inkscape:version="1.3.2 (091e20e, 2023-11-25, custom)"
   sodipodi:docname="akkeli.svg"
   inkscape:export-filename="akkeli2.pdf"
   inkscape:export-xdpi="96"
   inkscape:export-ydpi="96"
   xml:space="preserve"
   xmlns:inkscape="http://www.inkscape.org/namespaces/inkscape"
   xmlns:sodipodi="http://sodipodi.sourceforge.net/DTD/sodipodi-0.dtd"
   xmlns="http://www.w3.org/2000/svg"
   xmlns:svg="http://www.w3.org/2000/svg"><sodipodi:namedview
     id="namedview1"
     pagecolor="#ffffff"
     bordercolor="#000000"
     borderopacity="0.25"
     inkscape:showpageshadow="2"
     inkscape:pageopacity="0.0"
     inkscape:pagecheckerboard="0"
     inkscape:deskcolor="#d1d1d1"
     inkscape:document-units="mm"
     inkscape:zoom="0.23653803"
     inkscape:cx="2063.0932"
     inkscape:cy="1130.8964"
     inkscape:window-width="5160"
     inkscape:window-height="2066"
     inkscape:window-x="-11"
     inkscape:window-y="-11"
     inkscape:window-maximized="1"
     inkscape:current-layer="g4395" /><defs
     id="defs1" /><g
     inkscape:label="Taso 1"
     inkscape:groupmode="layer"
     id="layer1"><g
       id="g4395"
       transform="matrix(1.5189633,0,0,-1.5189633,-1106.5831,916.27264)"><text
         xml:space="preserve"
         style="font-style:normal;font-variant:normal;font-weight:normal;font-stretch:normal;font-size:30.8486px;font-family:'Helmswald Post';-inkscape-font-specification:'Helmswald Post';letter-spacing:-0.016526px;fill:#000000;stroke:#000000;stroke-width:0.468454"
         x="-905.11005"
         y="-507.43365"
         id="text2"
         transform="scale(-1)"><tspan
           sodipodi:role="line"
           id="tspan2"
           style="fill:#000000;stroke-width:0.468454"
           x="-905.11005"
           y="-507.43365">,</tspan></text><text
         xml:space="preserve"
         style="font-style:normal;font-variant:normal;font-weight:normal;font-stretch:normal;font-size:30.8486px;font-family:'Helmswald Post';-inkscape-font-specification:'Helmswald Post';letter-spacing:-0.016526px;fill:#000000;stroke:#000000;stroke-width:0.468454"
         x="-916.36383"
         y="-499.71619"
         id="text4"
         transform="scale(-1)"><tspan
           sodipodi:role="line"
           id="tspan4"
           style="fill:#000000;stroke-width:0.468454"
           x="-916.36383"
           y="-499.71619">,</tspan></text><text
         xml:space="preserve"
         style="font-style:normal;font-variant:normal;font-weight:normal;font-stretch:normal;font-size:49.6425px;font-family:'Helmswald Post';-inkscape-font-specification:'Helmswald Post';letter-spacing:-0.0198px;fill:#000000;fill-opacity:1;stroke:#000000;stroke-width:0.477117;stroke-dasharray:none;stroke-opacity:1"
         x="-776.31427"
         y="-470.1322"
         id="text6-5-9"
         transform="scale(-1.1082039,-0.90236102)"><tspan
           sodipodi:role="line"
           style="font-style:normal;font-variant:normal;font-weight:normal;font-stretch:normal;font-size:49.6425px;font-family:Colchester;-inkscape-font-specification:Colchester;text-align:center;text-anchor:middle;fill:#000000;fill-opacity:1;stroke-width:0.477117;stroke-dasharray:none"
           x="-776.32416"
           y="-470.1322"
           id="tspan10-7-1">The Madness</tspan></text><g
         id="g10"
         transform="translate(-262.89501,150.22575)"
         style="fill:#000000"><path
           style="fill:#000000;fill-opacity:1"
           d="m 1126.1069,314.471 c 0.2627,0.425 0.6309,0.77272 0.8183,0.77272 0.1875,0 0.3408,-0.34772 0.3408,-0.77272 0,-0.425 -0.3682,-0.77272 -0.8183,-0.77272 -0.4501,0 -0.6034,0.34772 -0.3408,0.77272 z m -7.4394,30.71572 c -0.9612,1.22558 -0.9338,1.25291 0.2917,0.29175 0.7438,-0.58329 1.3523,-1.19181 1.3523,-1.35227 0,-0.63598 -0.6346,-0.22664 -1.644,1.06052 z m 14.0076,97.84797 c 0,0.16046 0.6085,0.76898 1.3522,1.35226 1.2256,0.96117 1.2529,0.93384 0.2918,-0.29174 -1.0095,-1.28716 -1.644,-1.6965 -1.644,-1.06052 z m -30.7158,7.24179 c 11.7937,0.11998 31.0925,0.11998 42.8861,0 11.7937,-0.11997 2.1443,-0.21814 -21.443,-0.21814 -23.5874,0 -33.2367,0.0982 -21.4431,0.21814 z"
           id="path16" /><path
           style="fill:#000000;fill-opacity:1"
           d="m 1138.476,314.46215 c -0.2708,0.43802 0.039,0.56757 0.7271,0.30369 1.3386,-0.5137 1.5836,-1.06756 0.4721,-1.06756 -0.3999,0 -0.9396,0.34374 -1.1992,0.76387 z m -39.9456,95.58158 c 0.5578,0.22322 1.2243,0.19577 1.481,-0.061 0.2568,-0.25677 -0.1996,-0.4394 -1.0142,-0.40585 -0.9001,0.0371 -1.0832,0.22018 -0.4668,0.46685 z"
           id="path15" /><path
           style="fill:#000000;fill-opacity:1"
           d="m 1066.0277,314.21003 c 0.5313,0.21437 1.4006,0.21437 1.9318,0 0.5313,-0.21436 0.097,-0.38975 -0.9659,-0.38975 -1.0625,0 -1.4971,0.17539 -0.9659,0.38975 z m 75.0024,0.0161 c 0.5578,0.22322 1.2243,0.19577 1.4811,-0.061 0.2567,-0.25677 -0.1996,-0.4394 -1.0142,-0.40585 -0.9002,0.0371 -1.0833,0.22018 -0.4669,0.46685 z m -47.9088,21.63624 c 0.5578,0.22321 1.2243,0.19576 1.4811,-0.061 0.2567,-0.25677 -0.1996,-0.4394 -1.0142,-0.40585 -0.9002,0.0371 -1.0833,0.22018 -0.4669,0.46686 z m 22.4553,12.41524 c -0.9612,1.22558 -0.9338,1.25291 0.2917,0.29175 0.7438,-0.58329 1.3523,-1.19181 1.3523,-1.35227 0,-0.63598 -0.6345,-0.22664 -1.644,1.06052 z"
           id="path14" /><path
           style="fill:#000000;fill-opacity:1"
           d="m 1072.0163,314.21507 c 9.1033,0.54407 27.2178,0.59525 26.396,0.0746 -0.4929,-0.31224 -7.5029,-0.50871 -15.5778,-0.4366 -8.075,0.0721 -12.9432,0.23502 -10.8182,0.36202 z m 72.0564,0.0285 c 0.9563,0.18418 2.521,0.18418 3.4773,0 0.9562,-0.18418 0.1738,-0.33487 -1.7387,-0.33487 -1.9124,0 -2.6948,0.15069 -1.7386,0.33487 z m -7.473,91.08668 c 0.037,0.90018 0.2202,1.08328 0.4668,0.46686 0.2232,-0.55781 0.1958,-1.22429 -0.061,-1.48106 -0.2567,-0.25676 -0.4394,0.19962 -0.4058,1.0142 z"
           id="path13" /><path
           style="fill:#000000;fill-opacity:1"
           d="m 1124.2361,335.01254 c 0.037,0.90018 0.2202,1.08328 0.4669,0.46685 0.2232,-0.55781 0.1957,-1.22428 -0.061,-1.48105 -0.2568,-0.25677 -0.4394,0.19962 -0.4059,1.0142 z m -12.8843,17.51504 -1.4721,1.73863 1.7387,-1.47203 c 1.6338,-1.38334 2.0904,-2.00522 1.472,-2.00522 -0.1466,0 -0.929,0.78238 -1.7386,1.73862 z m 17.4596,66.26096 c 0,0.425 0.3683,0.77273 0.8184,0.77273 0.4501,0 0.6034,-0.34773 0.3407,-0.77273 -0.2626,-0.42499 -0.6309,-0.77272 -0.8183,-0.77272 -0.1874,0 -0.3408,0.34773 -0.3408,0.77272 z m 6.7485,0.0959 c 0.5242,0.52809 1.1477,0.76551 1.3856,0.5276 0.2379,-0.23791 -0.191,-0.66998 -0.953,-0.96017 -1.1013,-0.41934 -1.1901,-0.33058 -0.4326,0.43257 z m 1.6066,19.75004 c 0.5578,0.22321 1.2243,0.19576 1.4811,-0.061 0.2567,-0.25677 -0.1997,-0.4394 -1.0142,-0.40585 -0.9002,0.0371 -1.0833,0.22018 -0.4669,0.46686 z m -9.9005,7.19936 c 0,0.425 0.3477,0.77273 0.7727,0.77273 0.425,0 0.7727,-0.34773 0.7727,-0.77273 0,-0.42499 -0.3477,-0.77272 -0.7727,-0.77272 -0.425,0 -0.7727,0.34773 -0.7727,0.77272 z"
           id="path12" /><path
           style="fill:#000000;fill-opacity:1"
           d="m 1102.394,414.68007 c 0.5578,0.22321 1.2243,0.19576 1.481,-0.061 0.2568,-0.25677 -0.1996,-0.4394 -1.0142,-0.40585 -0.9001,0.0371 -1.0832,0.22018 -0.4668,0.46686 z m 19.8493,7.19936 c 0.2627,0.425 0.6309,0.77273 0.8183,0.77273 0.1874,0 0.3408,-0.34773 0.3408,-0.77273 0,-0.42499 -0.3683,-0.77272 -0.8183,-0.77272 -0.4501,0 -0.6035,0.34773 -0.3408,0.77272 z"
           id="path11" /><path
           style="fill:#000000;fill-opacity:1"
           d="m 1063.4191,318.11286 c 0.2746,2.00302 1.1777,4.94366 2.0071,6.53475 0.8293,1.59108 2.0695,5.06033 2.7559,7.70944 3.0771,11.87476 10.2276,16.5979 8.0938,5.34616 -1.2635,-6.66232 -1.053,-10.2805 0.57,-9.79833 0.7437,0.22095 2.2833,0.62349 3.4213,0.89453 1.138,0.27103 2.2572,0.983 2.4871,1.58214 0.2299,0.59914 0.9601,1.08934 1.6227,1.08934 0.9876,0 1.126,0.68856 0.7679,3.82085 -0.3743,3.27391 -0.2182,3.93788 1.0908,4.63844 1.6122,0.86283 9.3487,0.83735 9.3487,-0.0308 0,-0.27945 1.0757,-0.72324 2.3906,-0.98621 1.3148,-0.26297 3.6098,-1.69733 5.1,-3.18748 1.4901,-1.49015 3.0418,-2.70936 3.4482,-2.70936 0.4064,0 1.4389,-1.58236 2.2944,-3.51636 l 1.5554,-3.51635 -2.4013,-2.45616 c -2.5154,-2.57282 -3.5748,-5.19732 -2.855,-7.07301 0.7665,-1.99745 -1.379,-1.82954 -3.0979,0.24245 -1.6107,1.94169 -1.7028,1.96117 -2.2618,0.47862 -0.9749,-2.58572 -1.6624,-2.68047 -19.5389,-2.6927 L 1062.92,314.471 Z m 30.9002,17.25408 c 0.3667,0.3331 0.4332,0.98366 0.1476,1.44568 -0.7274,1.17693 -2.1866,1.05606 -1.5193,-0.12585 0.4156,-0.73617 0.3157,-0.75409 -0.4199,-0.0754 -1.0708,0.98787 -4.1655,-0.99146 -3.4245,-2.1903 0.4312,-0.69781 4.1487,-0.0237 5.2161,0.94583 z m -5.1616,3.20334 c -0.2466,0.61643 -0.4297,0.43333 -0.4668,-0.46685 -0.034,-0.81458 0.1491,-1.27097 0.4058,-1.0142 0.2568,0.25677 0.2842,0.92324 0.061,1.48105 z m 36.0477,-22.9402 c 0,0.55646 0.4636,0.83383 1.0303,0.61638 0.5667,-0.21745 1.0303,-0.49482 1.0303,-0.61638 0,-0.12156 -0.4636,-0.39893 -1.0303,-0.61638 -0.5667,-0.21744 -1.0303,0.0599 -1.0303,0.61638 z m 12.5835,1.21282 c -0.7778,1.31678 -1.8452,2.20146 -2.3995,1.98875 -1.2429,-0.47694 -1.9416,2.71578 -1.9416,8.87222 0,4.96362 -0.4704,5.42434 -2.8596,2.80112 -4.06,-4.45749 -4.2169,-7.01625 -0.7118,-11.60824 3.1052,-4.06795 1.5385,-4.53592 -3.8508,-1.15029 -1.6553,1.03986 -3.5312,2.09578 -4.1687,2.34648 -0.8733,0.34344 -0.7196,0.58895 0.6233,0.99575 1.2365,0.37456 1.6347,0.92295 1.3002,1.79063 -2.7548,7.14659 -2.5266,14.2119 0.3694,11.43961 0.7579,-0.72551 0.8454,-0.19242 0.4204,2.56102 -0.4762,3.08545 -1.3959,4.34794 -8.1623,11.20448 -9.8863,10.01812 -12.7676,16.45745 -5.7832,12.92489 8.3334,-4.21489 21.431,4.96737 22.0198,15.43727 0.1007,1.79221 -7.2614,6.06402 -7.825,4.54037 -0.7537,-2.03735 -3.6007,-2.69498 -9.1542,-2.11452 -4.567,0.47735 -11.0824,-1.93072 -12.0506,-4.45388 -0.8806,-2.29462 -3.5319,-0.96354 -7.2612,3.64544 -3.9042,4.82525 -4.4887,5.95203 -3.0873,5.95203 0.425,0 0.7727,0.34772 0.7727,0.77272 0,0.425 -0.489,0.77272 -1.0867,0.77272 -0.6847,0 -0.9457,0.53956 -0.7054,1.45824 0.2097,0.80203 0.01,1.68746 -0.4429,1.96763 -0.5722,0.35366 -0.5337,0.98403 0.1259,2.06188 0.8024,1.31124 0.7255,1.67994 -0.4949,2.37263 -1.7807,1.01069 -0.1481,2.40499 2.0245,1.72894 1.9476,-0.60605 1.7246,1.59921 -0.2509,2.48068 -1.4747,0.65803 -1.3049,0.91035 2.1196,3.15001 3.9089,2.55651 5.0694,2.7259 3.2641,0.47649 -0.7643,-0.95233 -0.3699,-0.84581 1.3614,0.36769 3.0095,2.10939 4.8976,2.23932 4.391,0.30219 -0.2022,-0.77344 0.1736,-1.85551 0.8352,-2.40462 1.2982,-1.07737 3.9285,-0.53239 3.1909,0.66112 -0.2464,0.39863 -0.1048,0.93689 0.3147,1.19612 1.0267,0.63454 5.1433,-1.55641 5.7128,-3.04049 0.7552,-1.968 2.5985,-1.34606 4.3342,1.46237 0.9995,1.61722 3.1913,3.42416 5.6238,4.63633 4.405,2.19514 7.3391,2.74898 4.8253,0.91084 -1.2497,-0.91376 -1.3157,-1.26232 -0.4394,-2.31817 1.5437,-1.86009 4.2177,-1.6424 3.7093,0.30197 -0.5335,2.04012 0.4188,2.53429 2.2348,1.15968 2.1518,-1.62881 2.6252,-1.41977 2.6252,1.15926 0,1.27499 0.087,2.3234 0.1932,2.3298 0.1062,0.006 1.5841,0.51273 3.284,1.12517 l 3.0909,1.11353 -3.4772,0.0663 -3.4773,0.0663 2.7046,1.49057 2.7045,1.49057 -2.5433,-0.46685 c -1.6618,-0.30505 -3.6033,0.0112 -5.6022,0.91257 -3.825,1.72482 -4.0025,2.83507 -0.2702,1.68958 2.5002,-0.76733 3.2199,-0.62272 6.9545,1.39749 4.3602,2.35863 5.2055,3.46669 2.6445,3.46669 -1.1137,0 -1.3863,0.35156 -1.0175,1.31249 0.4129,1.07599 0.074,1.00637 -1.8822,-0.38637 -2.7658,-1.96941 -5.2192,-2.11915 -7.9426,-0.48476 -1.8449,1.10715 -1.7567,1.13845 1.9601,0.69551 3.3457,-0.39873 4.1033,-0.23023 5.3983,1.2007 l 1.5064,1.66452 -2.8999,-0.54401 c -2.9646,-0.55617 -7.5104,0.70263 -7.5104,2.07974 0,0.39269 1.1301,0.50684 2.5114,0.25366 2.9759,-0.54549 8.386,0.45582 8.3857,1.55206 -10e-5,0.42353 -1.3739,1.0444 -3.0529,1.37972 l -3.0527,0.60968 0.421,3.25394 0.421,3.25393 -1.5691,-1.90674 c -1.3026,-1.58286 -1.7683,-1.74145 -2.7416,-0.93365 -0.9079,0.75347 -1.243,0.76173 -1.4847,0.0366 -0.2011,-0.60347 -2.3576,-0.98761 -6.0637,-1.08018 -3.1634,-0.079 -8.9409,-0.91173 -12.839,-1.85049 -3.8981,-0.93876 -8.4185,-1.5973 -10.0454,-1.46342 l -2.958,0.24342 3.4773,1.89371 c 2.4307,1.32377 4.7365,1.90518 7.6614,1.93181 2.8063,0.0256 4.2997,0.38302 4.5348,1.0855 0.2683,0.8018 -0.2144,0.92334 -2.0585,0.51831 -3.1896,-0.70056 -2.5727,1.33676 0.8318,2.74696 2.9701,1.23027 1.0335,3.22653 -2.4536,2.52911 -1.4941,-0.29882 -2.2493,-0.0639 -2.582,0.80321 -0.3398,0.88531 0.1121,1.34862 1.6274,1.66883 1.1537,0.2438 3.3718,0.9031 4.9291,1.46511 1.807,0.65213 3.0995,0.75371 3.5725,0.28075 0.4729,-0.47296 0.9139,-0.0525 1.2187,1.16207 0.6087,2.4254 2.8092,3.4254 2.8092,1.27664 0,-0.83666 0.3849,-1.5212 0.8554,-1.5212 0.4704,0 0.6486,-0.53867 0.396,-1.19705 -0.3867,-1.00772 -0.089,-0.97832 1.8818,0.18591 1.929,1.13945 2.4556,1.19784 2.9909,0.33162 0.5369,-0.86864 0.7662,-0.84641 1.3196,0.12792 0.3684,0.6486 1.8869,1.36552 3.3744,1.59317 l 2.7045,0.41391 -2.8977,-2.66994 c -3.4252,-3.15596 -3.5002,-3.42187 -0.9659,-3.42187 1.0625,0 1.9318,0.34772 1.9318,0.77272 0,0.425 0.3854,0.77272 0.8565,0.77272 0.5212,0 0.672,-0.73519 0.3852,-1.8779 -0.5457,-2.17416 1.7103,-2.98019 4.7502,-1.69715 2.2991,0.97038 3.3009,-0.11594 1.3932,-1.51082 -1.4614,-1.06863 -1.4565,-1.09591 0.1944,-1.09591 1.888,0 2.1603,-0.76926 0.7659,-2.16362 -1.8817,-1.88169 2.4858,-3.55532 6.3279,-2.42489 0.8578,0.2524 1.0895,-0.20214 0.9106,-1.78645 -0.1715,-1.51856 0.1065,-2.12499 0.9743,-2.12499 0.668,0 1.2144,-0.51067 1.2144,-1.13483 0,-0.69687 0.4524,-0.96125 1.1721,-0.68506 0.711,0.27285 1.7829,-0.32667 2.7247,-1.52402 0.8539,-1.08559 2.239,-2.19164 3.0779,-2.4579 0.8389,-0.26626 1.5253,-0.90729 1.5253,-1.42452 0,-0.51722 1.0432,-1.55662 2.3181,-2.30978 3.0024,-1.77353 2.9264,-2.54136 -0.3117,-3.14883 -2.6261,-0.49266 -4.5733,-2.76951 -2.3685,-2.76951 0.6241,0 1.1348,-0.34772 1.1348,-0.77272 0,-0.425 0.3368,-0.77272 0.7485,-0.77272 0.4116,0 0.5483,0.52158 0.3037,1.15908 -0.5324,1.38728 1.3193,1.56942 2.63,0.25871 0.6853,-0.68536 0.5941,-1.12433 -0.3821,-1.83813 -1.1853,-0.86674 -1.1687,-1.09886 0.2201,-3.06544 2.9664,-4.20068 3.4114,-5.4618 3.4057,-9.65051 0,-3.03747 -0.4369,-4.80111 -1.5168,-6.18178 -2.0159,-2.5771 -1.9382,-3.17486 0.7151,-5.5031 6.43,-5.64225 2.1908,-19.84599 -7.3732,-24.70411 -2.1686,-1.10156 -5.1219,-2.88607 -6.5628,-3.96557 -1.441,-1.0795 -3.719,-2.51824 -5.0623,-3.1972 -2.1202,-1.07166 -2.7517,-2.17924 -4.7876,-8.39799 -4.6431,-14.18227 -4.6597,-16.17862 -0.1538,-18.45405 5.4892,-2.77194 7.656,-3.73782 11.1354,-4.96375 4.0201,-1.41643 9.2709,-5.47473 8.5638,-6.61889 -0.6348,-1.02711 -5.2895,-0.84363 -6.3848,0.25168 -0.7469,0.74693 -1.2662,0.74693 -2.4622,0 -3.5263,-2.20221 -14.9533,-1.2159 -16.5136,1.42535 z m -21.8372,68.91175 c 2.0888,3.34738 2.2536,9.85222 0.2496,9.85222 -1.5756,0 -3.617,-6.09427 -3.617,-10.79781 0,-1.45362 2.2677,-0.81685 3.3674,0.94559 z m 34.496,14.48855 c 1.0303,0.66583 1.0303,0.74906 0,0.74906 -0.6375,0 -1.6807,-0.33708 -2.3182,-0.74906 -1.0303,-0.66583 -1.0303,-0.74905 0,-0.74905 0.6375,0 1.6807,0.33707 2.3182,0.74905 z m 1.7264,8.53104 2.5236,2.34925 -3.0708,-2.00714 c -3.7305,-2.4384 -3.9999,-2.69137 -2.8656,-2.69137 0.4891,0 2.0249,1.05717 3.4128,2.34926 z m -3.614,3.38298 c 0.8244,0.60275 1.2878,1.3069 1.0299,1.56477 -0.2578,0.25787 -1.3005,-0.22371 -2.3169,-1.0702 -2.0993,-1.74826 -1.0034,-2.16939 1.287,-0.49457 z m -20.4975,24.44854 c 0.8059,1.50581 0.7005,1.56181 -1.989,1.05725 -2.7212,-0.5105 -2.8167,-0.45582 -2.2824,1.30767 0.4321,1.42631 0.3469,1.64061 -0.3787,0.95234 -1.2063,-1.14419 -0.3292,-3.93213 1.3785,-4.38164 2.2799,-0.60012 2.402,-0.56037 3.2716,1.06438 z m -10.8639,-67.03267 c 1.9005,0.93116 3.3856,2.04074 3.3002,2.46574 -0.2733,1.36115 -5.7826,1.40708 -6.5395,0.0545 -0.7211,-1.28842 -2.9206,-1.68492 -2.9206,-0.52648 0,3.04222 9.1057,6.44785 12.4659,4.66239 1.6731,-0.88904 2.4644,-3.09185 1.4685,-4.08782 -0.439,-0.43893 -0.7981,-1.3834 -0.7981,-2.09883 0,-1.5473 -2.2093,-2.24543 -6.9545,-2.19758 l -3.4772,0.0351 z m -26.8166,32.45077 c 0.1692,0.50813 0.9497,1.04831 1.7344,1.20039 0.7847,0.15209 1.9109,0.76061 2.5025,1.35227 1.2572,1.2572 2.2366,1.37194 2.8762,0.33697 0.5864,-0.94888 -2.4351,-2.92139 -5.2453,-3.42424 -1.476,-0.26412 -2.0765,-0.0923 -1.8678,0.53461 z m 1.0161,5.8433 c -0.4461,0.72188 2.4192,3.67326 3.0012,3.09128 0.193,-0.19303 0.1503,-1.11817 -0.095,-2.05585 -0.4453,-1.70283 -2.1241,-2.30096 -2.9063,-1.03543 z m 5.9354,1.43048 c 1.1746,0.17762 2.9132,0.17287 3.8636,-0.0106 0.9504,-0.18341 -0.011,-0.32873 -2.1356,-0.32293 -2.125,0.006 -2.9026,0.15587 -1.728,0.33348 z m -3.2947,5.24093 c 0.5291,0.6375 1.7018,1.14803 2.606,1.13451 1.6118,-0.0241 1.6146,-0.0468 0.144,-1.15908 -2.0826,-1.57522 -4.063,-1.55752 -2.75,0.0246 z m 7.0189,-0.88372 c 0.1771,0.15146 1.539,0.4987 3.0265,0.77165 1.9028,0.34915 2.3609,0.27103 1.5455,-0.26354 -1.0476,-0.68668 -5.3383,-1.16354 -4.572,-0.50811 z m -0.982,3.34338 c 0.5578,0.22322 1.2243,0.19577 1.4811,-0.061 0.2567,-0.25677 -0.1996,-0.4394 -1.0142,-0.40585 -0.9002,0.0371 -1.0833,0.22018 -0.4669,0.46685 z m 31.8265,0.63123 -2.7045,1.04151 2.3182,0.0482 c 2.9897,0.0622 5.7954,-0.69603 5.7954,-1.56623 0,-0.95011 -2.2101,-0.75542 -5.4091,0.47648 z m -34.7725,2.19815 c 0,0.23863 1.304,1.03025 2.8977,1.75915 1.5938,0.7289 3.2455,1.48852 3.6705,1.68804 0.425,0.19952 0.077,-0.35861 -0.7728,-1.2403 -1.4496,-1.50374 -5.7954,-3.15859 -5.7954,-2.20689 z m 26.2726,2.35551 c 0,0.16703 0.5396,0.51077 1.1992,0.76388 0.6877,0.26388 0.9978,0.13433 0.7271,-0.30369 -0.4538,-0.73425 -1.9263,-1.08602 -1.9263,-0.46019 z m -16.6135,15.15077 c 0.2626,0.42499 0.9581,0.77272 1.5454,0.77272 0.5873,0 1.2828,-0.34773 1.5454,-0.77272 0.272,-0.43999 -0.3935,-0.77273 -1.5454,-0.77273 -1.1519,0 -1.8174,0.33274 -1.5454,0.77273 z"
           id="path10" /></g><g
         id="g16"
         transform="matrix(3.8723826,0,0,3.8723826,-3436.7374,-721.00386)"
         style="fill:#000000"><path
           style="fill:#000000;fill-opacity:1"
           d="m 1111.7849,257.52398 c 0.1198,0.0483 0.3157,0.0483 0.4355,0 0.1197,-0.0483 0.022,-0.0879 -0.2177,-0.0879 -0.2395,0 -0.3375,0.0395 -0.2178,0.0879 z m 3.4946,0.004 c 0.1258,0.0503 0.276,0.0441 0.3339,-0.0138 0.058,-0.0579 -0.045,-0.099 -0.2286,-0.0915 -0.2029,0.008 -0.2442,0.0496 -0.1053,0.10523 z m 1.8439,0.12571 c -0.052,0.13459 -0.062,0.50691 -0.022,0.82739 0.065,0.52965 0.074,0.51583 0.099,-0.1519 l 0.028,-0.73459 1.9596,-0.0556 1.9596,-0.0556 -1.9651,-0.0372 c -1.5523,-0.0294 -1.9848,0.0142 -2.059,0.20746 z m -10.3188,2.01973 c 0,0.23951 0.04,0.33749 0.088,0.21774 0.048,-0.11976 0.048,-0.31572 0,-0.43547 -0.048,-0.11975 -0.088,-0.0218 -0.088,0.21773 z m 7.6771,0.52256 c 0,0.33531 0.036,0.47249 0.08,0.30483 0.044,-0.16765 0.044,-0.442 0,-0.60965 -0.044,-0.16766 -0.08,-0.0305 -0.08,0.30482 z m -2.5117,6.91228 c 0.1257,0.0503 0.276,0.0441 0.3339,-0.0138 0.058,-0.0579 -0.045,-0.0991 -0.2287,-0.0915 -0.2029,0.008 -0.2442,0.0496 -0.1052,0.10524 z m -6.63,0.69312 c 0.1198,0.0483 0.3157,0.0483 0.4355,0 0.1197,-0.0483 0.022,-0.0879 -0.2178,-0.0879 -0.2395,0 -0.3374,0.0395 -0.2177,0.0879 z m -0.3375,1.74549 c 0.1258,0.0503 0.276,0.0441 0.3339,-0.0138 0.058,-0.0579 -0.045,-0.099 -0.2286,-0.0915 -0.203,0.008 -0.2442,0.0496 -0.1053,0.10524 z m 14.7649,0.0334 c -0.052,0.0838 0.1087,0.15241 0.3567,0.15241 0.3187,0 0.3816,-0.0439 0.2146,-0.14975 -0.303,-0.19199 -0.4538,-0.19269 -0.5713,-0.003 z m -13.8939,0.66332 c 0.1257,0.0503 0.2759,0.0441 0.3338,-0.0138 0.058,-0.0579 -0.045,-0.099 -0.2286,-0.0915 -0.2029,0.008 -0.2442,0.0496 -0.1052,0.10524 z m 0.8709,0 c 0.1257,0.0503 0.276,0.0441 0.3339,-0.0138 0.058,-0.0579 -0.045,-0.099 -0.2287,-0.0915 -0.2029,0.008 -0.2442,0.0496 -0.1052,0.10524 z m 0.4279,11.32386 c 0.1695,0.0442 0.4046,0.0413 0.5226,-0.006 0.1179,-0.0477 -0.021,-0.0838 -0.3082,-0.0803 -0.2874,0.004 -0.3839,0.0426 -0.2144,0.0867 z"
           id="path23" /><path
           style="fill:#000000;fill-opacity:1"
           d="m 1107.6258,258.236 c -0.2167,0.27627 -0.2105,0.28243 0.066,0.0658 0.1677,-0.13149 0.3049,-0.26866 0.3049,-0.30483 0,-0.14336 -0.1431,-0.0511 -0.3706,0.23906 z m -1.2407,11.32047 c 0.5988,0.034 1.5786,0.034 2.1774,0 0.5987,-0.034 0.1088,-0.0618 -1.0887,-0.0618 -1.1975,0 -1.6874,0.0278 -1.0887,0.0618 z m 7.4901,2.07663 c 0.1197,0.0483 0.3157,0.0483 0.4354,0 0.1198,-0.0483 0.022,-0.0879 -0.2177,-0.0879 -0.2395,0 -0.3375,0.0395 -0.2177,0.0879 z m -4.0268,9.95015 c -0.047,0.0753 0.061,0.13686 0.2382,0.13686 0.1775,0 0.2847,-0.0616 0.2382,-0.13686 -0.047,-0.0753 -0.1537,-0.13686 -0.2382,-0.13686 -0.085,0 -0.1917,0.0616 -0.2382,0.13686 z"
           id="path22" /><path
           style="fill:#000000;fill-opacity:1"
           d="m 1102.2482,258.46402 c 0,0.19726 0.075,0.31232 0.1666,0.2557 0.092,-0.0566 0.1224,-0.21802 0.068,-0.35866 -0.1381,-0.36006 -0.235,-0.31763 -0.235,0.10296 z m 4.322,8.99223 c 0.1257,0.0503 0.276,0.0441 0.3339,-0.0138 0.058,-0.0579 -0.045,-0.099 -0.2287,-0.0915 -0.2029,0.008 -0.2441,0.0496 -0.1052,0.10524 z m 3.8271,2.09987 c 0.5061,0.0353 1.29,0.0349 1.7418,-8.2e-4 0.4519,-0.0358 0.038,-0.0646 -0.9203,-0.0642 -0.958,4.5e-4 -1.3277,0.0297 -0.8215,0.065 z m -11.4913,1.03549 c 0.1257,0.0503 0.276,0.0441 0.3338,-0.0138 0.058,-0.0579 -0.045,-0.099 -0.2286,-0.0915 -0.2029,0.008 -0.2442,0.0496 -0.1052,0.10523 z m 10.3436,19.99959 c 0,0.2874 0.043,0.38389 0.087,0.21441 0.044,-0.16947 0.041,-0.40463 -0.01,-0.52256 -0.048,-0.11793 -0.084,0.0207 -0.08,0.30815 z m -15.1407,0.95802 c 0,0.43112 0.034,0.60748 0.075,0.39192 0.042,-0.21555 0.042,-0.56828 0,-0.78384 -0.041,-0.21555 -0.075,-0.0392 -0.075,0.39192 z"
           id="path21" /><path
           style="fill:#000000;fill-opacity:1"
           d="m 1102.7708,258.26927 c 0,0.0901 0.077,0.2118 0.1722,0.27033 0.099,0.061 0.1279,-0.009 0.068,-0.16391 -0.1158,-0.30176 -0.2406,-0.35698 -0.2406,-0.10642 z m 2.2317,8.83861 c 0.1258,0.0503 0.276,0.0441 0.3339,-0.0138 0.058,-0.0579 -0.045,-0.0991 -0.2286,-0.0915 -0.203,0.008 -0.2442,0.0496 -0.1053,0.10524 z m 1.9487,0.29616 c 0,0.0367 0.1569,0.1078 0.3487,0.15794 0.1917,0.0501 0.3046,0.0201 0.251,-0.0668 -0.094,-0.1517 -0.5997,-0.22861 -0.5997,-0.0912 z m 6.4014,2.14947 c 0.3114,0.0386 0.8209,0.0386 1.1322,0 0.3114,-0.0386 0.057,-0.0703 -0.5661,-0.0703 -0.6227,0 -0.8775,0.0316 -0.5661,0.0703 z m -7.49,10.26637 c 0.1197,0.0483 0.3157,0.0483 0.4354,0 0.1198,-0.0483 0.022,-0.0879 -0.2177,-0.0879 -0.2395,0 -0.3375,0.0395 -0.2177,0.0879 z m 5.576,1.40133 c 0.2167,0.0417 0.5302,0.0401 0.6967,-0.004 0.1666,-0.0436 -0.011,-0.0777 -0.3939,-0.0758 -0.3832,0.002 -0.5195,0.0376 -0.3028,0.0793 z m 0.716,1.9235 c -0.2166,0.27627 -0.2105,0.28243 0.066,0.0658 0.2901,-0.22756 0.3824,-0.3706 0.2391,-0.3706 -0.036,0 -0.1734,0.13718 -0.3049,0.30483 z m -4.3462,2.43877 c 0.083,0.60115 0.095,0.6133 0.1528,0.15281 0.034,-0.27512 -0.01,-0.56899 -0.09,-0.65304 -0.088,-0.0876 -0.1142,0.12578 -0.062,0.50023 z"
           id="path20" /><path
           style="fill:#000000;fill-opacity:1"
           d="m 1106.0368,264.83982 c 0.1197,0.0483 0.3157,0.0483 0.4354,0 0.1198,-0.0483 0.022,-0.0879 -0.2177,-0.0879 -0.2395,0 -0.3375,0.0395 -0.2177,0.0879 z m 1.3679,2.6426 c -0.049,0.0798 0.024,0.14515 0.1639,0.14515 0.1394,0 0.2536,-0.0653 0.2536,-0.14515 0,-0.0798 -0.074,-0.14516 -0.1639,-0.14516 -0.09,0 -0.2043,0.0653 -0.2536,0.14516 z m 7.7007,2.06407 c 0.1257,0.0503 0.2759,0.0441 0.3338,-0.0138 0.058,-0.0579 -0.045,-0.099 -0.2286,-0.0915 -0.2029,0.008 -0.2442,0.0496 -0.1052,0.10524 z m -21.044,11.61729 c 0,0.0362 0.1372,0.17335 0.3048,0.30483 0.2763,0.21666 0.2825,0.2105 0.066,-0.0658 -0.2275,-0.29015 -0.3706,-0.38242 -0.3706,-0.23906 z m 16.6893,0.0532 c 0.1257,0.0503 0.276,0.0441 0.3338,-0.0138 0.058,-0.0579 -0.045,-0.099 -0.2286,-0.0915 -0.2029,0.008 -0.2442,0.0496 -0.1052,0.10524 z m 1.731,-0.004 c 0.1197,0.0483 0.3157,0.0483 0.4354,0 0.1198,-0.0483 0.022,-0.0879 -0.2177,-0.0879 -0.2395,0 -0.3375,0.0395 -0.2177,0.0879 z m -4.9941,10.61164 c 0.01,0.20292 0.05,0.24419 0.1052,0.10524 0.05,-0.12574 0.044,-0.27598 -0.014,-0.33386 -0.058,-0.0579 -0.099,0.045 -0.091,0.22862 z m -11.0311,0.72532 c 1.2694,0.0298 3.3466,0.0298 4.6159,0 1.2694,-0.0298 0.2308,-0.0541 -2.3079,-0.0541 -2.5388,0 -3.5774,0.0243 -2.308,0.0541 z m 7.5009,-0.0112 c 0.1257,0.0503 0.276,0.0441 0.3339,-0.0138 0.058,-0.0579 -0.045,-0.099 -0.2287,-0.0915 -0.2029,0.008 -0.2441,0.0496 -0.1052,0.10524 z m 1.9052,-0.004 c 0.1197,0.0483 0.3157,0.0483 0.4354,0 0.1198,-0.0483 0.022,-0.0879 -0.2177,-0.0879 -0.2395,0 -0.3375,0.0395 -0.2177,0.0879 z m 5.9998,0.0145 c 1.0245,0.0307 2.749,0.0308 3.8321,2.4e-4 1.0831,-0.0306 0.2448,-0.0558 -1.8629,-0.0559 -2.1076,-1.4e-4 -2.9938,0.0249 -1.9692,0.0557 z m 7.8513,-0.009 c 0.1695,0.0442 0.4047,0.0413 0.5226,-0.006 0.1179,-0.0477 -0.021,-0.0838 -0.3081,-0.0803 -0.2875,0.004 -0.3839,0.0426 -0.2145,0.0867 z m 1.7419,0 c 0.1695,0.0442 0.4046,0.0413 0.5226,-0.006 0.1179,-0.0477 -0.021,-0.0838 -0.3082,-0.0803 -0.2874,0.004 -0.3839,0.0426 -0.2144,0.0867 z m 1.5696,0.008 c 0.458,0.036 1.1634,0.0356 1.5677,-9.7e-4 0.4043,-0.0365 0.03,-0.066 -0.8326,-0.0654 -0.8623,5.3e-4 -1.193,0.0304 -0.7351,0.0664 z"
           id="path19" /><path
           style="fill:#000000;fill-opacity:1"
           d="m 1110.6797,258.84566 -0.3318,0.39192 0.3919,-0.33183 c 0.2156,-0.1825 0.3919,-0.35886 0.3919,-0.39192 0,-0.13939 -0.1402,-0.0365 -0.452,0.33183 z m -1.6245,2.1483 c 0.01,0.20292 0.05,0.24419 0.1053,0.10524 0.05,-0.12574 0.044,-0.27598 -0.014,-0.33386 -0.058,-0.0579 -0.099,0.045 -0.091,0.22862 z m -3.5301,3.84949 c 0.1257,0.0503 0.276,0.0441 0.3338,-0.0138 0.058,-0.0579 -0.045,-0.099 -0.2286,-0.0915 -0.2029,0.008 -0.2442,0.0496 -0.1052,0.10524 z m 2.2971,2.63302 c 0,0.0766 0.2743,0.10718 0.6096,0.068 0.3353,-0.0392 0.6097,-0.10179 0.6097,-0.13921 0,-0.0374 -0.2744,-0.068 -0.6097,-0.068 -0.3353,0 -0.6096,0.0626 -0.6096,0.13921 z m -3.745,0.20917 c 0.059,0.0958 0.1422,0.17418 0.1844,0.17418 0.042,0 0.077,-0.0784 0.077,-0.17418 0,-0.0958 -0.083,-0.17419 -0.1844,-0.17419 -0.1015,0 -0.136,0.0784 -0.077,0.17419 z m 4.5832,2.5576 c 0.1258,0.0503 0.276,0.0441 0.3339,-0.0138 0.058,-0.0579 -0.045,-0.099 -0.2286,-0.0915 -0.2029,0.008 -0.2442,0.0496 -0.1053,0.10524 z m 1.7331,0.004 c 0.2166,0.0417 0.5302,0.0401 0.6967,-0.004 0.1665,-0.0436 -0.011,-0.0777 -0.3939,-0.0757 -0.3833,0.002 -0.5195,0.0376 -0.3028,0.0793 z m -2.9524,7.31163 c 0.1258,0.0503 0.276,0.0441 0.3339,-0.0138 0.058,-0.0579 -0.045,-0.099 -0.2286,-0.0915 -0.2029,0.008 -0.2442,0.0496 -0.1053,0.10523 z m 2.787,3.65793 c 0.1258,0.0503 0.276,0.0441 0.3339,-0.0138 0.058,-0.0579 -0.045,-0.099 -0.2286,-0.0915 -0.2029,0.008 -0.2442,0.0496 -0.1053,0.10524 z m 2.9612,0 c 0.1257,0.0503 0.276,0.0441 0.3339,-0.0138 0.058,-0.0579 -0.045,-0.099 -0.2287,-0.0915 -0.2029,0.008 -0.2441,0.0496 -0.1052,0.10524 z m -1.0451,1.04512 c 0.1257,0.0503 0.276,0.0441 0.3338,-0.0138 0.058,-0.0579 -0.045,-0.099 -0.2286,-0.0915 -0.2029,0.008 -0.2442,0.0496 -0.1052,0.10524 z m -9.5201,0.57775 c 0,0.23951 0.04,0.33749 0.088,0.21774 0.048,-0.11976 0.048,-0.31572 0,-0.43547 -0.048,-0.11975 -0.088,-0.0218 -0.088,0.21773 z"
           id="path18" /><path
           style="fill:#000000;fill-opacity:1"
           d="m 1101.2715,257.85833 c 0.058,0.15154 0.1156,0.71982 0.1276,1.26285 l 0.022,0.98733 0.1394,-0.78384 c 0.2287,-1.28531 0.1987,-1.74187 -0.1146,-1.74187 -0.1837,0 -0.2435,0.0947 -0.1742,0.27553 z m 1.1646,2.7e-4 c 0.01,0.20292 0.05,0.24419 0.1053,0.10524 0.05,-0.12575 0.044,-0.27598 -0.014,-0.33386 -0.058,-0.0579 -0.099,0.045 -0.091,0.22862 z m 0.6849,-0.0167 c -0.2375,0.28615 -0.085,0.9456 0.1585,0.68455 0.2398,-0.25732 0.4006,-0.94361 0.2211,-0.94361 -0.091,0 -0.2614,0.11658 -0.3796,0.25906 z m 0.8691,0.75703 c 0,0.60618 0.077,1.07415 0.1757,1.07415 0.1108,0 0.134,-0.36964 0.063,-1.00157 -0.1517,-1.34671 -0.2386,-1.37315 -0.2386,-0.0726 z m 0.6436,-0.65776 c -0.077,0.29402 -0.049,0.32145 0.1539,0.15286 0.2771,-0.22998 0.3287,-0.51119 0.094,-0.51119 -0.085,0 -0.196,0.16125 -0.2476,0.35833 z m 1.8152,-0.0617 c -0.056,1.05918 -0.717,1.66912 -0.717,0.6614 0,-0.72897 -0.1481,-0.76025 -0.5929,-0.12517 -0.1824,0.26045 -0.2255,0.37556 -0.096,0.25581 0.3538,-0.32662 0.5145,-0.26462 0.5145,0.19844 0,0.77959 -1.7824,2.16447 -2.1136,1.64218 -0.1047,-0.16513 -0.1462,-0.12716 -0.1481,0.13553 0,0.49299 -0.5682,1.00301 -0.8255,0.7457 -0.1386,-0.13856 -0.2604,-0.0587 -0.4435,0.29078 l -0.2524,0.48179 -0.1204,-0.64161 c -0.1224,-0.6526 -0.4511,-0.72033 -0.4511,-0.093 0,0.18932 -0.1091,0.51783 -0.2424,0.73001 -0.1333,0.21219 -0.2978,0.77772 -0.3656,1.25673 -0.1379,0.97514 -0.3109,1.37799 -0.8508,1.98124 -0.3587,0.40074 -0.3594,0.41035 -0.022,0.31021 0.6836,-0.20278 3.4532,-0.63668 4.0639,-0.63668 1.4515,0 -0.4256,0.59555 -2.4091,0.76436 -0.2395,0.0204 -0.6562,0.13109 -0.9259,0.24601 -0.2696,0.11492 -0.7153,0.20894 -0.9902,0.20894 -0.9004,0 -1.3485,0.29529 -1.7939,1.18206 l -0.4284,0.85297 1.8514,-0.49368 c 2.773,-0.73936 12.8623,-1.19286 14.9155,-0.67042 0.3204,0.0815 -0.4881,0.14483 -2.0902,0.16362 -2.1092,0.0247 -4.6766,0.25371 -3.8003,0.33891 0.1133,0.011 0.2557,0.1768 0.3165,0.36841 0.134,0.42221 0.9581,0.49341 0.9581,0.0828 0,-0.14607 0.201,-0.34203 0.4468,-0.43547 0.9594,-0.36479 2.8228,-0.0742 2.6365,0.41116 -0.048,0.12529 0.056,0.31763 0.2322,0.42741 0.2712,0.16937 0.3279,0.14109 0.3745,-0.18668 0.098,-0.6914 0.6741,-0.50247 1.1321,0.37144 0.017,0.0335 0.1337,-0.002 0.2582,-0.0788 0.3321,-0.20526 0.8992,-0.22369 1.1339,-0.0369 0.1127,0.0897 0.3086,0.14548 0.4355,0.12404 0.2286,-0.0386 1.0341,0.12924 1.537,0.32034 0.6995,0.26577 -1.6792,0.44513 -7.49,0.56476 -5.4088,0.11136 -6.6568,0.18715 -8.361,0.50779 -1.1017,0.20729 -2.2563,0.42382 -2.5658,0.48116 -0.3779,0.07 -0.7075,0.009 -1.0033,-0.18439 -0.3103,-0.20331 -0.4272,-0.22277 -0.3953,-0.0658 0.029,0.14318 -0.1493,0.22274 -0.4988,0.2225 -1.1198,-7.5e-4 -0.3301,0.56131 1.3658,0.97207 0.844,0.20442 0.9004,0.27528 1.0974,1.37982 0.1759,0.98637 0.9705,1.56115 3.247,2.34873 1.8035,0.62395 1.986,2.33664 0.4103,3.85149 -1.0131,0.97398 -1.1595,1.19161 -1.077,1.60046 0.053,0.26025 0.1804,0.87494 0.2841,1.36596 0.3387,1.60314 0.1885,1.74272 -2.0276,1.88387 -2.6013,0.16568 -2.4924,0.10987 -2.5069,1.28494 -0.02,1.60026 -0.1919,1.78135 -0.6756,0.71107 -3.0781,-6.81092 -7.1315,-7.54536 -8.1635,-1.47916 -0.2821,1.6586 -0.1711,2.79076 0.1768,1.80147 0.2034,-0.57865 0.4851,-0.62823 0.4947,-0.0871 0.01,0.36942 0.022,0.36443 0.2669,-0.0871 0.1429,-0.26346 0.3357,-0.47902 0.4284,-0.47902 0.2213,0 0.2152,0.45844 -0.012,0.88239 -0.1942,0.36279 0.2229,0.5165 0.4416,0.16273 0.3495,-0.56566 1.3049,0.14364 1.3087,0.97175 0,0.88255 0.1773,1.21639 0.8065,1.55527 0.7958,0.42853 1.1072,1.06269 1.1072,2.25447 v 0.96668 h 4.5475 c 3.8723,0 4.5333,-0.037 4.4519,-0.24916 -0.053,-0.13703 -0.2276,-1.37158 -0.3889,-2.74344 -0.1612,-1.37186 -0.3571,-2.57509 -0.4352,-2.67385 -0.1858,-0.23498 -0.2587,-1.87576 -0.095,-2.14054 0.6053,-0.97948 2.0038,0.0967 3.2754,2.52061 l 0.5621,1.07145 -0.2124,1.71554 c -0.2877,2.32375 -0.2787,2.49939 0.1286,2.49939 0.2657,0 0.3589,-0.158 0.4368,-0.7403 0.6817,-5.09231 1.0131,-6.74973 1.3497,-6.74973 0.1328,0 0.1579,0.44088 0.082,1.43704 -0.2872,3.74563 -0.3414,6.05299 -0.1423,6.05299 0.1106,0 0.2011,-0.067 0.2011,-0.14879 0,-0.0818 0.1564,-1.16966 0.3477,-2.4174 0.1912,-1.24774 0.4149,-3.06361 0.4971,-4.03526 0.1633,-1.93214 0.2261,-2.0995 0.6541,-1.74431 0.2985,0.24772 0.292,1.1171 -0.041,5.5039 -0.2179,2.87222 -0.264,2.84186 4.3141,2.84186 h 3.6572 l -0.1152,-0.39192 c -0.4417,-1.50296 -3.0258,-4.93921 -5.3684,-7.13874 -1.0499,-0.9858 -0.9564,-1.17174 0.5911,-1.17601 1.3624,-0.004 3.3607,2.31355 5.9685,6.92125 0.928,1.63962 1.8617,2.46342 1.8617,1.6425 0,-0.57484 -3.089,-5.46793 -4.5626,-7.22735 -1.0225,-1.22088 -1.1043,-1.73312 -0.1659,-1.03932 0.6427,0.47517 1.6974,2.02376 3.6873,5.41401 1.4731,2.50979 1.7715,2.91629 2.177,2.96543 0.2584,0.0313 0.4417,-0.008 0.4073,-0.0871 -0.2007,-0.46244 -1.6719,-3.06632 -3.0671,-5.4287 -1.7148,-2.90336 -1.7536,-2.98921 -1.3512,-2.98921 0.4893,0 2.8914,3.78978 3.6782,5.80291 0.2316,0.59261 0.53,1.31262 0.6631,1.60002 0.1332,0.28741 0.2864,0.65974 0.3406,0.82739 0.084,0.26012 0.326,0.30483 1.6498,0.30483 h 1.5514 l 0.1089,-0.54434 c 0.3232,-1.61599 -0.3652,-3.49324 -1.6743,-4.56597 -0.7664,-0.62798 -0.7918,-0.68026 -0.8614,-1.77418 -0.084,-1.31789 -0.1975,-1.47029 -1.1954,-1.60413 -0.6507,-0.0873 -0.7323,-0.0624 -0.6341,0.19353 0.3541,0.92271 1.3437,5.45093 1.3317,6.09338 -0.011,0.60734 -0.4699,-0.36737 -0.784,-1.66663 -0.1458,-0.60279 -0.5164,-1.89942 -0.8235,-2.8814 l -0.5585,-1.78541 -0.8731,-0.003 c -1.363,-0.004 -1.6337,-0.78233 -1.0457,-3.00647 0.1148,-0.43444 0.017,-0.58626 -0.9655,-1.49831 l -1.0933,-1.01489 0.1,-0.96425 c 0.1502,-1.4552 0.486,-1.96567 1.5189,-2.30874 1.2015,-0.39907 1.0966,-0.50368 -0.392,-0.39109 -0.8902,0.0673 -1.5185,0.22993 -2.1161,0.5477 -0.4675,0.24856 -1.0029,0.45194 -1.1897,0.45194 -0.1869,0 -0.8108,0.29075 -1.3865,0.6461 -0.6889,0.42519 -1.3828,0.69515 -2.0295,0.78952 -4.0574,0.59216 -4.8646,0.51849 -5.2332,-0.4776 -0.1418,-0.38321 -0.38,-0.79449 -0.5293,-0.91397 -1.2093,-0.96762 -1.6617,-1.23943 -2.2305,-1.34025 -0.3596,-0.0637 -0.791,-0.15617 -0.9586,-0.20542 -0.3499,-0.10277 -0.4122,-0.69047 -0.087,-0.82164 0.1197,-0.0483 -0.1781,-0.094 -0.6619,-0.10161 -1.6781,-0.0262 -1.7842,-2.00438 -0.1252,-2.33329 0.2652,-0.0526 0.9134,-0.23046 1.4403,-0.39527 0.7389,-0.23112 1.7547,-0.31225 4.4417,-0.35476 4.7671,-0.0754 5.312,-0.01 6.0776,0.73395 0.4929,0.47869 0.7491,0.59375 1.3222,0.59375 0.391,0 1.1984,0.16536 1.7941,0.36746 4.6667,1.58313 5.0016,1.61973 5.005,0.54702 0,-1.08287 0.1753,-1.33892 0.8061,-1.20185 0.4427,0.0962 0.4609,0.0844 0.1646,-0.10706 -0.5065,-0.32727 -0.9733,-0.80483 -0.9733,-0.99574 0,-0.22917 0.8785,-0.43983 1.0202,-0.24463 0.062,0.0848 0.4446,0.16901 0.8511,0.18708 0.4066,0.0181 0.9139,0.15525 1.1275,0.30483 0.6099,0.42722 0.7093,0.33286 0.6207,-0.58935 -0.062,-0.6453 -0.2205,-1.01814 -0.6319,-1.48665 -0.3019,-0.34393 -0.549,-0.80491 -0.549,-1.02438 0,-0.43807 -0.4384,-0.89356 -1.4319,-1.48774 -0.8951,-0.53532 -1.0046,-1.07293 -1.0058,-4.93793 l -9e-4,-3.266 h -1.9161 -1.916 v 1.29612 c 0,0.71287 -0.079,1.34466 -0.1746,1.40398 -0.2439,0.15078 -0.5628,-0.76887 -0.4751,-1.3705 0.097,-0.66886 -0.5093,-1.3296 -1.221,-1.3296 -0.6215,0 -0.7421,0.37152 -0.7421,2.2862 0,0.70827 -0.074,1.19754 -0.1801,1.19754 -0.3683,0 -1.2304,-1.0655 -1.1267,-1.39244 0.056,-0.17606 0.02,-0.37053 -0.08,-0.43214 -0.1,-0.0616 -0.1813,-0.26049 -0.1813,-0.44193 0,-0.7919 -0.375,-1.21723 -1.0731,-1.21723 -0.4784,0 -0.6688,0.0744 -0.6688,0.26128 0,0.35556 -0.4662,0.33103 -0.6712,-0.0353 -0.1465,-0.26174 -0.202,-0.26685 -0.4725,-0.0435 -0.2354,0.19436 -0.3234,0.20255 -0.3797,0.0353 -0.13,-0.38618 -0.7409,-0.24085 -0.9152,0.21773 -0.091,0.23951 -0.2263,0.43555 -0.3005,0.43564 -0.16,2.1e-4 -1.093,1.6204 -1.093,1.89801 0,0.37192 0.3431,0.18679 0.451,-0.24341 0.1196,-0.4763 0.4199,-0.59651 0.4199,-0.16806 0,0.8856 -0.8532,1.37188 -1.2965,0.73896 -0.4917,-0.70206 -0.3461,-1.45537 0.4478,-2.31666 0.8207,-0.89038 0.718,-1.05928 -0.139,-0.22862 -0.5845,0.56658 -0.6244,0.55231 -0.8108,-0.29005 -0.07,-0.31796 -0.079,-0.31487 -0.097,0.0353 z m 5.5538,0.77832 c 0,0.4177 -0.117,0.85584 -0.2752,1.03063 -0.2222,0.24553 -0.2359,0.37751 -0.071,0.68562 0.1575,0.29427 0.1557,0.4271 -0.01,0.5806 -0.1595,0.14971 -0.2318,0.14507 -0.2919,-0.0187 -0.044,-0.11976 -0.3057,-0.21774 -0.5817,-0.21774 -0.4725,0 -0.8626,-0.38495 -0.8626,-0.85118 0,-0.22432 1.7014,-1.9358 1.9244,-1.9358 0.091,0 0.1659,0.32696 0.1659,0.72657 z m -6.6191,1.96719 c 0,0.22294 -0.4928,0.61578 -0.7724,0.61578 -0.2303,0 -0.073,-0.52005 0.2063,-0.68279 0.4236,-0.24673 0.5661,-0.22987 0.5661,0.067 z m 1.0372,1.05996 c 0.011,0.5046 -0.3219,0.77513 -0.9542,0.77513 h -0.5439 l 0.5224,-1.08853 0.5224,-1.08854 0.2228,0.52243 c 0.1224,0.28734 0.2262,0.68312 0.2305,0.87951 z m 2.6798,-1.01028 c 0.3238,1.19405 0.329,1.17997 -0.5234,1.40795 -0.954,0.25515 -1.0448,0.20302 -0.6818,-0.39127 0.1513,-0.24781 0.3945,-0.64654 0.5404,-0.88604 0.311,-0.51036 0.5492,-0.55717 0.6648,-0.13064 z m -5.2847,0.73001 c 0,0.34174 -0.2945,0.64476 -0.463,0.47632 -0.1368,-0.13678 0.1133,-0.81441 0.3005,-0.81441 0.089,0 0.1625,0.15214 0.1625,0.33809 z m 3.266,3.4327 c 0.7779,0.0934 1.3998,0.58388 0.7403,0.58388 -0.096,0 -0.1742,-0.0764 -0.1742,-0.16988 0,-0.10589 -0.1528,-0.11179 -0.4056,-0.0157 -0.7618,0.28965 -2.6427,0.30333 -2.6427,0.0192 0,-0.4392 0.9589,-0.6005 2.4822,-0.41754 z m 11.4528,4.76436 c 0.066,0.10652 -0.2049,0.17419 -0.6968,0.17419 -0.4919,0 -0.7626,-0.0677 -0.6967,-0.17419 0.059,-0.0958 0.3727,-0.17419 0.6967,-0.17419 0.324,0 0.6376,0.0784 0.6968,0.17419 z m 2.2644,0 c 0.067,0.10788 -0.2444,0.17317 -0.8171,0.17152 -0.6613,-0.002 -0.8503,-0.0508 -0.6635,-0.17152 0.3434,-0.22189 1.3435,-0.22189 1.4806,0 z m -21.5121,1.39349 c 0,0.0958 -0.1222,0.17419 -0.2715,0.17419 -0.1494,0 -0.2232,-0.0784 -0.1639,-0.17419 0.059,-0.0958 0.1814,-0.17418 0.2715,-0.17418 0.09,0 0.1639,0.0784 0.1639,0.17418 z m 10.5481,8.95622 c 0.2302,0.16833 0.4043,0.1915 0.5473,0.0728 0.14,-0.11612 0.6909,-0.11212 1.6553,0.012 2.4563,0.31624 3.859,0.54308 3.9557,0.63973 0.4421,0.4421 -3.8894,0.73379 -6.5128,0.43858 -0.985,-0.11083 -2.1134,-0.14995 -2.5076,-0.0869 -0.4467,0.0714 -0.8071,0.0395 -0.9568,-0.0847 -0.132,-0.10962 -0.3686,-0.14999 -0.5257,-0.0897 -0.3561,0.13667 -0.8037,-0.21676 -0.8037,-0.63469 0,-0.54681 4.45,-0.7777 5.1483,-0.26713 z m -2.0105,2.14819 c 0,0.35926 0.051,0.83645 0.1114,1.06042 0.16,0.59768 -0.6428,0.45163 -0.9402,-0.17105 -0.5468,-1.14454 -0.4965,-1.54257 0.1949,-1.54257 0.6132,0 0.6315,0.019 0.6339,0.6532 z m 2.5503,-0.38441 c 0.057,0.14784 0.056,0.31578 0,0.3732 -0.124,0.12406 -0.6354,-0.26957 -0.6354,-0.48913 0,-0.26286 0.5282,-0.16668 0.6367,0.11593 z m 0.8805,0.0796 c -0.079,0.30116 0,0.34874 0.5458,0.35105 1.0212,0.004 1.1703,0.20266 0.6325,0.8418 -0.4298,0.51077 -0.5398,0.54902 -1.5787,0.54902 -1.1994,0 -1.3268,-0.10721 -0.7444,-0.6262 0.2049,-0.1825 0.4803,-0.58657 0.612,-0.89793 0.26,-0.61427 0.6816,-0.78656 0.5328,-0.21774 z m -4.8318,2.78019 c 0.141,0.0891 0.1979,0.22043 0.1265,0.29179 -0.071,0.0714 -0.2622,-0.003 -0.4242,-0.16472 -0.3148,-0.31482 -0.1263,-0.39526 0.2977,-0.12707 z m 0.08,1.15146 c 0.3351,0.33505 0.3393,0.441 0.034,0.85837 -0.2273,0.31085 -0.2542,0.29953 -0.5226,-0.21934 -0.4627,-0.89481 -0.1614,-1.28896 0.4885,-0.63903 z m -1.0326,-18.04008 c 0.6706,0.069 1.376,0.0628 1.5676,-0.0137 0.2095,-0.0836 -0.2767,-0.13365 -1.2193,-0.12542 l -1.5677,0.0137 z m -4.7031,0.2752 c -2.4613,0.38018 -3.9001,0.87052 -4.1004,1.39737 -0.3426,0.90121 -0.071,1.06468 0.4119,0.24763 0.4454,-0.75396 2.8611,-1.45587 5.6717,-1.64796 0.7076,-0.0484 1.3281,-0.12955 1.379,-0.18043 0.1684,-0.16835 -1.7693,-0.0627 -3.3622,0.18339 z m -1.1047,1.1176 c 0,0.23951 0.039,0.33749 0.088,0.21773 0.048,-0.11975 0.048,-0.31571 0,-0.43546 -0.048,-0.11976 -0.088,-0.0218 -0.088,0.21773 z m 13.9638,3.95654 c 0.059,0.0951 0.6479,0.22318 1.3091,0.28464 0.6613,0.0614 1.8951,0.31249 2.7418,0.55785 1.6909,0.49001 3.0673,0.37551 2.1679,-0.18035 -0.6298,-0.38925 -6.432,-1.00703 -6.2188,-0.66214 z m -0.7394,11.64769 c 0.01,0.20292 0.05,0.24419 0.1053,0.10524 0.05,-0.12574 0.044,-0.27598 -0.014,-0.33386 -0.058,-0.0579 -0.099,0.045 -0.091,0.22862 z m -9.0485,5.08045 c -0.02,2.29458 0.014,2.65635 0.2474,2.65635 0.2329,0 0.2539,-0.2115 0.1512,-1.52414 -0.2859,-3.65379 -0.3747,-3.9062 -0.3986,-1.13221 z m 13.9496,1.56478 c 0.3146,0.59717 0.6359,1.08707 0.7139,1.08867 0.1638,0.003 -0.4322,-1.09882 -0.9403,-1.73897 -0.1901,-0.23951 -0.088,0.0531 0.2264,0.6503 z m 10.1403,2.50454 c -0.1735,0.28078 0.3035,0.52066 0.5797,0.29148 0.1687,-0.13998 0.2853,-0.1373 0.4326,0.01 0.3506,0.35059 0.5489,0.21775 0.2191,-0.14673 -0.3422,-0.37811 -1.0392,-0.46568 -1.2314,-0.15471 z"
           id="path17" /></g></g></g></svg>
