<?xml version="1.0" encoding="UTF-8" standalone="no"?>
<!-- Created with Inkscape (http://www.inkscape.org/) -->

<svg
   width="210mm"
   height="297mm"
   viewBox="0 0 210 297"
   version="1.1"
   id="svg1"
   xml:space="preserve"
   inkscape:version="1.3.2 (091e20e, 2023-11-25, custom)"
   sodipodi:docname="duohampaattomat.svg"
   xmlns:inkscape="http://www.inkscape.org/namespaces/inkscape"
   xmlns:sodipodi="http://sodipodi.sourceforge.net/DTD/sodipodi-0.dtd"
   xmlns="http://www.w3.org/2000/svg"
   xmlns:svg="http://www.w3.org/2000/svg"><sodipodi:namedview
     id="namedview1"
     pagecolor="#ffffff"
     bordercolor="#000000"
     borderopacity="0.25"
     inkscape:showpageshadow="2"
     inkscape:pageopacity="0.0"
     inkscape:pagecheckerboard="0"
     inkscape:deskcolor="#d1d1d1"
     inkscape:document-units="mm"
     inkscape:zoom="0.66903058"
     inkscape:cx="396.84284"
     inkscape:cy="534.35524"
     inkscape:window-width="1920"
     inkscape:window-height="986"
     inkscape:window-x="-11"
     inkscape:window-y="-11"
     inkscape:window-maximized="1"
     inkscape:current-layer="layer1" /><defs
     id="defs1" /><g
     inkscape:label="Taso 1"
     inkscape:groupmode="layer"
     id="layer1"><path
       style="fill:#eb5432;stroke-width:2.22785"
       d="m 79.718918,125.2545 c 0.567362,-0.14838 1.495752,-0.14838 2.063094,0 0.567352,0.14837 0.103142,0.26957 -1.031531,0.26957 -1.134715,0 -1.598915,-0.12142 -1.031563,-0.26957 z m -7.220782,-3.45249 c -1.458891,-0.4562 -7.294485,-3.36971 -12.967955,-6.47449 -5.673501,-3.10481 -14.095288,-7.50597 -18.715126,-9.78041 -4.619849,-2.27443 -8.399719,-4.47377 -8.399719,-4.88742 0,-1.140143 1.745387,-2.487972 5.371716,-4.14817 6.288806,-2.879096 13.973508,-2.576533 21.525132,0.847545 5.321378,2.412822 4.611182,0.465506 -0.954014,-2.615903 -2.370498,-1.312523 -4.317421,-2.651655 -4.326491,-2.975852 -0.0093,-0.324196 1.522766,-1.368084 3.404072,-2.319756 3.374217,-1.706825 3.483247,-1.72113 8.047606,-1.055871 2.544875,0.370917 6.077339,1.360486 7.849926,2.199075 6.605477,3.124874 12.596437,10.157002 14.770509,17.337512 0.969678,3.2026 1.02014,4.04705 0.383947,6.42565 -0.931531,3.48288 -3.215701,6.48624 -5.73295,7.53802 -2.46403,1.02953 -6.798202,0.99153 -10.256653,-0.09 z m -2.947273,-18.54038 c 0,-0.3242 -0.280909,-0.58945 -0.624251,-0.58945 -0.343312,0 -0.460292,0.26525 -0.259918,0.58945 0.200282,0.32419 0.481263,0.58946 0.624241,0.58946 0.14303,0 0.259928,-0.26527 0.259928,-0.58946 z m -4.71561,-4.386112 c 0,-0.14303 -0.265266,-0.423876 -0.589473,-0.624251 -0.324197,-0.200282 -0.589442,-0.08334 -0.589442,0.259948 0,0.343333 0.265245,0.624251 0.589442,0.624251 0.324207,0 0.589473,-0.11697 0.589473,-0.259948 z"
       id="path11-4" /><path
       style="fill:#e62024;stroke-width:2.22785"
       d="M 72.614691,141.49319 C 64.995543,140.39323 60.413748,137.79449 48.318736,127.71276 33.282173,115.17915 22.858388,108.21334 15.062168,105.4887 c -1.215735,-0.42487 -2.208467,-1.05078 -2.206062,-1.39091 0.0021,-0.34013 1.224008,-2.74044 2.71466,-5.334018 4.700278,-8.178 7.298579,-15.899937 10.809586,-32.12517 1.726738,-7.979677 5.901356,-17.839292 10.199983,-24.090283 2.918061,-4.243396 8.957927,-10.26789 12.31784,-12.286452 4.211002,-2.529906 9.86571,-3.944772 13.721521,-3.433283 1.642245,0.217884 4.615826,1.173992 6.607965,2.124751 1.992128,0.95076 3.88863,1.728635 4.214434,1.728635 0.325803,0 1.746775,-0.659931 3.157713,-1.46653 3.09306,-1.768202 6.500003,-1.909428 9.338557,-0.387087 9.182808,4.924805 5.541251,29.874482 -6.799477,46.585715 -1.768647,2.395034 -3.215721,4.683817 -3.215721,5.086215 0,0.822697 1.622342,1.528996 6.778714,2.951077 9.075488,2.502944 16.526873,8.801649 21.186369,17.90895 2.83634,5.54379 2.83634,5.54379 2.56414,13.08168 -0.25192,6.97686 -0.41006,7.81792 -2.12439,11.30023 -5.165008,10.49165 -19.348366,17.53606 -31.713309,15.75097 z m 11.560821,-17.51506 c 5.058942,-3.10577 7.662882,-7.71689 7.662882,-13.5697 0,-3.37015 -0.322466,-4.67511 -2.007677,-8.12458 C 85.844356,94.124021 78.756548,87.753562 71.064911,85.417303 68.873952,84.751827 67.08137,83.997513 67.08137,83.741048 c 0,-0.256476 1.460165,-3.347369 3.244828,-6.86867 3.364412,-6.638317 5.615835,-13.968502 5.571106,-18.138331 -0.02923,-2.729815 -1.385956,-7.007647 -2.321249,-7.319415 -0.341664,-0.113839 -1.03234,-0.618208 -1.534811,-1.120669 -0.728067,-0.728066 -1.803333,-0.846322 -5.294354,-0.582299 -3.548574,0.268365 -5.384725,0.815835 -9.665833,2.881956 -2.906793,1.402852 -5.29964,2.683261 -5.31746,2.845365 -0.01783,0.162186 -2.919274,3.287288 -6.447654,6.944839 -7.057953,7.316357 -9.060365,10.684811 -12.699921,21.363931 -2.235294,6.558799 -3.040308,8.209305 -6.21301,12.738482 -2.808098,4.008713 -2.978526,5.368383 -0.730689,5.829823 4.285876,0.8798 6.041888,1.56743 6.041888,2.36589 0,0.47329 0.466315,0.86054 1.036237,0.86054 0.569913,0 2.360391,0.69582 3.978794,1.54625 3.657313,1.92188 17.747429,10.04622 19.741983,11.38324 0.810497,0.54329 2.402031,1.35474 3.536715,1.8032 1.134694,0.44847 2.991473,1.38598 4.126167,2.08334 1.134705,0.69738 3.124096,1.46894 4.420904,1.71458 1.296787,0.24564 3.418822,0.66183 4.71561,0.92484 3.181254,0.64524 9.093266,0.0923 10.904891,-1.01981 z"
       id="path10-8" /><path
       style="fill:#140505;stroke-width:2.22785"
       d="m 72.003294,123.95207 c -3.381391,-0.66528 -13.00463,-5.30389 -23.617314,-11.38411 -4.733988,-2.71219 -9.734559,-5.50027 -11.112398,-6.19577 -1.37786,-0.69548 -2.505173,-1.41526 -2.505173,-1.59952 0,-0.33483 5.469529,2.51376 22.104468,11.51226 10.0011,5.41001 13.130472,6.53067 18.232651,6.52935 8.08341,-0.002 12.015038,-5.36997 10.360925,-14.14592 C 83.120191,96.22009 70.288041,86.022543 58.191847,86.993506 c -3.729844,0.299381 -6.567931,1.36681 -8.336558,3.135437 -1.559846,1.559855 -1.081548,2.474583 1.859878,3.557032 1.539943,0.566699 3.062636,1.262496 3.383734,1.546245 0.321118,0.283738 -0.607272,0.05857 -2.063084,-0.500315 -1.919069,-0.736774 -4.429881,-1.019061 -9.130895,-1.026566 -7.686848,-0.01337 -11.918987,1.321624 -15.933295,5.021883 -2.245048,2.069438 -3.813373,2.857848 -3.813373,1.917048 0,-0.19873 1.150668,-1.891931 2.557045,-3.762819 2.533264,-3.370009 3.38081,-5.167971 8.02593,-17.026058 1.318328,-3.365438 3.584461,-7.905219 5.035836,-10.088403 3.931608,-5.913992 13.374271,-14.711941 18.59117,-17.321873 2.344562,-1.172914 4.691384,-2.111649 5.215178,-2.086065 0.610319,0.02985 0.687712,0.153271 0.215427,0.34384 -0.405239,0.163524 -0.736795,0.905004 -0.736795,1.647728 0,1.871344 1.602169,6.232498 2.759399,7.511248 1.71376,1.893652 8.026065,0.936413 8.74415,-1.326019 0.193595,-0.610184 0.08106,-2.090667 -0.249987,-3.289962 -0.439871,-1.593089 -0.426437,-2.004889 0.04986,-1.528571 0.358591,0.358591 0.77547,1.937209 0.926409,3.508063 0.404243,4.207053 -1.827671,11.659464 -5.841305,19.504269 -1.889433,3.692962 -3.308559,6.919609 -3.153608,7.1703 0.154837,0.250702 1.546172,0.773895 3.091629,1.162651 7.539506,1.896502 16.083146,8.985574 19.711289,16.355381 1.731579,3.5173 1.96015,4.537 1.952893,8.7116 -0.0093,5.3542 -0.762015,7.24711 -4.215252,10.60086 -3.436403,3.33739 -8.574479,4.45323 -14.834364,3.22163 z M 44.849773,68.367113 c 0.843865,-0.440327 2.800283,-0.990451 4.347544,-1.222484 1.802938,-0.270356 3.338019,-0.946634 4.274536,-1.883181 1.287105,-1.287075 1.413176,-1.782414 1.057498,-4.154322 -0.505902,-3.373575 -0.861757,-4.31063 -1.636958,-4.31063 -0.701571,0 -8.063756,7.141119 -9.888131,9.591239 -0.669022,0.898494 -1.055975,1.893184 -0.859902,2.210457 0.469518,0.759693 0.872714,0.725257 2.705413,-0.231079 z M 71.947556,51.614468 c -0.786531,-0.546745 -2.775933,-1.158598 -4.420915,-1.35973 -2.990893,-0.365681 -2.990893,-0.365681 0.0709,-0.448661 2.487323,-0.06748 3.372051,0.19003 4.71563,1.371993 1.901581,1.672948 1.721876,1.887462 -0.365599,0.436398 z"
       id="path8-8" /><path
       style="fill:#eb5432;stroke-width:2.67242"
       d="m 176.22827,197.32431 c 0.68057,-0.17798 1.79422,-0.17798 2.47478,0 0.68056,0.17798 0.12372,0.32336 -1.23738,0.32336 -1.36114,0 -1.91797,-0.14564 -1.2374,-0.32336 z m -8.66168,-4.14142 c -1.75001,-0.54723 -8.75009,-4.04213 -15.55569,-7.76647 -6.80565,-3.72436 -16.90798,-9.00378 -22.4497,-11.73208 -5.54174,-2.72829 -10.07587,-5.3665 -10.07587,-5.86269 0,-1.36766 2.09367,-2.98445 6.44363,-4.97593 7.54373,-3.45362 16.7619,-3.09068 25.82043,1.01667 6.38326,2.8943 5.53135,0.55839 -1.14438,-3.13791 -2.84352,-1.57443 -5.17895,-3.18079 -5.18984,-3.56968 -0.0112,-0.38888 1.82664,-1.64108 4.08336,-2.78265 4.04753,-2.04742 4.17832,-2.06458 9.65349,-1.26657 3.0527,0.44493 7.29007,1.63196 9.41636,2.6379 7.9236,3.74843 15.11004,12.18382 17.71795,20.79717 1.16317,3.84168 1.22371,4.85464 0.46056,7.70789 -1.11741,4.17788 -3.85739,7.78056 -6.87695,9.04222 -2.95572,1.23497 -8.15477,1.18938 -12.30335,-0.10793 z m -3.5354,-22.2401 c 0,-0.38889 -0.33697,-0.70706 -0.74882,-0.70706 -0.41182,0 -0.55214,0.31817 -0.31179,0.70706 0.24026,0.38889 0.57731,0.70709 0.74881,0.70709 0.17157,0 0.3118,-0.3182 0.3118,-0.70709 z m -5.6566,-5.26135 c 0,-0.17156 -0.3182,-0.50845 -0.70711,-0.74882 -0.38888,-0.24024 -0.70705,-0.0999 -0.70705,0.31182 0,0.41186 0.31817,0.74882 0.70705,0.74882 0.38891,0 0.70711,-0.1403 0.70711,-0.31182 z"
       id="path11-4-5" /><path
       style="fill:#e62024;stroke-width:2.67242"
       d="m 167.7064,216.8034 c -9.13953,-1.31944 -14.63562,-4.43677 -29.14418,-16.53029 -18.03709,-15.03467 -30.54091,-23.39049 -39.892865,-26.65883 -1.458331,-0.50966 -2.649157,-1.26047 -2.646275,-1.66846 0.0021,-0.40801 1.468261,-3.2873 3.256366,-6.39842 5.638214,-9.8099 8.755004,-19.07274 12.966634,-38.5357 2.0713,-9.57201 7.07895,-21.39911 12.23536,-28.897469 3.50035,-5.090155 10.74548,-12.316826 14.77585,-14.738189 5.0513,-3.034745 11.83439,-4.731945 16.45963,-4.118388 1.96996,0.261361 5.53691,1.408259 7.92657,2.548741 2.38966,1.140482 4.6646,2.073581 5.05542,2.073581 0.39082,0 2.09534,-0.791618 3.78783,-1.759174 3.71027,-2.121044 7.79707,-2.290452 11.20206,-0.46433 11.01521,5.907543 6.64699,35.835888 -8.15631,55.881818 -2.12158,2.87296 -3.85742,5.61847 -3.85742,6.10116 0,0.98687 1.94609,1.83412 8.1314,3.53997 10.88649,3.0024 19.82478,10.558 25.41408,21.48265 3.40233,6.65005 3.40233,6.65005 3.07581,15.69211 -0.30219,8.36909 -0.49187,9.37797 -2.5483,13.55518 -6.19569,12.58524 -23.20931,21.03535 -38.04166,18.89404 z m 13.86776,-21.01017 c 6.06845,-3.72551 9.192,-9.25678 9.192,-16.2775 0,-4.04265 -0.38681,-5.60802 -2.4083,-9.74582 -4.78184,-9.78811 -13.284,-17.42978 -22.51049,-20.23224 -2.62817,-0.79828 -4.77846,-1.70311 -4.77846,-2.01075 0,-0.30766 1.75154,-4.01534 3.89233,-8.23931 4.03578,-7.96299 6.73647,-16.7559 6.68281,-21.75781 -0.035,-3.27455 -1.66252,-8.40601 -2.78445,-8.78 -0.40984,-0.13655 -1.23834,-0.74157 -1.84108,-1.34429 -0.87335,-0.87336 -2.16318,-1.01521 -6.35084,-0.6985 -4.25668,0.32192 -6.45923,0.97864 -11.59462,3.45705 -3.48685,1.68278 -6.35718,3.21869 -6.37856,3.41315 -0.0214,0.19455 -3.50181,3.94326 -7.73427,8.33067 -8.46636,8.77633 -10.86835,12.81695 -15.23417,25.62708 -2.68134,7.86759 -3.647,9.84746 -7.4528,15.28043 -3.36846,4.80864 -3.5729,6.43964 -0.8765,6.99315 5.14111,1.05537 7.24753,1.88021 7.24753,2.83801 0,0.56772 0.55936,1.03224 1.24302,1.03224 0.68364,0 2.8314,0.83468 4.77276,1.85481 4.38712,2.30539 21.28889,12.05093 23.68146,13.65476 0.97223,0.65169 2.88135,1.62507 4.24246,2.16302 1.36112,0.53796 3.58842,1.66254 4.94954,2.49907 1.36113,0.83654 3.7475,1.76205 5.30308,2.05672 1.55557,0.29465 4.10105,0.79389 5.65661,1.10939 3.81607,0.77399 10.90781,0.11067 13.08094,-1.22333 z"
       id="path10-8-0" /><path
       style="fill:#140505;stroke-width:2.67242"
       d="m 166.973,195.76198 c -4.05614,-0.79804 -15.59968,-6.36228 -28.33011,-13.65578 -5.67865,-3.25341 -11.67708,-6.59785 -13.32986,-7.43213 -1.65281,-0.83427 -3.00508,-1.69768 -3.00508,-1.91871 0,-0.40164 6.56097,3.01539 26.51538,13.80952 11.99681,6.48957 15.75064,7.83386 21.87095,7.83227 9.69644,-0.002 14.41262,-6.44154 12.42843,-16.96872 -2.81446,-14.93229 -18.20724,-27.16475 -32.71721,-26.00004 -4.47413,0.35913 -7.87855,1.63956 -10.0001,3.76111 -1.87112,1.87113 -1.29738,2.96839 2.23101,4.26684 1.84723,0.67978 3.67378,1.51443 4.05896,1.8548 0.38519,0.34035 -0.72846,0.0703 -2.47477,-0.60015 -2.30202,-0.8838 -5.31387,-1.22242 -10.95296,-1.23142 -9.22075,-0.0161 -14.2974,1.58535 -19.11276,6.02399 -2.69304,2.48239 -4.57432,3.42812 -4.57432,2.29959 0,-0.23838 1.38028,-2.26946 3.06729,-4.51368 3.03877,-4.0425 4.05545,-6.19924 9.6275,-20.42359 1.5814,-4.03701 4.29974,-9.4827 6.04073,-12.10153 4.71615,-7.09412 16.04308,-17.64769 22.301,-20.77843 2.81243,-1.40697 5.62755,-2.53303 6.25587,-2.50234 0.73211,0.0359 0.82493,0.18386 0.25841,0.41246 -0.4861,0.19615 -0.88382,1.08559 -0.88382,1.97653 0,2.24476 1.92187,7.47618 3.31003,9.01011 2.05574,2.27152 9.62765,1.12327 10.48903,-1.59064 0.23222,-0.73194 0.0972,-2.50784 -0.29987,-3.94646 -0.52764,-1.91099 -0.51153,-2.40496 0.0598,-1.8336 0.43015,0.43015 0.93021,2.32378 1.11128,4.2081 0.48491,5.04657 -2.19238,13.98608 -7.00694,23.39631 -2.26646,4.42989 -3.96878,8.30042 -3.7829,8.60114 0.18573,0.30073 1.85471,0.92832 3.70856,1.39465 9.04401,2.27495 19.29251,10.77864 23.64465,19.61907 2.07711,4.21917 2.35129,5.44236 2.34258,10.44999 -0.0112,6.42262 -0.91407,8.69326 -5.05639,12.71624 -4.12214,4.00336 -10.2855,5.34187 -17.79454,3.8645 z m -32.57196,-66.67685 c 1.01226,-0.52819 3.35907,-1.18809 5.21508,-1.46643 2.16271,-0.32431 4.00412,-1.13554 5.12751,-2.25897 1.54396,-1.5439 1.69518,-2.13809 1.26853,-4.98331 -0.60685,-4.04677 -1.03373,-5.17081 -1.96361,-5.17081 -0.84157,0 -9.67287,8.56612 -11.8613,11.50515 -0.80251,1.0778 -1.26668,2.27097 -1.03149,2.65155 0.56321,0.9113 1.04686,0.86999 3.24528,-0.27718 z m 32.5051,-20.09561 c -0.94348,-0.65585 -3.32987,-1.38979 -5.3031,-1.63106 -3.58773,-0.43866 -3.58773,-0.43866 0.085,-0.5382 2.98366,-0.081 4.04494,0.22795 5.65662,1.64577 2.28104,2.00679 2.06548,2.2641 -0.43855,0.52349 z"
       id="path8-8-3" /></g></svg>
