<?xml version="1.0" encoding="UTF-8" standalone="no"?>
<!-- Created with Inkscape (http://www.inkscape.org/) -->

<svg
   width="30cm"
   height="80cm"
   viewBox="0 0 300 800.00001"
   version="1.1"
   id="svg1"
   inkscape:version="1.3.2 (091e20e, 2023-11-25, custom)"
   sodipodi:docname="fuckyou.svg"
   xmlns:inkscape="http://www.inkscape.org/namespaces/inkscape"
   xmlns:sodipodi="http://sodipodi.sourceforge.net/DTD/sodipodi-0.dtd"
   xmlns="http://www.w3.org/2000/svg"
   xmlns:svg="http://www.w3.org/2000/svg">
  <sodipodi:namedview
     id="namedview1"
     pagecolor="#ffffff"
     bordercolor="#000000"
     borderopacity="0.25"
     inkscape:showpageshadow="2"
     inkscape:pageopacity="0.0"
     inkscape:pagecheckerboard="0"
     inkscape:deskcolor="#d1d1d1"
     inkscape:document-units="mm"
     inkscape:zoom="0.2015873"
     inkscape:cx="282.75591"
     inkscape:cy="1981.7717"
     inkscape:window-width="1280"
     inkscape:window-height="657"
     inkscape:window-x="-8"
     inkscape:window-y="-8"
     inkscape:window-maximized="1"
     inkscape:current-layer="layer1" />
  <defs
     id="defs1" />
  <g
     inkscape:label="Taso 1"
     inkscape:groupmode="layer"
     id="layer1">
    <g
       id="g1">
      <text
         xml:space="preserve"
         style="font-style:normal;font-variant:normal;font-weight:normal;font-stretch:normal;font-size:78.6856px;font-family:Barlow;-inkscape-font-specification:Barlow;text-align:end;letter-spacing:-0.0478226px;word-spacing:-0.00398521px;text-anchor:end;fill:#000000;stroke-width:2.05599"
         x="298.42258"
         y="83.395943"
         id="text35"><tspan
           sodipodi:role="line"
           id="tspan35"
           style="stroke-width:2.05599"
           x="298.37476"
           y="83.395943">FUCK</tspan></text>
      <text
         xml:space="preserve"
         style="font-style:normal;font-variant:normal;font-weight:normal;font-stretch:normal;font-size:78.6856px;font-family:Barlow;-inkscape-font-specification:Barlow;text-align:end;letter-spacing:-0.0478226px;word-spacing:-0.00398521px;text-anchor:end;fill:#000000;stroke-width:2.05599"
         x="301.8848"
         y="186.17601"
         id="text36"><tspan
           sodipodi:role="line"
           id="tspan36"
           style="stroke-width:2.05599"
           x="301.83698"
           y="186.17601">YOU</tspan></text>
      <text
         xml:space="preserve"
         style="font-style:normal;font-variant:normal;font-weight:normal;font-stretch:normal;font-size:78.6856px;font-family:Barlow;-inkscape-font-specification:Barlow;text-align:end;letter-spacing:-0.0478226px;word-spacing:-0.00398521px;text-anchor:end;fill:#000000;stroke-width:2.05599"
         x="299.28824"
         y="289.11346"
         id="text37"><tspan
           sodipodi:role="line"
           style="stroke-width:2.05599"
           x="299.24042"
           y="289.11346"
           id="tspan38">I WONT</tspan></text>
      <text
         xml:space="preserve"
         style="font-style:normal;font-variant:normal;font-weight:normal;font-stretch:normal;font-size:78.6856px;font-family:Barlow;-inkscape-font-specification:Barlow;text-align:end;letter-spacing:-0.0478226px;word-spacing:-0.00398521px;text-anchor:end;fill:#000000;stroke-width:2.05599"
         x="301.01932"
         y="392.0509"
         id="text39"><tspan
           sodipodi:role="line"
           id="tspan39"
           style="stroke-width:2.05599"
           x="300.9715"
           y="392.0509">DO</tspan></text>
    </g>
    <g
       id="g2">
      <path
         d="m 107.67478,494.35901 q -1.18028,0 -1.41634,-1.1016 L 92.095032,440.69543 q -0.07869,-0.15737 -0.07869,-0.39343 0,-0.47211 0.314743,-0.70817 0.314742,-0.31474 0.865541,-0.31474 h 7.0817 q 1.1016,0 1.33766,1.1016 l 8.89147,35.40852 q 0.0787,0.31474 0.31474,0.31474 0.23606,0 0.31475,-0.31474 l 8.41936,-35.40852 q 0.23605,-1.1016 1.33765,-1.1016 h 7.08171 q 1.18028,0 1.41634,1.1016 l 8.97015,35.40852 q 0.0787,0.31474 0.31475,0.31474 0.23605,0 0.31474,-0.31474 l 8.7341,-35.40852 q 0.23606,-1.1016 1.33766,-1.1016 h 6.76696 q 0.62948,0 0.86554,0.39343 0.31474,0.39342 0.15737,1.02291 l -13.37655,52.56198 q -0.23606,1.1016 -1.41634,1.1016 h -6.84565 q -1.1016,0 -1.33765,-1.1016 l -9.12753,-37.06092 q -0.0787,-0.31474 -0.31475,-0.31474 -0.23605,0 -0.31474,0.31474 l -8.7341,37.06092 q -0.23606,1.1016 -1.33766,1.1016 z m 86.58507,-53.82095 q 0,-1.25897 1.25897,-1.25897 h 6.60959 q 1.25897,0 1.25897,1.25897 v 52.56198 q 0,1.25897 -1.25897,1.25897 h -6.60959 q -1.25897,0 -1.25897,-1.25897 v -22.11065 q 0,-0.47212 -0.47211,-0.47212 h -19.90746 q -0.47211,0 -0.47211,0.47212 v 22.11065 q 0,1.25897 -1.25897,1.25897 h -6.60959 q -1.25897,0 -1.25897,-1.25897 v -52.56198 q 0,-1.25897 1.25897,-1.25897 h 6.60959 q 1.25897,0 1.25897,1.25897 v 21.63854 q 0,0.47211 0.47211,0.47211 h 19.90746 q 0.47211,0 0.47211,-0.47211 z m 54.87464,53.82095 q -1.1016,0 -1.41635,-1.02291 l -2.43925,-8.10462 q -0.0787,-0.39343 -0.5508,-0.39343 h -20.61563 q -0.47211,0 -0.55079,0.39343 l -2.43926,8.10462 q -0.31474,1.02291 -1.41634,1.02291 h -7.16039 q -0.62948,0 -0.94423,-0.39343 -0.23605,-0.39343 -0.0787,-1.02291 L 228.36149,440.302 q 0.31474,-1.02291 1.41634,-1.02291 h 9.20621 q 1.1016,0 1.41634,1.02291 l 16.91741,52.64067 q 0.0787,0.15737 0.0787,0.47211 0,0.94423 -1.1016,0.94423 z m -23.13357,-17.23215 q -0.0787,0.5508 0.39343,0.5508 h 16.05186 q 0.47211,0 0.39343,-0.5508 l -8.10462,-26.7531 q -0.0787,-0.31474 -0.31474,-0.31474 -0.15737,0 -0.31474,0.31474 z m 69.35299,-37.84777 q 1.25897,0 1.25897,1.25897 v 5.4293 q 0,1.25897 -1.25897,1.25897 h -14.08472 q -0.47211,0 -0.47211,0.47212 v 45.40159 q 0,1.25897 -1.25897,1.25897 h -6.60959 q -1.25897,0 -1.25897,-1.25897 v -45.40159 q 0,-0.47212 -0.47212,-0.47212 h -13.53392 q -1.25897,0 -1.25897,-1.25897 v -5.4293 q 0,-1.25897 1.25897,-1.25897 z"
         id="text40"
         style="-inkscape-font-specification:Barlow;stroke-width:2.05599"
         aria-label="WHAT" />
      <path
         d="m 178.60136,596.43102 q -1.25897,0 -1.25897,-1.25897 v -20.69431 q 0,-0.23606 -0.15737,-0.5508 l -15.89449,-31.00213 q -0.23606,-0.39343 -0.23606,-0.70817 0,-0.78686 1.1016,-0.78686 h 7.16039 q 1.02291,0 1.49503,0.94423 l 10.77992,21.63854 q 0.15737,0.23606 0.31475,0.23606 0.23605,0 0.31474,-0.23606 l 10.85861,-21.63854 q 0.47211,-0.94423 1.49503,-0.94423 h 7.23907 q 1.1016,0 1.1016,0.78686 0,0.31474 -0.23606,0.70817 l -16.05186,31.00213 q -0.15737,0.47211 -0.15737,0.5508 v 20.69431 q 0,1.25897 -1.25897,1.25897 z m 48.816,0.86554 q -5.90142,0 -10.46518,-2.36057 -4.56377,-2.43925 -7.08171,-6.84564 -2.43925,-4.4064 -2.43925,-10.15045 v -17.94031 q 0,-5.66537 2.51794,-9.99308 2.51794,-4.40639 7.00302,-6.76696 4.56376,-2.43925 10.46518,-2.43925 5.98011,0 10.46519,2.43925 4.56376,2.36057 7.0817,6.76696 2.51794,4.32771 2.51794,9.99308 v 17.94031 q 0,5.74405 -2.51794,10.15045 -2.51794,4.40639 -7.0817,6.84564 -4.48508,2.36057 -10.46519,2.36057 z m 0,-7.86856 q 4.95719,0 7.94725,-3.06874 2.99005,-3.06874 2.99005,-8.10461 V 559.9209 q 0,-5.11456 -2.99005,-8.1833 -2.99006,-3.06874 -7.94725,-3.06874 -4.87851,0 -7.86856,3.06874 -2.99005,3.06874 -2.99005,8.1833 v 18.33375 q 0,5.03587 2.99005,8.10461 2.99005,3.06874 7.86856,3.06874 z m 49.44545,7.71119 q -5.82274,0 -10.30782,-2.28188 -4.48508,-2.28189 -7.00302,-6.45222 -2.43925,-4.24902 -2.43925,-9.75702 v -35.95932 q 0,-1.25897 1.25897,-1.25897 h 6.60959 q 1.25897,0 1.25897,1.25897 v 36.11669 q 0,4.64245 2.91137,7.55382 2.91136,2.91137 7.71119,2.91137 4.79982,0 7.71118,-2.91137 2.91137,-2.91137 2.91137,-7.55382 v -36.11669 q 0,-1.25897 1.25897,-1.25897 h 6.60959 q 1.25897,0 1.25897,1.25897 v 35.95932 q 0,5.508 -2.43925,9.75702 -2.43926,4.17033 -6.92433,6.45222 -4.48508,2.28188 -10.3865,2.28188 z"
         id="text41"
         style="-inkscape-font-specification:Barlow;stroke-width:2.05599"
         aria-label="YOU" />
      <path
         d="m 42.670587,643.73765 q 1.25897,0 1.25897,1.25897 v 5.4293 q 0,1.25897 -1.25897,1.25897 H 28.585865 q -0.472114,0 -0.472114,0.47211 v 45.4016 q 0,1.25897 -1.258969,1.25897 h -6.609591 q -1.258969,0 -1.258969,-1.25897 V 652.157 q 0,-0.47211 -0.472114,-0.47211 H 4.9801848 q -1.2589696,0 -1.2589696,-1.25897 v -5.4293 q 0,-1.25897 1.2589696,-1.25897 z m 46.927518,6.60959 q 0,1.25897 -1.258969,1.25897 H 61.900774 q -0.472114,0 -0.472114,0.47211 v 14.55684 q 0,0.47211 0.472114,0.47211 h 17.625574 q 1.25897,0 1.25897,1.25897 v 5.35062 q 0,1.25897 -1.25897,1.25897 H 61.900774 q -0.472114,0 -0.472114,0.47211 v 15.02895 q 0,0.47212 0.472114,0.47212 h 26.438362 q 1.258969,0 1.258969,1.25897 v 5.35062 q 0,1.25897 -1.258969,1.25897 H 53.5601 q -1.258969,0 -1.258969,-1.25897 v -52.56198 q 0,-1.25897 1.258969,-1.25897 h 34.779036 q 1.258969,0 1.258969,1.25897 z m 10.496125,48.47033 q -1.258973,0 -1.258973,-1.25897 v -52.56198 q 0,-1.25897 1.258973,-1.25897 h 6.60959 q 1.25897,0 1.25897,1.25897 v 45.48027 q 0,0.47212 0.47211,0.47212 h 25.96625 q 1.25897,0 1.25897,1.25897 v 5.35062 q 0,1.25897 -1.25897,1.25897 z m 44.88159,0 q -1.25897,0 -1.25897,-1.25897 v -52.56198 q 0,-1.25897 1.25897,-1.25897 h 6.60959 q 1.25897,0 1.25897,1.25897 v 45.48027 q 0,0.47212 0.47211,0.47212 h 25.96625 q 1.25897,0 1.25897,1.25897 v 5.35062 q 0,1.25897 -1.25897,1.25897 z m 60.56695,0 q -1.25897,0 -1.25897,-1.25897 v -52.56198 q 0,-1.25897 1.25897,-1.25897 h 6.68828 q 1.1016,0 1.57371,0.86554 l 12.27496,19.82877 q 0.15737,0.23606 0.31474,0.23606 0.23605,0 0.31474,-0.23606 l 12.43233,-19.82877 q 0.47211,-0.86554 1.57371,-0.86554 h 6.60959 q 1.25897,0 1.25897,1.25897 v 52.56198 q 0,1.25897 -1.25897,1.25897 h -6.60959 q -1.25897,0 -1.25897,-1.25897 v -37.21829 q 0,-0.31475 -0.23606,-0.39343 -0.15737,-0.0787 -0.31474,0.23606 l -9.36359,15.34369 q -0.47211,0.86554 -1.57371,0.86554 h -3.06874 q -1.1016,0 -1.57371,-0.86554 l -9.36359,-15.34369 q -0.15737,-0.31475 -0.39342,-0.23606 -0.15738,0.0787 -0.15738,0.39343 v 37.21829 q 0,1.25897 -1.25897,1.25897 z m 91.07002,-48.47033 q 0,1.25897 -1.25897,1.25897 h -26.43836 q -0.47211,0 -0.47211,0.47211 v 14.55684 q 0,0.47211 0.47211,0.47211 h 17.62557 q 1.25897,0 1.25897,1.25897 v 5.35062 q 0,1.25897 -1.25897,1.25897 h -17.62557 q -0.47211,0 -0.47211,0.47211 v 15.02895 q 0,0.47212 0.47211,0.47212 h 26.43836 q 1.25897,0 1.25897,1.25897 v 5.35062 q 0,1.25897 -1.25897,1.25897 h -34.77903 q -1.25897,0 -1.25897,-1.25897 v -52.56198 q 0,-1.25897 1.25897,-1.25897 h 34.77903 q 1.25897,0 1.25897,1.25897 z"
         id="text42"
         style="-inkscape-font-specification:Barlow;stroke-width:2.05599"
         aria-label="TELL ME" />
    </g>
  </g>
</svg>
