<?xml version="1.0" encoding="UTF-8" standalone="no"?>
<!-- Created with Inkscape (http://www.inkscape.org/) -->

<svg
   width="30cm"
   height="40cm"
   viewBox="0 0 300 400"
   version="1.1"
   id="svg1"
   inkscape:version="1.3.2 (091e20e, 2023-11-25, custom)"
   sodipodi:docname="fuckyou1.svg"
   xmlns:inkscape="http://www.inkscape.org/namespaces/inkscape"
   xmlns:sodipodi="http://sodipodi.sourceforge.net/DTD/sodipodi-0.dtd"
   xmlns="http://www.w3.org/2000/svg"
   xmlns:svg="http://www.w3.org/2000/svg">
  <sodipodi:namedview
     id="namedview1"
     pagecolor="#ffffff"
     bordercolor="#000000"
     borderopacity="0.25"
     inkscape:showpageshadow="2"
     inkscape:pageopacity="0.0"
     inkscape:pagecheckerboard="0"
     inkscape:deskcolor="#d1d1d1"
     inkscape:document-units="mm"
     inkscape:zoom="0.4031746"
     inkscape:cx="450.17717"
     inkscape:cy="1035.5315"
     inkscape:window-width="1280"
     inkscape:window-height="657"
     inkscape:window-x="-8"
     inkscape:window-y="-8"
     inkscape:window-maximized="1"
     inkscape:current-layer="layer1" />
  <defs
     id="defs1" />
  <g
     inkscape:label="Taso 1"
     inkscape:groupmode="layer"
     id="layer1">
    <g
       id="g2"
       transform="matrix(-1,0,0,1,333.91498,-6.790704)">
      <path
         d="m 151.26666,34.925613 q 0,1.25897 -1.25897,1.25897 h -26.35968 q -0.47211,0 -0.47211,0.472113 v 14.556836 q 0,0.472114 0.47211,0.472114 h 17.62558 q 1.25897,0 1.25897,1.258969 v 5.350621 q 0,1.25897 -1.25897,1.25897 h -17.62558 q -0.47211,0 -0.47211,0.472113 v 22.110654 q 0,1.25897 -1.25897,1.25897 h -6.60959 q -1.25897,0 -1.25897,-1.25897 V 29.574992 q 0,-1.25897 1.25897,-1.25897 h 34.70035 q 1.25897,0 1.25897,1.25897 z m 26.31183,49.099814 q -5.82273,0 -10.30781,-2.281882 -4.48508,-2.281882 -7.00302,-6.452219 -2.43925,-4.249023 -2.43925,-9.757015 V 29.574992 q 0,-1.25897 1.25897,-1.25897 h 6.60959 q 1.25897,0 1.25897,1.25897 v 36.116691 q 0,4.64245 2.91136,7.553817 2.91137,2.911367 7.71119,2.911367 4.79982,0 7.71119,-2.911367 2.91137,-2.911367 2.91137,-7.553817 V 29.574992 q 0,-1.25897 1.25897,-1.25897 h 6.60959 q 1.25897,0 1.25897,1.25897 v 35.959319 q 0,5.507992 -2.43925,9.757015 -2.43926,4.170337 -6.92434,6.452219 -4.48508,2.281882 -10.3865,2.281882 z m 48.42243,0 q -5.90142,0 -10.3865,-2.281882 -4.48508,-2.360568 -6.92434,-6.530905 -2.43925,-4.170337 -2.43925,-9.678329 V 46.098968 q 0,-5.507992 2.43925,-9.678329 2.43926,-4.170336 6.92434,-6.452219 4.48508,-2.281882 10.3865,-2.281882 5.82273,0 10.30781,2.203196 4.48508,2.203197 6.92433,6.216163 2.43926,4.012966 2.43926,9.284901 0,0.786856 -1.18029,0.944227 l -6.68827,0.393428 h -0.31475 q -0.94422,0 -0.94422,-0.393428 v -0.472114 q 0,-4.64245 -2.91137,-7.475132 -2.83268,-2.832681 -7.6325,-2.832681 -4.79983,0 -7.71119,2.832681 -2.91137,2.832682 -2.91137,7.475132 v 20.064828 q 0,4.563765 2.91137,7.396447 2.91136,2.832681 7.71119,2.832681 4.79982,0 7.6325,-2.753996 2.91137,-2.832681 2.91137,-7.475132 0,-0.393428 0.31474,-0.629484 0.39343,-0.314743 0.94423,-0.236057 l 6.60959,0.314742 q 1.25897,0.157371 1.25897,0.393428 v 0.393428 q 0,5.350621 -2.43926,9.442272 -2.43925,4.012966 -6.92433,6.216163 -4.48508,2.203196 -10.30781,2.203196 z m 30.63953,-0.629484 q -1.25897,0 -1.25897,-1.25897 V 29.574992 q 0,-1.25897 1.25897,-1.25897 h 6.60959 q 1.25897,0 1.25897,1.25897 v 23.133567 q 0,0.314742 0.15738,0.393428 0.23605,0 0.39342,-0.236057 l 20.2222,-23.841737 q 0.62949,-0.708171 1.57371,-0.708171 h 7.47514 q 1.02291,0 1.02291,0.786856 0,0.472114 -0.31474,0.786856 l -17.70426,21.638541 q -0.23606,0.236056 0,0.629484 l 19.04191,29.743157 q 0.23606,0.314743 0.23606,0.708171 0,0.786856 -1.1016,0.786856 h -7.55382 q -1.02291,0 -1.49502,-0.865542 L 271.1186,58.609979 q -0.15737,-0.236057 -0.39342,-0.236057 -0.15737,-0.07869 -0.31475,0.157371 l -5.66536,6.688276 q -0.23606,0.314742 -0.23606,0.550799 v 16.366605 q 0,1.25897 -1.25897,1.25897 z"
         id="text35"
         style="font-size:78.6856px;font-family:Barlow;-inkscape-font-specification:Barlow;text-align:end;letter-spacing:-0.0478226px;word-spacing:-0.00398521px;text-anchor:end;stroke-width:2.05599"
         aria-label="FUCK" />
      <path
         d="m 178.60136,186.09732 q -1.25897,0 -1.25897,-1.25897 v -20.69431 q 0,-0.23605 -0.15737,-0.5508 l -15.89449,-31.00212 q -0.23606,-0.39343 -0.23606,-0.70817 0,-0.78686 1.1016,-0.78686 h 7.16039 q 1.02291,0 1.49503,0.94423 l 10.77992,21.63854 q 0.15737,0.23605 0.31475,0.23605 0.23605,0 0.31474,-0.23605 l 10.85861,-21.63854 q 0.47211,-0.94423 1.49503,-0.94423 h 7.23907 q 1.1016,0 1.1016,0.78686 0,0.31474 -0.23606,0.70817 l -16.05186,31.00212 q -0.15737,0.47212 -0.15737,0.5508 v 20.69431 q 0,1.25897 -1.25897,1.25897 z m 48.816,0.86555 q -5.90142,0 -10.46518,-2.36057 -4.56377,-2.43926 -7.08171,-6.84565 -2.43925,-4.40639 -2.43925,-10.15044 v -17.94032 q 0,-5.66536 2.51794,-9.99307 2.51794,-4.40639 7.00302,-6.76696 4.56376,-2.43925 10.46518,-2.43925 5.98011,0 10.46519,2.43925 4.56376,2.36057 7.0817,6.76696 2.51794,4.32771 2.51794,9.99307 v 17.94032 q 0,5.74405 -2.51794,10.15044 -2.51794,4.40639 -7.0817,6.84565 -4.48508,2.36057 -10.46519,2.36057 z m 0,-7.86856 q 4.95719,0 7.94725,-3.06874 2.99005,-3.06874 2.99005,-8.10462 v -18.33374 q 0,-5.11457 -2.99005,-8.18331 -2.99006,-3.06873 -7.94725,-3.06873 -4.87851,0 -7.86856,3.06873 -2.99005,3.06874 -2.99005,8.18331 v 18.33374 q 0,5.03588 2.99005,8.10462 2.99005,3.06874 7.86856,3.06874 z m 49.44545,7.71118 q -5.82274,0 -10.30782,-2.28188 -4.48508,-2.28188 -7.00302,-6.45222 -2.43925,-4.24902 -2.43925,-9.75701 v -35.95932 q 0,-1.25897 1.25897,-1.25897 h 6.60959 q 1.25897,0 1.25897,1.25897 v 36.11669 q 0,4.64245 2.91137,7.55382 2.91136,2.91136 7.71119,2.91136 4.79982,0 7.71118,-2.91136 2.91137,-2.91137 2.91137,-7.55382 v -36.11669 q 0,-1.25897 1.25897,-1.25897 h 6.60959 q 1.25897,0 1.25897,1.25897 v 35.95932 q 0,5.50799 -2.43925,9.75701 -2.43926,4.17034 -6.92433,6.45222 -4.48508,2.28188 -10.3865,2.28188 z"
         id="text36"
         style="font-size:78.6856px;font-family:Barlow;-inkscape-font-specification:Barlow;text-align:end;letter-spacing:-0.0478226px;word-spacing:-0.00398521px;text-anchor:end;stroke-width:2.05599"
         aria-label="YOU" />
      <path
         d="m 57.573001,289.11346 q -1.25897,0 -1.25897,-1.25897 v -52.56198 q 0,-1.25897 1.25897,-1.25897 h 6.60959 q 1.25897,0 1.25897,1.25897 v 52.56198 q 0,1.25897 -1.25897,1.25897 z m 46.560919,0 q -1.18028,0 -1.41634,-1.10159 L 88.554174,235.44988 q -0.07869,-0.15737 -0.07869,-0.39342 0,-0.47212 0.314742,-0.70817 0.314743,-0.31475 0.865542,-0.31475 h 7.081704 q 1.101598,0 1.337655,1.1016 l 8.891473,35.40852 q 0.0787,0.31475 0.31475,0.31475 0.23605,0 0.31474,-0.31475 l 8.41936,-35.40852 q 0.23606,-1.1016 1.33765,-1.1016 h 7.08171 q 1.18028,0 1.41634,1.1016 l 8.97016,35.40852 q 0.0787,0.31475 0.31474,0.31475 0.23606,0 0.31474,-0.31475 l 8.7341,-35.40852 q 0.23606,-1.1016 1.33766,-1.1016 h 6.76696 q 0.62949,0 0.86554,0.39343 0.31474,0.39343 0.15737,1.02291 l -13.37655,52.56199 q -0.23606,1.10159 -1.41634,1.10159 h -6.84565 q -1.1016,0 -1.33765,-1.10159 l -9.12753,-37.06092 q -0.0787,-0.31474 -0.31474,-0.31474 -0.23606,0 -0.31475,0.31474 l -8.7341,37.06092 q -0.23605,1.10159 -1.33765,1.10159 z m 72.97251,0.78686 q -5.90142,0 -10.46518,-2.36057 -4.56377,-2.43925 -7.08171,-6.84564 -2.43925,-4.4064 -2.43925,-10.15045 v -17.94031 q 0,-5.66537 2.51794,-9.99308 2.51794,-4.40639 7.00302,-6.76696 4.56376,-2.43925 10.46518,-2.43925 5.98011,0 10.46519,2.43925 4.56376,2.36057 7.0817,6.76696 2.51794,4.32771 2.51794,9.99308 v 17.94031 q 0,5.74405 -2.51794,10.15045 -2.51794,4.40639 -7.0817,6.84564 -4.48508,2.36057 -10.46519,2.36057 z m 0,-7.86856 q 4.95719,0 7.94725,-3.06874 2.99005,-3.06874 2.99005,-8.10461 v -18.33375 q 0,-5.11456 -2.99005,-8.1833 -2.99006,-3.06874 -7.94725,-3.06874 -4.87851,0 -7.86856,3.06874 -2.99005,3.06874 -2.99005,8.1833 v 18.33375 q 0,5.03587 2.99005,8.10461 2.99005,3.06874 7.86856,3.06874 z m 31.42644,7.0817 q -1.25897,0 -1.25897,-1.25897 v -52.56198 q 0,-1.25897 1.25897,-1.25897 h 6.29485 q 1.1016,0 1.57371,0.86555 l 22.03197,36.038 q 0.15737,0.31474 0.31474,0.23606 0.23606,-0.0787 0.23606,-0.39343 v -35.48721 q 0,-1.25897 1.25897,-1.25897 h 6.60959 q 1.25897,0 1.25897,1.25897 v 52.56198 q 0,1.25897 -1.25897,1.25897 h -6.45222 q -1.1016,0 -1.57371,-0.86554 l -22.03197,-36.27406 q -0.15737,-0.31474 -0.39343,-0.23606 -0.15737,0.0787 -0.15737,0.39343 l 0.0787,35.72326 q 0,1.25897 -1.25897,1.25897 z m 86.82105,-55.07992 q 1.25897,0 1.25897,1.25897 v 5.42931 q 0,1.25897 -1.25897,1.25897 H 281.2692 q -0.47212,0 -0.47212,0.47211 v 45.40159 q 0,1.25897 -1.25896,1.25897 h -6.6096 q -1.25896,0 -1.25896,-1.25897 V 242.4529 q 0,-0.47211 -0.47212,-0.47211 h -13.53392 q -1.25897,0 -1.25897,-1.25897 v -5.42931 q 0,-1.25897 1.25897,-1.25897 z"
         id="text37"
         style="font-size:78.6856px;font-family:Barlow;-inkscape-font-specification:Barlow;text-align:end;letter-spacing:-0.0478226px;word-spacing:-0.00398521px;text-anchor:end;stroke-width:2.05599"
         aria-label="I WONT" />
      <path
         d="m 210.65732,392.0509 q -1.25897,0 -1.25897,-1.25897 v -52.56198 q 0,-1.25897 1.25897,-1.25897 h 18.88454 q 5.58668,0 9.8357,1.96714 4.24902,1.96714 6.53091,5.66537 2.36056,3.61953 2.36056,8.49804 v 22.81883 q 0,4.8785 -2.36056,8.57673 -2.28189,3.61953 -6.53091,5.58667 -4.24902,1.96714 -9.8357,1.96714 z m 7.86856,-8.34067 q 0,0.47211 0.47211,0.47211 h 10.9373 q 4.17034,0 6.60959,-2.59662 2.51794,-2.67531 2.59662,-7.08171 v -19.90745 q 0,-4.48508 -2.51793,-7.08171 -2.51794,-2.67531 -6.76697,-2.67531 h -10.85861 q -0.47211,0 -0.47211,0.47212 z m 58.02219,9.12753 q -5.90142,0 -10.46518,-2.36057 -4.56377,-2.43925 -7.0817,-6.84565 -2.43926,-4.40639 -2.43926,-10.15044 v -17.94032 q 0,-5.66536 2.51794,-9.99307 2.51794,-4.40639 7.00302,-6.76696 4.56376,-2.43925 10.46518,-2.43925 5.98011,0 10.46519,2.43925 4.56376,2.36057 7.0817,6.76696 2.51794,4.32771 2.51794,9.99307 v 17.94032 q 0,5.74405 -2.51794,10.15044 -2.51794,4.4064 -7.0817,6.84565 -4.48508,2.36057 -10.46519,2.36057 z m 0,-7.86856 q 4.9572,0 7.94725,-3.06874 2.99005,-3.06874 2.99005,-8.10462 V 355.4621 q 0,-5.11456 -2.99005,-8.1833 -2.99005,-3.06874 -7.94725,-3.06874 -4.8785,0 -7.86856,3.06874 -2.99005,3.06874 -2.99005,8.1833 v 18.33374 q 0,5.03588 2.99005,8.10462 2.99006,3.06874 7.86856,3.06874 z"
         id="text39"
         style="font-size:78.6856px;font-family:Barlow;-inkscape-font-specification:Barlow;text-align:end;letter-spacing:-0.0478226px;word-spacing:-0.00398521px;text-anchor:end;stroke-width:2.05599"
         aria-label="DO" />
    </g>
  </g>
</svg>
