<?xml version="1.0" encoding="UTF-8" standalone="no"?>
<!-- Created with Inkscape (http://www.inkscape.org/) -->

<svg
   width="410mm"
   height="400mm"
   viewBox="0 0 410 400"
   version="1.1"
   id="svg1"
   inkscape:version="1.3.2 (091e20e, 2023-11-25, custom)"
   sodipodi:docname="huulet.svg"
   inkscape:export-filename="huulet3.pdf"
   inkscape:export-xdpi="96"
   inkscape:export-ydpi="96"
   xmlns:inkscape="http://www.inkscape.org/namespaces/inkscape"
   xmlns:sodipodi="http://sodipodi.sourceforge.net/DTD/sodipodi-0.dtd"
   xmlns="http://www.w3.org/2000/svg"
   xmlns:svg="http://www.w3.org/2000/svg">
  <sodipodi:namedview
     id="namedview1"
     pagecolor="#ffffff"
     bordercolor="#000000"
     borderopacity="0.25"
     inkscape:showpageshadow="2"
     inkscape:pageopacity="0.0"
     inkscape:pagecheckerboard="0"
     inkscape:deskcolor="#d1d1d1"
     inkscape:document-units="mm"
     inkscape:zoom="0.23653803"
     inkscape:cx="-420.65117"
     inkscape:cy="2.113825"
     inkscape:window-width="1920"
     inkscape:window-height="986"
     inkscape:window-x="-11"
     inkscape:window-y="-11"
     inkscape:window-maximized="1"
     inkscape:current-layer="layer1" />
  <defs
     id="defs1" />
  <g
     inkscape:label="Taso 1"
     inkscape:groupmode="layer"
     id="layer1">
    <path
       style="fill:#e62024;stroke-width:2.22785"
       d="m 148.81047,119.1953 c 7.61915,-1.09996 12.20094,-3.6987 24.29595,-13.78043 15.03657,-12.533613 25.46035,-19.499423 33.25657,-22.224063 1.21574,-0.42487 2.20847,-1.05078 2.20606,-1.39091 -0.002,-0.34013 -1.224,-2.74044 -2.71466,-5.33402 -4.70027,-8.178 -7.29858,-15.89993 -10.80958,-32.125167 -1.72674,-7.979677 -5.90136,-17.839292 -10.19999,-24.090283 -2.91806,-4.243396 -8.95792,-10.26789 -12.31783,-12.286452 -4.21101,-2.529906 -9.86572,-3.944772 -13.72153,-3.433283 -1.64224,0.217884 -4.61582,1.173992 -6.60796,2.124751 -1.99213,0.95076 -3.88863,1.728635 -4.21444,1.728635 -0.3258,0 -1.74677,-0.659931 -3.15771,-1.46653 -3.09306,-1.768202 -6.5,-1.909428 -9.33855,-0.387087 -9.18281,4.924805 -5.54126,29.874482 6.79947,46.585716 1.76865,2.39503 3.21572,4.68382 3.21572,5.08621 0,0.8227 -1.62234,1.529 -6.77871,2.95108 -9.07549,2.50294 -16.52687,8.80165 -21.18637,17.90895 -2.83634,5.54379 -2.83634,5.54379 -2.56414,13.08168 0.25192,6.97686 0.41006,7.81792 2.12439,11.300233 5.16501,10.49165 19.34837,17.53606 31.71331,15.75097 z m -11.56082,-17.51506 c -5.05894,-3.105773 -7.66288,-7.716893 -7.66288,-13.569703 0,-3.37015 0.32246,-4.67511 2.00767,-8.12458 3.98636,-8.15983 11.07417,-14.53029 18.76581,-16.86655 2.19096,-0.66547 3.98354,-1.41979 3.98354,-1.67625 0,-0.25648 -1.46017,-3.34737 -3.24483,-6.86867 -3.36441,-6.63832 -5.61583,-13.968503 -5.5711,-18.138332 0.0292,-2.729815 1.38595,-7.007647 2.32124,-7.319415 0.34167,-0.113839 1.03235,-0.618208 1.53482,-1.120669 0.72806,-0.728066 1.80333,-0.846322 5.29435,-0.582299 3.54857,0.268365 5.38473,0.815835 9.66583,2.881956 2.9068,1.402852 5.29964,2.683261 5.31746,2.845365 0.0178,0.162186 2.91928,3.287288 6.44766,6.944839 7.05795,7.316355 9.06036,10.684815 12.69992,21.363935 2.23529,6.5588 3.04031,8.2093 6.21301,12.73848 2.8081,4.00871 2.97852,5.36838 0.73069,5.82982 -4.28588,0.8798 -6.04189,1.56743 -6.04189,2.36589 0,0.47329 -0.46632,0.86054 -1.03624,0.86054 -0.56991,0 -2.36039,0.69582 -3.97879,1.54625 -3.65732,1.92188 -17.74743,10.04622 -19.74199,11.38324 -0.81049,0.54329 -2.40203,1.35474 -3.53671,1.8032 -1.13469,0.44847 -2.99147,1.38598 -4.12617,2.083343 -1.1347,0.69738 -3.12409,1.46894 -4.4209,1.71458 -1.29679,0.24564 -3.41882,0.66183 -4.71561,0.92484 -3.18125,0.64524 -9.09327,0.0923 -10.90489,-1.01981 z"
       id="path10-8" />
    <path
       style="fill:#e62024;stroke-width:2.67242"
       d="m 42.250048,144.67595 c 9.13953,-1.31944 14.63562,-4.43677 29.14418,-16.53029 18.03709,-15.03467 30.540912,-23.39049 39.892872,-26.65883 1.45833,-0.50966 2.64915,-1.26047 2.64627,-1.668461 -0.002,-0.40801 -1.46826,-3.2873 -3.25637,-6.39842 -5.63821,-9.8099 -8.755,-19.07274 -12.966632,-38.5357 -2.0713,-9.572013 -7.07895,-21.399113 -12.23536,-28.897473 -3.50035,-5.09015 -10.74548,-12.31682 -14.77585,-14.73819 -5.0513,-3.0347396 -11.83439,-4.7319396 -16.45963,-4.1183796 -1.96996,0.26136 -5.53691,1.40825 -7.92657,2.54874 -2.38966,1.1404796 -4.6646,2.0735796 -5.05542,2.0735796 -0.39082,0 -2.09534,-0.79162 -3.78783,-1.7591796 -3.71027,-2.12104 -7.79707,-2.29045 -11.20206,-0.46433 -11.01521,5.9075496 -6.64699,35.8358896 8.15631,55.8818226 2.12158,2.87296 3.85742,5.61847 3.85742,6.10116 0,0.98687 -1.94609,1.83412 -8.1314,3.53997 -10.88649,3.0024 -19.82478,10.558 -25.4140796,21.48265 -3.40233,6.650051 -3.40233,6.650051 -3.07581,15.692111 0.30219,8.36909 0.49187,9.37797 2.5483,13.55518 6.1956896,12.58524 23.2093096,21.03535 38.0416596,18.89404 z m -13.86776,-21.01017 c -6.06845,-3.72551 -9.192,-9.25678 -9.192,-16.2775 0,-4.04265 0.38681,-5.60802 2.4083,-9.745821 4.78184,-9.78811 13.284,-17.42978 22.51049,-20.23224 2.62817,-0.79828 4.77846,-1.70311 4.77846,-2.01075 0,-0.30766 -1.75154,-4.01534 -3.89233,-8.23931 -4.03578,-7.96299 -6.73647,-16.7559 -6.68281,-21.757813 0.035,-3.27455 1.66252,-8.40601 2.78445,-8.78 0.40984,-0.13655 1.23834,-0.74157 1.84108,-1.34429 0.87335,-0.87336 2.16318,-1.01521 6.35084,-0.6985 4.25668,0.32192 6.45923,0.97864 11.59462,3.45705 3.48685,1.68278 6.35718,3.21869 6.37856,3.41315 0.0214,0.19455 3.50181,3.94326 7.73427,8.33067 8.46636,8.776333 10.86835,12.816953 15.23417,25.627083 2.68134,7.86759 3.647,9.84746 7.4528,15.28043 3.368462,4.80864 3.572902,6.43964 0.8765,6.99315 -5.14111,1.05537 -7.24753,1.88021 -7.24753,2.838011 0,0.56772 -0.55936,1.03224 -1.24302,1.03224 -0.68364,0 -2.8314,0.83468 -4.77276,1.85481 -4.38712,2.30539 -21.28889,12.05093 -23.68146,13.65476 -0.97223,0.65169 -2.88135,1.62507 -4.24246,2.16302 -1.36112,0.53796 -3.58842,1.66254 -4.94954,2.49907 -1.36113,0.83654 -3.7475,1.76205 -5.30308,2.05672 -1.55557,0.29465 -4.10105,0.79389 -5.65661,1.10939 -3.81607,0.77399 -10.90781,0.11067 -13.08094,-1.22333 z"
       id="path10-8-0" />
    <path
       style="fill:#e62024;stroke-width:2.22785"
       d="m 150.13041,264.71844 c 7.61915,-1.09996 12.20094,-3.6987 24.29596,-13.78043 15.03657,-12.53362 25.46035,-19.49943 33.25657,-22.22407 1.21574,-0.42487 2.20847,-1.05078 2.20606,-1.39091 -0.002,-0.34013 -1.224,-2.74044 -2.71466,-5.33402 -4.70027,-8.178 -7.29858,-15.89993 -10.80958,-32.12517 -1.72674,-7.97968 -5.90136,-17.83929 -10.19999,-24.09028 -2.91806,-4.2434 -8.95792,-10.26789 -12.31783,-12.28645 -4.21101,-2.52991 -9.86572,-3.94478 -13.72154,-3.43329 -1.64224,0.21789 -4.61582,1.17399 -6.60796,2.12475 -1.99213,0.95076 -3.88863,1.72864 -4.21444,1.72864 -0.3258,0 -1.74677,-0.65993 -3.15771,-1.46653 -3.09306,-1.7682 -6.5,-1.90943 -9.33855,-0.38709 -9.18281,4.92481 -5.54126,29.87448 6.79947,46.58572 1.76865,2.39503 3.21572,4.68382 3.21572,5.08621 0,0.8227 -1.62234,1.529 -6.77871,2.95108 -9.07549,2.50294 -16.52687,8.80165 -21.18637,17.90895 -2.83634,5.54379 -2.83634,5.54379 -2.56414,13.08168 0.25192,6.97686 0.41006,7.81792 2.12439,11.30024 5.16501,10.49165 19.34837,17.53606 31.71331,15.75097 z m -11.56082,-17.51506 c -5.05894,-3.10578 -7.66288,-7.7169 -7.66288,-13.56971 0,-3.37015 0.32246,-4.67511 2.00767,-8.12458 3.98636,-8.15983 11.07417,-14.53029 18.76581,-16.86655 2.19096,-0.66547 3.98354,-1.41979 3.98354,-1.67625 0,-0.25648 -1.46017,-3.34737 -3.24483,-6.86867 -3.36441,-6.63832 -5.61583,-13.96851 -5.5711,-18.13834 0.0292,-2.72981 1.38595,-7.00764 2.32124,-7.31941 0.34167,-0.11384 1.03235,-0.61821 1.53482,-1.12067 0.72806,-0.72807 1.80333,-0.84632 5.29435,-0.5823 3.54857,0.26837 5.38473,0.81584 9.66584,2.88196 2.9068,1.40285 5.29964,2.68326 5.31746,2.84536 0.0178,0.16219 2.91928,3.28729 6.44766,6.94484 7.05795,7.31636 9.06036,10.68482 12.69992,21.36394 2.23529,6.5588 3.04031,8.2093 6.21301,12.73848 2.8081,4.00871 2.97852,5.36838 0.73069,5.82982 -4.28588,0.8798 -6.04189,1.56743 -6.04189,2.36589 0,0.47329 -0.46632,0.86054 -1.03624,0.86054 -0.56991,0 -2.36039,0.69582 -3.97879,1.54625 -3.65732,1.92188 -17.74743,10.04622 -19.74199,11.38324 -0.81049,0.54329 -2.40203,1.35474 -3.53671,1.8032 -1.1347,0.44847 -2.99148,1.38598 -4.12618,2.08334 -1.1347,0.69738 -3.12409,1.46895 -4.4209,1.71459 -1.29679,0.24564 -3.41882,0.66183 -4.71561,0.92484 -3.18125,0.64524 -9.09327,0.0923 -10.90489,-1.01981 z"
       id="path10-8-6" />
    <path
       style="fill:#e62024;stroke-width:2.67242"
       d="m 43.569993,290.19909 c 9.13953,-1.31944 14.63562,-4.43677 29.14418,-16.53029 18.03709,-15.03467 30.540907,-23.39049 39.892867,-26.65883 1.45833,-0.50967 2.64915,-1.26048 2.64627,-1.66847 -0.002,-0.40801 -1.46826,-3.2873 -3.25637,-6.39842 -5.63821,-9.8099 -8.755,-19.07274 -12.966627,-38.5357 -2.0713,-9.57201 -7.07895,-21.39911 -12.23536,-28.89747 -3.50035,-5.09015 -10.74548,-12.31682 -14.77585,-14.73819 -5.0513,-3.03474 -11.83439,-4.73194 -16.45963,-4.11838 -1.96996,0.26136 -5.53691,1.40825 -7.92657,2.54874 -2.38966,1.14048 -4.6646,2.07358 -5.05542,2.07358 -0.39082,0 -2.09534,-0.79162 -3.78783,-1.75918 -3.71027,-2.12104 -7.79707,-2.29045 -11.20206,-0.46433 -11.01521,5.90755 -6.64699,35.83589 8.15631,55.88182 2.12158,2.87296 3.85742,5.61847 3.85742,6.10116 0,0.98687 -1.94609,1.83412 -8.1314,3.53997 -10.88649,3.0024 -19.82478,10.558 -25.4140796,21.48265 -3.40233,6.65006 -3.40233,6.65006 -3.07581,15.69212 0.30219,8.36909 0.49187,9.37797 2.5483,13.55518 6.1956896,12.58524 23.2093096,21.03535 38.0416596,18.89404 z m -13.86776,-21.01017 c -6.06845,-3.72551 -9.192,-9.25678 -9.192,-16.2775 0,-4.04265 0.38681,-5.60802 2.4083,-9.74583 4.78184,-9.78811 13.284,-17.42978 22.51049,-20.23224 2.62817,-0.79828 4.77846,-1.70311 4.77846,-2.01075 0,-0.30766 -1.75154,-4.01534 -3.89233,-8.23931 -4.03578,-7.96299 -6.73647,-16.7559 -6.68281,-21.75781 0.035,-3.27455 1.66252,-8.40601 2.78445,-8.78 0.40984,-0.13655 1.23834,-0.74157 1.84108,-1.34429 0.87335,-0.87336 2.16318,-1.01521 6.35084,-0.6985 4.25668,0.32192 6.45923,0.97864 11.59462,3.45705 3.48685,1.68278 6.35718,3.21869 6.37856,3.41315 0.0214,0.19455 3.50181,3.94326 7.73427,8.33067 8.46636,8.77633 10.86835,12.81695 15.23417,25.62708 2.68134,7.86759 3.647,9.84746 7.4528,15.28043 3.368457,4.80864 3.572897,6.43964 0.8765,6.99315 -5.14111,1.05537 -7.24753,1.88021 -7.24753,2.83801 0,0.56773 -0.55936,1.03225 -1.24302,1.03225 -0.68364,0 -2.8314,0.83468 -4.77276,1.85481 -4.38712,2.30539 -21.28889,12.05093 -23.68146,13.65476 -0.97223,0.65169 -2.88135,1.62507 -4.24246,2.16302 -1.36112,0.53796 -3.58842,1.66254 -4.94954,2.49907 -1.36113,0.83654 -3.7475,1.76205 -5.30308,2.05672 -1.55557,0.29465 -4.10105,0.79389 -5.65661,1.10939 -3.81607,0.77399 -10.90781,0.11067 -13.08094,-1.22333 z"
       id="path10-8-0-1" />
  </g>
</svg>
