<?xml version="1.0" encoding="UTF-8" standalone="no"?>
<!-- Created with Inkscape (http://www.inkscape.org/) -->

<svg
   width="210mm"
   height="297mm"
   viewBox="0 0 210 297"
   version="1.1"
   id="svg1"
   inkscape:version="1.3.2 (091e20e, 2023-11-25, custom)"
   sodipodi:docname="ilves.svg"
   xmlns:inkscape="http://www.inkscape.org/namespaces/inkscape"
   xmlns:sodipodi="http://sodipodi.sourceforge.net/DTD/sodipodi-0.dtd"
   xmlns="http://www.w3.org/2000/svg"
   xmlns:svg="http://www.w3.org/2000/svg">
  <sodipodi:namedview
     id="namedview1"
     pagecolor="#ffffff"
     bordercolor="#000000"
     borderopacity="0.25"
     inkscape:showpageshadow="2"
     inkscape:pageopacity="0.0"
     inkscape:pagecheckerboard="0"
     inkscape:deskcolor="#d1d1d1"
     inkscape:document-units="mm"
     inkscape:zoom="3.7846085"
     inkscape:cx="414.57393"
     inkscape:cy="558.44614"
     inkscape:window-width="1920"
     inkscape:window-height="986"
     inkscape:window-x="-11"
     inkscape:window-y="-11"
     inkscape:window-maximized="1"
     inkscape:current-layer="layer1" />
  <defs
     id="defs1">
    <pattern
       id="EMFhbasepattern"
       patternUnits="userSpaceOnUse"
       width="6"
       height="6"
       x="0"
       y="0" />
  </defs>
  <g
     inkscape:label="Taso 1"
     inkscape:groupmode="layer"
     id="layer1">
    <g
       id="g16">
      <path
         style="fill:#e5b874"
         d="m 87.566765,150.28797 v -37.065 h 28.416495 28.41651 v 37.065 37.065 H 115.98326 87.566765 Z m 18.620745,-7.05811 c 0.29123,-0.19239 0.65909,-0.44388 0.81747,-0.55888 0.22699,-0.1648 0.4195,-0.14666 0.90917,0.0857 0.68419,0.32466 2.14894,0.38952 2.84242,0.12586 0.80742,-0.30698 1.3541,-2.04841 0.89481,-2.85035 -0.13308,-0.23237 -0.32138,-0.59738 -0.41845,-0.81115 -0.28564,-0.62902 -1.2755,-1.06899 -1.50889,-0.67066 -1.30952,2.23496 -3.36021,2.33559 -4.59553,0.2255 -0.59871,-1.02268 -2.214,0.64389 -2.07798,2.14396 0.19668,2.16898 1.68805,3.26719 3.13698,2.31001 z m 1.05302,-4.88833 c 0.70068,-0.33413 0.80513,-0.6802 0.25772,-0.85394 -0.7017,-0.22271 -1.78032,0.50066 -1.47739,0.99081 0.14721,0.23819 0.52117,0.19622 1.21967,-0.13687 z m -1.17672,-2.58322 c 0.26504,-0.73294 0.26968,-1.22701 0.0139,-1.48275 -0.53338,-0.53338 -1.05625,0.64986 -0.70057,1.58537 0.24256,0.63799 0.42888,0.61014 0.68662,-0.10262 z m 4.16359,0.0845 c 0.44287,-1.57865 0.2498,-2.21856 -0.51765,-1.71571 -0.72029,0.47195 -0.53913,2.38231 0.19905,2.09904 0.13009,-0.0499 0.27346,-0.22242 0.3186,-0.38333 z m 2.01926,-1.50613 c 0.27848,-0.57146 0.0335,-1.0067 -0.48957,-0.8699 -0.402,0.10513 -0.53807,0.5456 -0.3367,1.08995 0.18575,0.50214 0.51737,0.41382 0.82627,-0.22005 z m -8.83154,-0.63953 c -0.0358,-0.30654 -0.15946,-0.44141 -0.40461,-0.44141 -0.42886,0 -0.6202,1.10201 -0.23371,1.34607 0.3191,0.20151 0.70389,-0.34383 0.63832,-0.90466 z m 12.75063,-0.54779 c 0.26042,-0.7891 0.10908,-1.25822 -0.44078,-1.3663 -0.54158,-0.10645 -0.6628,0.2274 -0.53064,1.46146 0.14427,1.34719 0.50713,1.31165 0.97142,-0.0952 z m -15.91749,0.26825 c 0.034,-0.1861 0.20354,-0.49722 0.37684,-0.69137 0.66023,-0.73966 0.64239,-2.02975 -0.0281,-2.02975 -0.998936,0 -1.377744,0.86436 -1.00913,2.30261 0.22341,0.8717 0.54094,1.07294 0.66036,0.41851 z"
         id="path20" />
      <path
         style="fill:#b8935b"
         d="m 87.566765,150.28797 v -37.065 h 24.607445 c 23.11083,0 24.64052,0.0188 25.15125,0.30887 0.51791,0.29417 0.5697,0.29417 1.08761,0 0.453,-0.2573 0.99822,-0.30887 3.26525,-0.30887 h 2.72145 v 37.065 37.065 H 115.98326 87.566765 Z m 30.887495,25.85358 c 0,-0.30776 -0.2953,-1.60871 -0.64019,-2.82033 -0.2418,-0.84947 -0.76598,-3.24783 -0.82937,-3.79475 -0.0169,-0.14561 -0.18954,-0.30758 -0.38369,-0.35993 -0.24176,-0.0652 -0.37033,-0.27255 -0.40801,-0.65801 -0.037,-0.37851 -0.24572,-0.72303 -0.63735,-1.05206 -0.32028,-0.26909 -0.86515,-0.88637 -1.21083,-1.37175 -0.34568,-0.48537 -0.86282,-1.01998 -1.14921,-1.18802 l -0.52069,-0.30551 -0.0901,0.79954 c -0.0496,0.43975 -0.0289,1.0935 0.0459,1.45277 0.4749,2.28049 0.29306,2.49293 -0.98014,1.1451 -0.43219,-0.45753 -0.78581,-0.78221 -0.78581,-0.72152 0,0.65444 -0.61949,3.03176 -0.95945,3.68192 l -0.43543,0.83275 0.36273,0.32827 c 0.19951,0.18055 0.55248,0.65204 0.78438,1.04775 0.52323,0.89283 1.56066,1.64413 3.13039,2.26702 0.66323,0.26317 1.45748,0.63192 1.765,0.81943 0.63999,0.39024 1.18751,0.43752 1.49585,0.12919 0.16641,-0.16641 0.27702,-0.14909 0.50523,0.0791 0.33279,0.3328 0.9408,0.13182 0.9408,-0.31097 z m -3.0005,-6.35033 c 0,-0.0485 0.0397,-0.0883 0.0883,-0.0883 0.0485,0 0.0883,0.0397 0.0883,0.0883 0,0.0485 -0.0397,0.0882 -0.0883,0.0882 -0.0485,0 -0.0883,-0.0397 -0.0883,-0.0882 z m -0.5295,-0.706 c 0,-0.0485 0.0397,-0.0882 0.0883,-0.0882 0.0485,0 0.0882,0.0397 0.0882,0.0882 0,0.0485 -0.0397,0.0883 -0.0882,0.0883 -0.0485,0 -0.0883,-0.0397 -0.0883,-0.0883 z m -5.50277,-22.51683 c 2.09323,-0.50036 3.45215,-0.97175 4.23031,-1.46745 0.36009,-0.22938 1.13126,-0.60474 1.71371,-0.83413 0.58245,-0.22939 1.36877,-0.63639 1.74736,-0.90445 1.13829,-0.80596 1.36446,-0.58863 1.00373,0.96449 -0.24455,1.05288 1.45132,-0.16837 2.33839,-1.68395 0.88025,-1.50395 1.58478,-5.23943 0.98817,-5.23943 -0.67808,0 -1.07425,-0.32602 -0.86693,-0.71341 0.10173,-0.19007 0.11279,-0.34559 0.0246,-0.34559 -0.35136,0 -2.8019,0.67607 -3.38207,0.93306 l -0.61775,0.27365 0.79425,0.0215 0.79425,0.0215 -0.48885,0.26515 c -1.86638,1.01228 -6.03496,1.50945 -6.90756,0.82385 -0.68337,-0.53693 -0.85736,-0.50471 -1.35489,0.25091 -1.26419,1.91996 -3.63629,1.68577 -4.32389,-0.4269 -0.008,-0.024 -0.39468,0.086 -0.85971,0.24449 -0.64623,0.22019 -1.1629,0.26011 -2.19206,0.16938 -0.74059,-0.0653 -2.208515,-0.19009 -3.262047,-0.27733 -2.244653,-0.18587 -2.284533,-0.20621 -1.455541,-0.74218 0.551518,-0.35657 0.966525,-0.9435 0.783793,-1.10849 -0.03313,-0.0299 -1.18155,-0.0953 -2.552039,-0.14524 l -2.491799,-0.0908 0.177025,0.73217 c 0.09736,0.40269 0.330734,0.85586 0.5186,1.00704 0.333624,0.26849 0.331285,0.27957 -0.100472,0.4763 l -0.442047,0.20141 0.358725,0.7592 c 0.603888,1.27808 1.788444,3.01056 2.497568,3.65284 0.370316,0.33542 0.785576,0.82696 0.922801,1.09232 0.264908,0.51228 0.791033,0.66943 2.375148,0.70945 0.436837,0.011 1.032525,0.12459 1.323745,0.25233 3.41894,1.49967 5.83969,1.81346 8.70548,1.12844 z m -2.15752,-8.21428 c 0.66529,-0.3157 0.78071,-0.69309 0.2623,-0.85763 -0.49943,-0.15851 -1.23435,0.0765 -1.43982,0.46044 -0.36936,0.69015 0.17395,0.87341 1.17752,0.39719 z m -2.48664,-2.08727 c 0.36053,-0.15064 0.64998,-0.18658 0.71075,-0.0882 0.18965,0.30687 0.3989,0.16948 0.59392,-0.38996 0.27457,-0.78763 0.24206,-1.55471 -0.071,-1.67483 -0.14561,-0.0559 -0.26475,-0.30747 -0.26475,-0.55909 0,-1.13192 -2.21979,-2.50524 -4.0494,-2.50524 -0.39385,0 -0.7161,-0.0794 -0.7161,-0.1765 0,-0.35447 -1.033179,-0.18478 -1.313737,0.21577 -0.501625,0.71617 -0.138288,2.88111 0.457537,2.72625 0.20895,-0.0543 0.32133,0.0757 0.39837,0.46092 0.30072,1.50361 2.7158,2.63379 4.2544,1.99093 z m -1.99627,-0.66367 c -0.30769,-0.3077 -0.2763,-1.03737 0.0394,-0.91622 0.30044,0.11529 0.63128,-0.436 0.63128,-1.05192 0,-0.24098 -0.0993,-0.4782 -0.22062,-0.52717 -0.15203,-0.0613 -0.15651,-0.0933 -0.0144,-0.10296 0.30291,-0.0205 0.94102,1.09917 0.94102,1.65113 0,0.98898 -0.7908,1.53304 -1.3767,0.94714 z m 7.32346,0.54845 c 0.13946,-0.13947 0.29259,-0.13947 0.55319,0 1.23023,0.6584 3.15001,0.0794 4.42051,-1.33316 1.48866,-1.65515 1.63823,-2.92427 0.35578,-3.01883 -0.32889,-0.0242 -1.17052,-0.0908 -1.87028,-0.14779 -1.50284,-0.12248 -2.51961,0.30355 -2.8966,1.21368 -0.12011,0.28996 -0.51728,0.82314 -0.88261,1.18484 -0.4182,0.41403 -0.63929,0.78093 -0.59688,0.9905 0.0371,0.18307 0.11338,0.55128 0.16962,0.81824 0.1062,0.50417 0.41481,0.62498 0.74727,0.29252 z m 1.99574,-0.28264 c -0.67144,-0.23996 -0.9297,-1.06105 -0.32673,-1.03877 0.6044,0.0223 0.85143,-0.92036 0.348,-1.32802 -0.44608,-0.3612 -0.19951,-0.61903 0.32404,-0.33884 0.97751,0.52315 0.95513,3.05921 -0.0248,2.81419 -0.0306,-0.008 -0.17486,-0.0565 -0.32048,-0.10856 z m -3.17036,-5.49552 c 0.67202,-1.79612 0.66725,-2.44123 -0.0192,-2.59199 -0.98925,-0.21727 -1.28595,0.34432 -1.17927,2.23219 0.13222,2.34009 0.42465,2.42789 1.19842,0.3598 z m -2.90574,-0.61239 c 0.50132,-0.28122 -0.15848,-1.3591 -0.83195,-1.3591 -0.6941,0 -0.73537,0.64339 -0.1161,1.80969 l 0.5819,1.09594 0.0573,-0.70269 c 0.0315,-0.38648 0.17049,-0.76621 0.30888,-0.84384 z m 5.8996,-0.7241 c 0,-0.96672 -0.77563,-0.78579 -1.45532,0.33949 -0.40033,0.66278 -0.43868,0.81982 -0.22061,0.90349 0.14516,0.0557 0.26592,0.23178 0.26835,0.39128 0.003,0.19531 0.23348,0.0473 0.706,-0.4533 0.42933,-0.45485 0.70158,-0.91313 0.70158,-1.18096 z m -11.70916,0.77128 c 1.13201,-0.85467 1.11962,-0.70639 0.13486,-1.61412 -0.444287,-0.40953 -0.919487,-0.94728 -1.055997,-1.19501 -0.13651,-0.24772 -0.434244,-0.67259 -0.661631,-0.94415 l -0.413431,-0.49375 0.311573,1.55275 c 0.171365,0.85401 0.365212,1.96973 0.430769,2.47938 0.142769,1.10988 0.08222,1.0995 1.253857,0.2149 z m 15.86137,-3.07222 c 0.46887,-1.61285 0.25793,-1.61164 -1.02313,0.006 l -1.19518,1.50908 0.40093,0.336 c 0.54798,0.45924 1.39723,-0.40569 1.81738,-1.85095 z m 21.26379,-13.33656 c -0.19239,-0.12434 -0.0477,-0.1711 0.5295,-0.1711 0.57719,0 0.7219,0.0468 0.5295,0.1711 -0.14561,0.0941 -0.38388,0.17109 -0.5295,0.17109 -0.14561,0 -0.38388,-0.077 -0.5295,-0.17109 z"
         id="path19" />
      <path
         style="fill:#aa792d"
         d="m 87.566765,150.28797 v -37.065 h 24.607445 c 23.11083,0 24.64052,0.0188 25.15125,0.30887 0.51791,0.29417 0.5697,0.29417 1.08761,0 0.453,-0.2573 0.99822,-0.30887 3.26525,-0.30887 h 2.72145 v 37.065 37.065 H 115.98326 87.566765 Z m 29.929745,26.30929 c 0.70374,0.58405 1.20079,-0.1962 0.8686,-1.36347 -0.65424,-2.29891 -0.96985,-3.59836 -0.96985,-3.99314 0,-0.23886 -0.11561,-0.76198 -0.25692,-1.16249 -0.1413,-0.4005 -0.20087,-0.72936 -0.13237,-0.73079 0.0685,-0.001 -0.074,-0.10255 -0.31671,-0.22471 -0.27092,-0.13638 -0.46225,-0.40213 -0.49565,-0.68847 -0.0309,-0.26457 -0.43605,-0.87375 -0.93645,-1.40791 -0.48512,-0.51786 -1.19346,-1.27911 -1.5741,-1.69168 -1.01373,-1.09879 -1.45387,-0.62387 -1.15535,1.24668 0.41815,2.62012 0.36721,2.70537 -0.84797,1.41908 -0.87749,-0.92885 -0.83177,-0.96774 -1.17168,0.99661 -0.10919,0.63099 -0.39644,1.48787 -0.63834,1.90419 l -0.43982,0.75694 0.46052,0.56681 c 0.25329,0.31175 0.71603,0.92011 1.02832,1.35192 0.57447,0.79434 1.0401,1.07922 4.16203,2.54636 1.04777,0.49239 1.38988,0.57995 1.74235,0.44595 0.29428,-0.11189 0.51584,-0.10264 0.67339,0.0281 z m -2.04275,-6.80604 c 0,-0.0485 0.0397,-0.0883 0.0883,-0.0883 0.0485,0 0.0883,0.0397 0.0883,0.0883 0,0.0485 -0.0397,0.0882 -0.0883,0.0882 -0.0485,0 -0.0883,-0.0397 -0.0883,-0.0882 z m 26.29851,3.3535 c 0,-0.0485 -0.0397,-0.0883 -0.0883,-0.0883 -0.0485,0 -0.0882,0.0397 -0.0882,0.0883 0,0.0485 0.0397,0.0882 0.0882,0.0882 0.0485,0 0.0883,-0.0397 0.0883,-0.0882 z m -0.353,-0.1765 c 0,-0.0485 -0.0397,-0.0883 -0.0882,-0.0883 -0.0485,0 -0.0883,0.0397 -0.0883,0.0883 0,0.0485 0.0397,0.0882 0.0883,0.0882 0.0485,0 0.0882,-0.0397 0.0882,-0.0882 z m -1.059,-0.5295 c 0,-0.0485 -0.0397,-0.0882 -0.0883,-0.0882 -0.0485,0 -0.0882,0.0397 -0.0882,0.0882 0,0.0485 0.0397,0.0883 0.0882,0.0883 0.0485,0 0.0883,-0.0397 0.0883,-0.0883 z m -1.63631,-0.19488 c -0.0587,-0.0587 -0.21088,-0.0649 -0.33829,-0.0139 -0.1408,0.0564 -0.099,0.0982 0.10664,0.10664 0.18606,0.008 0.2903,-0.0341 0.23165,-0.0927 z m 1.15093,-0.0103 c -0.12134,-0.049 -0.31991,-0.049 -0.44125,0 -0.12134,0.049 -0.0221,0.089 0.22062,0.089 0.24269,0 0.34197,-0.0401 0.22063,-0.089 z m 2.07388,-4.73686 c 0,-0.0485 -0.0397,-0.0883 -0.0882,-0.0883 -0.0485,0 -0.0882,0.0397 -0.0882,0.0883 0,0.0485 0.0397,0.0882 0.0882,0.0882 0.0485,0 0.0882,-0.0397 0.0882,-0.0882 z m -34.18611,-11.29451 c 1.86118,-2.60354 4.66434,-7.81164 5.15749,-9.58229 0.34888,-1.25264 0.61034,-1.50266 2.32526,-2.22349 0.60247,-0.25324 1.4679,-0.69667 1.92319,-0.9854 0.85107,-0.53974 1.20388,-0.55162 1.06351,-0.0358 -0.47282,1.73734 -0.25519,1.97241 0.87801,0.94837 1.25626,-1.13523 1.75905,-2.07651 2.28672,-4.28094 0.6192,-2.58685 0.62376,-2.46174 -0.0986,-2.70218 -0.49267,-0.16399 -0.60656,-0.28563 -0.56253,-0.6008 0.0358,-0.25632 -0.0367,-0.39518 -0.20637,-0.39518 -0.39784,0 -2.39627,0.51659 -3.2906,0.85061 l -0.79425,0.29664 0.79425,0.0983 0.79425,0.0983 -0.5295,0.22537 c -2.48979,1.05971 -5.57384,1.35229 -6.80943,0.64601 -0.93618,-0.53513 -1.04482,-0.54771 -1.04482,-0.12095 0,1.17237 -2.07003,2.19028 -3.23272,1.58965 -0.46715,-0.24132 -1.16467,-1.04097 -1.17343,-1.34522 -0.008,-0.27782 -0.0796,-0.27489 -1.13917,0.0465 -0.88781,0.26932 -0.89895,0.26895 -6.102779,-0.20099 l -1.146353,-0.10352 0.660986,-0.55495 c 1.120613,-0.94084 0.930597,-1.26896 -0.706657,-1.22024 -0.752467,0.0224 -1.905167,-0.0229 -2.561556,-0.10072 l -1.193434,-0.14142 0.118991,0.63021 c 0.06544,0.34662 0.119321,0.7404 0.119725,0.87506 4.04e-4,0.13467 0.146348,0.28292 0.324319,0.32946 0.411377,0.10758 0.40633,0.18416 -0.0359,0.54466 l -0.359479,0.29304 0.380465,0.79425 c 0.461588,0.9636 1.907095,3.177 2.074807,3.177 0.06639,0 0.464691,0.43109 0.885121,0.95797 0.621399,0.77874 0.89348,0.97977 1.454242,1.07451 l 0.689824,0.11655 v 0.94693 c 0,0.52081 0.07115,1.12938 0.158119,1.35236 0.08697,0.22299 0.256106,0.76284 0.375867,1.19968 0.208383,0.7601 0.532204,1.55041 0.867819,2.118 0.0861,0.14561 0.50818,0.97958 0.93795,1.85325 1.07693,2.18928 2.00794,3.61976 3.5195,5.40763 l 1.28899,1.52463 0.32268,-0.81713 c 0.17747,-0.44943 0.89093,-1.61206 1.58547,-2.58364 z m -0.38815,-17.8382 c 0.76727,-0.39677 0.6191,-0.87899 -0.26143,-0.85081 -0.74949,0.024 -1.27422,0.42392 -1.11174,0.84733 0.13593,0.35423 0.69217,0.35564 1.37317,0.003 z m 7.68742,-0.37221 c -0.0647,-0.0647 -0.17062,-0.0647 -0.23533,0 -0.0647,0.0647 -0.0118,0.11767 0.11766,0.11767 0.12944,0 0.18239,-0.0529 0.11767,-0.11767 z m -10.24916,-1.65389 c 0.33248,-0.12641 0.53812,-0.12641 0.66454,0 0.60482,0.60482 1.18529,-1.32056 0.65621,-2.17662 -0.20199,-0.32683 -0.36726,-0.70732 -0.36726,-0.84553 0,-0.84698 -2.12601,-2.18117 -3.78669,-2.37635 -0.5438,-0.0639 -1.02629,-0.17698 -1.07219,-0.25125 -0.11604,-0.18775 -0.81465,0.004 -1.18624,0.32531 -0.342744,0.29651 -0.443785,1.87329 -0.132375,2.06575 0.09708,0.06 0.1765,0.30831 0.1765,0.55181 0,0.36241 0.06404,0.4224 0.352995,0.33069 0.27613,-0.0876 0.353,-0.0317 0.353,0.2568 0,1.37397 2.75926,2.72096 4.34151,2.11939 z m -1.936,-0.79015 c -0.41634,-0.41634 -0.3794,-0.95927 0.0575,-0.84502 0.34467,0.0901 0.40055,-0.0146 0.58364,-1.09402 0.0502,-0.29622 0.11064,-0.25728 0.37549,0.24207 0.31748,0.59858 0.27612,1.78768 -0.0622,1.78768 -0.0847,0 -0.26946,0.0443 -0.41049,0.0984 -0.14104,0.0541 -0.38581,-0.031 -0.54394,-0.18911 z m 10.99673,0.44971 c 1.66076,-0.84725 3.15462,-3.73345 2.17389,-4.20003 -1.71732,-0.817 -4.88864,-0.0858 -5.55226,1.28008 -0.21269,0.43777 -0.48819,0.79595 -0.61222,0.79595 -0.45389,0 -0.80347,0.82749 -0.6738,1.59498 0.13078,0.77411 0.46488,1.0452 0.87185,0.70745 0.19387,-0.1609 0.35634,-0.15272 0.71671,0.0361 0.62741,0.32874 2.23006,0.21696 3.07583,-0.21452 z m -2.27653,-0.5239 c -0.25087,-0.46877 -0.23694,-0.50857 0.2006,-0.57295 0.60826,-0.0895 0.83284,-1.00255 0.34396,-1.39843 -0.49887,-0.40395 -0.16278,-0.61208 0.39656,-0.24559 0.62771,0.4113 0.89638,1.87957 0.42937,2.34657 -0.3356,0.33561 -1.16341,0.25733 -1.37049,-0.1296 z m -14.008538,0.40023 c -0.06472,-0.0647 -0.170617,-0.0647 -0.235334,0 -0.06472,0.0647 -0.01177,0.11767 0.117667,0.11767 0.129433,0 0.182383,-0.0529 0.117667,-0.11767 z m 11.351528,-5.37283 c 0.71545,-1.85522 0.68702,-2.69303 -0.094,-2.76944 -0.89489,-0.0876 -1.23012,0.45875 -1.20808,1.96876 0.0368,2.52247 0.5228,2.82133 1.30204,0.80068 z m -3.14453,0.18411 c -0.0586,-0.61437 -0.0142,-0.73157 0.30916,-0.81613 0.72201,-0.18881 -0.0633,-1.52552 -0.84081,-1.43121 -0.9555,0.1159 -0.89587,0.86175 0.19823,2.47936 0.41771,0.61757 0.41464,0.61971 0.33342,-0.23202 z m 5.99946,-1.10518 c 0.37479,-0.73095 0.23253,-1.17793 -0.37488,-1.17793 -0.64098,0 -1.65276,1.7077 -1.17139,1.97708 0.15573,0.0871 0.28314,0.2875 0.28314,0.44521 0,0.42231 0.82555,-0.39097 1.26313,-1.24436 z m -11.973176,0.60761 c 1.461376,-1.00809 1.479076,-1.07853 0.519466,-2.06682 -0.462462,-0.47628 -1.145623,-1.30281 -1.518132,-1.83672 -0.589216,-0.84451 -0.663759,-0.90189 -0.573235,-0.44125 0.411463,2.09378 0.642874,3.49945 0.679046,4.12477 0.05017,0.86723 -0.02021,0.84988 0.892855,0.22002 z m 15.542636,-1.89314 c 0.50954,-0.6386 1.23912,-2.6796 1.13543,-3.17635 -0.0322,-0.15426 -0.48756,0.33057 -1.09092,1.1615 -0.56962,0.78445 -1.20033,1.5144 -1.40158,1.62211 -0.36061,0.19299 -0.35889,0.20188 0.11887,0.61284 0.62329,0.53613 0.63671,0.53374 1.2382,-0.2201 z m 21.99541,-14.8949 c -0.19239,-0.12434 -0.0477,-0.1711 0.5295,-0.1711 0.57719,0 0.7219,0.0468 0.5295,0.1711 -0.14561,0.0941 -0.38388,0.17109 -0.5295,0.17109 -0.14561,0 -0.38388,-0.077 -0.5295,-0.17109 z"
         id="path18" />
      <path
         style="fill:#785219"
         d="m 87.566765,150.28797 v -37.065 h 24.607445 c 23.11083,0 24.64052,0.0188 25.15125,0.30887 0.51791,0.29417 0.5697,0.29417 1.08761,0 0.453,-0.2573 0.99822,-0.30887 3.26525,-0.30887 h 2.72145 v 37.065 37.065 H 115.98326 87.566765 Z m 27.956255,31.48583 c 1.83864,-0.72879 3.12989,-0.90119 4.51974,-0.60344 2.62036,0.56135 2.95195,0.58869 5.21578,0.43004 l 2.28547,-0.16018 0.0883,-0.77632 c 0.15772,-1.3874 0.87743,-1.24579 3.2021,0.63003 0.59981,0.484 0.73569,0.5166 2.02975,0.48698 2.64016,-0.0604 3.07098,-0.21289 4.60587,-1.62992 2.35611,-2.17517 2.50488,-2.33832 2.85583,-3.13171 0.18832,-0.42572 0.572,-1.11424 0.85263,-1.53005 1.20912,-1.79157 1.17046,-2.07316 -0.39318,-2.8643 -1.99966,-1.01173 -3.36995,-0.55703 -4.33187,1.43744 -0.3036,0.62951 -0.59222,1.10434 -0.64136,1.0552 -0.0491,-0.0491 -0.003,-0.25078 0.10261,-0.44807 1.94673,-3.6375 -0.48385,-12.10733 -4.34851,-15.15323 -1.81286,-1.42879 -3.77057,-3.42158 -4.64732,-4.73059 -0.389,-0.58078 -1.56504,-1.92963 -2.61344,-2.99746 -3.91517,-3.98774 -5.23586,-7.00898 -3.91767,-8.96217 0.39652,-0.58754 0.69763,-1.40174 1.01056,-2.73261 0.60567,-2.57591 0.60784,-2.52567 -0.12,-2.77863 -0.69278,-0.24077 -0.74183,-0.61999 -0.1612,-1.24647 0.39377,-0.42486 0.45543,-0.74729 0.084,-0.439 -0.48353,0.4013 -2.14141,-0.29209 -2.91459,-1.219 -1.90602,-2.28497 -2.1438,-3.72319 -1.08295,-6.55037 0.52942,-1.41091 0.69885,-2.12926 0.72558,-3.07625 0.0481,-1.70572 0.0157,-2.28504 -0.12042,-2.14895 -0.33724,0.33724 -1.14974,-1.15161 -1.01251,-1.85536 0.0768,-0.39365 0.0736,-0.39482 -0.0881,-0.0329 -0.50048,1.11993 -3.1394,4.59705 -4.25117,5.60146 -0.39082,0.35308 -0.65833,0.64197 -0.59447,0.64197 0.0639,0 -0.0225,0.15312 -0.19183,0.34027 -0.2862,0.31625 -0.51416,0.33488 -3.22931,0.26386 -2.13322,-0.0558 -2.99122,-0.0185 -3.18027,0.13844 -0.29502,0.24484 -0.75019,-0.21327 -0.75019,-0.75504 0,-0.38132 -1.17639,-1.33729 -2.66128,-2.16264 -0.71939,-0.39985 -1.42436,-0.97322 -1.853254,-1.50727 -0.679685,-0.84633 -0.708018,-0.86087 -1.565735,-0.80358 -0.480438,0.0321 -0.967248,-0.0194 -1.081801,-0.11451 -0.38324,-0.31806 -0.378896,4.31803 0.0046,4.93859 0.432582,0.69993 0.592755,3.44432 0.291737,4.9986 -0.533011,2.75215 -0.802027,3.06043 -3.233986,3.70602 -1.258527,0.33409 -1.502734,0.45345 -1.366985,0.66813 0.0909,0.14376 0.166492,0.52695 0.167978,0.85153 0.002,0.4404 0.09228,0.61357 0.355703,0.68246 0.442073,0.1156 0.441231,0.18738 -0.0065,0.55235 l -0.359479,0.29304 0.380465,0.79425 c 0.461588,0.9636 1.907095,3.177 2.074807,3.177 0.06639,0 0.463662,0.4298 0.882833,0.9551 0.694544,0.87041 1.353852,1.27776 1.918762,1.18552 0.143584,-0.0234 0.19545,0.1842 0.15814,0.63312 -0.03054,0.36741 0.04385,1.02542 0.165302,1.46226 0.121451,0.43684 0.269759,1.54879 0.329573,2.471 0.19508,3.00775 1.439962,6.19423 2.957212,7.56944 0.49413,0.44787 1.41487,1.33057 2.04609,1.96156 l 1.14767,1.14725 -0.10956,2.38275 c -0.21047,4.57748 -0.89984,7.42414 -2.75833,11.39018 -0.91718,1.95725 -1.12166,2.15271 -2.972155,2.84104 -1.155431,0.42979 -1.61885,0.78655 -1.61885,1.24627 0,0.12706 0.101724,0.23101 0.226054,0.23101 0.12433,0 0.315994,0.23828 0.425919,0.5295 0.195248,0.51728 1.421987,0.75096 2.878022,0.54825 0.14562,-0.0203 0.99588,-0.10794 1.88948,-0.19482 2.9392,-0.28577 3.09693,-0.35217 3.50881,-1.47706 0.37378,-1.02083 1.78763,-4.42734 2.20213,-5.30577 l 0.41036,-0.86965 0.62774,0.76723 c 1.54355,1.88655 2.85732,2.88153 4.2723,3.23561 0.25716,0.0644 0.91387,0.37334 1.45934,0.68665 1.1182,0.64226 1.05749,0.73179 -0.64563,0.95199 -0.51055,0.066 -1.08494,0.22769 -1.27642,0.35929 -0.19148,0.13161 -0.60069,0.23928 -0.90936,0.23928 -1.52298,0 -1.34118,3.85981 0.1985,4.21444 0.3883,0.0894 0.73717,0.17058 0.77526,0.18033 0.0381,0.01 0.79263,-0.26899 1.67675,-0.61944 z m 13.52124,-2.36333 c 0,-0.12943 0.0529,-0.18238 0.11767,-0.11766 0.0647,0.0647 0.0647,0.17061 0,0.23533 -0.0647,0.0647 -0.11767,0.0118 -0.11767,-0.11767 z m -25.2395,-0.44125 c 0,-0.0485 0.0397,-0.0883 0.0883,-0.0883 0.0485,0 0.0883,0.0397 0.0883,0.0883 0,0.0485 -0.0397,0.0882 -0.0883,0.0882 -0.0485,0 -0.0883,-0.0397 -0.0883,-0.0882 z m 0.8825,-0.6032 c 0.42484,-0.34632 0.706,-0.45935 0.706,-0.28383 0,0.0461 -0.25813,0.20968 -0.57362,0.36362 l -0.57363,0.27991 z m 17.89229,-0.11231 c -0.28963,-0.44204 -0.28247,-0.46395 0.37004,-1.13218 1.44605,-1.48089 2.38876,-0.45873 0.97385,1.05593 -0.60289,0.64539 -0.95778,0.66553 -1.34389,0.0763 z m -23.893285,0.01 c 0,-0.0485 0.03971,-0.0882 0.08825,-0.0882 0.04854,0 0.08825,0.0397 0.08825,0.0882 0,0.0485 -0.03971,0.0883 -0.08825,0.0883 -0.04854,0 -0.08825,-0.0397 -0.08825,-0.0883 z m 20.001925,-1.13542 c -0.15721,-0.1836 -0.41315,-0.2937 -0.56875,-0.24465 -0.15561,0.049 -0.0861,-0.0712 0.15438,-0.26719 0.41928,-0.34168 0.42709,-0.38419 0.18941,-1.0313 -0.13634,-0.37122 -0.30893,-0.99264 -0.38353,-1.38094 -0.0746,-0.3883 -0.22553,-1.06341 -0.3354,-1.50025 -1.54765,-6.15344 9.59017,-11.90592 13.02084,-6.72502 0.49311,0.74468 0.51385,1.06087 0.0416,0.63344 -0.19557,-0.17698 -0.49341,-0.33677 -0.66188,-0.35508 -0.16846,-0.0183 -0.70342,-0.20965 -1.1888,-0.42519 -5.59336,-2.48383 -11.82838,3.84562 -9.72507,9.87235 0.48125,1.37895 0.15397,2.23754 -0.54275,1.42383 z m 13.41744,-0.10779 c -0.33192,-0.86497 0.58434,-2.47918 1.32735,-2.33843 0.37023,0.0701 0.46999,0.90076 0.18951,1.5779 -0.35863,0.86583 -1.29609,1.33585 -1.51686,0.76053 z m -3.59676,-4.5884 c -0.50202,-0.60489 0.26077,-2.72864 0.98006,-2.72864 0.30028,0 0.79083,0.59423 0.79083,0.95798 0,1.04015 -1.29913,2.33911 -1.77089,1.77066 z m -23.70158,-0.50322 c -0.11828,-0.30824 0.39992,-1.34504 0.79181,-1.58421 0.32954,-0.20113 0.85316,0.1144 0.85316,0.51411 0,0.73396 -1.41958,1.65744 -1.64497,1.0701 z m 16.71005,-0.72842 c -0.33204,-0.8653 0.75014,-2.96301 1.48305,-2.87476 1.04036,0.12528 0.96326,1.0855 -0.18627,2.31991 -0.80365,0.86299 -1.12566,1.00077 -1.29678,0.55485 z m 11.61719,-1.376 c -0.95104,-1.01233 -0.16992,-3.25931 1.02682,-2.95379 1.04313,0.26631 0.98962,1.99588 -0.0953,3.08082 -0.37137,0.37138 -0.47676,0.35701 -0.93149,-0.12703 z m 0.93998,-1.533 c 0.06,-0.0971 0.0694,-0.1765 0.0208,-0.1765 -0.0485,0 -0.13734,0.0794 -0.19734,0.1765 -0.06,0.0971 -0.0694,0.1765 -0.0208,0.1765 0.0485,0 0.13734,-0.0794 0.19733,-0.1765 z m -18.62075,1.50025 c 0,-0.0485 0.0397,-0.0883 0.0883,-0.0883 0.0485,0 0.0883,0.0397 0.0883,0.0883 0,0.0485 -0.0397,0.0882 -0.0883,0.0882 -0.0485,0 -0.0883,-0.0397 -0.0883,-0.0882 z m 1.50025,-0.26475 c -0.06,-0.0971 -0.025,-0.1765 0.0778,-0.1765 0.1028,0 0.18691,0.0794 0.18691,0.1765 0,0.0971 -0.035,0.1765 -0.0778,0.1765 -0.0428,0 -0.12692,-0.0794 -0.18692,-0.1765 z m 10.14875,-2.02975 c 0,-0.0485 0.0397,-0.0883 0.0883,-0.0883 0.0485,0 0.0882,0.0397 0.0882,0.0883 0,0.0485 -0.0397,0.0882 -0.0882,0.0882 -0.0485,0 -0.0883,-0.0397 -0.0883,-0.0882 z m 1.9415,-3.177 c 0,-0.0485 0.0397,-0.0882 0.0882,-0.0882 0.0485,0 0.0883,0.0397 0.0883,0.0882 0,0.0485 -0.0397,0.0883 -0.0883,0.0883 -0.0485,0 -0.0882,-0.0397 -0.0882,-0.0883 z m -10.72909,-2.95637 c -0.84487,-1.0224 -0.0203,-3.3448 0.93968,-2.64678 0.61116,0.44436 0.60036,1.5847 -0.022,2.32436 -0.50408,0.59906 -0.64743,0.64942 -0.91766,0.32242 z m -8.09853,-0.77364 c 0.32351,-1.99356 1.44379,-2.64984 2.06188,-1.20788 0.53455,1.24704 0.15479,1.82393 -1.20066,1.82393 h -0.96119 z m 16.81048,-1.0481 c -0.51155,-0.51155 -0.27581,-1.64012 0.42043,-2.01274 0.79624,-0.42613 1.25353,1.22128 0.53771,1.9371 -0.4256,0.4256 -0.59482,0.43896 -0.95814,0.0756 z m -3.9021,-4.55097 c -0.27079,-0.38661 -0.34506,-1.47636 -0.12318,-1.80737 0.53298,-0.79511 1.98292,-0.0988 1.98292,0.95232 0,0.97885 -1.34114,1.59546 -1.85974,0.85505 z m -5.37676,-1.70217 c -0.57373,-0.57374 -0.21028,-2.32907 0.50486,-2.43822 0.75623,-0.11542 1.11821,1.46104 0.52095,2.26887 -0.45673,0.61776 -0.5603,0.63486 -1.02581,0.16935 z m -11.41355,-13.28788 c -0.5927,-0.33235 -1.14862,-1.14187 -1.08617,-1.58166 0.199,-1.40134 4.38072,-1.46241 4.38072,-0.064 0,1.27351 -2.0934,2.31917 -3.29455,1.64564 z m 1.0198,-1.63658 c 0.76727,-0.39677 0.6191,-0.87899 -0.26143,-0.85081 -0.74949,0.024 -1.27422,0.42392 -1.11174,0.84733 0.13593,0.35423 0.69217,0.35564 1.37317,0.003 z m -4.50789,-2.8264 c -0.37571,-0.37571 -0.37194,-0.98336 0.005,-0.83863 0.35511,0.13627 0.59339,-0.22759 0.5984,-0.91376 l 0.004,-0.5295 0.35067,0.5295 c 0.73201,1.10529 -0.0942,2.61635 -0.95814,1.75239 z m 8.83975,-0.0454 c -0.38411,-0.42444 -0.36877,-0.5239 0.0912,-0.59158 0.60358,-0.0888 0.83324,-1.00223 0.3503,-1.39328 -0.30589,-0.2477 -0.32689,-0.32271 -0.1133,-0.40468 0.14421,-0.0553 0.26219,-0.0237 0.26219,0.0704 0,0.094 0.12111,0.17096 0.26912,0.17096 0.52814,0 0.85002,1.81077 0.40158,2.2592 -0.3119,0.31191 -0.9274,0.25775 -1.26109,-0.11097 z m -5.41237,-3.33812 c -0.60931,-1.03269 -0.58405,-2.23524 0.0485,-2.30796 0.78186,-0.0899 1.73123,2.17883 1.1535,2.75655 -0.38149,0.38149 -0.80559,0.22322 -1.20196,-0.44859 z m 2.17851,0.38239 c -0.31409,-0.81851 0.61748,-2.193 1.48632,-2.193 0.55299,0 0.65796,0.38003 0.30031,1.08719 -0.61711,1.2202 -1.5267,1.78318 -1.78663,1.10581 z m -7.91854,-4.33495 c -1.807891,-1.66646 -2.941268,-3.85905 -1.994788,-3.85905 0.210329,0 0.337011,0.0454 0.281515,0.1009 -0.05549,0.0555 0.294855,0.52612 0.778557,1.04582 1.227006,1.31834 2.440506,2.90888 2.440506,3.19877 0,0.46965 -0.72137,0.23661 -1.50579,-0.48644 z m 12.80179,-0.17509 c 0,-0.10947 0.41699,-0.75855 0.92663,-1.44241 0.50964,-0.68385 1.12519,-1.60023 1.36787,-2.0364 0.86589,-1.55621 1.61736,-1.4672 0.7996,0.0947 -0.97237,1.85719 -3.0941,4.17779 -3.0941,3.3841 z m 28.53417,39.44088 c -0.0647,-0.0647 -0.11766,-0.0118 -0.11766,0.11766 0,0.12944 0.0529,0.18239 0.11766,0.11767 0.0647,-0.0647 0.0647,-0.17062 0,-0.23533 z m -19.88567,-32.62309 c 0,-0.0485 -0.0397,-0.0883 -0.0883,-0.0883 -0.0485,0 -0.0883,0.0397 -0.0883,0.0883 0,0.0485 0.0397,0.0882 0.0883,0.0882 0.0485,0 0.0883,-0.0397 0.0883,-0.0882 z m 15.3555,-21.44475 c -0.19239,-0.12434 -0.0477,-0.1711 0.5295,-0.1711 0.57719,0 0.7219,0.0468 0.5295,0.1711 -0.14561,0.0941 -0.38388,0.17109 -0.5295,0.17109 -0.14561,0 -0.38388,-0.077 -0.5295,-0.17109 z"
         id="path17" />
      <path
         style="fill:#000000"
         d="m 87.566765,150.28797 v -37.065 h 24.607445 c 23.11083,0 24.64052,0.0188 25.15125,0.30887 0.51791,0.29417 0.5697,0.29417 1.08761,0 0.453,-0.2573 0.99822,-0.30887 3.26525,-0.30887 h 2.72145 v 37.065 37.065 H 115.98326 87.566765 Z m 28.504745,31.32323 c 1.1351,-0.49924 3.11345,-0.5378 5.13655,-0.10012 2.90803,0.62913 6.71514,0.27006 6.49365,-0.61246 -0.0663,-0.26394 0.002,-0.60036 0.17597,-0.86566 l 0.28433,-0.43394 0.66175,0.38112 c 0.36397,0.20962 1.11381,0.73124 1.66633,1.15917 l 1.00458,0.77806 1.55467,-0.0924 c 2.80762,-0.16684 3.11263,-0.27634 4.4408,-1.59434 0.65023,-0.64524 1.30577,-1.17317 1.45676,-1.17317 0.32159,0 1.2929,-1.30264 1.44767,-1.9415 0.0588,-0.24268 0.45482,-0.95996 0.88005,-1.59394 0.485,-0.72308 0.81763,-1.44668 0.8925,-1.9415 0.0656,-0.43384 0.25305,-1.36935 0.41648,-2.07891 0.24914,-1.08167 0.26078,-1.38108 0.072,-1.85325 -0.12382,-0.30973 -0.34419,-0.96295 -0.48973,-1.45159 -0.23147,-0.77716 -0.35958,-0.93248 -1.02287,-1.24004 l -0.75826,-0.3516 -0.68413,0.62229 c -0.92974,0.84569 -1.95257,2.14149 -2.54384,3.22272 l -0.49066,0.89723 -0.10936,-1.04283 c -0.59028,-5.62889 -1.86672,-8.22079 -5.63253,-11.43724 -2.45797,-2.09939 -2.75751,-2.40914 -3.89037,-4.023 -0.45554,-0.64896 -1.71999,-2.11832 -2.80988,-3.26525 -3.59006,-3.77795 -5.16047,-7.11784 -3.98126,-8.46718 0.49968,-0.57178 0.7118,-1.1266 1.23089,-3.21955 0.62834,-2.5334 0.63038,-2.44773 -0.0627,-2.62734 -0.78295,-0.20288 -0.79808,-0.59253 -0.055,-1.41506 0.56459,-0.62494 0.84017,-1.3153 0.49596,-1.24244 -1.09839,0.23251 -3.21463,-1.70468 -3.9438,-3.61013 -0.21109,-0.55161 -0.55468,-1.18252 -0.76353,-1.40203 l -0.37974,-0.39911 0.46355,-1.14734 c 0.65272,-1.61554 0.86517,-2.70073 0.84115,-4.29656 -0.0195,-1.29528 0.009,-1.40891 0.44592,-1.765 1.10421,-0.90039 1.59369,-3.04448 0.81216,-3.5576 -0.39515,-0.25944 -0.51847,-0.4582 -0.46526,-0.74992 0.24714,-1.35499 -1.23214,-0.98944 -1.71356,0.42345 -0.15566,0.45683 -0.28302,1.09699 -0.28302,1.42258 0,1.27668 -1.944,4.26907 -4.20402,6.47123 l -0.88295,0.86034 -0.85414,-0.29882 c -1.3815,-0.4833 -3.99216,-0.55098 -5.26602,-0.13652 l -1.05839,0.34436 -0.88311,-0.74488 c -0.48571,-0.40968 -1.28024,-0.96777 -1.76562,-1.24019 -1.89696,-1.06471 -2.735745,-2.18139 -2.735745,-3.64213 0,-0.51203 -0.211732,-1.60131 -0.473434,-2.43564 -0.260389,-0.83015 -0.485668,-1.54907 -0.500619,-1.59761 -0.01495,-0.0485 -0.07989,-0.22724 -0.144316,-0.39713 -0.06442,-0.16988 -0.154351,-0.42801 -0.199842,-0.57362 -0.320632,-1.02632 -1.020717,0.149 -0.947882,1.59134 0.05734,1.13558 0.03215,1.25754 -0.244848,1.18511 -0.501244,-0.13108 -0.542206,0.37749 -0.141391,1.75546 0.262523,0.90253 0.395336,1.93174 0.440117,3.41059 0.03527,1.1649 0.152508,2.51512 0.260519,3.0005 0.618853,2.78098 0.612288,4.62267 -0.02432,6.82097 -0.34783,1.20112 -1.460763,1.88968 -3.816817,2.36145 -0.460895,0.0923 -0.558467,0.17974 -0.45681,0.40946 0.0711,0.16067 0.164468,0.58996 0.207491,0.954 0.04859,0.41113 0.171498,0.66187 0.324436,0.66187 0.356514,0 0.302079,0.31068 -0.09133,0.52122 -0.892303,0.47755 3.454473,6.42111 4.696026,6.42111 0.467076,0 0.500618,0.044 0.43853,0.57588 -0.03698,0.31673 0.05846,1.07789 0.21209,1.69146 0.153626,0.61357 0.274538,1.39357 0.268692,1.73333 -0.02227,1.29454 0.661697,5.25825 0.995824,5.77095 0.51073,0.7837 0.44824,7.77313 -0.09512,10.63825 -0.08817,0.46491 -0.287463,1.82781 -0.442876,3.02867 -0.489356,3.78119 -1.33429,4.97566 -3.927781,5.55266 -1.638807,0.3646 -2.086398,0.75187 -2.251087,1.94769 -0.06518,0.47329 -0.191453,1.14987 -0.280601,1.50351 -0.255775,1.01461 -0.122232,1.13721 1.483073,1.36153 1.822942,0.25472 1.809652,0.25514 2.132119,-0.0673 0.483954,-0.48396 1.566006,-0.4248 1.693066,0.0926 0.137065,0.5581 1.931366,0.82761 3.622826,0.54416 0.58245,-0.0976 1.67675,-0.22724 2.43178,-0.28808 1.05996,-0.0854 1.48226,-0.20169 1.85325,-0.51033 0.50183,-0.41748 0.71302,-0.43019 2.31638,-0.13941 0.89768,0.1628 2.35758,-0.009 3.19434,-0.37687 0.22736,-0.0998 0.25637,0.1275 0.20538,1.60973 -0.0678,1.97024 0.0584,2.21028 1.30372,2.47923 0.71033,0.15341 0.75572,0.14108 2.81515,-0.7647 z m -11.20775,-3.34798 c 0,-0.0485 0.0397,-0.0882 0.0883,-0.0882 0.0485,0 0.0883,0.0397 0.0883,0.0882 0,0.0485 -0.0397,0.0883 -0.0883,0.0883 -0.0485,0 -0.0883,-0.0397 -0.0883,-0.0883 z m 11.4725,-1.2355 c 0,-0.0485 0.0397,-0.0882 0.0883,-0.0882 0.0485,0 0.0883,0.0397 0.0883,0.0882 0,0.0485 -0.0397,0.0883 -0.0883,0.0883 -0.0485,0 -0.0883,-0.0397 -0.0883,-0.0883 z m -7.572,-3.92712 c 0.53417,-1.25112 0.63382,-1.28783 1.31737,-0.48538 0.77345,0.908 0.76199,0.97075 -0.1772,0.97075 -0.43111,0 -0.83292,0.0794 -0.89292,0.1765 -0.38599,0.62456 -0.57756,0.11176 -0.24725,-0.66187 z m 28.399,-0.66188 c 0,-0.0485 0.0397,-0.0882 0.0882,-0.0882 0.0485,0 0.0883,0.0397 0.0883,0.0882 0,0.0485 -0.0397,0.0883 -0.0883,0.0883 -0.0485,0 -0.0882,-0.0397 -0.0882,-0.0883 z m -30.63714,-32.38225 c -1.04427,-0.42245 -1.51494,-1.51583 -0.90085,-2.09273 0.4193,-0.39392 0.89027,-0.55294 0.50929,-0.17197 -0.77036,0.77036 0.53006,1.19806 1.4478,0.47616 0.39787,-0.31296 0.43612,-0.41398 0.24442,-0.64543 -0.34125,-0.41202 1.07765,-0.12243 1.52024,0.31027 1.00352,0.98111 -1.32044,2.7307 -2.8209,2.1237 z m 5.44177,-4.4235 c -0.44083,-0.17719 -0.54436,-0.7005 -0.13859,-0.7005 0.58414,0 0.83825,-1.26965 0.31509,-1.57436 -0.16988,-0.099 -0.21839,-0.18232 -0.1078,-0.18527 0.78631,-0.021 1.44359,1.7665 0.86303,2.34706 -0.33128,0.33128 -0.3755,0.33665 -0.93173,0.11307 z m -9.09636,-0.10406 c -0.24726,-0.24727 -0.11972,-0.73335 0.21541,-0.82099 0.24884,-0.0651 0.35632,-0.27366 0.39713,-0.77071 l 0.0559,-0.68149 0.32094,0.66983 c 0.50152,1.04676 -0.27982,2.31295 -0.98942,1.60336 z m -6.215015,44.05806 c 0.06,-0.0971 0.02497,-0.1765 -0.07783,-0.1765 -0.102804,0 -0.186916,0.0794 -0.186916,0.1765 0,0.0971 0.03502,0.1765 0.07783,0.1765 0.04281,0 0.126921,-0.0794 0.186917,-0.1765 z m 2.02975,-26.02333 c 0,-0.0428 -0.0917,-0.13451 -0.203771,-0.20377 -0.12625,-0.078 -0.15586,-0.0484 -0.07783,0.0778 0.125745,0.20346 0.281604,0.27316 0.281604,0.12594 z m 23.827495,-13.60092 c 0,-0.0485 -0.0397,-0.0882 -0.0883,-0.0882 -0.0485,0 -0.0883,0.0397 -0.0883,0.0882 0,0.0485 0.0397,0.0883 0.0883,0.0883 0.0485,0 0.0883,-0.0397 0.0883,-0.0883 z m 0.1765,-0.353 c 0,-0.0485 -0.0397,-0.0883 -0.0882,-0.0883 -0.0485,0 -0.0883,0.0397 -0.0883,0.0883 0,0.0485 0.0397,0.0882 0.0883,0.0882 0.0485,0 0.0882,-0.0397 0.0882,-0.0882 z m 14.6495,-26.21025 c -0.19239,-0.12434 -0.0477,-0.1711 0.5295,-0.1711 0.57719,0 0.7219,0.0468 0.5295,0.1711 -0.14561,0.0941 -0.38388,0.17109 -0.5295,0.17109 -0.14561,0 -0.38388,-0.077 -0.5295,-0.17109 z"
         id="path16" />
    </g>
  </g>
</svg>
