<?xml version="1.0" encoding="UTF-8" standalone="no"?>
<!-- Created with Inkscape (http://www.inkscape.org/) -->

<svg
   width="15cm"
   height="15cm"
   viewBox="0 0 150 150"
   version="1.1"
   id="svg1"
   sodipodi:docname="kaksilusikkaa 15cm.svg"
   xml:space="preserve"
   inkscape:version="1.3.2 (091e20e, 2023-11-25, custom)"
   xmlns:inkscape="http://www.inkscape.org/namespaces/inkscape"
   xmlns:sodipodi="http://sodipodi.sourceforge.net/DTD/sodipodi-0.dtd"
   xmlns="http://www.w3.org/2000/svg"
   xmlns:svg="http://www.w3.org/2000/svg"><sodipodi:namedview
     id="namedview1"
     pagecolor="#ffffff"
     bordercolor="#000000"
     borderopacity="0.25"
     inkscape:showpageshadow="2"
     inkscape:pageopacity="0.0"
     inkscape:pagecheckerboard="0"
     inkscape:deskcolor="#d1d1d1"
     inkscape:document-units="mm"
     inkscape:zoom="1.0681327"
     inkscape:cx="396.48632"
     inkscape:cy="336.56867"
     inkscape:window-width="3440"
     inkscape:window-height="1377"
     inkscape:window-x="-8"
     inkscape:window-y="-8"
     inkscape:window-maximized="1"
     inkscape:current-layer="layer1" /><defs
     id="defs1" /><g
     inkscape:label="Taso 1"
     inkscape:groupmode="layer"
     id="layer1"><path
       style="fill:#000000;stroke:none"
       d="m 99.729106,27.184859 0.1812,0.19279 2.313534,-2.17444 -2.494734,1.98165 m -78.291642,98.275511 -1.187285,-3.96755 c 1.219642,2.08308 2.346771,3.35952 4.541671,4.44587 l -2.799183,-0.27393 c 5.903742,4.79144 13.889733,2.61487 17.77251,-3.49777 1.710052,-2.69215 2.096828,-6.29111 4.163724,-8.70517 3.115686,-3.63903 7.541775,-5.42131 10.40337,-9.40666 10.374658,-14.448821 20.202525,-29.962501 35.304195,-40.088401 1.19112,-0.79866 2.38307,0.0896 3.48533,-0.56399 2.67665,-1.5872 3.61339,-4.56991 7.114644,-5.158 4.3089,-0.72375 8.56272,0.76682 12.90897,-0.55948 6.42176,-1.95966 12.62355,-7.26275 16.31326,-12.777 4.425,-6.61315 9.0101,-14.99945 5.65898,-23.02535 -2.93927,-7.03955 -11.50061,-7.0949 -17.70044,-5.23962 -2.03458,0.60884 -4.86284,1.31278 -6.22475,3.03533 l 4.17193,-1.74248 0.1812,0.19279 c -2.04637,1.35247 -4.5263,2.10271 -6.67339,3.33065 -6.54228,3.74159 -12.975554,9.30429 -15.054814,16.82026 -1.25299,4.52922 -0.0312,9.23909 -1.22287,13.76579 0.95225,0.70595 2.30923,0.90368 3.09127,1.81492 0.64663,0.75342 0.63221,2.32749 1.60757,2.73735 1.22013,0.51271 3.159274,-0.15974 4.492304,-0.0521 6.6551,0.53719 11.36164,-0.10012 17.16991,-3.49594 l -6.94536,2.65496 -14.681234,0.60551 -0.1812,-0.19279 c -0.081,-2.22403 -1.78738,-3.56314 -3.80527,-4.04869 l 0.23916,-1.6772 0.1928,-0.1812 2.71804,2.89192 0.1928,-0.1812 -2.27349,-8.50245 1.3644,-4.44105 0.11166,2.43679 0.22757,-1.3032 c 1.58876,-0.33888 2.22124,-4.22378 3.03596,-5.65544 2.354024,-4.13658 6.162864,-6.76053 9.792804,-9.66995 l -0.18121,-0.1928 c -5.94349,3.38785 -10.037504,8.36371 -12.250384,14.78178 1.02126,-9.09469 9.305574,-12.10431 15.142304,-17.49982 l -0.1812,-0.1928 -11.895314,9.36461 -0.1812,-0.19279 c 1.980744,-1.8644 3.684794,-4.09189 5.812354,-5.7921 4.72775,-3.77811 11.26644,-6.40041 17.23761,-7.15754 l 0.19279,-0.1812 2.27876,-1.05245 c -2.10707,-0.43018 -4.36324,-0.17877 -6.38114,0.55094 l -0.1812,-0.19279 c 1.64537,-0.59518 3.33376,-0.80677 5.0806,-0.77569 1.7339,0.0309 3.45661,0.0444 5.10435,0.64377 6.80381,2.47499 6.82245,10.30537 4.85491,16.13387 l 0.9292,0.21598 -1.58873,2.94562 -0.1812,-0.19279 0.57838,-0.54361 -0.1812,-0.1928 -8.40608,11.53171 0.1812,0.19279 6.99856,-8.3933 0.18121,0.1928 c -1.31892,1.62475 -2.08059,3.65507 -3.38495,5.28412 -3.99872,4.99411 -10.02229,10.41096 -16.40402,11.90776 -4.29044,1.0063 -8.79362,-0.57693 -12.971614,0.49284 -2.84945,0.7296 -5.03663,5.12979 -7.62504,5.02245 1.66642,-1.56623 3.99472,-3.31428 4.32661,-5.75453 0.30819,-2.26598 -1.97385,-3.98159 -4.09391,-3.64066 -2.03936,0.32794 -3.85972,2.27414 -5.29479,3.62293 l -0.72482,-0.77118 c 2.34645,-1.44178 5.15845,-2.97724 6.36321,-5.59231 1.56809,-3.40373 0.51072,-8.07684 1.27175,-11.78216 0.58403,-2.84352 2.2802,-5.07633 3.2512,-7.7444 -1.23479,0.64893 -2.084,2.88867 -2.64049,4.14455 -2.13358,4.81506 -1.3571,9.37377 -2.57526,14.25855 -0.86366,3.4632 -3.89508,3.78262 -5.87606,6.05342 -0.72603,0.83222 0.52562,2.1243 -0.2701,3.24862 -7.5344,10.64574 -19.040387,19.82952 -29.911657,26.89536 -3.436318,2.23345 -7.235722,3.8279 -10.654729,6.04858 -4.181995,2.71625 -6.516949,6.83761 -10.372009,9.826361 -3.073694,2.38291 -6.759061,3.13476 -9.964227,5.23792 -6.597204,4.32895 -8.497357,12.97205 -2.919183,18.91493 m 86.909449,-104.559661 0.1812,0.19279 1.71196,-0.88283 -1.89316,0.69004 m -10.408474,11.71922 0.12467,0.004 c -0.0654,0.12112 -0.27378,0.13628 -0.12467,-0.004 m 9.579334,-9.12443 0.1812,0.1928 -0.77118,0.72481 0.58998,-0.91761 m -10.048514,10.17056 0.18121,0.1928 -0.57839,0.54361 0.39718,-0.73641 m 11.374884,-10.69099 -0.0116,0.37401 0.0116,-0.37401 m -12.157654,11.78981 0.1812,0.19279 -0.57838,0.54361 0.39718,-0.7364 m 2.31354,-2.17444 0.1812,0.19279 -0.77118,0.72481 0.58998,-0.9176 m -2.72231,3.28483 0.1812,0.1928 -0.57838,0.54361 0.39718,-0.73641 m 1.73515,-1.63083 0.18121,0.1928 -0.57839,0.54361 0.39718,-0.73641 m -2.45752,2.79391 c 0.14911,-0.14015 0.1211,0.0669 -0.004,0.12467 l 0.004,-0.12467 m 1.54236,-1.44963 c 0.14911,-0.14015 0.1211,0.0669 -0.004,0.12468 l 0.004,-0.12468 m 15.748754,-14.92292 -0.0116,0.37399 0.0116,-0.37399 m 3.27751,-3.08046 0.1812,0.19279 -0.57839,0.54361 0.39719,-0.7364 m -20.845004,20.31794 -0.0116,0.37399 0.0116,-0.37399 m 1.73515,-1.63083 0.1812,0.19279 -0.57838,0.54361 0.39718,-0.7364 m 17.026334,-15.88161 0.12468,0.004 c -0.0654,0.12113 -0.27378,0.13628 -0.12468,-0.004 m 2.83152,-2.78232 0.95237,-0.53202 0.1812,0.1928 -1.14517,0.71322 0.0116,-0.374 m -20.580234,19.827 0.12468,0.004 c -0.0654,0.12112 -0.27379,0.13628 -0.12468,-0.004 m 18.508294,-17.39551 c 0.14911,-0.14014 0.12111,0.0669 -0.004,0.12468 l 0.004,-0.12468 m 1.48195,-1.51388 -0.0116,0.374 0.0116,-0.374 m -19.881034,19.41192 0.1812,0.19279 -0.80595,1.8468 0.62475,-2.03959 m 1.23365,2.47155 0.18121,0.1928 2.373834,-4.81459 6.22504,-6.89833 c -4.10959,1.53334 -7.742194,7.51212 -8.780084,11.52012 m 18.299014,-20.70881 0.12467,0.004 c -0.0654,0.12113 -0.27376,0.13626 -0.12467,-0.004 m 1.34956,-1.26842 0.12467,0.004 c -0.0654,0.12113 -0.27375,0.13626 -0.12467,-0.004 m 1.28916,-1.3327 c 4.7921,-2.30206 10.01123,-0.7872 13.97275,2.11767 l -0.19279,0.18121 c -4.3228,-2.7965 -8.78139,-3.53435 -13.79155,-1.92487 l 0.0116,-0.37401 m -1.87914,2.2503 c 0.1491,-0.14013 0.12112,0.067 -0.004,0.12468 l 0.004,-0.12468 m 1.34956,-1.26842 c 0.1491,-0.14013 0.12112,0.0669 -0.004,0.12468 l 0.004,-0.12468 m -0.46917,1.04613 3.96755,-1.18727 0.1812,0.19279 -4.16033,1.36849 0.0116,-0.37401 m -18.227024,20.39909 0.18121,0.1928 5.683784,-8.24689 c -2.88256,1.07551 -4.9427,5.3351 -5.864994,8.05409 m 7.804534,-10.24011 0.3624,0.38558 0.38558,-0.3624 -0.3624,-0.38559 -0.38558,0.36241 m -75.784131,77.763591 0.192795,-0.1812 0.74799,0.0232 0.181208,0.1928 0.146427,1.31478 c 2.102684,-2.40919 -3.103085,-2.34419 -4.405548,-1.98305 -3.836811,1.06385 -6.953704,4.05371 -8.353655,7.72419 -0.492583,1.29151 -1.11816,3.58215 -0.125612,4.79862 0.399678,0.48986 1.321229,0.58356 1.860742,0.91081 -2.99495,2.03257 -3.052829,-3.42149 -2.624454,-5.11032 1.021075,-4.0255 5.067476,-7.77691 8.957171,-9.01372 1.333907,-0.42415 6.493128,-0.57905 6.060917,2.04577 -0.344383,2.09141 -2.339677,0.36913 -2.637988,-0.72187 m 65.013244,-66.429961 0.12468,0.004 c -0.0654,0.12112 -0.27378,0.13628 -0.12468,-0.004 m 5.858274,-3.81157 0.18121,0.1928 2.7339,-3.65884 c -1.4472,0.54127 -2.25555,2.14958 -2.91511,3.46604 m -71.233926,69.855941 -6.123059,4.30251 -0.181208,-0.19279 4.580709,-2.85289 c -5.920959,-0.44954 -6.807729,7.06846 -8.9381,10.57934 -1.629171,-5.08641 5.562231,-12.61197 10.661658,-11.83617 m 91.284566,-88.701071 -0.0116,0.374 0.0116,-0.374 m -72.992273,72.23476 0.181207,0.19279 c -4.665315,2.28524 -7.430524,4.6592 -11.112538,8.2658 1.423708,-4.18743 7.0731,-7.1164 10.931331,-8.45859 m -25.572134,21.856031 0.181208,0.1928 -0.771179,0.72481 0.589971,-0.91761 m 10.919744,-8.08459 0.08847,3.18477 -2.922428,-2.33671 2.833957,-0.84806 m -11.714103,9.5574 0.181201,0.19279 -0.578384,0.54361 0.397183,-0.7364 m 24.334224,-18.150831 0.181208,0.1928 -1.985908,3.68201 2.483149,-1.60764 0.181207,0.1928 c -1.287844,1.11037 -3.05471,2.01644 -3.928739,3.537321 -1.308885,2.27754 1.814212,0.60203 2.509629,-0.0249 l -0.362409,-0.3856 -2.09756,1.24524 2.494743,-1.98164 c 1.109445,4.10324 3.98257,-0.442971 5.486721,-1.888911 -0.333253,3.395261 -4.150697,7.467341 -6.90011,9.270721 -1.908642,1.2519 -3.319885,1.11894 -4.532734,3.29025 l 0.181208,0.1928 1.939533,-2.18603 0.31604,1.88158 1.495996,0.0464 0.181201,0.19279 c -0.733504,0.64576 -1.170619,0.98647 -2.074373,0.49725 l -0.852321,3.34279 -2.186031,-1.93954 0.771178,-0.72481 1.858398,0.43195 -0.713217,-1.14517 c -1.312121,0.56404 -2.675181,0.76712 -3.519979,2.04981 -1.000322,1.51882 -0.602796,2.93876 1.318096,2.56141 1.407641,4.70148 -6.439285,11.91676 -10.977699,9.95458 l 1.700377,-0.50883 -0.736404,-0.39718 c 3.900195,-1.47476 6.793806,-3.25421 9.014978,-7.02056 l -0.181201,-0.19279 -1.168361,1.46121 -0.181201,-0.19279 1.010335,-2.40201 -1.565538,2.19762 -0.1812,-0.19279 c 2.238542,-4.21053 -1.939899,-8.83111 -6.097299,-9.03158 -1.858889,-0.0896 -3.836369,1.304 -5.118377,2.50707 0.677368,-1.85072 3.487827,-3.36376 5.409794,-3.40042 1.248818,-0.0238 2.307855,0.9427 3.517825,0.14456 1.228066,-0.81007 1.279553,-2.12519 2.120246,-3.14709 1.487815,-1.80849 3.69807,-3.33059 5.397831,-5.07413 1.790957,-1.837081 3.452833,-4.249591 5.790961,-5.428521 m -8.162657,3.67776 0.871237,2.085971 -3.774751,1.00608 0.532016,0.95238 c 2.113346,-0.36264 -0.06211,1.55378 -0.624744,2.0396 l -0.724817,-0.77118 0.940792,-0.15802 -1.835217,-1.17995 4.615484,-3.974881 m -1.904766,1.064041 -0.01159,0.37399 0.01159,-0.37399 m -14.989168,14.57211 c 0.1491,-0.14014 0.121091,0.067 -0.0039,0.12467 l 0.0039,-0.12467 m 27.609289,-23.165541 -5.128185,3.42937 -4.283976,4.32759 c -0.561789,-1.26698 0.520907,-2.28348 1.408215,-3.13767 1.769067,-1.70305 5.324375,-5.26381 8.003946,-4.61929 M 21.992061,115.61959 c 0.149098,-0.14014 0.121105,0.067 -0.0039,0.12466 l 0.0039,-0.12466 m 2.060336,-2.05751 0.181207,0.1928 -1.203136,2.58321 1.021929,-2.77601 m 69.791639,-65.595531 0.52042,1.32638 -0.19279,0.1812 -0.32763,-1.50758 M 35.040509,121.38979 c -0.438464,-0.46651 -2.563571,3.48489 -4.569115,2.47889 l 2.483149,-1.60765 -5.077951,0.77851 2.2324,0.44355 c -1.230736,0.83217 -2.580125,0.47526 -3.932777,0.0653 l 0.759592,-0.35081 -0.70163,-1.51918 c -1.348719,-0.97273 -2.018543,-2.33894 -3.874821,-1.80471 -0.338157,-1.10348 -0.334272,-1.73755 0.455137,-2.60639 l 0.894425,1.33797 c 0.506617,-1.52998 -0.07265,-3.2846 1.442298,-4.2604 l -0.513099,4.47638 2.996241,-6.08403 c 1.004508,2.05213 -1.29437,4.65803 -2.441039,6.28842 l 0.181208,0.1928 c 1.487372,-1.42128 2.431104,-3.14653 3.286106,-5.00296 0.279251,-0.60632 0.714447,-1.89834 1.505298,-2.00595 1.165947,-0.15865 0.129059,1.65766 -0.07433,1.98343 -1.284906,2.05812 -3.048509,3.75092 -4.36626,5.78506 3.288756,0.007 4.554875,-5.36075 7.575007,-5.60776 1.034829,-0.0846 0.599277,1.05508 0.0915,1.40956 -2.309248,1.61212 -4.65514,2.8203 -6.748898,4.78818 l 0.362409,0.38559 c 2.079129,-1.9537 4.559586,-4.0328 7.268233,-5.01574 0.888121,2.27493 -5.582775,4.03383 -7.098626,5.58253 1.829008,-0.66373 3.278379,-2.0577 5.142522,-2.63371 0.556282,-0.17188 2.145755,-0.19678 1.465228,0.84323 -0.846821,1.29416 -4.144456,1.16577 -5.497344,2.19925 l 0.181201,0.1928 c 1.303766,-0.68771 3.58162,-1.84885 4.306772,-0.0537 0.98269,-1.77639 2.769728,-3.2561 2.397799,-5.57369 -0.847393,-5.28033 -6.473439,-6.24371 -9.453135,-2.3193 l -1.291607,-0.60157 c 1.608684,-1.0083 3.86522,-3.15749 5.876748,-3.12598 5.291173,0.0829 7.133935,7.15793 4.737362,10.94209 m 16.161159,-32.255351 -1.145174,0.71322 1.145174,-0.71322 m -1.349562,1.26842 0.520429,1.32638 -0.520429,-1.32638 m 4.808268,-4.15608 0.181208,0.1928 -3.265919,2.70645 3.084711,-2.89925 m -5.81861,6.55809 0.181208,0.1928 -4.954538,3.61412 -3.131248,3.622411 c 0.207364,-3.261591 5.572394,-5.762391 7.904578,-7.429331 m 2.541105,-3.47764 0.181208,0.1928 -0.578384,0.54361 0.397176,-0.73641 m 17.856089,-8.43114 0.1812,0.1928 2.699135,-2.53685 0.1812,0.1928 -13.237536,16.43578 -0.181208,-0.19279 0.771178,-0.72482 -0.362402,-0.38558 -2.143927,2.74122 0.181208,0.1928 1.156767,-1.08722 0.181201,0.1928 -1.758332,2.37882 -0.181208,-0.1928 0.589977,-0.9176 -0.929198,-0.21598 c 4.767975,-8.30075 11.770825,-15.42037 18.64738,-21.88347 l -0.1812,-0.1928 -1.73515,1.63083 -0.18121,-0.1928 11.78365,-11.80137 -0.1812,-0.1928 -12.70528,12.36613 -10.908395,12.73263 -0.53201,-0.95238 1.38433,-2.39041 -3.751574,0.25807 14.968439,-11.88985 -0.36241,-0.38559 -1.73515,1.63083 -0.18121,-0.1928 3.4703,-3.26166 0.18121,0.1928 -0.58997,0.91761 0.1812,0.1928 0.96398,-0.90602 -0.54362,-0.57839 1.54236,-1.44962 -0.1812,-0.1928 -10.194945,8.85577 0.18121,0.1928 3.6515,-3.06886 0.1812,0.19279 -9.412151,7.75696 -0.181201,-0.1928 4.808272,-4.15608 -0.1812,-0.19279 -9.196185,6.82776 c 0.459077,-1.2543 1.648536,-1.8015 2.669054,-2.56883 2.484937,-1.8684 5.075291,-3.58217 7.486471,-5.5562 7.880415,-6.45173 15.264025,-13.12194 21.381425,-21.29252 1.49333,-1.99454 5.52548,-5.52455 7.77116,-2.44406 2.09152,2.86906 -2.28153,5.97305 -4.12832,7.47891 -7.36779,6.00767 -14.3988,12.11319 -21.337625,18.63482 m -16.144116,7.54831 0.181208,0.1928 -0.963972,0.90602 0.782764,-1.09882 m 41.836431,-39.32108 0.72481,0.77119 -0.19279,0.1812 -0.53202,-0.95239 m -40.918822,39.91107 0.181201,0.19279 -1.53076,1.07563 0.724811,0.77117 0.397183,-0.7364 c 1.011176,1.44123 2.04993,3.18815 4.032832,2.74549 l -1.846807,-0.80596 1.881581,-0.31603 0.158025,0.94079 1.34956,-1.26842 -2.629578,0.29286 -0.416104,-4.69237 1.869994,0.058 -0.408782,1.1104 0.181208,0.1928 2.891923,-2.71805 c 0.32408,2.21651 -2.6488,3.33838 -3.709465,4.93885 l 0.362409,0.38559 c 0.977214,-0.41581 1.456797,-0.26394 2.232388,0.44355 l -3.697869,4.56485 c -0.914809,-0.52038 -1.536111,-0.40228 -2.436781,0.11165 l -0.1812,-0.19279 c 1.044938,-1.78719 2.109411,-1.80666 3.990724,-1.93528 l -2.741227,-2.14392 -1.291608,-0.60157 -2.21347,4.98522 0.239163,-1.6772 -1.507583,0.32764 -0.181208,-0.1928 1.337976,-0.89442 -0.736404,-0.39718 c 0.857284,-1.0447 1.306649,-1.78436 1.033522,-3.15001 l 2.664346,-1.41484 m 0.613159,-1.66561 0.1812,0.1928 -1.156767,1.08721 0.975567,-1.28001 m 39.965013,-37.32011 0.0565,0.18893 -0.0565,-0.18893 m -44.362101,42.29989 c 0.149103,-0.14014 0.121092,0.067 -0.0039,0.12467 l 0.0039,-0.12467 m 6.494609,-6.22517 0.181201,0.19279 -1.156768,1.08722 0.975567,-1.28001 m 28.113232,-25.33367 0.1812,0.19279 1.54235,-1.44962 0.1812,0.1928 -8.10895,7.98453 0.1812,0.19279 1.15677,-1.08722 0.35081,0.75959 c 3.79488,-3.58648 6.61696,-9.10562 11.03566,-11.82457 l 1.63083,1.73515 -6.13003,5.06776 -5.04047,5.06802 0.36241,0.38559 c 3.92139,-3.68562 9.80268,-5.83289 12.49687,-10.65621 l -2.70645,-3.26591 c -3.30866,1.15645 -5.02623,4.11218 -7.1334,6.70451 m -25.811295,23.53322 0.181207,0.1928 -1.735151,1.63083 1.553944,-1.82363 m 32.921505,-29.48974 -0.0116,0.37399 -3.03835,1.40327 c 0.54086,-1.20333 1.76385,-1.84883 3.04994,-1.77726 m 3.69788,-4.56486 0.15801,0.9408 -0.54361,-0.57839 0.3856,-0.36241 m -45.896706,43.50035 -0.01159,0.37399 0.01159,-0.37399 m 5.205451,-4.89249 0.304457,2.25558 -0.690041,-1.89317 0.385584,-0.36241 m 1.156768,-1.08721 -0.25075,2.05119 0.25075,-2.05119 m 31.425507,-29.53611 0.1812,0.19279 -0.96396,0.90601 0.78276,-1.0988 m 7.51899,-7.06693 0.54361,0.57839 -0.19279,0.1812 -0.35082,-0.75959 m -45.353084,44.07872 0.181208,0.1928 -2.074379,0.49724 1.893171,-0.69004 m 32.424264,-31.56411 0.1812,0.19279 0.57839,-0.54361 -0.75959,0.35082 m -33.411417,33.21813 -1.881578,0.31604 1.881578,-0.31604 m -25.811297,23.533221 2.209219,1.19155 0.181201,0.1928 c 0.408432,1.52964 0.691224,3.45246 -1.588724,2.94561 l 1.349561,-1.26842 -0.894424,-1.33797 -1.735151,1.63083 0.181207,0.19279 0.940786,-0.15802 -0.397176,0.73641 -1.280014,-0.97557 1.735152,-1.63082 -1.087226,-1.15678 0.385589,-0.36241 m 57.645574,-54.179731 -0.0116,0.374 0.0116,-0.374 m -58.45152,56.026551 -0.578384,0.54361 -0.169613,-0.5668 0.747997,0.0232 m 10.410909,-9.78497 0.362402,0.38558 c -0.916567,2.37759 -3.954532,4.44298 -5.807019,6.18409 0.795292,-1.78529 3.73585,-5.66657 5.444617,-6.56967 m 21.909036,-18.413181 -1.53077,1.07563 c -0.617068,-1.45567 0.347092,-1.99091 1.53077,-1.07563 m 38.242865,-38.1222 2.0512,0.25075 -0.70164,-1.51917 -1.34956,1.26842 m -45.329904,43.33072 -0.01159,0.37401 0.01159,-0.37401 m 1.927946,-1.81203 0.181208,0.1928 -1.623499,4.067611 0.285524,-3.173191 1.156767,-1.08722 m 40.428908,-36.18267 0.1812,0.1928 -4.41109,3.41968 -0.36241,-0.38559 4.5923,-3.22689 m 43.220764,-41.7115 c 2.91761,4.54337 3.92503,9.32186 1.23671,14.45108 l -0.1812,-0.19279 c 0.87343,-3.21647 1.67862,-6.58053 0.85984,-9.88572 -0.38942,-1.57202 -1.67673,-2.83971 -1.91535,-4.37257 m -80.214143,75.75451 0.678448,2.26717 c 1.33835,-2.27734 2.957571,-0.90033 2.388556,1.38832 -0.767845,3.088381 -2.51361,4.550171 -4.694762,6.588881 l 0.181208,0.1928 1.349563,-1.26843 0.181201,0.1928 -4.627072,4.34887 c -0.592099,-1.60801 0.640724,-2.16422 1.62968,-3.28837 2.222544,-2.52641 3.258992,-5.69754 5.28041,-8.289711 l 0.181208,0.1928 -0.239163,1.67719 c 0.14722,-0.42762 0.664541,-2.7234 -0.549416,-2.04999 -0.769164,0.42666 -1.101558,1.8368 -1.503986,2.56955 -1.062466,1.934551 -2.302886,3.618291 -3.732942,5.300201 -0.764416,0.89905 -1.378193,2.04574 -2.685025,1.77919 2.733735,-2.56938 8.059135,-6.82836 5.583708,-11.057661 l 0.578384,-0.54361 m 7.314606,-6.51172 0.54361,0.57839 -2.085969,0.87124 1.542359,-1.44963 m 33.546253,-31.52934 0.1812,0.19279 -3.30069,3.82845 3.11949,-4.02124 m -42.630785,40.79388 -0.431951,1.8584 -0.350815,-0.75958 -0.794365,1.472801 1.577131,-2.571621 m 15.990358,-14.66586 0.1812,0.1928 2.50633,-2.35564 -2.68753,2.16284 m -6.578198,6.9089 0.181208,0.1928 -0.771176,0.72481 0.589968,-0.91761 m 4.819858,-4.53008 0.18121,0.1928 1.73515,-1.63082 -1.91636,1.43802 m -1.36114,1.64242 0.1812,0.1928 1.15677,-1.08722 -1.33797,0.89442 m -36.723712,37.420581 -0.578383,0.54361 c 3.992982,5.62247 11.231956,-2.14961 13.077826,-5.78846 0.913846,-1.8015 1.686952,-4.22563 -0.183769,-5.60415 l -0.192795,0.1812 0.339222,1.13358 -0.38559,0.36241 -0.373995,-0.0116 c -0.597895,-2.03295 1.433798,-2.55967 2.373552,-0.78376 0.797521,1.50712 -0.244219,3.63283 -0.950539,5.00212 -1.961158,3.80197 -6.01056,8.0086 -10.619664,7.94599 -1.085995,-0.0147 -2.492571,-0.34162 -3.24671,-1.19365 -0.754851,-0.85282 -0.444364,-2.05321 0.740845,-1.7873 m 17.351514,-16.30828 -0.03477,1.12199 -0.350815,-0.75959 0.385589,-0.3624 m 2.267174,-0.67844 0.532016,0.95237 -0.385589,0.36241 -1.121993,-0.0348 0.327634,1.50758 -1.087219,-1.15677 1.735151,-1.63082 m -1.565544,2.19761 -0.01159,0.374 0.01159,-0.374 m 7.507403,-6.69292 0.181201,0.19279 0.771178,-0.72481 -0.952379,0.53202 m -22.398949,22.14156 0.373996,0.0116 -0.373996,-0.0116 m 2.448369,-0.48566 0.181207,0.1928 c 2.253981,-1.08866 3.553392,-3.2102 4.843046,-5.27807 l -5.024253,5.08527 m 99.912162,-87.248201 0.12467,0.004 c -0.0654,0.12113 -0.27375,0.13625 -0.12467,-0.004 m -0.26479,0.49093 0.1812,0.1928 -0.57838,0.54361 0.39718,-0.73641 m -11.83002,13.29738 0.1812,0.19279 1.73516,-1.63082 z"
       id="path5915-6" /><path
       style="fill:#000000;stroke:none"
       d="m 51.848093,27.248509 -0.1812,0.19279 -2.31353,-2.17444 2.49473,1.98165 m 78.291637,98.275511 1.18729,-3.96755 c -1.21965,2.08308 -2.34677,3.35952 -4.54167,4.44587 l 2.79918,-0.27393 c -5.90374,4.79144 -13.88973,2.61487 -17.77251,-3.49777 -1.71005,-2.69215 -2.09683,-6.29111 -4.16373,-8.70517 -3.11568,-3.63903 -7.54177,-5.42131 -10.403374,-9.40666 -10.37465,-14.448821 -20.20252,-29.962501 -35.304187,-40.088401 -1.19112,-0.79866 -2.383066,0.0896 -3.485326,-0.56399 -2.67665,-1.5872 -3.61339,-4.56991 -7.11464,-5.158 -4.3089,-0.72375 -8.56272,0.76682 -12.90897,-0.55948 -6.42176,-1.95966 -12.62355,-7.26275 -16.31326,-12.777 -4.425,-6.61315 -9.0101,-14.99945 -5.65898,-23.02535 2.93927,-7.03955 11.50061,-7.0949 17.70044,-5.23962 2.03458,0.60884 4.86284,1.31278 6.22475,3.03533 l -4.17193,-1.74248 -0.1812,0.19279 c 2.04637,1.35247 4.5263,2.10271 6.67339,3.33065 6.54228,3.74159 12.97555,9.30429 15.05481,16.82026 1.25299,4.52922 0.0312,9.23909 1.22287,13.76579 -0.95225,0.70595 -2.30923,0.90368 -3.09127,1.81492 -0.64663,0.75342 -0.63221,2.32749 -1.60757,2.73735 -1.22013,0.51271 -3.15927,-0.15974 -4.4923,-0.0521 -6.6551,0.53719 -11.36164,-0.10012 -17.16991,-3.49594 l 6.94536,2.65496 14.68123,0.60551 0.1812,-0.19279 c 0.081,-2.22403 1.78738,-3.56314 3.80527,-4.04869 l -0.23916,-1.6772 -0.1928,-0.1812 -2.71804,2.89192 -0.1928,-0.1812 2.27349,-8.50245 -1.3644,-4.44105 -0.11166,2.43679 -0.22757,-1.3032 c -1.58876,-0.33888 -2.22124,-4.22378 -3.03596,-5.65544 -2.35402,-4.13658 -6.16286,-6.76053 -9.7928,-9.66995 l 0.18121,-0.1928 c 5.94349,3.38785 10.0375,8.36371 12.25038,14.78178 -1.02126,-9.09469 -9.30557,-12.10431 -15.1423,-17.49982 l 0.1812,-0.1928 11.89531,9.36461 0.1812,-0.19279 c -1.98074,-1.8644 -3.68479,-4.09189 -5.81235,-5.7921 -4.72775,-3.77811 -11.26644,-6.40041 -17.23761,-7.15754 l -0.19279,-0.1812 -2.27876,-1.05245 c 2.10707,-0.43018 4.36324,-0.17877 6.38114,0.55094 l 0.1812,-0.19279 c -1.64537,-0.59518 -3.33376,-0.80677 -5.0806,-0.77569 -1.7339,0.0309 -3.45661,0.0444 -5.10435,0.64377 -6.80381,2.47499 -6.82245,10.30537 -4.85491,16.13387 l -0.9292,0.21598 1.58873,2.94562 0.1812,-0.19279 -0.57838,-0.54361 0.1812,-0.1928 8.40608,11.53171 -0.1812,0.19279 -6.99856,-8.3933 -0.18121,0.1928 c 1.31892,1.62475 2.08059,3.65507 3.38495,5.28412 3.99872,4.99411 10.02229,10.41096 16.40402,11.90776 4.29044,1.0063 8.79362,-0.57693 12.97161,0.49284 2.84945,0.7296 5.03663,5.12979 7.62504,5.02245 -1.66642,-1.56623 -3.99472,-3.31428 -4.32661,-5.75453 -0.30819,-2.26598 1.97385,-3.98159 4.09391,-3.64066 2.039356,0.32794 3.859716,2.27414 5.294786,3.62293 l 0.72482,-0.77118 c -2.34645,-1.44178 -5.15845,-2.97724 -6.363206,-5.59231 -1.56809,-3.40373 -0.51072,-8.07684 -1.27175,-11.78216 -0.58403,-2.84352 -2.2802,-5.07633 -3.2512,-7.7444 1.23479,0.64893 2.084,2.88867 2.64049,4.14455 2.13358,4.81506 1.3571,9.37377 2.57526,14.25855 0.863656,3.4632 3.895076,3.78262 5.876056,6.05342 0.72603,0.83222 -0.52562,2.1243 0.2701,3.24862 7.534397,10.64574 19.040387,19.82952 29.911657,26.89536 3.43631,2.23345 7.235724,3.8279 10.654724,6.04858 4.182,2.71625 6.51695,6.83761 10.37201,9.826361 3.0737,2.38291 6.75906,3.13476 9.96423,5.23792 6.5972,4.32895 8.49736,12.97205 2.91918,18.91493 M 43.230263,20.964429 l -0.1812,0.19279 -1.71196,-0.88283 1.89316,0.69004 m 10.40847,11.71922 -0.12467,0.004 c 0.0654,0.12112 0.27378,0.13628 0.12467,-0.004 m -9.57933,-9.12443 -0.1812,0.1928 0.77118,0.72481 -0.58998,-0.91761 m 10.04851,10.17056 -0.18121,0.1928 0.57839,0.54361 -0.39718,-0.73641 m -11.37488,-10.69099 0.0116,0.37401 -0.0116,-0.37401 m 12.15765,11.78981 -0.1812,0.19279 0.57838,0.54361 -0.39718,-0.7364 m -2.31354,-2.17444 -0.1812,0.19279 0.77118,0.72481 -0.58998,-0.9176 m 2.72231,3.28483 -0.1812,0.1928 0.57838,0.54361 -0.39718,-0.73641 m -1.73515,-1.63083 -0.18121,0.1928 0.57839,0.54361 -0.39718,-0.73641 m 2.45752,2.79391 c -0.14911,-0.14015 -0.1211,0.0669 0.004,0.12467 l -0.004,-0.12467 m -1.54236,-1.44963 c -0.14911,-0.14015 -0.1211,0.0669 0.004,0.12468 l -0.004,-0.12468 m -15.74875,-14.92292 0.0116,0.37399 -0.0116,-0.37399 m -3.27751,-3.08046 -0.1812,0.19279 0.57839,0.54361 -0.39719,-0.7364 m 20.845,20.31794 0.0116,0.37399 -0.0116,-0.37399 m -1.73515,-1.63083 -0.1812,0.19279 0.57838,0.54361 -0.39718,-0.7364 m -17.02633,-15.88161 -0.12468,0.004 c 0.0654,0.12113 0.27378,0.13628 0.12468,-0.004 m -2.83152,-2.78232 -0.95237,-0.53202 -0.1812,0.1928 1.14517,0.71322 -0.0116,-0.374 m 20.58023,19.827 -0.12468,0.004 c 0.0654,0.12112 0.27379,0.13628 0.12468,-0.004 m -18.50829,-17.39551 c -0.14911,-0.14014 -0.12111,0.0669 0.004,0.12468 l -0.004,-0.12468 m -1.48195,-1.51388 0.0116,0.374 -0.0116,-0.374 m 19.88103,19.41192 -0.1812,0.19279 0.80595,1.8468 -0.62475,-2.03959 m -1.23365,2.47155 -0.18121,0.1928 -2.37383,-4.81459 -6.22504,-6.89833 c 4.10959,1.53334 7.74219,7.51212 8.78008,11.52012 m -18.29901,-20.70881 -0.12467,0.004 c 0.0654,0.12113 0.27376,0.13626 0.12467,-0.004 m -1.34956,-1.26842 -0.12467,0.004 c 0.0654,0.12113 0.27375,0.13626 0.12467,-0.004 m -1.28916,-1.3327 c -4.7921,-2.30206 -10.01123,-0.7872 -13.97275,2.11767 l 0.19279,0.18121 c 4.3228,-2.7965 8.78139,-3.53435 13.79155,-1.92487 l -0.0116,-0.37401 m 1.87914,2.2503 c -0.1491,-0.14013 -0.12112,0.067 0.004,0.12468 l -0.004,-0.12468 m -1.34956,-1.26842 c -0.1491,-0.14013 -0.12112,0.0669 0.004,0.12468 l -0.004,-0.12468 m 0.46917,1.04613 -3.96755,-1.18727 -0.1812,0.19279 4.16033,1.36849 -0.0116,-0.37401 m 18.22702,20.39909 -0.18121,0.1928 -5.68378,-8.24689 c 2.88256,1.07551 4.9427,5.3351 5.86499,8.05409 m -7.80453,-10.24011 -0.3624,0.38558 -0.38558,-0.3624 0.3624,-0.38559 0.38558,0.36241 m 75.784127,77.763591 -0.1928,-0.1812 -0.74799,0.0232 -0.18121,0.1928 -0.14642,1.31478 c -2.10269,-2.40919 3.10308,-2.34419 4.40554,-1.98305 3.83682,1.06385 6.95371,4.05371 8.35366,7.72419 0.49258,1.29151 1.11816,3.58215 0.12561,4.79862 -0.39968,0.48986 -1.32123,0.58356 -1.86074,0.91081 2.99495,2.03257 3.05283,-3.42149 2.62445,-5.11032 -1.02107,-4.0255 -5.06747,-7.77691 -8.95717,-9.01372 -1.3339,-0.42415 -6.49313,-0.57905 -6.06091,2.04577 0.34438,2.09141 2.33967,0.36913 2.63798,-0.72187 m -65.013237,-66.429961 -0.12468,0.004 c 0.0654,0.12112 0.27378,0.13628 0.12468,-0.004 m -5.85827,-3.81157 -0.18121,0.1928 -2.7339,-3.65884 c 1.4472,0.54127 2.25555,2.14958 2.91511,3.46604 m 71.233917,69.855941 6.12306,4.30251 0.18121,-0.19279 -4.58071,-2.85289 c 5.92096,-0.44954 6.80773,7.06846 8.9381,10.57934 1.62917,-5.08641 -5.56223,-12.61197 -10.66166,-11.83617 m -91.284557,-88.701071 0.0116,0.374 -0.0116,-0.374 m 72.992267,72.23476 -0.18121,0.19279 c 4.66532,2.28524 7.43053,4.6592 11.11254,8.2658 -1.42371,-4.18743 -7.0731,-7.1164 -10.93133,-8.45859 m 25.57213,21.856031 -0.18121,0.1928 0.77118,0.72481 -0.58997,-0.91761 m -10.91974,-8.08459 -0.0885,3.18477 2.92243,-2.33671 -2.83396,-0.84806 m 11.7141,9.5574 -0.1812,0.19279 0.57839,0.54361 -0.39719,-0.7364 m -24.33422,-18.150831 -0.18121,0.1928 1.98591,3.68201 -2.48315,-1.60764 -0.18121,0.1928 c 1.28785,1.11037 3.05471,2.01644 3.92874,3.537321 1.30889,2.27754 -1.81421,0.60203 -2.50963,-0.0249 l 0.36241,-0.3856 2.09756,1.24524 -2.49474,-1.98164 c -1.10945,4.10324 -3.98257,-0.442971 -5.486724,-1.888911 0.33325,3.395261 4.150694,7.467341 6.900114,9.270721 1.90864,1.2519 3.31988,1.11894 4.53273,3.29025 l -0.18121,0.1928 -1.93953,-2.18603 -0.31604,1.88158 -1.496,0.0464 -0.1812,0.19279 c 0.73351,0.64576 1.17062,0.98647 2.07438,0.49725 l 0.85232,3.34279 2.18603,-1.93954 -0.77118,-0.72481 -1.8584,0.43195 0.71322,-1.14517 c 1.31212,0.56404 2.67518,0.76712 3.51998,2.04981 1.00032,1.51882 0.60279,2.93876 -1.3181,2.56141 -1.40764,4.70148 6.43929,11.91676 10.9777,9.95458 l -1.70038,-0.50883 0.73641,-0.39718 c -3.9002,-1.47476 -6.79381,-3.25421 -9.01498,-7.02056 l 0.1812,-0.19279 1.16836,1.46121 0.1812,-0.19279 -1.01033,-2.40201 1.56554,2.19762 0.1812,-0.19279 c -2.23855,-4.21053 1.9399,-8.83111 6.0973,-9.03158 1.85888,-0.0896 3.83636,1.304 5.11837,2.50707 -0.67737,-1.85072 -3.48782,-3.36376 -5.40979,-3.40042 -1.24882,-0.0238 -2.30786,0.9427 -3.51783,0.14456 -1.22806,-0.81007 -1.27955,-2.12519 -2.12024,-3.14709 -1.48782,-1.80849 -3.69807,-3.33059 -5.39783,-5.07413 -1.79096,-1.837081 -3.45284,-4.249591 -5.79096,-5.428521 m 8.16265,3.67776 -0.87123,2.085971 3.77475,1.00608 -0.53202,0.95238 c -2.11335,-0.36264 0.0621,1.55378 0.62474,2.0396 l 0.72482,-0.77118 -0.94079,-0.15802 1.83522,-1.17995 -4.61549,-3.974881 m 1.90477,1.064041 0.0116,0.37399 -0.0116,-0.37399 m 14.98917,14.57211 c -0.1491,-0.14014 -0.12109,0.067 0.004,0.12467 l -0.004,-0.12467 m -27.60929,-23.165541 5.12818,3.42937 4.28398,4.32759 c 0.56179,-1.26698 -0.52091,-2.28348 -1.40822,-3.13767 -1.76906,-1.70305 -5.32437,-5.26381 -8.00394,-4.61929 m 27.82528,24.094751 c -0.14909,-0.14014 -0.1211,0.067 0.004,0.12466 l -0.004,-0.12466 m -2.06033,-2.05751 -0.18121,0.1928 1.20314,2.58321 -1.02193,-2.77601 m -69.791637,-65.595531 -0.52042,1.32638 0.19279,0.1812 0.32763,-1.50758 m 58.803527,73.423241 c 0.43846,-0.46651 2.56357,3.48489 4.56911,2.47889 l -2.48315,-1.60765 5.07795,0.77851 -2.2324,0.44355 c 1.23074,0.83217 2.58013,0.47526 3.93278,0.0653 l -0.75959,-0.35081 0.70163,-1.51918 c 1.34872,-0.97273 2.01854,-2.33894 3.87482,-1.80471 0.33816,-1.10348 0.33427,-1.73755 -0.45514,-2.60639 l -0.89442,1.33797 c -0.50662,-1.52998 0.0727,-3.2846 -1.4423,-4.2604 l 0.5131,4.47638 -2.99624,-6.08403 c -1.00451,2.05213 1.29437,4.65803 2.44104,6.28842 l -0.18121,0.1928 c -1.48737,-1.42128 -2.43111,-3.14653 -3.28611,-5.00296 -0.27925,-0.60632 -0.71444,-1.89834 -1.5053,-2.00595 -1.16594,-0.15865 -0.12905,1.65766 0.0743,1.98343 1.28491,2.05812 3.04851,3.75092 4.36626,5.78506 -3.28875,0.007 -4.55487,-5.36075 -7.575,-5.60776 -1.03483,-0.0846 -0.59928,1.05508 -0.0915,1.40956 2.30925,1.61212 4.65514,2.8203 6.7489,4.78818 l -0.36241,0.38559 c -2.07913,-1.9537 -4.55959,-4.0328 -7.26824,-5.01574 -0.88812,2.27493 5.58278,4.03383 7.09863,5.58253 -1.82901,-0.66373 -3.27838,-2.0577 -5.14252,-2.63371 -0.55628,-0.17188 -2.14576,-0.19678 -1.46523,0.84323 0.84682,1.29416 4.14446,1.16577 5.49734,2.19925 l -0.1812,0.1928 c -1.30376,-0.68771 -3.58162,-1.84885 -4.30677,-0.0537 -0.98269,-1.77639 -2.76973,-3.2561 -2.3978,-5.57369 0.84739,-5.28033 6.47344,-6.24371 9.45314,-2.3193 l 1.2916,-0.60157 c -1.60868,-1.0083 -3.86522,-3.15749 -5.87674,-3.12598 -5.29118,0.0829 -7.13394,7.15793 -4.73737,10.94209 m -16.16116,-32.255351 1.14518,0.71322 -1.14518,-0.71322 m 1.34957,1.26842 -0.52043,1.32638 0.52043,-1.32638 m -4.808274,-4.15608 -0.18121,0.1928 3.265924,2.70645 -3.084714,-2.89925 m 5.818614,6.55809 -0.18121,0.1928 4.95454,3.61412 3.13125,3.622411 c -0.20737,-3.261591 -5.5724,-5.762391 -7.90458,-7.429331 m -2.54111,-3.47764 -0.1812,0.1928 0.57838,0.54361 -0.39718,-0.73641 m -17.856084,-8.43114 -0.1812,0.1928 -2.69913,-2.53685 -0.1812,0.1928 13.23753,16.43578 0.1812,-0.19279 -0.77117,-0.72482 0.3624,-0.38558 2.14392,2.74122 -0.1812,0.1928 -1.15677,-1.08722 -0.1812,0.1928 1.75833,2.37882 0.18121,-0.1928 -0.58998,-0.9176 0.9292,-0.21598 c -4.76797,-8.30075 -11.77082,-15.42037 -18.64737,-21.88347 l 0.1812,-0.1928 1.73515,1.63083 0.18121,-0.1928 -11.783647,-11.80137 0.1812,-0.1928 12.705277,12.36613 10.90839,12.73263 0.532,-0.95238 -1.38432,-2.39041 3.75157,0.25807 -14.96843,-11.88985 0.36241,-0.38559 1.73515,1.63083 0.18121,-0.1928 -3.4703,-3.26166 -0.18121,0.1928 0.58997,0.91761 -0.1812,0.1928 -0.96398,-0.90602 0.54362,-0.57839 -1.54236,-1.44962 0.1812,-0.1928 10.19494,8.85577 -0.18121,0.1928 -3.6515,-3.06886 -0.1812,0.19279 9.41215,7.75696 0.1812,-0.1928 -4.80827,-4.15608 0.1812,-0.19279 9.19618,6.82776 c -0.45908,-1.2543 -1.64854,-1.8015 -2.66905,-2.56883 -2.48494,-1.8684 -5.07529,-3.58217 -7.48647,-5.5562 -7.88041,-6.45173 -15.26402,-13.12194 -21.381417,-21.29252 -1.49333,-1.99454 -5.525476,-5.52455 -7.771156,-2.44406 -2.09152,2.86906 2.28153,5.97305 4.128316,7.47891 7.36779,6.00767 14.398797,12.11319 21.337617,18.63482 m 16.14411,7.54831 -0.18121,0.1928 0.96397,0.90602 -0.78276,-1.09882 m -41.836413,-39.32108 -0.72481,0.77119 0.19279,0.1812 0.53202,-0.95239 m 40.918803,39.91107 -0.1812,0.19279 1.53076,1.07563 -0.72481,0.77117 -0.39718,-0.7364 c -1.01118,1.44123 -2.04993,3.18815 -4.03284,2.74549 l 1.84681,-0.80596 -1.88158,-0.31603 -0.15803,0.94079 -1.34956,-1.26842 2.62958,0.29286 0.41611,-4.69237 -1.87,0.058 0.40879,1.1104 -0.18121,0.1928 -2.89192,-2.71805 c -0.32408,2.21651 2.64879,3.33838 3.70946,4.93885 l -0.36241,0.38559 c -0.97721,-0.41581 -1.4568,-0.26394 -2.23239,0.44355 l 3.69787,4.56485 c 0.91481,-0.52038 1.53611,-0.40228 2.43678,0.11165 l 0.1812,-0.19279 c -1.04494,-1.78719 -2.10941,-1.80666 -3.99072,-1.93528 l 2.74122,-2.14392 1.29161,-0.60157 2.213474,4.98522 -0.23916,-1.6772 1.50758,0.32764 0.18121,-0.1928 -1.33798,-0.89442 0.73641,-0.39718 c -0.85729,-1.0447 -1.306654,-1.78436 -1.03352,-3.15001 l -2.664354,-1.41484 m -0.61316,-1.66561 -0.1812,0.1928 1.15677,1.08721 -0.97557,-1.28001 m -39.964993,-37.32011 -0.0565,0.18893 0.0565,-0.18893 m 44.362087,42.29989 c -0.1491,-0.14014 -0.12109,0.067 0.004,0.12467 l -0.004,-0.12467 m -6.494614,-6.22517 -0.1812,0.19279 1.15677,1.08722 -0.97557,-1.28001 m -28.113227,-25.33367 -0.1812,0.19279 -1.54235,-1.44962 -0.1812,0.1928 8.108947,7.98453 -0.1812,0.19279 -1.15677,-1.08722 -0.35081,0.75959 c -3.794877,-3.58648 -6.616957,-9.10562 -11.035653,-11.82457 l -1.63083,1.73515 6.130026,5.06776 5.04047,5.06802 -0.36241,0.38559 c -3.92139,-3.68562 -9.802676,-5.83289 -12.496866,-10.65621 l 2.70645,-3.26591 c 3.308656,1.15645 5.026226,4.11218 7.133396,6.70451 m 25.811287,23.53322 -0.1812,0.1928 1.73515,1.63083 -1.55395,-1.82363 m -32.921493,-29.48974 0.0116,0.37399 3.038346,1.40327 c -0.54086,-1.20333 -1.76385,-1.84883 -3.049936,-1.77726 m -3.69788,-4.56486 -0.15801,0.9408 0.54361,-0.57839 -0.3856,-0.36241 m 45.896707,43.50035 0.0116,0.37399 -0.0116,-0.37399 m -5.205464,-4.89249 -0.30445,2.25558 0.69004,-1.89317 -0.38559,-0.36241 m -1.15676,-1.08721 0.25075,2.05119 -0.25075,-2.05119 m -31.425507,-29.53611 -0.1812,0.19279 0.96396,0.90601 -0.78276,-1.0988 m -7.518986,-7.06693 -0.54361,0.57839 0.19279,0.1812 0.35082,-0.75959 m 45.353077,44.07872 -0.1812,0.1928 2.07437,0.49724 -1.89317,-0.69004 m -32.424261,-31.56411 -0.1812,0.19279 -0.57839,-0.54361 0.75959,0.35082 m 33.411421,33.21813 1.88157,0.31604 -1.88157,-0.31604 m 25.81129,23.533221 -2.20922,1.19155 -0.1812,0.1928 c -0.40843,1.52964 -0.69122,3.45246 1.58873,2.94561 l -1.34956,-1.26842 0.89442,-1.33797 1.73515,1.63083 -0.18121,0.19279 -0.94078,-0.15802 0.39717,0.73641 1.28002,-0.97557 -1.73515,-1.63082 1.08722,-1.15678 -0.38559,-0.36241 m -57.645574,-54.179731 0.0116,0.374 -0.0116,-0.374 m 58.451524,56.026551 0.57838,0.54361 0.16962,-0.5668 -0.748,0.0232 m -10.41091,-9.78497 -0.3624,0.38558 c 0.91657,2.37759 3.95453,4.44298 5.80702,6.18409 -0.79529,-1.78529 -3.73585,-5.66657 -5.44462,-6.56967 m -21.909044,-18.413181 1.53077,1.07563 c 0.61707,-1.45567 -0.34709,-1.99091 -1.53077,-1.07563 m -38.242853,-38.1222 -2.0512,0.25075 0.70164,-1.51917 1.34956,1.26842 m 45.329897,43.33072 0.0116,0.37401 -0.0116,-0.37401 m -1.92794,-1.81203 -0.18121,0.1928 1.6235,4.067611 -0.28553,-3.173191 -1.15676,-1.08722 m -40.428911,-36.18267 -0.1812,0.1928 4.41109,3.41968 0.36241,-0.38559 -4.5923,-3.22689 m -43.220756,-41.7115 c -2.91761,4.54337 -3.92503,9.32186 -1.23671,14.45108 l 0.1812,-0.19279 c -0.87343,-3.21647 -1.67862,-6.58053 -0.85984,-9.88572 0.38942,-1.57202 1.67673,-2.83971 1.91535,-4.37257 m 80.214133,75.75451 -0.67845,2.26717 c -1.33835,-2.27734 -2.95757,-0.90033 -2.38856,1.38832 0.76785,3.088381 2.51361,4.550171 4.694774,6.588881 l -0.18121,0.1928 -1.349564,-1.26843 -0.18121,0.1928 4.627084,4.34887 c 0.5921,-1.60801 -0.64073,-2.16422 -1.62968,-3.28837 -2.222554,-2.52641 -3.259004,-5.69754 -5.280414,-8.289711 l -0.18121,0.1928 0.23916,1.67719 c -0.14722,-0.42762 -0.66454,-2.7234 0.54942,-2.04999 0.76916,0.42666 1.10156,1.8368 1.50398,2.56955 1.06247,1.934551 2.302894,3.618291 3.732954,5.300201 0.76441,0.89905 1.37819,2.04574 2.68502,1.77919 -2.73373,-2.56938 -8.059134,-6.82836 -5.583714,-11.057661 l -0.57838,-0.54361 m -7.31461,-6.51172 -0.54361,0.57839 2.08597,0.87124 -1.54236,-1.44963 m -33.546243,-31.52934 -0.1812,0.19279 3.300686,3.82845 -3.119486,-4.02124 m 42.630777,40.79388 0.43196,1.858401 0.35081,-0.759581 0.79437,1.472801 -1.57714,-2.571621 m -15.990354,-14.66586 -0.1812,0.1928 -2.50633,-2.35564 2.68753,2.16284 m 6.57819,6.9089 -0.1812,0.1928 0.77117,0.72481 -0.58997,-0.91761 m -4.81985,-4.53008 -0.18121,0.1928 -1.73515,-1.63082 1.91636,1.43802 m 1.36114,1.64242 -0.1812,0.1928 -1.15677,-1.08722 1.33797,0.89442 m 36.723714,37.420581 0.57838,0.54361 c -3.99298,5.62247 -11.23195,-2.14961 -13.07782,-5.78846 -0.91385,-1.8015 -1.68696,-4.22563 0.18376,-5.60415 l 0.1928,0.1812 -0.33922,1.13358 0.38559,0.36241 0.37399,-0.0116 c 0.5979,-2.03295 -1.4338,-2.55967 -2.37355,-0.78376 -0.79752,1.50712 0.24422,3.63283 0.95054,5.00212 1.96116,3.80197 6.01056,8.0086 10.61966,7.94599 1.086,-0.0147 2.49257,-0.34162 3.24671,-1.19365 0.75485,-0.85282 0.44437,-2.05321 -0.74084,-1.7873 m -17.35152,-16.30828 0.0348,1.12199 0.35082,-0.75959 -0.38559,-0.3624 m -2.26717,-0.67844 -0.53202,0.95237 0.38559,0.36241 1.12199,-0.0348 -0.32763,1.50758 1.08722,-1.15677 -1.73515,-1.63082 m 1.56554,2.19761 0.0116,0.374 -0.0116,-0.374 m -7.507404,-6.69292 -0.1812,0.19279 -0.77118,-0.72481 0.95238,0.53202 m 22.398954,22.14156 -0.374,0.0116 0.374,-0.0116 m -2.44837,-0.48566 -0.18121,0.1928 c -2.25398,-1.08866 -3.55339,-3.2102 -4.84305,-5.27807 l 5.02426,5.08527 m -99.912147,-87.248201 -0.12467,0.004 c 0.0654,0.12113 0.27375,0.13625 0.12467,-0.004 m 0.26479,0.49093 -0.1812,0.1928 0.57838,0.54361 -0.39718,-0.73641 m 11.83002,13.29738 -0.1812,0.19279 -1.73516,-1.63082 z"
       id="path5915-6-8" /></g></svg>
