<?xml version="1.0" encoding="UTF-8" standalone="no"?>
<!-- Created with Inkscape (http://www.inkscape.org/) -->

<svg
   width="210mm"
   height="100mm"
   viewBox="0 0 210 100"
   version="1.1"
   id="svg1"
   inkscape:version="1.3.2 (091e20e, 2023-11-25, custom)"
   sodipodi:docname="kielet.svg"
   inkscape:export-filename="kielet.pdf"
   inkscape:export-xdpi="96"
   inkscape:export-ydpi="96"
   xmlns:inkscape="http://www.inkscape.org/namespaces/inkscape"
   xmlns:sodipodi="http://sodipodi.sourceforge.net/DTD/sodipodi-0.dtd"
   xmlns="http://www.w3.org/2000/svg"
   xmlns:svg="http://www.w3.org/2000/svg">
  <sodipodi:namedview
     id="namedview1"
     pagecolor="#ffffff"
     bordercolor="#000000"
     borderopacity="0.25"
     inkscape:showpageshadow="2"
     inkscape:pageopacity="0.0"
     inkscape:pagecheckerboard="0"
     inkscape:deskcolor="#d1d1d1"
     inkscape:document-units="mm"
     inkscape:zoom="0.66903058"
     inkscape:cx="396.84284"
     inkscape:cy="561.25984"
     inkscape:window-width="1920"
     inkscape:window-height="986"
     inkscape:window-x="-11"
     inkscape:window-y="-11"
     inkscape:window-maximized="1"
     inkscape:current-layer="layer1" />
  <defs
     id="defs1" />
  <g
     inkscape:label="Taso 1"
     inkscape:groupmode="layer"
     id="layer1">
    <path
       style="fill:#eb5432;stroke-width:2.22785"
       d="m 109.87349,42.765765 c -0.56736,-0.14838 -1.49575,-0.14838 -2.06309,0 -0.56735,0.14837 -0.10314,0.26957 1.03153,0.26957 1.13471,0 1.59891,-0.12142 1.03156,-0.26957 z m 7.22078,-3.45249 c 1.45889,-0.4562 7.29449,-3.36971 12.96796,-6.47449 5.6735,-3.10481 14.09529,-7.50597 18.71512,-9.78041 4.61985,-2.27443 8.39972,-4.47377 8.39972,-4.88742 0,-1.14014 -1.74538,-2.48797 -5.37171,-4.14817 -6.28881,-2.87909 -13.97351,-2.57653 -21.52513,0.84755 -5.32138,2.41282 -4.61119,0.4655 0.95401,-2.6159 2.3705,-1.31253 4.31742,-2.6516597 4.32649,-2.9758594 0.009,-0.32419 -1.52277,-1.3680794 -3.40407,-2.3197488 -3.37422,-1.7068297 -3.48325,-1.7211297 -8.04761,-1.0558697 -2.54487,0.37091 -6.07734,1.3604797 -7.84992,2.1990691 -6.60548,3.1248788 -12.59644,10.1569988 -14.77051,17.3375088 -0.96968,3.2026 -1.02014,4.04705 -0.38395,6.42565 0.93153,3.48288 3.2157,6.48624 5.73295,7.53802 2.46403,1.02953 6.7982,0.99153 10.25665,-0.09 z m 2.94728,-18.54038 c 0,-0.3242 0.28091,-0.58945 0.62425,-0.58945 0.34331,0 0.46029,0.26525 0.25992,0.58945 -0.20029,0.32419 -0.48127,0.58946 -0.62425,0.58946 -0.14303,0 -0.25992,-0.26527 -0.25992,-0.58946 z m 4.71561,-4.38611 c 0,-0.14303 0.26526,-0.42387 0.58947,-0.62425 0.3242,-0.20028 0.58944,-0.0833 0.58944,0.25995 0,0.34333 -0.26524,0.62425 -0.58944,0.62425 -0.32421,0 -0.58947,-0.11697 -0.58947,-0.25995 z"
       id="path11-4" />
    <path
       style="fill:#eb5432;stroke-width:2.67242"
       d="m 32.346831,48.000684 c -0.68057,-0.17798 -1.79422,-0.17798 -2.47478,0 -0.68056,0.17798 -0.12372,0.32336 1.23738,0.32336 1.36114,0 1.91797,-0.14564 1.2374,-0.32336 z m 8.66168,-4.14142 c 1.75001,-0.54723 8.75009,-4.04213 15.55569,-7.76647 6.80565,-3.72436 16.90798,-9.003776 22.4497,-11.732076 5.54174,-2.72829 10.07587,-5.3665 10.07587,-5.86269 0,-1.36766 -2.09367,-2.98445 -6.44363,-4.97593 -7.54373,-3.45362 -16.7619,-3.09068 -25.82043,1.01667 -6.38326,2.8943 -5.53135,0.55839 1.14438,-3.13791 2.84352,-1.5744297 5.17895,-3.1807888 5.18984,-3.5696785 0.0112,-0.38888 -1.82664,-1.6410792 -4.08336,-2.7826492 -4.04753,-2.04742 -4.17832,-2.06458 -9.65349,-1.26657 -3.0527,0.44493 -7.29007,1.63196 -9.41636,2.6378998 -7.9236,3.7484279 -15.11004,12.1838179 -17.71795,20.7971679 -1.16317,3.841676 -1.22371,4.854636 -0.46056,7.707886 1.11741,4.17788 3.85739,7.78056 6.87695,9.04222 2.95572,1.23497 8.15477,1.18938 12.30335,-0.10793 z m 3.5354,-22.240096 c 0,-0.38889 0.33697,-0.70706 0.74882,-0.70706 0.41182,0 0.55214,0.31817 0.31179,0.70706 -0.24026,0.38889 -0.57731,0.70709 -0.74881,0.70709 -0.17157,0 -0.3118,-0.3182 -0.3118,-0.70709 z m 5.6566,-5.26135 c 0,-0.17156 0.3182,-0.50845 0.70711,-0.74882 0.38888,-0.24024 0.70705,-0.0999 0.70705,0.31182 0,0.41186 -0.31817,0.74882 -0.70705,0.74882 -0.38891,0 -0.70711,-0.1403 -0.70711,-0.31182 z"
       id="path11-4-5" />
    <path
       style="fill:#eb5432;stroke-width:2.22785"
       d="m 101.69285,92.778412 c -0.56736,-0.14838 -1.49575,-0.14838 -2.063091,0 -0.56735,0.14837 -0.10314,0.26957 1.031531,0.26957 1.13471,0 1.59891,-0.12142 1.03156,-0.26957 z m 7.22078,-3.45249 c 1.45889,-0.4562 7.29449,-3.36971 12.96796,-6.47449 5.6735,-3.10481 14.09529,-7.50597 18.71512,-9.78041 4.61985,-2.27443 8.39972,-4.47377 8.39972,-4.88742 0,-1.14014 -1.74538,-2.48797 -5.37171,-4.14817 -6.28881,-2.87909 -13.97351,-2.57653 -21.52513,0.84755 -5.32138,2.41282 -4.61119,0.4655 0.95401,-2.6159 2.3705,-1.31253 4.31742,-2.65166 4.32649,-2.97586 0.009,-0.32419 -1.52277,-1.36808 -3.40407,-2.31975 -3.37422,-1.70683 -3.48325,-1.72113 -8.04761,-1.05587 -2.54487,0.37091 -6.07734,1.36048 -7.84992,2.19907 -6.60548,3.12488 -12.596441,10.157 -14.770511,17.33751 -0.96968,3.2026 -1.02014,4.04705 -0.38395,6.42565 0.93153,3.48288 3.2157,6.48624 5.73295,7.53802 2.464031,1.02953 6.798201,0.99153 10.256651,-0.09 z m 2.94728,-18.54038 c 0,-0.3242 0.28091,-0.58945 0.62425,-0.58945 0.34331,0 0.46029,0.26525 0.25992,0.58945 -0.20029,0.32419 -0.48127,0.58946 -0.62425,0.58946 -0.14303,0 -0.25992,-0.26527 -0.25992,-0.58946 z m 4.71561,-4.38611 c 0,-0.14303 0.26526,-0.42387 0.58947,-0.62425 0.3242,-0.20028 0.58944,-0.0833 0.58944,0.25995 0,0.34333 -0.26524,0.62425 -0.58944,0.62425 -0.32421,0 -0.58947,-0.11697 -0.58947,-0.25995 z"
       id="path11-4-9" />
    <path
       style="fill:#eb5432;stroke-width:2.67242"
       d="m 24.166191,98.013322 c -0.68057,-0.177977 -1.79422,-0.177977 -2.47478,0 -0.68056,0.17798 -0.12372,0.32336 1.23738,0.32336 1.36114,0 1.91797,-0.14564 1.2374,-0.32336 z m 8.66168,-4.141411 c 1.75001,-0.54723 8.75009,-4.04213 15.55569,-7.76647 6.80565,-3.72436 16.90798,-9.003776 22.449696,-11.732076 5.54174,-2.72829 10.07587,-5.3665 10.07587,-5.86269 0,-1.36766 -2.09367,-2.98445 -6.44363,-4.97593 -7.543726,-3.45362 -16.761896,-3.09068 -25.820426,1.01667 -6.38326,2.8943 -5.53135,0.55839 1.14438,-3.13791 2.84352,-1.57443 5.17895,-3.18079 5.18984,-3.56968 0.0112,-0.38888 -1.82664,-1.64108 -4.08336,-2.78265 -4.04753,-2.04742 -4.17832,-2.06458 -9.65349,-1.26657 -3.0527,0.44493 -7.29007,1.63196 -9.41636,2.6379 -7.9236,3.74843 -15.11004,12.18382 -17.71795,20.79717 -1.16317,3.841676 -1.22371,4.854636 -0.46056,7.707886 1.11741,4.17788 3.85739,7.78056 6.87695,9.04222 2.95572,1.23497 8.15477,1.18938 12.30335,-0.10793 z m 3.5354,-22.240096 c 0,-0.38889 0.33697,-0.70706 0.74882,-0.70706 0.41182,0 0.55214,0.31817 0.31179,0.70706 -0.24026,0.38889 -0.57731,0.70709 -0.74881,0.70709 -0.17157,0 -0.3118,-0.3182 -0.3118,-0.70709 z m 5.6566,-5.26135 c 0,-0.17156 0.3182,-0.50845 0.70711,-0.74882 0.38888,-0.24024 0.70705,-0.0999 0.70705,0.31182 0,0.41186 -0.31817,0.74882 -0.70705,0.74882 -0.38891,0 -0.70711,-0.1403 -0.70711,-0.31182 z"
       id="path11-4-5-5" />
  </g>
</svg>
