<?xml version="1.0" encoding="UTF-8" standalone="no"?>
<!-- Created with Inkscape (http://www.inkscape.org/) -->

<svg
   width="29cm"
   height="17cm"
   viewBox="0 0 290 169.99999"
   version="1.1"
   id="svg1"
   inkscape:version="1.3.2 (091e20e, 2023-11-25, custom)"
   sodipodi:docname="puhelimen ääni.svg"
   inkscape:export-filename="missamahdat.pdf"
   inkscape:export-xdpi="96"
   inkscape:export-ydpi="96"
   xmlns:inkscape="http://www.inkscape.org/namespaces/inkscape"
   xmlns:sodipodi="http://sodipodi.sourceforge.net/DTD/sodipodi-0.dtd"
   xmlns="http://www.w3.org/2000/svg"
   xmlns:svg="http://www.w3.org/2000/svg">
  <sodipodi:namedview
     id="namedview1"
     pagecolor="#ffffff"
     bordercolor="#000000"
     borderopacity="0.25"
     inkscape:showpageshadow="2"
     inkscape:pageopacity="0.0"
     inkscape:pagecheckerboard="0"
     inkscape:deskcolor="#d1d1d1"
     inkscape:document-units="mm"
     inkscape:zoom="0.14254375"
     inkscape:cx="845.35451"
     inkscape:cy="-115.75394"
     inkscape:window-width="1280"
     inkscape:window-height="657"
     inkscape:window-x="-8"
     inkscape:window-y="-8"
     inkscape:window-maximized="1"
     inkscape:current-layer="layer1" />
  <defs
     id="defs1" />
  <g
     inkscape:label="Taso 1"
     inkscape:groupmode="layer"
     id="layer1">
    <text
       xml:space="preserve"
       style="font-style:normal;font-variant:normal;font-weight:normal;font-stretch:normal;font-size:21.7752px;font-family:Colchester;-inkscape-font-specification:Colchester;letter-spacing:-0.0163314px;word-spacing:-0.00136094px;fill:#ffffff;fill-opacity:1;stroke:none;stroke-width:0.702121;stroke-dasharray:none"
       x="-252.67099"
       y="-54.991264"
       id="text9"
       transform="scale(-1)"><tspan
         sodipodi:role="line"
         id="tspan9"
         style="font-style:normal;font-variant:normal;font-weight:normal;font-stretch:normal;font-family:Arial;-inkscape-font-specification:Arial;fill:#ffffff;stroke-width:0.702121"
         x="-252.67099"
         y="-54.991264">missä mahdat </tspan><tspan
         sodipodi:role="line"
         style="font-style:normal;font-variant:normal;font-weight:normal;font-stretch:normal;font-family:Arial;-inkscape-font-specification:Arial;fill:#ffffff;stroke-width:0.702121"
         x="-252.67099"
         y="-27.2099"
         id="tspan11">olla nyt</tspan></text>
    <g
       id="text7-3"
       style="font-size:42.3333px;font-family:'Shock Graffiti';-inkscape-font-specification:'Shock Graffiti';text-align:end;letter-spacing:-0.03175px;word-spacing:-0.00264583px;text-anchor:end;stroke-width:1.365"
       transform="matrix(1.5403526,0,0,1.5403526,239.42097,-758.45752)"
       aria-label="puhelimen ääni&#10; arkeen takaisin">
      <path
         style="font-family:Colchester;-inkscape-font-specification:Colchester"
         d="m -129.24079,512.40268 q -0.46567,0.33867 -0.97367,1.27 V 530.352 l -0.33866,0.127 -2.75167,-2.24366 -2.58233,2.20133 -1.31233,-0.254 -0.381,-0.127 q -0.0423,0.21166 -0.0423,0.93133 0,1.98967 1.10066,2.83633 -0.80433,0.0847 -2.75166,1.43933 -1.905,1.397 -2.49767,2.159 -0.0847,-0.21166 0.254,-0.67733 l 0.33867,-0.508 q 0.16933,-0.29633 0.381,-1.143 0.0423,-0.29633 0,-2.413 l -0.0847,-2.83633 -0.67733,0.127 -0.97367,0.0847 -0.67733,0.16933 0.46567,-1.05833 q 0.67733,-0.80433 1.016,-0.93133 0.33866,-0.127 0.84666,-0.29634 l 0.0423,-13.80065 q -0.16934,-0.93134 -1.10067,-1.397 0.889,-0.67734 1.397,-1.143 0.55033,-0.46567 1.22766,-1.524 1.18534,1.31233 2.032,2.07433 0.381,0.33867 1.524,0.33867 1.86267,0 2.794,-1.27 0.29633,-0.381 0.889,-1.22767 0.84666,0.97367 1.86266,1.86267 0.33867,0.16933 0.97367,0.55033 z m -4.191,2.032 q 0,-1.35467 -2.20133,-1.35467 -1.10066,0 -1.35466,0.127 -0.381,0.16934 -0.71967,0.97367 V 527.431 l 1.94733,0.16934 1.35467,0.46566 q 0.0423,0.0423 0.97366,-0.97366 z m 9.91662,12.48832 q -0.16933,1.31234 1.98967,1.31234 2.20133,0 2.20133,-1.60867 v -12.36132 q 0,-1.43934 -1.016,-1.98967 0.84666,0 1.905,-1.016 0.381,-0.33866 1.016,-1.05833 0.67733,0.84667 2.32833,2.11666 -1.143,1.143 -1.143,2.11667 V 526.796 q 0.508,1.56634 1.22766,1.82034 l -2.87866,2.32833 q -1.27,-2.032 -2.37067,-2.032 l -2.41299,-0.0423 q -1.016,0.63499 -2.20134,1.94733 0.0423,-0.29634 -1.14299,-1.22767 -0.71967,-0.55033 -1.524,-1.10066 0.0847,-0.0847 0.33866,-0.33867 0.254,-0.29633 0.29634,-0.33867 0.33866,-0.46566 0.33866,-0.889 l 0.0423,-12.61532 q 0,-0.55033 -1.10067,-2.032 0.84667,-0.0847 1.73567,-1.05833 0.33866,-0.33867 0.67733,-0.80433 l 0.16933,-0.21167 q 0.67733,0.80433 2.49767,2.11666 -0.71967,0.59267 -0.889,1.43934 l -0.0847,0.84666 z m 14.95421,-25.06131 q -1.05833,1.05833 -1.05833,2.921 v 6.22299 q 0.381,0.381 0.97366,0.889 1.05834,0.55033 1.18534,0.55033 0.80433,0 0.84666,-0.0423 1.22767,-0.46567 2.032,-1.905 1.143,1.27 2.667,2.24367 0,0.16933 -0.42333,0.762 -0.381,0.55033 -0.381,0.635 v 17.27198 q -0.16934,-0.16933 -1.18534,-0.16933 -0.84666,0 -1.43933,1.10067 -0.508,0.93133 -0.508,1.86266 0,1.48167 1.22767,1.94733 0.33866,-0.71966 0.55033,-0.97366 0.33867,-0.42334 0.80433,-0.508 0.55034,-0.0423 0.93134,0.381 0.381,0.42333 0.381,1.016 0,0.59266 -0.59267,1.016 -0.59267,0.42333 -1.27,0.42333 -1.22767,0 -2.11666,-1.31233 -0.80434,-1.18534 -0.762,-2.45534 0,-0.33866 0.0847,-0.97366 0.0423,-0.254 0.762,-1.69333 v -16.72166 q 0,-0.254 -0.29633,-0.59266 -0.29633,-0.381 -0.55033,-0.42334 -1.10067,-0.254 -1.56634,-0.42333 -0.97366,-0.381 -1.397,-0.889 v 14.73199 q 0,0.889 1.016,2.032 -1.77799,0.84666 -2.49766,2.032 -0.889,-1.27 -2.413,-2.07433 0.80433,-0.80434 0.93133,-1.98967 v -8.67833 q 0.0423,-0.0423 0,-9.39799 0,-2.413 -1.05833,-2.70933 1.86267,-0.93133 4.99533,-4.318 z m 10.593921,29.04064 q -1.693332,-1.69333 -2.455331,-2.07433 0.254,-0.254 0.677333,-1.18533 0.465666,-0.97367 0.465666,-1.27 v -16.38299 l 0.381,-0.0423 q 0.550333,2.45533 2.836331,2.45533 0.804333,0 1.608665,-0.889 0.211667,-0.254 1.185333,-1.524 l 2.751664,7.19666 q -4.36033,2.58234 -4.36033,5.75733 0,1.27 1.058333,1.524 0.169333,-0.16933 0.169333,-0.46566 0,-0.33867 -0.04233,-0.508 -0.04233,-0.16934 -0.04233,-0.0423 0,-1.016 1.143,-1.016 0.380999,0 0.719666,0.42334 0.338666,0.381 0.338666,0.80433 0,0.67733 -0.507999,1.18533 -0.465667,0.508 -1.143,0.508 -2.412998,0 -2.412998,-2.58233 0,-1.82033 2.412998,-4.78366 0,-1.397 -1.862665,-4.826 -0.127,-0.254 -1.015999,-0.254 -0.423333,0 -0.423333,0.381 v 13.33499 q 0,0.55033 0.761999,1.69333 l 3.513664,-0.97366 0.169334,0.635 q -2.793998,0.71966 -3.301998,0.93133 -1.650999,0.635 -2.624665,1.98966 z m 13.430215,-28.99831 q -1.058332,1.05833 -1.058332,2.921 l -0.04233,21.97098 q 0,0.889 1.016,2.032 -1.777999,0.84667 -2.497665,2.032 -0.804333,-1.27 -2.412998,-2.11666 0.804332,-0.80434 0.931332,-1.94734 v -8.67832 q 0.04233,-0.0423 -0.04233,-9.73666 -0.04233,-2.032 -1.015999,-2.37067 1.862665,-0.93133 4.995329,-4.31799 z m 6.021897,3.937 q -1.312333,0.889 -2.201332,2.45533 -0.973666,-1.60866 -2.243665,-2.286 1.439332,-0.93133 2.201332,-2.32833 0.761999,1.524 2.243665,2.159 z m -0.635,8.67833 q 0.338667,-1.35467 0.973666,-2.11667 -1.439332,-0.67733 -2.455331,-2.159 -1.269999,1.69333 -2.285999,2.286 0.762,0.889 0.889,2.032 l -0.04233,12.31899 q -0.211666,0.59267 -1.142999,1.94733 0.846666,0.42333 2.455332,2.07433 0.169333,-0.29633 0.846666,-1.016 0.931332,-1.01599 1.735665,-1.05833 l -0.169333,-0.21166 q -0.804333,-1.016 -0.804333,-1.73567 z m 8.858228,-1.143 q -1.100666,0 -1.523999,0.29633 -0.423333,0.254 -0.423333,1.22767 l -0.04233,11.93799 q 0,0.67733 1.227666,2.032 -0.804333,0.0423 -2.031999,1.01599 -0.804333,0.80434 -1.058332,1.016 -0.677333,-0.80433 -2.328332,-2.11666 0.169333,-0.16933 1.142999,-2.07433 v -11.98033 q -0.169333,-0.508 -1.227666,-1.56633 1.947332,-0.93133 2.878665,-2.58233 1.312332,2.07433 2.497665,2.07433 h 1.904998 l 2.412998,-2.07433 q 1.312333,2.07433 2.412999,2.07433 h 2.158998 q 1.015999,-0.67733 2.158998,-1.94733 -0.08467,0.33867 1.185333,1.22766 0.804333,0.55034 1.650999,1.10067 -0.169334,0.16933 -0.804333,0.762 -0.338667,0.29633 -0.338667,0.80433 l 0.04233,12.14966 q 0,0.59267 1.312332,1.905 -0.973666,0.0847 -1.904998,1.143 -0.338667,0.381 -0.973666,1.10066 -0.635,-0.67733 -2.539998,-2.11666 0.465666,-0.635 0.973665,-2.032 v -11.76866 q 0.08467,-0.59266 0.08467,-0.59266 0,-1.10067 -1.693332,-1.10067 -2.074332,0 -2.074332,1.31233 v 12.14966 q 0.08467,0.59267 1.185333,1.905 -1.016,0.0847 -1.693332,0.93133 l -1.058333,1.397 q -0.761999,-0.84667 -1.185332,-1.27 -0.550333,-0.46567 -1.523999,-0.93133 0.169333,-0.16933 1.142999,-2.07433 v -12.02266 q -0.169333,-0.97367 -0.635,-1.143 -0.169333,-0.16933 -1.312332,-0.16933 z m 16.774608,17.52598 q -1.693332,-1.69333 -2.455332,-2.07433 0.254,-0.254 0.677333,-1.18533 0.465666,-0.97367 0.465666,-1.27 v -16.38299 l 0.381,-0.0423 q 0.550333,2.45533 2.836331,2.45533 0.804333,0 1.608666,-0.889 0.211666,-0.254 1.185332,-1.524 l 2.751665,7.19666 q -4.36033,2.58234 -4.36033,5.75733 0,1.27 1.058332,1.524 0.169333,-0.16933 0.169333,-0.46566 0,-0.33867 -0.04233,-0.508 -0.04233,-0.16934 -0.04233,-0.0423 0,-1.016 1.142999,-1.016 0.381,0 0.719666,0.42334 0.338667,0.381 0.338667,0.80433 0,0.67733 -0.508,1.18533 -0.465666,0.508 -1.142999,0.508 -2.412998,0 -2.412998,-2.58233 0,-1.82033 2.412998,-4.78366 0,-1.397 -1.862666,-4.826 -0.126999,-0.254 -1.015999,-0.254 -0.423333,0 -0.423333,0.381 v 13.33499 q 0,0.55033 0.762,1.69333 l 3.513664,-0.97366 0.169333,0.635 q -2.793998,0.71966 -3.301998,0.93133 -1.650998,0.635 -2.624664,1.98966 z m 17.197875,-16.29832 q 0.296333,-1.31233 -1.862666,-1.31233 -2.243665,0 -2.243665,1.60867 v 11.93799 q 0,0.71966 1.016,1.98966 -0.889,0.0423 -1.904999,1.05833 l -1.015999,1.016 q -0.677333,-0.80433 -2.328332,-2.11666 0.169333,-0.16933 1.142999,-2.07433 v -11.98033 l -0.253999,-0.762 q -0.423333,-0.84666 -0.973666,-1.05833 l 2.878664,-2.32833 q 1.269999,2.032 2.412998,2.032 l 2.412998,0.0423 q 1.016,-0.67733 2.158999,-1.94733 -0.04233,0.29633 1.227666,1.27 0.253999,0.21166 1.481665,1.05833 -1.058332,1.05833 -1.058332,1.56633 V 526.796 q 0.04233,0.55034 1.100665,2.032 -0.888999,0.0423 -1.735665,1.05833 -0.04233,0.0847 -0.846666,1.016 -0.931333,-1.016 -2.455331,-2.11666 0.423333,-0.42333 0.677332,-1.22767 0.04233,-0.254 0.211667,-0.80433 z m 27.8737749,-2.37066 q -0.6349995,0.59266 -1.2699991,1.18533 -0.5926658,0.55033 -0.7619998,1.905 v 11.76866 q -0.127,0.42333 1.1853328,1.22766 -1.3123328,0.762 -2.7939978,2.413 -0.08467,-0.127 -0.804333,-0.84667 -1.058332,-1.05833 -2.751664,-1.05833 -1.185333,0 -2.285999,1.016 -0.296333,0.29633 -0.973666,0.889 -1.058332,-1.651 -2.539998,-2.24366 0.211667,-0.0847 1.185333,-1.05834 v -4.61433 q -0.169333,-0.55033 -0.931333,-1.31233 0.762,-0.46567 2.031999,-1.73566 -0.08467,-0.127 -0.423333,-0.29634 -1.608666,-1.22766 -1.608666,-3.556 0,-2.24366 1.523999,-3.85233 1.523999,-1.60866 3.767664,-1.60866 1.312332,0 1.820332,0.16933 0.931332,0.33867 2.074332,1.524 0.296333,-0.29633 1.058332,-1.016 0.635,-0.635 0.762,-0.635 0.2539993,0 1.7356649,1.73567 z m -5.0376629,12.91165 -0.04233,-9.65199 q 0,-1.18533 -0.931333,-1.98966 -0.931333,-0.84667 -2.158998,-0.84667 -1.481666,0 -2.582332,1.27 -1.100666,1.22767 -1.100666,2.70933 0,0.97367 0.635,1.94733 0.677333,0.97367 1.608665,0.97367 1.016,0 1.693332,-0.46567 0.846667,-0.55033 0.762,-1.524 -0.804333,0.381 -1.142999,0.381 -0.592666,0 -1.100666,-0.46566 -0.465666,-0.508 -0.465666,-1.10067 0,-0.635 0.507999,-1.10066 0.508,-0.46567 1.142999,-0.46567 0.762,0 1.269999,0.71967 0.508,0.67733 0.508,1.56633 0,1.143 -0.761999,2.032 -0.762,0.84666 -1.904999,0.84666 -0.338666,0 -0.465666,-0.0423 -0.08467,0.0847 -0.296333,0.0423 0.507999,0.762 1.862665,1.60867 -0.931333,0.67733 -0.931333,1.22766 0,4.318 0.04233,4.36033 0.08467,0.33867 0.634999,0.762 0.592666,0.381 0.973666,0.381 2.582331,0 2.243666,-3.175 z m -0.169333,-17.65298 q 0,-0.635 0.423333,-1.05833 0.465666,-0.46567 1.100666,-0.46567 0.634999,0 1.058332,0.46567 0.465666,0.42333 0.465666,1.05833 0,0.635 -0.465666,1.10066 -0.423333,0.42334 -1.058332,0.42334 -0.635,0 -1.100666,-0.42334 -0.423333,-0.46566 -0.423333,-1.10066 z m -5.926662,0 q 0,-0.635 0.423333,-1.05833 0.465666,-0.46567 1.100665,-0.46567 0.635,0 1.058333,0.46567 0.465666,0.42333 0.465666,1.05833 0,0.635 -0.465666,1.10066 -0.423333,0.42334 -1.058333,0.42334 -0.634999,0 -1.100665,-0.42334 -0.423333,-0.46566 -0.423333,-1.10066 z m 25.0718903,4.74133 q -0.6349995,0.59266 -1.2699991,1.18533 -0.5926662,0.55033 -0.7619994,1.905 v 11.76866 q -0.1269999,0.42333 1.1853325,1.22766 -1.3123324,0.762 -2.7939979,2.413 -0.084667,-0.127 -0.8043328,-0.84667 -1.0583325,-1.05833 -2.7516646,-1.05833 -1.1853324,0 -2.2859983,1.016 -0.2963331,0.29633 -0.9736659,0.889 -1.0583325,-1.651 -2.5399981,-2.24366 0.2116665,-0.0847 1.1853325,-1.05834 v -4.61433 q -0.1693332,-0.55033 -0.9313327,-1.31233 0.7619995,-0.46567 2.0319985,-1.73566 -0.084667,-0.127 -0.423333,-0.29634 -1.6086655,-1.22766 -1.6086655,-3.556 0,-2.24366 1.5239989,-3.85233 1.5239988,-1.60866 3.7676638,-1.60866 1.31233237,0 1.82033199,0.16933 0.93133263,0.33867 2.07433181,1.524 0.2963331,-0.29633 1.0583325,-1.016 0.6349995,-0.635 0.7619994,-0.635 0.2539998,0 1.7356654,1.73567 z M 0.45512841,525.145 0.41279511,515.49301 q 0,-1.18533 -0.93133263,-1.98966 -0.93133268,-0.84667 -2.15899838,-0.84667 -1.4816656,0 -2.5823314,1.27 -1.1006658,1.22767 -1.1006658,2.70933 0,0.97367 0.6349995,1.94733 0.6773328,0.97367 1.6086654,0.97367 1.0159993,0 1.6933321,-0.46567 0.846666,-0.55033 0.7619994,-1.524 -0.8043327,0.381 -1.1429991,0.381 -0.5926662,0 -1.1006658,-0.46566 -0.4656664,-0.508 -0.4656664,-1.10067 0,-0.635 0.5079997,-1.10066 0.5079996,-0.46567 1.1429991,-0.46567 0.7619994,0 1.269999,0.71967 0.50799966,0.67733 0.50799966,1.56633 0,1.143 -0.76199946,2.032 -0.7619994,0.84666 -1.9049985,0.84666 -0.3386664,0 -0.4656664,-0.0423 -0.084667,0.0847 -0.2963331,0.0423 0.5079997,0.762 1.8626653,1.60867 -0.9313326,0.67733 -0.9313326,1.22766 0,4.318 0.042333,4.36033 0.084667,0.33867 0.6349995,0.762 0.5926662,0.381 0.9736659,0.381 2.58233142,0 2.24366531,-3.175 z m -0.1693332,-17.65298 q 0,-0.635 0.42333301,-1.05833 0.46566628,-0.46567 1.10066588,-0.46567 0.6349995,0 1.0583325,0.46567 0.4656663,0.42333 0.4656663,1.05833 0,0.635 -0.4656663,1.10066 -0.423333,0.42334 -1.0583325,0.42334 -0.6349996,0 -1.10066588,-0.42334 -0.42333301,-0.46566 -0.42333301,-1.10066 z m -5.92666221,0 q 0,-0.635 0.423333,-1.05833 0.4656663,-0.46567 1.1006658,-0.46567 0.6349996,0 1.0583326,0.46567 0.4656663,0.42333 0.4656663,1.05833 0,0.635 -0.4656663,1.10066 -0.423333,0.42334 -1.0583326,0.42334 -0.6349995,0 -1.1006658,-0.42334 -0.423333,-0.46566 -0.423333,-1.10066 z m 20.753909,7.11199 q 0.296333,-1.31233 -1.862665,-1.31233 -2.243665,0 -2.243665,1.60867 v 11.93799 q 0,0.71966 1.015999,1.98966 -0.888999,0.0423 -1.904998,1.05833 l -1.0159996,1.016 Q 8.4243806,530.098 6.7733818,528.78567 6.942715,528.61634 7.916381,526.71134 v -11.98033 l -0.2539999,-0.762 q -0.423333,-0.84666 -0.9736659,-1.05833 l 2.8786645,-2.32833 q 1.2699993,2.032 2.4129983,2.032 l 2.412998,0.0423 q 1.015999,-0.67733 2.158998,-1.94733 -0.04233,0.29633 1.227666,1.27 0.254,0.21166 1.481666,1.05833 -1.058333,1.05833 -1.058333,1.56633 V 526.796 q 0.04233,0.55034 1.100666,2.032 -0.888999,0.0423 -1.735665,1.05833 -0.04233,0.0847 -0.846666,1.016 -0.931333,-1.016 -2.455332,-2.11666 0.423333,-0.42333 0.677333,-1.22767 0.04233,-0.254 0.211667,-0.80433 z m 10.212874,-8.76299 q -1.312332,0.889 -2.201332,2.45533 -0.973666,-1.60866 -2.243665,-2.286 1.439333,-0.93133 2.201332,-2.32833 0.761999,1.524 2.243665,2.159 z m -0.635,8.67833 q 0.338667,-1.35467 0.973666,-2.11667 -1.439332,-0.67733 -2.455331,-2.159 -1.269999,1.69333 -2.285998,2.286 0.761999,0.889 0.888999,2.032 l -0.04233,12.31899 q -0.211667,0.59267 -1.142999,1.94733 0.846666,0.42333 2.455331,2.07433 0.169333,-0.29633 0.846666,-1.016 0.931333,-1.01599 1.735665,-1.05833 l -0.169333,-0.21166 q -0.804333,-1.016 -0.804333,-1.73567 z"
         id="path1" />
      <path
         style="font-family:Colchester;-inkscape-font-specification:Colchester"
         d="m -133.09318,567.33354 q -0.635,0.59267 -1.27,1.18533 -0.59267,0.55034 -0.762,1.905 v 11.76866 q -0.127,0.42333 1.18533,1.22766 -1.31233,0.762 -2.794,2.413 -0.0847,-0.127 -0.80433,-0.84666 -1.05833,-1.05834 -2.75167,-1.05834 -1.18533,0 -2.28599,1.016 -0.29634,0.29634 -0.97367,0.889 -1.05833,-1.651 -2.54,-2.24366 0.21167,-0.0847 1.18533,-1.05833 v -4.61433 q -0.16933,-0.55034 -0.93133,-1.31234 0.762,-0.46566 2.032,-1.73566 -0.0847,-0.127 -0.42333,-0.29634 -1.60867,-1.22766 -1.60867,-3.55599 0,-2.24367 1.524,-3.85233 1.524,-1.60867 3.76766,-1.60867 1.31234,0 1.82034,0.16933 0.93133,0.33867 2.07433,1.524 0.29633,-0.29633 1.05833,-1.016 0.635,-0.635 0.762,-0.635 0.254,0 1.73567,1.73567 z m -5.03767,12.91166 -0.0423,-9.652 q 0,-1.18533 -0.93133,-1.98966 -0.93134,-0.84667 -2.159,-0.84667 -1.48167,0 -2.58233,1.27 -1.10067,1.22767 -1.10067,2.70933 0,0.97367 0.635,1.94734 0.67733,0.97366 1.60867,0.97366 1.01599,0 1.69333,-0.46566 0.84666,-0.55034 0.762,-1.524 -0.80434,0.381 -1.143,0.381 -0.59267,0 -1.10067,-0.46567 -0.46566,-0.508 -0.46566,-1.10067 0,-0.635 0.508,-1.10066 0.50799,-0.46567 1.14299,-0.46567 0.762,0 1.27,0.71967 0.508,0.67733 0.508,1.56633 0,1.143 -0.762,2.032 -0.762,0.84666 -1.90499,0.84666 -0.33867,0 -0.46567,-0.0423 -0.0847,0.0847 -0.29633,0.0423 0.508,0.762 1.86266,1.60867 -0.93133,0.67733 -0.93133,1.22767 0,4.31799 0.0423,4.36033 0.0847,0.33866 0.635,0.762 0.59267,0.38099 0.97367,0.38099 2.58233,0 2.24366,-3.17499 z m 15.6739,-12.61533 q -1.26999,1.35467 -2.15899,2.83633 -1.73567,-2.24366 -3.00567,-2.24366 -0.381,0 -0.71966,0.97367 v 12.40365 q 0.0423,0.21167 0.21166,0.762 0.33867,0.80434 1.143,1.397 -1.905,0.97367 -2.58233,2.11667 -1.69333,-1.651 -2.87866,-2.032 0.0847,-0.0847 0.33866,-0.33867 0.254,-0.29633 0.29634,-0.33866 0.59266,-0.71967 0.59266,-1.56634 v -12.02265 q 0,-0.67734 -1.27,-1.48167 l 2.54,-2.45533 q 1.43933,1.905 2.32833,2.032 0.84667,0.127 2.794,-2.20133 0.33867,0.84666 2.37066,2.15899 z m 4.49793,8.17033 q 1.73566,-0.71967 3.21733,-2.11666 1.73567,-1.69334 1.73567,-3.25967 0,-0.889 -1.98967,-2.37066 1.524,-0.46567 2.83633,-2.45534 0.55033,1.31234 2.32833,2.32834 -0.33866,0.127 -1.48166,1.22766 -0.254,0.33867 -0.84667,1.73567 -0.16933,0.381 -1.397,2.49766 l 3.556,8.382 q 0.46567,1.10066 1.18533,1.56633 -1.43933,0.84666 -2.49766,2.32833 -0.127,-0.127 -0.80434,-0.889 -1.01599,-0.93133 -1.73566,-1.27 0.635,-1.05833 0.55033,-1.524 -0.16933,-0.97366 -2.75166,-6.60399 l -1.905,0.97366 v 5.29167 q 0.127,0.67733 0.84667,1.82033 -1.56634,0.93133 -2.286,2.286 -0.80434,-1.05834 -1.10067,-1.35467 -0.59267,-0.59267 -1.43933,-0.97367 1.016,-1.26999 1.016,-1.69333 l -0.0423,-18.45732 q -0.0847,-0.33866 -0.50799,-1.397 -0.29634,-0.80433 -0.80434,-0.97366 1.778,-0.55033 5.24933,-4.36033 l 0.127,0.46566 q -1.05833,1.05834 -1.05833,2.667 z m 12.5836,10.20233 q -1.69333,-1.69334 -2.45533,-2.07434 0.254,-0.254 0.67734,-1.18533 0.46566,-0.97366 0.46566,-1.27 v -16.38298 l 0.381,-0.0423 q 0.55034,2.45533 2.83633,2.45533 0.80434,0 1.60867,-0.889 0.21167,-0.254 1.18533,-1.52399 l 2.751666,7.19666 q -4.360326,2.58233 -4.360326,5.75733 0,1.26999 1.05833,1.52399 0.16933,-0.16933 0.16933,-0.46566 0,-0.33867 -0.0423,-0.508 -0.0423,-0.16933 -0.0423,-0.0423 0,-1.016 1.142994,-1.016 0.381,0 0.719666,0.42333 0.338667,0.381 0.338667,0.80433 0,0.67733 -0.508,1.18533 -0.465666,0.508 -1.142997,0.508 -2.413,0 -2.413,-2.58233 0,-1.82033 2.413,-4.78366 0,-1.397 -1.86267,-4.826 -0.127,-0.254 -1.016,-0.254 -0.42333,0 -0.42333,0.381 v 13.33499 q 0,0.55034 0.762,1.69333 l 3.513664,-0.97366 0.169333,0.635 q -2.793997,0.71966 -3.301997,0.93133 -1.651,0.635 -2.62467,1.98967 z m 10.890222,0 q -1.693332,-1.69334 -2.455332,-2.07434 0.254,-0.254 0.677333,-1.18533 0.465666,-0.97366 0.465666,-1.27 v -16.38298 l 0.381,-0.0423 q 0.550333,2.45533 2.836331,2.45533 0.804333,0 1.608666,-0.889 0.211666,-0.254 1.185332,-1.52399 l 2.751665,7.19666 q -4.36033,2.58233 -4.36033,5.75733 0,1.26999 1.058332,1.52399 0.169334,-0.16933 0.169334,-0.46566 0,-0.33867 -0.04233,-0.508 -0.04233,-0.16933 -0.04233,-0.0423 0,-1.016 1.142999,-1.016 0.381,0 0.719666,0.42333 0.338667,0.381 0.338667,0.80433 0,0.67733 -0.508,1.18533 -0.465666,0.508 -1.142999,0.508 -2.412998,0 -2.412998,-2.58233 0,-1.82033 2.412998,-4.78366 0,-1.397 -1.862665,-4.826 -0.127,-0.254 -1.016,-0.254 -0.423333,0 -0.423333,0.381 v 13.33499 q 0,0.55034 0.762,1.69333 l 3.513664,-0.97366 0.169333,0.635 q -2.793998,0.71966 -3.301998,0.93133 -1.650998,0.635 -2.624664,1.98967 z m 17.197879,-16.29832 q 0.296333,-1.31234 -1.862666,-1.31234 -2.243665,0 -2.243665,1.60867 v 11.93799 q 0,0.71967 1.016,1.98966 -0.889,0.0423 -1.904999,1.05834 l -1.015999,1.016 q -0.677333,-0.80434 -2.328332,-2.11667 0.169333,-0.16933 1.142999,-2.07433 v -11.98032 l -0.254,-0.762 q -0.423333,-0.84667 -0.973665,-1.05834 l 2.878664,-2.32833 q 1.269999,2.032 2.412998,2.032 l 2.412998,0.0423 q 1.016,-0.67733 2.158999,-1.94733 -0.04233,0.29633 1.227666,1.27 0.253999,0.21167 1.481665,1.05833 -1.058332,1.05834 -1.058332,1.56634 v 12.19199 q 0.04233,0.55033 1.100665,2.03199 -0.888999,0.0423 -1.735665,1.05834 -0.04233,0.0847 -0.846666,1.016 -0.931333,-1.016 -2.455331,-2.11667 0.423333,-0.42333 0.677332,-1.22766 0.04233,-0.254 0.211667,-0.80434 z m 19.195448,-0.508 q 0.254,-1.22767 0.846666,-1.69334 0.254,-0.21166 1.862665,-0.80433 l -0.127,-0.29633 q -0.761999,0.0847 -1.354665,0.0847 -1.100666,0 -1.185333,-0.0847 0.08467,-0.55034 0,-2.413 -0.04233,-1.397 0.296333,-2.413 0.550333,-1.651 0.635,-1.43933 v -0.508 q -0.508,0.16933 -1.185333,1.73566 -0.465666,1.05834 -3.005664,4.40267 0,0 -1.439332,0.93133 -0.04233,0.127 0,0.29633 0.254,0 0.888999,0.127 0.677333,0.29634 0.888999,1.56634 v 1.56633 q -0.08467,0.254 0.04233,11.30299 -0.169333,1.18533 -1.142999,2.286 1.735665,0.508 2.328331,2.159 0.677333,-1.10067 2.751665,-2.20134 -1.142999,-1.22766 -1.142999,-2.15899 v -10.07533 q 0,-2.286 0.04233,-2.37066 z m 15.927945,-1.86267 q -0.634999,0.59267 -1.269999,1.18533 -0.592666,0.55034 -0.761999,1.905 v 11.76866 q -0.127,0.42333 1.185332,1.22766 -1.312332,0.762 -2.793998,2.413 -0.08467,-0.127 -0.804332,-0.84666 -1.058333,-1.05834 -2.751665,-1.05834 -1.185332,0 -2.285998,1.016 -0.296333,0.29634 -0.973666,0.889 -1.058333,-1.651 -2.539998,-2.24366 0.211666,-0.0847 1.185332,-1.05833 v -4.61433 q -0.169333,-0.55034 -0.931332,-1.31234 0.761999,-0.46566 2.031998,-1.73566 -0.08467,-0.127 -0.423333,-0.29634 -1.608665,-1.22766 -1.608665,-3.55599 0,-2.24367 1.523998,-3.85233 1.523999,-1.60867 3.767664,-1.60867 1.312333,0 1.820332,0.16933 0.931333,0.33867 2.074332,1.524 0.296333,-0.29633 1.058333,-1.016 0.634999,-0.635 0.761999,-0.635 0.254,0 1.735665,1.73567 z m -5.037663,12.91166 -0.04233,-9.652 q 0,-1.18533 -0.931332,-1.98966 -0.931333,-0.84667 -2.158999,-0.84667 -1.481665,0 -2.582331,1.27 -1.100666,1.22767 -1.100666,2.70933 0,0.97367 0.634999,1.94734 0.677333,0.97366 1.608666,0.97366 1.015999,0 1.693332,-0.46566 0.846666,-0.55034 0.761999,-1.524 -0.804332,0.381 -1.142999,0.381 -0.592666,0 -1.100666,-0.46567 -0.465666,-0.508 -0.465666,-1.10067 0,-0.635 0.508,-1.10066 0.507999,-0.46567 1.142999,-0.46567 0.761999,0 1.269999,0.71967 0.507999,0.67733 0.507999,1.56633 0,1.143 -0.761999,2.032 -0.761999,0.84666 -1.904999,0.84666 -0.338666,0 -0.465666,-0.0423 -0.08467,0.0847 -0.296333,0.0423 0.508,0.762 1.862665,1.60867 -0.931332,0.67733 -0.931332,1.22767 0,4.31799 0.04233,4.36033 0.08467,0.33866 0.635,0.762 0.592666,0.38099 0.973665,0.38099 2.582332,0 2.243665,-3.17499 z m 10.085902,-4.445 q 1.735666,-0.71967 3.217331,-2.11666 1.735666,-1.69334 1.735666,-3.25967 0,-0.889 -1.989665,-2.37066 1.523998,-0.46567 2.836331,-2.45534 0.550333,1.31234 2.328331,2.32834 -0.338666,0.127 -1.481665,1.22766 -0.254,0.33867 -0.846666,1.73567 -0.169333,0.381 -1.396999,2.49766 l 3.555997,8.382 q 0.465666,1.10066 1.185333,1.56633 -1.439333,0.84666 -2.497665,2.32833 -0.127,-0.127 -0.804333,-0.889 -1.015999,-0.93133 -1.735665,-1.27 0.634999,-1.05833 0.550333,-1.524 -0.169334,-0.97366 -2.751665,-6.60399 l -1.904999,0.97366 v 5.29167 q 0.127,0.67733 0.846666,1.82033 -1.566332,0.93133 -2.285998,2.286 -0.804333,-1.05834 -1.100666,-1.35467 -0.592666,-0.59267 -1.439332,-0.97367 1.015999,-1.26999 1.015999,-1.69333 l -0.04233,-18.45732 q -0.08467,-0.33866 -0.508,-1.397 -0.296333,-0.80433 -0.804332,-0.97366 1.777998,-0.55033 5.249329,-4.36033 l 0.127,0.46566 q -1.058333,1.05834 -1.058333,2.667 z m 23.209269,-8.46666 q -0.635,0.59267 -1.269999,1.18533 -0.592667,0.55034 -0.762,1.905 v 11.76866 q -0.127,0.42333 1.185333,1.22766 -1.312333,0.762 -2.793998,2.413 -0.08467,-0.127 -0.804333,-0.84666 -1.058333,-1.05834 -2.751665,-1.05834 -1.185332,0 -2.285998,1.016 -0.296333,0.29634 -0.973666,0.889 -1.058332,-1.651 -2.539998,-2.24366 0.211667,-0.0847 1.185333,-1.05833 v -4.61433 q -0.169334,-0.55034 -0.931333,-1.31234 0.761999,-0.46566 2.031998,-1.73566 -0.08467,-0.127 -0.423333,-0.29634 -1.608665,-1.22766 -1.608665,-3.55599 0,-2.24367 1.523999,-3.85233 1.523999,-1.60867 3.767664,-1.60867 1.312332,0 1.820332,0.16933 0.931332,0.33867 2.074331,1.524 0.296333,-0.29633 1.058333,-1.016 0.634999,-0.635 0.761999,-0.635 0.254,0 1.735666,1.73567 z m -5.037663,12.91166 -0.04233,-9.652 q 0,-1.18533 -0.931332,-1.98966 -0.931333,-0.84667 -2.158999,-0.84667 -1.481665,0 -2.582331,1.27 -1.100666,1.22767 -1.100666,2.70933 0,0.97367 0.635,1.94734 0.677333,0.97366 1.608665,0.97366 1.015999,0 1.693332,-0.46566 0.846666,-0.55034 0.762,-1.524 -0.804333,0.381 -1.142999,0.381 -0.592667,0 -1.100666,-0.46567 -0.465667,-0.508 -0.465667,-1.10067 0,-0.635 0.508,-1.10066 0.508,-0.46567 1.142999,-0.46567 0.762,0 1.269999,0.71967 0.508,0.67733 0.508,1.56633 0,1.143 -0.762,2.032 -0.761999,0.84666 -1.904998,0.84666 -0.338667,0 -0.465667,-0.0423 -0.08467,0.0847 -0.296333,0.0423 0.508,0.762 1.862666,1.60867 -0.931333,0.67733 -0.931333,1.22767 0,4.31799 0.04233,4.36033 0.08467,0.33866 0.635,0.762 0.592666,0.38099 0.973666,0.38099 2.582331,0 2.243665,-3.17499 z m 10.5939014,-19.30399 q -1.3123324,0.889 -2.2013314,2.45533 -0.973666,-1.60866 -2.243665,-2.286 1.439332,-0.93133 2.201331,-2.32833 0.7619998,1.524 2.2436654,2.159 z m -0.6349996,8.67833 q 0.3386665,-1.35467 0.973666,-2.11667 -1.4393323,-0.67733 -2.4553318,-2.15899 -1.269999,1.69333 -2.285998,2.28599 0.761999,0.889 0.888999,2.032 l -0.04233,12.31899 q -0.211666,0.59267 -1.142999,1.94733 0.846666,0.42334 2.455331,2.07434 0.169334,-0.29634 0.8466664,-1.016 0.9313326,-1.016 1.7356654,-1.05834 l -0.1693332,-0.21166 q -0.8043328,-1.016 -0.8043328,-1.73567 z m 13.7688832,4.699 q -0.042333,0.21166 -0.8889994,1.31233 v 8.29732 q 0,1.48167 0.042333,2.20134 -1.693332,-1.82034 -4.02166362,-1.82034 -0.63499952,0.0423 -2.87866448,0.33867 -1.1006659,0.33867 -1.820332,1.48167 -0.1269999,-0.80434 -2.243665,-2.20134 0.7196662,-0.635 2.3706649,-2.58233 v -0.0423 q 1.2276658,2.24366 3.72533055,2.24366 1.35466565,0 1.65099876,-0.63499 0.33866639,-0.46567 0.33866639,-2.32834 v -4.52966 q -0.4656663,-1.22767 -0.97366591,-1.22767 -0.33866642,0 -2.28599829,1.48167 -0.5926662,0.46567 -2.0743318,1.60867 -0.084667,-0.0847 -0.8043327,-1.10067 -0.7196661,-1.016 -1.820332,-1.35467 0.4656663,-0.0847 0.7619995,-0.55033 0.042333,-0.16933 0.2116665,-0.508 v -8.93232 q 1.7356653,2.37066 3.936997,2.37066 2.5823314,0 4.1909969,-2.37066 l 1.0159992,1.35466 q 0.5079996,0.635 1.1429991,1.016 -0.423333,0.33867 -2.0319984,2.37066 -2.49766482,-1.65099 -3.04799774,-1.65099 H -1.9896243 q -0.6349995,0.21166 -0.8043327,0.42333 -0.1269999,0.21167 -0.1269999,0.84667 v 4.23333 q 0.7196661,1.14299 0.9313326,1.14299 0.2963331,0 2.07433179,-1.35466 l 2.24366501,-1.69333 q 0.6773328,1.18533 2.4553315,2.159 z m 6.233579,-13.37733 q -1.3123328,0.889 -2.2013322,2.45533 -0.9736659,-1.60866 -2.2436649,-2.286 1.4393322,-0.93133 2.2013316,-2.32833 0.7619995,1.524 2.2436655,2.159 z m -0.635,8.67833 q 0.338666,-1.35467 0.973666,-2.11667 -1.4393323,-0.67733 -2.4553316,-2.15899 -1.269999,1.69333 -2.2859982,2.28599 0.7619994,0.889 0.8889993,2.032 l -0.042333,12.31899 q -0.2116665,0.59267 -1.1429992,1.94733 0.8466661,0.42334 2.4553315,2.07434 0.1693332,-0.29634 0.8466661,-1.016 0.9313321,-1.016 1.7356651,-1.05834 l -0.169333,-0.21166 q -0.804333,-1.016 -0.804333,-1.73567 z m 11.017234,0.0847 q 0.296333,-1.31234 -1.862665,-1.31234 -2.243665,0 -2.243665,1.60867 v 11.93799 q 0,0.71967 1.015999,1.98966 -0.889,0.0423 -1.904999,1.05834 l -1.015999,1.016 q -0.677333,-0.80434 -2.328332,-2.11667 0.169334,-0.16933 1.143,-2.07433 v -11.98032 l -0.254,-0.762 q -0.423333,-0.84667 -0.973666,-1.05834 l 2.878664,-2.32833 q 1.269999,2.032 2.412998,2.032 l 2.412999,0.0423 q 1.015999,-0.67733 2.158998,-1.94733 -0.04233,0.29633 1.227666,1.27 0.254,0.21167 1.481665,1.05833 -1.058332,1.05834 -1.058332,1.56634 v 12.19199 q 0.04233,0.55033 1.100666,2.03199 -0.889,0.0423 -1.735666,1.05834 -0.04233,0.0847 -0.846666,1.016 -0.931332,-1.016 -2.455331,-2.11667 0.423333,-0.42333 0.677333,-1.22766 0.04233,-0.254 0.211666,-0.80434 z"
         id="path2" />
    </g>
  </g>
</svg>
