<?xml version="1.0" encoding="UTF-8" standalone="no"?>
<!-- Created with Inkscape (http://www.inkscape.org/) -->

<svg
   width="25.52cm"
   height="11.7cm"
   viewBox="0 0 255.20001 117"
   version="1.1"
   id="svg1"
   xml:space="preserve"
   inkscape:version="1.3.2 (091e20e, 2023-11-25, custom)"
   sodipodi:docname="sakset.svg"
   inkscape:export-filename="sakset.pdf"
   inkscape:export-xdpi="96"
   inkscape:export-ydpi="96"
   xmlns:inkscape="http://www.inkscape.org/namespaces/inkscape"
   xmlns:sodipodi="http://sodipodi.sourceforge.net/DTD/sodipodi-0.dtd"
   xmlns="http://www.w3.org/2000/svg"
   xmlns:svg="http://www.w3.org/2000/svg"><sodipodi:namedview
     id="namedview1"
     pagecolor="#ffffff"
     bordercolor="#000000"
     borderopacity="0.25"
     inkscape:showpageshadow="2"
     inkscape:pageopacity="0.0"
     inkscape:pagecheckerboard="0"
     inkscape:deskcolor="#d1d1d1"
     inkscape:document-units="mm"
     inkscape:zoom="0.66903058"
     inkscape:cx="396.09549"
     inkscape:cy="411.78984"
     inkscape:window-width="1920"
     inkscape:window-height="986"
     inkscape:window-x="-11"
     inkscape:window-y="-11"
     inkscape:window-maximized="1"
     inkscape:current-layer="layer1" /><defs
     id="defs1" /><g
     inkscape:label="Taso 1"
     inkscape:groupmode="layer"
     id="layer1"><path
       id="path1"
       style="fill:#000000;stroke-width:1.15924"
       d="m 253.24951,21.803458 c 0.0806,-1.447438 -0.38072,-5.102091 -0.72845,-5.771284 -0.15442,-0.297183 -0.48545,-1.033927 -0.73564,-1.636616 -1.18405,-2.852248 -4.39794,-5.4278341 -8.43108,-6.7567281 -2.09189,-0.689248 -3.16706,-0.851731 -6.05344,-0.915953 -6.31023,-0.140326 -11.95866,1.79234 -15.96,5.4615731 -0.90534,0.830213 -1.8253,1.505268 -2.04397,1.500631 -0.26633,-0.006 -0.44473,-0.676196 -0.54094,-2.031392 -0.22833,-3.2159711 -1.53061,-4.9488501 -4.45816,-5.9306341 -1.69095,-0.567121 -1.8274,-0.56995 -3.37267,-0.08147 -0.88578,0.280025 -1.89201,0.736831 -2.23567,1.015396 -1.73429,1.405728 -2.35649,4.5402111 -1.2053,6.0726091 2.44195,3.250655 7.11152,1.433913 6.14629,-2.391423 -0.14985,-0.5939011 -0.36919,-1.0863571 -0.48763,-1.0944721 -0.54157,-0.0366 -1.26239,-0.906714 -1.09327,-1.319715 0.23712,-0.579121 1.86362,-0.229322 2.98029,0.640987 2.38494,1.8587711 2.40204,5.5127631 0.0365,7.7823091 -1.42716,1.369258 -3.61898,2.804725 -6.37872,4.178401 -1.70624,0.849281 -3.82397,1.994149 -4.70617,2.543582 -2.02489,1.261112 -5.6197,4.863124 -6.82981,6.84359 -0.5086,0.83237 -1.01854,1.58053 -1.13342,1.66238 -0.11486,0.0818 -0.81573,1.10157 -1.55753,2.26621 -3.66608,5.7558 -5.21982,7.81213 -7.54329,9.98623 -3.00249,2.80947 -7.84354,5.36917 -14.97157,7.91589 -1.6158,0.57729 -3.45968,1.23708 -4.09752,1.46589 -0.63784,0.2288 -1.75134,0.62266 -2.4741,0.87522 -0.72272,0.25257 -1.73232,0.63927 -2.24345,0.85964 -0.51109,0.22036 -1.31199,0.48146 -1.77979,0.57988 -0.46781,0.0984 -0.92887,0.30018 -1.02497,0.4481 -0.096,0.1479 -0.40841,0.26832 -0.69371,0.26778 -0.28533,-6.1e-4 -1.07637,0.25284 -1.75822,0.5637 -0.68187,0.31084 -1.40102,0.56675 -1.59829,0.56791 -0.19726,10e-4 -0.75411,0.19397 -1.23703,0.42832 -0.48291,0.23436 -1.71219,0.70975 -2.7323,1.05612 -1.70531,0.57904 -2.23547,0.77591 -4.48571,1.66419 -0.42557,0.168 -1.53911,0.58222 -2.47469,0.92073 -0.93556,0.3385 -2.119,0.78554 -2.62985,0.99324 -0.51082,0.20771 -1.55564,0.61263 -2.32133,0.89978 -0.76569,0.28718 -1.97658,0.7608 -2.69094,1.05253 -0.71435,0.29174 -1.43286,0.52706 -1.59709,0.52359 -0.16424,-0.004 -0.72858,0.1911 -1.25382,0.43251 -0.52524,0.24142 -1.38452,0.63619 -1.90978,0.87761 -0.52524,0.24142 -1.08958,0.436 -1.25382,0.43251 -0.16424,-0.004 -0.88272,0.23183 -1.59707,0.52358 -0.71436,0.29173 -1.8559,0.73565 -2.5364,0.98605 -0.34652,0.1275 -0.5358,0.2039 -0.89738,0.33785 -0.18699,-0.0527 -0.40673,-0.13694 -0.60145,-0.17971 -0.54565,-0.11985 -1.07134,-0.34508 -1.16755,-0.5008 -0.0962,-0.15572 -0.38147,-0.28336 -0.63381,-0.28336 -0.25234,0 -1.03735,-0.25137 -1.74504,-0.55892 -1.39378,-0.60568 -3.18402,-1.32191 -5.12071,-2.04816 -0.67479,-0.25305 -1.81347,-0.67972 -2.5304,-0.94831 -0.71696,-0.26858 -1.71761,-0.6637 -2.22369,-0.87761 -0.50609,-0.2139 -1.74829,-0.69597 -2.76044,-1.07171 -1.01217,-0.37574 -2.11634,-0.80812 -2.45373,-0.96088 -2.15493,-0.97567 -3.33006,-1.20308 -4.41742,-0.85425 -1.20472,0.38651 -2.7631,1.02346 -4.1191,1.68333 -0.47757,0.23242 -1.02966,0.42674 -1.22686,0.43254 -0.1972,0.006 -0.91032,0.27731 -1.58509,0.60324 -0.67478,0.32595 -1.38852,0.59745 -1.5857,0.60325 -0.1972,0.006 -0.74927,0.21027 -1.22686,0.45468 -0.47757,0.24442 -1.14408,0.53084 -1.48146,0.6368 -0.57966,0.18208 -0.57106,0.21506 0.15635,0.60024 0.4234,0.22418 1.52757,0.61839 2.45372,0.87581 0.92615,0.25744 2.37405,0.67817 3.21752,0.93454 0.84348,0.25636 2.49973,0.75275 3.68059,1.10346 1.18086,0.3507 2.83712,0.84506 3.68058,1.09866 1.69216,0.50877 3.90356,1.13172 6.36436,1.79297 2.08697,0.56079 3.0385,0.85278 4.62829,1.30054 -0.12687,0.0292 -0.29749,0.0834 -0.36963,0.0833 -0.28528,-6.2e-4 -0.6,0.12442 -0.69969,0.27795 -0.0996,0.15354 -0.57166,0.35611 -1.04894,0.4499 -1.00141,0.19672 -4.2951,1.41947 -4.59415,1.7055 -0.11097,0.10616 -0.38926,0.18796 -0.61881,0.18332 -0.22958,-0.005 -1.94739,0.66721 -3.81718,1.49404 -4.50316,1.99133 -4.5602,2.46926 -0.27256,2.28778 2.9162,-0.12343 4.4374,-0.33255 9.77056,-1.34548 1.10144,-0.20919 2.55619,-0.45272 3.2331,-0.54094 0.67689,-0.0882 1.57839,-0.27068 2.00323,-0.40556 0.42484,-0.13488 2.09008,-0.51414 3.70035,-0.84227 1.10315,-0.22478 2.08565,-0.44527 3.06237,-0.66136 0.68167,0.17413 1.12753,0.31104 1.81573,0.47087 1.60259,0.37217 3.6039,0.85847 4.44738,1.08129 0.84345,0.2228 2.56874,0.6219 3.83393,0.8866 1.2652,0.2647 3.33556,0.69784 4.60074,0.96267 2.64429,0.55349 5.11412,0.9423 9.09365,1.43175 4.37835,0.53849 4.86266,-0.0486 1.41975,-1.72109 -2.90727,-1.41234 -5.4741,-2.45081 -10.66676,-4.31499 -1.52227,-0.5465 -2.01558,-0.75382 -3.45713,-1.28196 3.9084,-0.8793 8.45705,-1.94222 11.59828,-2.73948 2.59847,-0.65949 4.6384,-1.1546 6.94003,-1.68454 0.76322,-0.17573 1.60214,-0.42597 1.86367,-0.55592 0.26153,-0.12996 0.95576,-0.32271 1.54315,-0.42832 0.58739,-0.10564 1.6239,-0.35841 2.30336,-0.56192 0.67947,-0.20352 2.06852,-0.591 3.08694,-0.86084 4.42003,-1.1712 7.17373,-2.1668 10.19648,-3.68717 1.20006,-0.6036 2.56446,-1.24243 3.03243,-1.41976 0.46795,-0.1773 0.85376,-0.44691 0.85725,-0.59906 0.003,-0.15212 0.19189,-0.27182 0.41872,-0.26718 0.22684,0.005 0.6679,-0.26135 0.98066,-0.59186 0.31276,-0.33051 0.705,-0.59774 0.87102,-0.59426 0.30995,0.007 3.68725,-2.55023 5.37592,-4.06998 0.76051,-0.68444 3.65637,-3.90834 4.82118,-5.36751 0.43356,-0.54314 2.42261,-3.92853 2.98868,-5.08657 0.55486,-1.13508 0.92608,-1.91582 2.12185,-4.46355 1.78121,-3.79503 4.38438,-8.59509 5.18062,-9.55251 1.30203,-1.565655 2.7619,-2.400616 5.19019,-2.968909 2.05915,-0.482232 2.22276,-0.478537 4.08017,0.08746 3.83143,1.167539 5.48972,2.978799 5.45019,5.953399 -0.0174,1.30938 -0.1831,1.85855 -0.77278,2.56335 -1.50418,1.79787 -5.62835,2.46389 -6.56563,1.06032 -0.43186,-0.64669 -0.41057,-0.73795 0.32049,-1.3862 1.30504,-1.15721 0.98564,-3.0135 -0.67393,-3.91902 -1.1493,-0.62684 -1.87834,-0.62687 -3.03242,0.002 -1.0193,0.55524 -1.28291,1.12571 -1.3287,2.87187 -0.0432,1.6655 0.90383,2.61367 3.59732,3.60151 3.23786,1.18749 5.03838,2.74745 3.9256,3.40144 -0.34936,0.20531 -3.30193,-0.78068 -3.53741,-1.18134 -0.0884,-0.15045 -0.39417,-0.27999 -0.67933,-0.28694 -0.28516,-0.007 -0.92735,-0.25618 -1.42694,-0.55293 -0.65979,-0.39187 -1.66514,-0.56081 -3.67401,-0.61703 -2.36293,-0.0659 -2.86034,0.0105 -3.414,0.52237 -0.96048,0.88805 -1.10794,1.53689 -0.48343,2.12784 0.96006,0.9085 0.89599,1.56202 -0.23783,2.42617 -2.11254,1.61008 -1.09065,4.6133 1.51681,4.45756 1.04894,-0.0627 1.17941,-0.1568 1.12203,-0.80933 -0.15231,-1.732 1.45208,-2.8334 4.77026,-3.27502 5.20582,-0.69283 6.19748,-0.86852 7.11676,-1.264 0.53685,-0.23098 1.16228,-0.41623 1.3898,-0.41275 1.23057,0.0215 4.64269,-3.91931 4.67562,-5.39987 0.0134,-0.60426 1.19819,-0.29991 2.54538,0.65357 0.73843,0.52261 1.44004,0.95257 1.55874,0.95489 0.11871,0.003 0.64577,0.21657 1.17174,0.47504 1.36748,0.67201 5.24854,1.50785 7.20303,1.55155 3.37247,0.0755 7.34613,-0.89991 11.27779,-2.76882 2.62449,-1.24756 7.18808,-5.43359 8.21422,-7.5349 0.36681,-0.751155 0.92154,-1.891308 1.23285,-2.534002 0.31131,-0.64267 0.68166,-2.015173 0.8231,-3.049783 0.14143,-1.034608 0.28407,-2.36349 0.3169,-2.953334 z m -1.72648,77.733221 c 0.11305,-0.8298 -0.4428,-5.78274 -0.68472,-6.10016 -0.15254,-0.20016 -0.37126,-0.69506 -0.48583,-1.09986 -1.02195,-3.61112 -5.63383,-8.48161 -10.04553,-10.60865 -2.83273,-1.36577 -3.88431,-1.69878 -6.99755,-2.2171 -2.90343,-0.48333 -3.45758,-0.49237 -5.98035,-0.0929 -2.48661,0.39377 -4.97178,1.28609 -7.97401,2.86288 -1.01745,0.53438 -1.35203,0.37518 -1.5839,-0.7554 -0.42139,-2.05468 -2.82138,-4.52421 -5.25011,-5.40227 -1.19079,-0.4305 -4.53947,-1.16603 -7.76014,-1.7049 -1.45352,-0.24319 -2.42063,-0.60356 -3.11867,-1.16097 -1.0197,-0.81425 -1.06922,-0.91791 -1.09867,-2.31235 -0.0139,-0.65761 -0.17996,-0.78452 -1.16157,-0.8878 -0.9217,-0.097 -1.29891,0.038 -1.93254,0.69192 -1.16281,1.20004 -1.0855,2.50105 0.23064,3.87707 l 1.06151,1.11005 -0.75599,0.86561 c -0.88112,1.00803 -0.77527,1.59223 0.47564,2.61847 1.25264,1.02769 4.14756,1.01635 7.08142,-0.0269 1.19055,-0.42338 2.58144,-0.89735 3.09111,-1.05374 0.50969,-0.1564 1.17702,-0.41296 1.48266,-0.5697 0.69551,-0.35669 1.13979,-0.0859 1.12263,0.68351 -0.0168,0.75492 -1.70039,1.74246 -4.49829,2.63823 -2.75156,0.88093 -3.57564,1.69734 -3.6117,3.57756 -0.0298,1.57697 0.0865,1.83895 1.15617,2.60648 1.28521,0.92212 3.44443,0.55549 4.39167,-0.74582 0.43461,-0.59708 0.27979,-1.92083 -0.3181,-2.71671 -0.72276,-0.96204 -0.72842,-1.11077 -0.0659,-1.81093 1.00152,-1.0584 4.64063,-0.24991 5.99174,1.33109 0.75548,0.88407 1.10662,2.47491 0.85305,3.8621 -0.32497,1.77774 -2.57972,3.84576 -4.89547,4.4899 -0.98299,0.27343 -2.22984,0.48643 -2.77123,0.47205 -2.46659,-0.064 -5.84966,-1.653 -7.12035,-3.3445 -0.56075,-0.74646 -2.93816,-5.68391 -3.78602,-7.86259 -0.21528,-0.55317 -0.57997,-1.4587 -0.81052,-2.01222 -0.23056,-0.55351 -0.70001,-1.70246 -1.04295,-2.55377 -1.16735,-2.89778 -2.75546,-6.14095 -3.94896,-8.06446 -0.70191,-1.13122 -4.35552,-5.15929 -4.68639,-5.16624 -0.13,-0.003 -0.8672,-0.45219 -1.63843,-0.99803 -0.80231,-0.56784 -1.94716,-1.0659 -2.67597,-1.16456 -1.08126,-0.1463 -1.5307,-0.0111 -2.97549,0.895 -0.93609,0.58707 -1.83264,1.0644 -1.99186,1.06092 -0.15922,-0.004 -0.51105,0.17525 -0.78237,0.39716 -0.27132,0.22192 -1.3288,0.70782 -2.34949,1.0801 -1.02067,0.37225 -2.12763,0.91532 -2.46032,1.2065 -0.59796,0.52331 -0.59856,0.53175 -0.0168,0.73384 4.16193,1.44567 10.27914,4.68304 13.05459,6.90889 1.75211,1.40515 5.18895,5.09268 5.99054,6.42725 0.29435,0.49006 1.10994,1.68677 1.81214,2.65979 0.70218,0.97302 1.2753,1.84333 1.27298,1.93376 -0.002,0.0904 0.92352,1.60518 2.05655,3.36667 3.36414,5.23009 5.7935,7.50795 11.13522,10.43971 4.08911,2.244311 6.36341,4.096781 7.67508,6.251141 0.68993,1.13314 0.62946,3.57843 -0.11862,4.78285 -1.13232,1.82309 -3.96014,3.05788 -4.37189,1.90918 -0.11944,-0.33324 -0.0382,-0.59572 0.20727,-0.67154 0.96925,-0.29931 1.579,-1.27398 1.60786,-2.56994 0.0312,-1.40431 -0.26309,-1.9698 -1.46289,-2.80776 -0.94432,-0.65965 -1.90953,-0.68291 -3.14863,-0.0767 -1.60298,0.78428 -2.08698,1.56389 -2.14042,3.44756 -0.0375,1.32506 0.11835,1.94862 0.71887,2.87606 0.88355,1.36454 2.88334,2.41445 4.67502,2.45432 1.1618,0.0258 3.40672,-0.75054 4.34074,-1.50063 1.06736,-0.85713 1.86018,-2.57765 2.11047,-4.58037 0.14115,-1.12945 0.38176,-2.05044 0.53435,-2.04696 0.21348,0.005 2.4085,1.94717 3.55599,3.14682 0.70557,0.73768 3.04969,2.07364 5.60475,3.19416 2.49864,1.09579 6.55129,1.75217 10.08746,1.63422 5.03985,-0.16813 9.02315,-1.79482 11.82772,-4.83018 1.30033,-1.40733 2.68913,-4.4869 2.98629,-6.62193 0.15685,-1.12695 0.30361,-2.186061 0.32648,-2.354291 z m -2.22908,-78.979253 c 0.0125,0.376581 0.006,0.807916 -0.0108,1.335291 -0.0901,2.796826 -0.0685,2.716155 -1.41676,5.292042 -1.08103,2.065334 -3.85364,4.95572 -6.02588,6.28168 -3.66913,2.23965 -5.88332,2.83307 -10.18511,2.73048 -4.78346,-0.1142 -7.56502,-1.24782 -9.99162,-4.07057 -2.14389,-2.49387 -2.62194,-3.933509 -2.4052,-7.244353 0.24107,-3.682427 1.29434,-5.930405 4.00767,-8.55389 8.24815,-7.9750641 21.27029,-7.3535231 25.20578,1.2029 0.57932,1.259585 0.78442,1.896679 0.82191,3.02642 z m -1.77439,79.121233 c -0.0354,1.216531 -0.19594,1.805661 -0.61344,2.650231 -1.73717,3.51416 -4.47649,5.70238 -8.3514,6.67226 -2.38545,0.59708 -4.64813,0.56215 -7.3462,-0.11323 -3.9758,-0.99521 -6.36542,-2.37956 -9.33446,-5.40886 -3.31824,-3.38557 -4.12615,-5.155061 -4.176,-9.143371 -0.0349,-2.79419 0.008,-2.99647 1.02618,-4.8715 1.26345,-2.32562 3.41351,-4.13799 6.07979,-5.12491 2.66352,-0.98595 8.13453,-1.01568 10.77938,-0.0587 1.96834,0.71219 4.68306,2.15697 5.87971,3.12886 1.70587,1.38545 4.07656,4.2684 4.99791,6.07799 0.88587,1.73991 1.00951,2.29314 1.05673,4.73253 0.0112,0.57765 0.0136,1.05318 0.002,1.4587 z M 214.8825,23.747987 c 0.0288,0.881125 -0.11718,1.7742 -0.46366,1.898401 -0.53661,0.192353 -3.21661,-0.928808 -3.20734,-1.34188 0.0111,-0.497835 2.5891,-2.487793 3.08573,-2.381838 0.35301,0.07528 0.55646,0.944191 0.58527,1.825317 z m -1.56592,71.435372 c -0.0499,0.78941 -0.23231,1.59253 -0.5092,1.81213 -0.39388,0.31236 -0.59436,0.27001 -1.14479,-0.24321 -0.36711,-0.3423 -0.98939,-0.92129 -1.38262,-1.28618 -0.39322,-0.36488 -0.64145,-0.84194 -0.55172,-1.06031 0.19673,-0.47892 2.85266,-1.24379 3.30318,-0.9513 0.25264,0.16401 0.33506,0.93945 0.28515,1.72887 z m -40.32292,-36.74717 c 0.0201,0.63885 -0.19724,1.29458 -0.65117,1.96969 -1.34805,2.00538 -4.39755,1.93969 -5.72515,-0.1228 -0.84736,-1.31619 -0.82187,-2.32602 0.0911,-3.62069 1.39127,-1.97299 3.95242,-2.01771 5.51369,-0.0958 v 6.1e-4 c 0.494,0.60835 0.75153,1.23035 0.77158,1.86904 z m -8.79111,-5.55861 c -0.0189,-0.0797 -0.20017,-0.18816 -0.55952,-0.38878 -0.41831,-0.23356 -1.51375,-0.65181 -2.43395,-0.92974 -0.92021,-0.27797 -2.35839,-0.73076 -3.19596,-1.00582 -0.83756,-0.27504 -2.48205,-0.80805 -3.65482,-1.18492 -1.17277,-0.37689 -2.81781,-0.90846 -3.65542,-1.18074 -1.68043,-0.54626 -3.87753,-1.21795 -6.32302,-1.93375 -2.59929,-0.76081 -4.04268,-1.22347 -5.7629,-1.75822 0.39322,-0.14601 0.74633,-0.25596 0.91535,-0.25939 0.28526,-0.006 0.59689,-0.13781 0.69311,-0.29353 0.0962,-0.15571 0.56368,-0.36893 1.03876,-0.47326 0.99679,-0.21894 4.26258,-1.51413 4.5552,-1.80674 0.10859,-0.10862 0.38502,-0.19769 0.61463,-0.19769 0.22962,0 1.93209,-0.7103 3.78303,-1.5785 4.45778,-2.09095 4.50419,-2.56994 0.22165,-2.29319 -2.91276,0.18824 -4.42888,0.4317 -9.73822,1.56294 -1.09652,0.23363 -2.54574,0.50894 -3.22051,0.61223 -0.67477,0.10329 -1.57192,0.3062 -1.99366,0.45049 -0.42172,0.14429 -2.078,0.55989 -3.68058,0.92374 -0.99753,0.22648 -1.83712,0.43713 -2.76822,0.66316 -0.52359,-0.14324 -0.83634,-0.25091 -1.34729,-0.3816 -1.5939,-0.40772 -3.58389,-0.93863 -4.4222,-1.18014 -0.83831,-0.24151 -2.55399,-0.6789 -3.81299,-0.97167 -1.25898,-0.29276 -3.31957,-0.77162 -4.57857,-1.06452 -2.63132,-0.61214 -5.09184,-1.05581 -9.05948,-1.63361 -4.36531,-0.6357 -4.86238,-0.0594 -1.4575,1.68933 2.87515,1.47662 5.41858,2.57125 10.56851,4.55041 1.69691,0.65213 2.2799,0.90936 3.85252,1.527 -4.04095,0.99249 -9.17912,2.31258 -12.58552,3.25824 -2.58318,0.71711 -4.61183,1.25752 -6.90111,1.8385 -0.75912,0.19265 -1.59191,0.46152 -1.85047,0.59726 -0.25858,0.13573 -0.9487,0.34379 -1.53358,0.46246 -0.5849,0.11866 -1.61542,0.39488 -2.29019,0.61344 -0.67477,0.21857 -2.05499,0.6367 -3.06715,0.92913 -4.39291,1.26918 -7.12381,2.32582 -10.11204,3.91303 -1.18632,0.63011 -2.536149,1.29915 -3.000059,1.48683 -0.46389,0.18767 -0.84346,0.46545 -0.84346,0.61764 0,0.15219 -0.18587,0.27675 -0.41276,0.27675 -0.22689,0 -0.66213,0.27605 -0.96746,0.61344 -0.30534,0.33738 -0.69119,0.61343 -0.85725,0.61343 -0.31001,0 -3.62979,2.63167 -5.28426,4.18858 -0.74512,0.70118 -3.56868,3.98823 -4.70077,5.47295 -0.42139,0.55265 -2.33468,3.98155 -2.87486,5.15186 -0.52948,1.14714 -0.88357,1.936 -2.02241,4.5097 -1.696371,3.83367 -4.192001,8.69084 -4.966751,9.66572 -1.26691,1.59422 -2.70744,2.4612 -5.12251,3.08333 -2.04791,0.52791 -2.21182,0.52816 -4.08136,0.004 -3.85644,-1.08207 -5.55412,-2.85646 -5.58077,-5.8312 -0.0118,-1.30943 0.1414,-1.8618 0.71526,-2.57953 1.46384,-1.83086 5.57222,-2.58827 6.54047,-1.20589 0.44614,0.63694 0.42714,0.72846 -0.28934,1.39279 -1.27898,1.18594 -0.9185,3.03504 0.76079,3.90344 1.16297,0.60144 1.89141,0.58469 3.03123,-0.0695 1.0067,-0.57777 1.25764,-1.15388 1.2646,-2.90062 0.006,-1.66603 -0.96162,-2.59292 -3.6764,-3.52064 -3.26345,-1.11521 -5.09784,-2.63479 -3.99988,-3.31337 0.3447,-0.21303 3.31824,0.70694 3.56257,1.10225 0.0918,0.14844 0.40007,0.27093 0.68533,0.27197 0.28523,0.001 0.93283,0.23563 1.43891,0.52119 0.66833,0.37711 1.67756,0.52336 3.68719,0.53495 2.36382,0.0133 2.85928,-0.0738 3.40143,-0.59785 0.9405,-0.90917 1.07298,-1.5611 0.4355,-2.13802 -0.98003,-0.88692 -0.9304,-1.54243 0.18391,-2.43157 2.076221,-1.65666 0.9877,-4.63589 -1.61565,-4.4222 -1.04724,0.0859 -1.17532,0.18278 -1.10345,0.83387 0.19078,1.7282 -1.38845,2.86459 -4.69599,3.37986 -5.18912,0.80842 -6.17714,1.00692 -7.0874,1.42275 -0.53159,0.24286 -1.15267,0.44222 -1.38022,0.44331 -1.23074,0.006 -4.55402,4.02137 -4.55402,5.50231 0,0.6044 -1.1917,0.32663 -2.55975,-0.59667 -0.74988,-0.50608 -1.46038,-0.92014 -1.5791,-0.92014 -0.11875,0 -0.65095,-0.20198 -1.18253,-0.4487 -1.38208,-0.64144 -5.28039,-1.3913 -7.23537,-1.39159 -3.37332,-5.2e-4 -7.32457,1.06335 -11.21369,3.01923 -2.59612,1.30559 -7.0655197,5.5922 -8.0446997,7.71581 -0.35002,0.75912 -0.87899,1.9115 -1.17594,2.56096 -0.29689,0.64933 -0.63695,2.02912 -0.75541,3.06655 v 6.1e-4 c -0.11837,1.0374 -0.2313,2.36901 -0.251,2.95931 -0.0485,1.44888 0.49411,5.092641 0.85664,5.753921 0.16099,0.29369 0.50805,1.02228 0.77159,1.61926 1.24716,2.82523 4.51795,5.32913 8.5796397,6.56802 2.1067,0.64257 3.18492,0.78116 6.07201,0.78116 6.31179,0 11.91603,-2.05832 15.83479,-5.8156 0.88667,-0.85013 1.79111,-1.54557 2.00983,-1.54557 0.26641,0 0.45955,0.66668 0.58586,2.01942 0.29978,3.21008 1.64071,4.91293 4.58937,5.82939 1.70313,0.5294 1.83983,0.52991 3.37386,0.007 0.87934,-0.29964 1.87492,-0.77898 2.21231,-1.06512 1.7026,-1.44394 2.25487,-4.59194 1.06991,-6.09836 -2.51362,-3.19555 -7.14181,-1.27494 -6.09178,2.52801 0.16303,0.59042 0.39361,1.07788 0.51219,1.08367 0.54226,0.0245 1.28193,0.8779 1.12203,1.29456 -0.2242,0.58425 -1.85773,0.27078 -2.99347,-0.57448 -2.42565,-1.80529 -2.52413,-5.45775 -0.20967,-7.77932 1.39637,-1.40064 3.55555,-2.885091 6.28407,-4.319791 1.68694,-0.887 3.7789,-2.07831 4.64866,-2.64721 1.99635,-1.30581 5.51007,-4.98708 6.675861,-6.99396 0.48996,-0.84346 0.98324,-1.60254 1.09627,-1.68693 0.11302,-0.0844 0.79148,-1.11952 1.50721,-2.30036 3.53722,-5.8359 5.0441,-7.92637 7.31865,-10.15158 2.93928,-2.87552 7.72279,-5.54201 14.792429,-8.24657 1.6026,-0.61308 3.43139,-1.31341 4.06399,-1.55634 0.63259,-0.24293 1.73676,-0.66177 2.45372,-0.93034 0.71695,-0.26858 1.7176,-0.67768 2.22369,-0.90936 0.50608,-0.23166 1.3011,-0.51057 1.7666,-0.61942 0.4655,-0.10885 0.92206,-0.32026 1.0148,-0.47026 0.0927,-0.15 0.40186,-0.27755 0.68712,-0.28335 0.28526,-0.006 1.07087,-0.2773 1.74564,-0.60324 0.67478,-0.32594 1.38791,-0.59685 1.5851,-0.60265 0.1972,-0.006 0.74929,-0.21084 1.22685,-0.45588 0.47758,-0.24505 1.69677,-0.74765 2.70893,-1.11664 1.69202,-0.61681 2.21744,-0.82492 4.44737,-1.76302 0.42174,-0.17742 1.52591,-0.61665 2.45374,-0.97586 0.92781,-0.35921 2.10099,-0.83232 2.60708,-1.05133 0.50608,-0.21902 1.54125,-0.64719 2.30036,-0.9513 0.75911,-0.30412 1.9593,-0.80431 2.66699,-1.11185 0.70769,-0.30755 1.42082,-0.55951 1.58509,-0.55951 0.16428,0 0.7239,-0.20704 1.24365,-0.46007 0.51976,-0.25304 1.37025,-0.66712 1.89001,-0.92016 0.51975,-0.25304 1.07934,-0.46006 1.24363,-0.46006 0.16428,0 0.87801,-0.25137 1.5857,-0.55892 0.7077,-0.30755 1.83885,-0.77629 2.51363,-1.04176 0.3952,-0.15547 0.60947,-0.24759 1.02317,-0.41154 0.30372,0.10512 0.61475,0.22238 0.90997,0.29413 0.54286,0.13195 1.06344,0.36875 1.15618,0.52656 0.0928,0.15781 0.37493,0.29134 0.62721,0.29714 0.25228,0.006 1.03179,0.27464 1.73246,0.59786 1.37998,0.63652 3.15393,1.39224 5.07399,2.16137 0.66898,0.26799 1.79803,0.72016 2.50883,1.00463 0.7108,0.28445 1.70212,0.70104 2.20333,0.92613 0.5012,0.22511 1.73231,0.73526 2.73587,1.13341 1.00357,0.39814 2.09826,0.85456 2.43216,1.01479 2.13271,1.02333 3.30221,1.27708 4.39707,0.9525 1.21299,-0.35962 2.78468,-0.9615 4.15502,-1.59108 0.48261,-0.22174 1.03918,-0.40441 1.23645,-0.40557 0.19727,-0.001 0.91642,-0.25705 1.59828,-0.56789 0.68185,-0.31085 1.40101,-0.56615 1.59827,-0.56731 0.19728,-10e-4 0.75416,-0.19399 1.23705,-0.42773 0.48289,-0.23373 1.15558,-0.50541 1.49524,-0.60384 0.29179,-0.0846 0.4358,-0.13545 0.41694,-0.21505 z m -74.75892,6.43144 c -0.002,0.57902 -0.2236,1.16021 -0.66556,1.81752 -1.34713,2.00358 -3.9065,2.10509 -5.5101,0.21806 h -5.8e-4 c -1.01525,-1.1947 -1.08309,-2.46505 -0.20548,-3.83514 1.30313,-2.03486 4.35324,-2.03724 5.72636,-0.005 0.43822,0.64851 0.65703,1.22532 0.65536,1.80435 z m -4.91284,-7.34561 c 0,-0.0928 -0.14664,-0.14266 -0.4397,-0.23722 -4.19306,-1.35277 -10.380719,-4.45296 -13.204959,-6.61655 -1.78291,-1.36585 -5.30084,-4.97604 -6.13191,-6.29246 -0.30515,-0.48339 -1.14718,-1.66189 -1.87084,-2.61906 -0.72364,-0.95717 -1.31552,-1.81457 -1.31552,-1.90499 0,-0.0905 -0.95893,-1.58469 -2.13084,-3.32055 C 55.95744,25.818577 53.47793,23.59556 48.07237,20.783268 43.93438,18.630447 41.61934,16.829323 40.26011,14.70467 c -0.71496,-1.117518 -0.70854,-3.563895 0.0126,-4.7846431 1.09152,-1.847791 3.89038,-3.145496 4.32756,-2.00623 0.12683,0.330486 0.052,0.595067 -0.19169,0.67633 -0.96236,0.320785 -1.55036,1.309002 -1.55036,2.6052851 0,1.40465 0.30707,1.963135 1.5252,2.774219 0.95876,0.638485 1.92391,0.640818 3.14922,0.0072 1.58515,-0.819709 2.05155,-1.61049 2.06315,-3.49488 0.008,-1.3255781 -0.16198,-1.9454211 -0.78296,-2.8592831 -0.91367,-1.344578 -2.93563,-2.34949 -4.72774,-2.34949 -1.16209,0 -3.39008,0.825817 -4.30719,1.596478 -1.04804,0.880663 -1.80233,2.618093 -2.00803,4.6258941 -0.11601,1.13231 -0.33561,2.058948 -0.48823,2.058948 -0.21354,0 -2.45101,-1.893299 -3.62488,-3.067155 -0.72179,-0.7218001 -3.0949,-2.0049151 -5.67423,-3.0683541 -2.52239,-1.039965 -6.58895,-1.606721 -10.12162,-1.410172 -5.03487,0.28013 -8.9810997,1.995004 -11.7174897,5.0919571 -1.26872,1.435902 -2.58869,4.545537 -2.83832,6.686638 -0.13176,1.130166 -0.25524,2.192778 -0.27436,2.361471 -0.0946,0.832113 0.57179,5.771429 0.8207,6.083392 0.15696,0.196723 0.38625,0.686928 0.50978,1.08908 1.10199,3.587494 5.8212797,8.353754 10.2791697,10.382204 2.8624,1.30244 3.92087,1.61235 7.04488,2.06133 2.91346,0.41868 3.46769,0.41477 5.98095,-0.0408 2.47723,-0.44896 4.94227,-1.39646 7.90871,-3.0396 1.00531,-0.55687 1.34313,-0.40448 1.60006,0.72067 0.46697,2.04479 2.92109,4.4598 5.36873,5.28365 1.20007,0.40392 4.56423,1.06525 7.79609,1.53237 1.45857,0.21083 2.43358,0.54914 3.14384,1.09088 1.03758,0.79138 1.08919,0.89434 1.14958,2.28779 0.0285,0.65714 0.19767,0.78055 1.18133,0.86204 0.92363,0.0765 1.29803,-0.0671 1.91697,-0.73504 1.135841,-1.22559 1.02951,-2.52527 -0.3169,-3.87168 l -1.08609,-1.08608 0.73684,-0.88181 c 0.85849,-1.02737 0.73967,-1.60892 -0.53376,-2.60709 -1.27517,-0.99955 -4.16906,-0.92436 -7.07901,0.18391 -1.18084,0.44974 -2.56107,0.95494 -3.06715,1.12263 -0.50608,0.16768 -1.1674,0.43854 -1.46948,0.60204 -0.68741,0.37206 -1.1376,0.11181 -1.1376,-0.65776 0,-0.75509 1.66169,-1.77992 4.43898,-2.73767 2.7313,-0.94189 3.53662,-1.77668 3.53082,-3.65722 -0.005,-1.57725 -0.12716,-1.83657 -1.21368,-2.58012 -1.30537,-0.89332 -3.45622,-0.47858 -4.37429,0.84346 -0.42124,0.60659 -0.23682,1.92653 0.37861,2.70892 0.74395,0.94576 0.75224,1.09443 0.10543,1.80914 -0.97774,1.0804 -4.63338,0.35307 -6.0193,-1.1975 -0.77498,-0.86705 -1.16138,-2.44985 -0.93871,-3.84233 0.28535,-1.78453 2.49337,-3.902266 4.79423,-4.597739 0.97667,-0.295212 2.21887,-0.535477 2.76044,-0.533159 2.4674,0.0091 5.88486,1.522335 7.19284,3.185168 0.5772,0.73381 3.06366,5.61703 3.95975,7.77631 0.22751,0.54825 0.612631,1.4454 0.855441,1.99366 0.24281,0.54824 0.73749,1.68694 1.09926,2.5304 1.23149,2.8711 2.8909,6.07809 4.12688,7.9746 0.72689,1.11532 4.46926,5.06082 4.80022,5.06082 0.13003,0 0.87739,0.43232 1.66058,0.96088 0.81473,0.54986 1.97032,1.02283 2.70113,1.10525 1.08426,0.12222 1.53084,-0.0235 2.95513,-0.96149 0.9228,-0.60774 1.80804,-1.10464 1.9673,-1.10464 0.15925,0 0.507649,-0.18666 0.773979,-0.41455 0.26631,-0.2279 1.31217,-0.73735 2.32433,-1.13222 1.01216,-0.39485 2.10723,-0.96191 2.43336,-1.2604 0.29306,-0.26825 0.4397,-0.40442 0.4397,-0.49723 z m -39.52558,42.50287 c 0,0.49796 -2.53295,2.54436 -3.03181,2.44954 -0.70919,-0.13483 -0.89155,-3.45639 -0.20427,-3.72012 0.5322,-0.20423 3.23608,0.85741 3.23608,1.27058 z m -0.0731,-70.324115 c 0.0186,0.08075 0.0188,0.151595 -0.002,0.206674 -0.18603,0.48317 -2.82411,1.307371 -3.28102,1.024981 -0.51245,-0.316703 -0.39889,-3.093816 0.14497,-3.545201 0.38684,-0.321039 0.58848,-0.282805 1.15019,0.218055 0.37462,0.334047 1.00953,0.898371 1.41077,1.254419 0.30093,0.267037 0.52166,0.598809 0.57748,0.841072 z m -7.93387,2.130235 c -0.0155,1.324295 -0.22055,1.794004 -0.95309,3.216919 -1.21144,2.353131 -3.3199,4.212531 -5.96358,5.258491 -2.64095,1.04487 -8.11031,1.19626 -10.77579,0.29833 -1.98369,-0.66826 -4.72944,-2.05142 -5.94739,-2.99646 -1.73626,-1.34719 -4.1707497,-4.177322 -5.1320997,-5.965982 -0.92433,-1.719776 -1.06014,-2.270224 -1.16157,-4.707964 -0.0961,-2.309053 -0.0115,-2.982704 0.51998,-4.12089 1.65862,-3.55192 4.3486497,-5.800983 8.2010397,-6.856771 2.37158,-0.6499501 4.63438,-0.6655411 7.3468,-0.05032 3.99694,0.906572 6.41682,2.237848 9.45248,5.200387 3.39267,3.310971 4.24004,5.061905 4.37848,9.048108 0.0242,0.698184 0.04,1.234722 0.0347,1.676153 z m -0.0509,67.79492 c -0.15914,3.68688 -1.16225,5.957601 -3.81656,8.640761 -8.06882,8.15647 -21.10141,7.82523 -25.2261697,-0.64159 -0.80956,-1.66185 -0.92926,-2.232061 -0.90816,-4.342551 0.0279,-2.79813 0.008,-2.71737 1.29875,-5.32259 1.03485,-2.08886 3.7428797,-5.04015 5.8850997,-6.41407 3.61842,-2.32068 5.8186,-2.96329 10.12162,-2.95633 4.78481,0.008 7.59092,1.07902 10.07967,3.84713 2.1988,2.44559 2.70882,3.87439 2.56575,7.18924 z" /></g></svg>
