<?xml version="1.0" encoding="UTF-8" standalone="no"?>
<!-- Created with Inkscape (http://www.inkscape.org/) -->

<svg
   width="210mm"
   height="100mm"
   viewBox="0 0 210 100"
   version="1.1"
   id="svg1"
   inkscape:version="1.3.2 (091e20e, 2023-11-25, custom)"
   sodipodi:docname="suut.svg"
   inkscape:export-filename="suut.pdf"
   inkscape:export-xdpi="96"
   inkscape:export-ydpi="96"
   xmlns:inkscape="http://www.inkscape.org/namespaces/inkscape"
   xmlns:sodipodi="http://sodipodi.sourceforge.net/DTD/sodipodi-0.dtd"
   xmlns="http://www.w3.org/2000/svg"
   xmlns:svg="http://www.w3.org/2000/svg">
  <sodipodi:namedview
     id="namedview1"
     pagecolor="#ffffff"
     bordercolor="#000000"
     borderopacity="0.25"
     inkscape:showpageshadow="2"
     inkscape:pageopacity="0.0"
     inkscape:pagecheckerboard="0"
     inkscape:deskcolor="#d1d1d1"
     inkscape:document-units="mm"
     inkscape:zoom="0.66903058"
     inkscape:cx="396.84284"
     inkscape:cy="561.25984"
     inkscape:window-width="1920"
     inkscape:window-height="986"
     inkscape:window-x="-11"
     inkscape:window-y="-11"
     inkscape:window-maximized="1"
     inkscape:current-layer="layer1" />
  <defs
     id="defs1" />
  <g
     inkscape:label="Taso 1"
     inkscape:groupmode="layer"
     id="layer1">
    <path
       style="fill:#140505;stroke-width:2.22785"
       d="m 125.92269,85.590938 c 3.38139,-0.66528 13.00463,-5.30389 23.61731,-11.38411 4.73399,-2.71219 9.73456,-5.50027 11.1124,-6.19577 1.37786,-0.69548 2.50517,-1.41526 2.50517,-1.59952 0,-0.33483 -5.46953,2.51376 -22.10447,11.51226 -10.0011,5.41001 -13.13047,6.53067 -18.23265,6.52935 -8.08341,-0.002 -12.01504,-5.36997 -10.36092,-14.14592 2.34626,-12.44827 15.17841,-22.64582 27.2746,-21.67485 3.72985,0.29938 6.56793,1.36681 8.33656,3.13543 1.55985,1.55986 1.08155,2.47459 -1.85988,3.55704 -1.53994,0.5667 -3.06263,1.26249 -3.38373,1.54624 -0.32112,0.28374 0.60727,0.0586 2.06308,-0.50031 1.91907,-0.73678 4.42988,-1.01906 9.1309,-1.02657 7.68685,-0.0134 11.91899,1.32162 15.93329,5.02188 2.24505,2.06944 3.81338,2.85785 3.81338,1.91705 0,-0.19873 -1.15067,-1.89193 -2.55705,-3.76282 -2.53326,-3.37001 -3.38081,-5.16797 -8.02593,-17.02606 -1.31833,-3.36543 -3.58446,-7.90521 -5.03583,-10.0884 -3.93161,-5.91399 -13.37428,-14.71194 -18.59117,-17.32187 -2.34457,-1.17292 -4.69139,-2.11165 -5.21518,-2.08607 -0.61032,0.0299 -0.68771,0.15328 -0.21543,0.34384 0.40524,0.16353 0.7368,0.90501 0.7368,1.64773 0,1.87135 -1.60217,6.2325 -2.7594,7.51125 -1.71376,1.89365 -8.02607,0.93641 -8.74415,-1.32602 -0.1936,-0.61018 -0.0811,-2.09067 0.24998,-3.28996 0.43987,-1.59309 0.42644,-2.00489 -0.0499,-1.52857 -0.35859,0.35859 -0.77547,1.93721 -0.92641,3.50806 -0.40424,4.20705 1.82768,11.65946 5.84131,19.50427 1.88943,3.69296 3.30856,6.91961 3.15361,7.1703 -0.15484,0.2507 -1.54617,0.77389 -3.09163,1.16265 -7.53951,1.8965 -16.08315,8.98557 -19.71129,16.35538 -1.73158,3.5173 -1.96015,4.537 -1.95289,8.7116 0.009,5.3542 0.76201,7.24711 4.21525,10.60086 3.4364,3.33739 8.57448,4.45323 14.83436,3.22163 z m 27.15352,-55.58495 c -0.84387,-0.44033 -2.80029,-0.99046 -4.34755,-1.22249 -1.80293,-0.27035 -3.33802,-0.94663 -4.27453,-1.88318 -1.28711,-1.28707 -1.41318,-1.78241 -1.0575,-4.15432 0.5059,-3.37358 0.86176,-4.31063 1.63696,-4.31063 0.70157,0 8.06375,7.14112 9.88813,9.59124 0.66902,0.89849 1.05597,1.89318 0.8599,2.21045 -0.46952,0.7597 -0.87271,0.72526 -2.70541,-0.23107 z m -27.09779,-16.75265 c 0.78654,-0.54675 2.77594,-1.1586 4.42092,-1.35973 2.99089,-0.36568 2.99089,-0.36568 -0.0709,-0.44866 -2.48732,-0.0675 -3.37205,0.19003 -4.71563,1.37199 -1.90158,1.67295 -1.72188,1.88746 0.3656,0.4364 z"
       id="path8-8" />
    <path
       style="fill:#140505;stroke-width:2.67242"
       d="m 32.930332,92.543327 c 4.05614,-0.79804 15.59968,-6.36228 28.33011,-13.65578 5.67865,-3.25341 11.67708,-6.59785 13.32986,-7.43213 1.65281,-0.83427 3.00508,-1.69768 3.00508,-1.91871 0,-0.40164 -6.56097,3.01539 -26.51538,13.80952 -11.99681,6.48957 -15.75064,7.83386 -21.87095,7.83227 -9.69644,-0.002 -14.41262,-6.44154 -12.42843,-16.96872 2.81446,-14.93229 18.20724,-27.16475 32.71721,-26.00004 4.47413,0.35913 7.87855,1.63956 10.0001,3.76111 1.87112,1.87113 1.29738,2.96839 -2.23101,4.26684 -1.84723,0.67978 -3.67378,1.51443 -4.05896,1.8548 -0.38519,0.34035 0.72846,0.0703 2.47477,-0.60015 2.30202,-0.8838 5.31387,-1.22242 10.95296,-1.23142 9.22075,-0.0161 14.2974,1.58535 19.112764,6.02399 2.693044,2.48239 4.574324,3.42812 4.574324,2.29959 0,-0.23838 -1.38028,-2.26946 -3.06729,-4.51368 -3.038774,-4.0425 -4.055458,-6.19924 -9.627508,-20.42359 -1.5814,-4.03701 -4.29974,-9.482702 -6.04073,-12.101532 -4.71615,-7.09412 -16.04308,-17.6476903 -22.301,-20.7784303 -2.81243,-1.40697 -5.62755,-2.53303 -6.25587,-2.50234 -0.73211,0.0359 -0.82493,0.18386 -0.25841,0.41246 0.4861,0.19615 0.88382,1.08559 0.88382,1.97653 0,2.24476 -1.92187,7.4761803 -3.31003,9.0101103 -2.05574,2.27152 -9.62765,1.12327 -10.48903,-1.59064 -0.23222,-0.73194 -0.0972,-2.50784 0.29987,-3.94646 0.52764,-1.9109903 0.51153,-2.4049603 -0.0598,-1.8336003 -0.43015,0.43015 -0.93021,2.3237803 -1.11128,4.2081003 -0.48491,5.04657 2.19238,13.98608 7.00694,23.396312 2.26646,4.42989 3.96878,8.30042 3.7829,8.60114 -0.18573,0.30073 -1.85471,0.92832 -3.70856,1.39465 -9.04401,2.27495 -19.29251,10.77864 -23.64465,19.61907 -2.07711,4.21917 -2.35129,5.44236 -2.34258,10.44999 0.0112,6.42262 0.91407,8.69326 5.05639,12.71624 4.12214,4.00336 10.2855,5.34187 17.79454,3.8645 z m 32.57196,-66.676852 c -1.01226,-0.52819 -3.35907,-1.18809 -5.21508,-1.46643 -2.16271,-0.32431 -4.00412,-1.13554 -5.12751,-2.25897 -1.54396,-1.5439 -1.69518,-2.13809 -1.26853,-4.98331 0.60685,-4.04677 1.03373,-5.17081 1.96361,-5.17081 0.84157,0 9.67287,8.56612 11.8613,11.50515 0.80251,1.0778 1.26668,2.27097 1.03149,2.65155 -0.56321,0.9113 -1.04686,0.86999 -3.24528,-0.27718 z M 32.997192,5.7708647 c 0.94348,-0.65585 3.32987,-1.38979 5.3031,-1.63106 3.58773,-0.43866 3.58773,-0.43866 -0.085,-0.5382 -2.98366,-0.081 -4.04494,0.22795 -5.65662,1.64577 -2.28104,2.00679 -2.06548,2.2641 0.43855,0.52349 z"
       id="path8-8-3" />
  </g>
</svg>
