<?xml version="1.0" encoding="UTF-8" standalone="no"?>
<!-- Created with Inkscape (http://www.inkscape.org/) -->

<svg
   width="45cm"
   height="54cm"
   viewBox="0 0 450 540"
   version="1.1"
   id="svg1"
   inkscape:version="1.3.2 (091e20e, 2023-11-25, custom)"
   sodipodi:docname="takaviittalogo.svg"
   inkscape:export-filename="takaviittalogo50.pdf"
   inkscape:export-xdpi="96"
   inkscape:export-ydpi="96"
   xmlns:inkscape="http://www.inkscape.org/namespaces/inkscape"
   xmlns:sodipodi="http://sodipodi.sourceforge.net/DTD/sodipodi-0.dtd"
   xmlns="http://www.w3.org/2000/svg"
   xmlns:svg="http://www.w3.org/2000/svg">
  <sodipodi:namedview
     id="namedview1"
     pagecolor="#ffffff"
     bordercolor="#000000"
     borderopacity="0.25"
     inkscape:showpageshadow="2"
     inkscape:pageopacity="0.0"
     inkscape:pagecheckerboard="0"
     inkscape:deskcolor="#d1d1d1"
     inkscape:document-units="mm"
     inkscape:zoom="0.16725765"
     inkscape:cx="367.69619"
     inkscape:cy="816.10619"
     inkscape:window-width="1920"
     inkscape:window-height="986"
     inkscape:window-x="-11"
     inkscape:window-y="-11"
     inkscape:window-maximized="1"
     inkscape:current-layer="g1-1-3-4" />
  <defs
     id="defs1" />
  <g
     inkscape:label="Taso 1"
     inkscape:groupmode="layer"
     id="layer1">
    <g
       id="g464-3-1-7"
       transform="matrix(0,34.842012,35.623388,0,-1337.1881,-1543.4737)"
       style="opacity:1;fill:#000000">
      <g
         id="g1-1-3-4"
         transform="matrix(0.29423852,0,0,0.22174976,34.413406,23.164125)"
         style="opacity:1;fill:#000000">
        <path
           id="text45-1-09-1-5"
           style="-inkscape-font-specification:'Soulside Betrayed';fill:#000000;stroke-width:0.544117"
           d="m 55.327713,121.40123 c -0.270541,0 -0.475942,-0.11 -0.61622,-0.32998 -0.14028,-0.22 -0.280564,-0.50415 -0.420843,-0.85246 -0.140279,-0.34832 -0.315649,-0.73332 -0.526068,-1.15497 -0.220434,-0.42163 -0.526042,-0.8708 -0.916817,-1.34744 v -0.055 c 0,-1.11826 0.370723,-2.2549 1.112202,-3.40985 0.741434,-1.15492 1.518098,-1.77825 2.329665,-1.86991 -0.811567,-0.6783 -1.628272,-1.04493 -2.449912,-1.09993 -0.380752,1.4666 -0.796559,2.84155 -1.247456,4.12481 -0.450898,1.26493 -0.951909,2.30073 -1.503008,3.10735 -0.561115,0.80663 -1.197405,1.20994 -1.908779,1.20994 h -0.150283 c 0.03007,-0.18332 0.04506,-0.35747 0.04506,-0.52247 0,-0.58663 -0.140285,-1.05412 -0.420841,-1.40243 -0.290576,-0.36664 -0.641267,-0.71496 -1.05208,-1.04494 -0.6012,-0.43999 -1.167334,-1.07245 -1.698386,-1.89741 -1.352682,0.87995 -2.434837,1.3199 -3.246447,1.3199 -0.731449,0 -1.287545,-0.23833 -1.668301,-0.71495 -0.380754,-0.47666 -0.806612,-1.20075 -1.277543,-2.17237 l -0.210445,-0.41251 c -0.240475,0.0551 -0.470921,0.0826 -0.69136,0.0826 -0.420832,0 -0.811607,-0.11916 -1.172321,-0.35749 0,-0.43997 -0.0852,-0.87998 -0.255546,-1.31996 -0.170339,-0.45831 -0.375746,-0.92578 -0.61622,-1.40242 -0.240478,-0.49497 -0.460924,-1.0083 -0.661323,-1.53993 -0.200395,-0.53164 -0.300555,-1.0908 -0.300555,-1.67743 0,-0.23832 0.04508,-0.41249 0.135259,-0.52247 0.08016,-0.12833 0.16532,-0.19248 0.255499,-0.19248 0.09018,0 0.170342,0.055 0.240482,0.16499 0.07014,0.0917 0.105221,0.22914 0.105221,0.41245 0,0.16499 -0.04512,0.34831 -0.135305,0.54997 -0.09018,0.20165 -0.135259,0.44918 -0.135259,0.7425 0,0.93494 0.430857,1.40242 1.292562,1.40242 0.521032,0 1.107214,-0.13752 1.758506,-0.41251 0.651291,-0.27499 1.242472,-0.5683 1.773523,-0.87996 0.521033,-0.31164 0.876767,-0.54081 1.067146,-0.68746 l -0.420841,0.0275 c -0.751488,0 -1.362708,-0.32079 -1.833645,-0.96242 -0.470932,-0.64164 -0.881744,-1.60411 -1.232441,-2.88737 -1.452882,0.055 -2.815607,0.13747 -4.08813,0.24746 v -0.0275 c 0,-0.12831 -0.04008,-0.25663 -0.120241,-0.38496 -0.08016,-0.14666 -0.170366,-0.27497 -0.270564,-0.38496 -0.110216,-0.11 -0.205423,-0.18331 -0.285583,-0.21998 l 4.569092,0.0275 c -0.390777,-1.66824 -0.586138,-3.67568 -0.586138,-6.022213 0,-1.063285 0.02005,-2.126599 0.06011,-3.189873 0.04008,-1.063274 0.06513,-2.126593 0.07514,-3.189876 l 0.273866,0.53342 H 49.250454 L 48.606379,89.31399 h -2.940638 v -0.106306 l -0.03859,4.25e-4 -2.571872,-6.485936 c 0.437569,-1.613713 0.759092,-3.237772 0.96448,-4.872176 0.205392,-1.634394 0.308088,-3.010233 0.308088,-4.127417 0,-0.1862 -0.02235,-0.331029 -0.067,-0.434472 -0.05358,-0.103446 -0.120543,-0.155143 -0.200913,-0.155143 -0.133948,0.04137 -0.25449,0.165486 -0.361651,0.372377 -0.116088,0.206888 -0.223247,0.310347 -0.321479,0.310347 -0.0893,0 -0.160769,-0.08274 -0.214349,-0.248252 -0.05358,-0.16551 -0.08034,-0.35171 -0.08034,-0.558597 0,-0.227577 0.04911,-0.424166 0.147348,-0.589675 0.0893,-0.165511 0.200918,-0.248251 0.334869,-0.248251 0.312549,0 0.589366,0.3207 0.830478,0.962051 h 7.380702 c 0.759056,0 1.410967,0.299993 1.955696,0.899959 0.544735,0.599973 1.044828,1.406808 1.500264,2.42055 0.446497,1.013748 0.897477,2.141284 1.352913,3.382601 l 0.241134,0.620693 c -0.625104,0.268953 -1.210047,1.293032 -1.754788,3.072255 -0.475774,1.535925 -0.743604,3.000824 -0.803833,4.394707 0.871136,0.01986 1.743239,0.03945 2.671842,0.0444 v -0.384055 h 0.09081 v 0.384967 c 0.245155,0.0013 0.479999,0.0053 0.730227,0.0053 0,-2.539928 -0.03029,-4.779103 -0.09085,-6.717463 -0.06056,-1.96065 -0.136252,-3.542615 -0.227091,-4.745738 0.03029,0.04456 0.227097,0.133725 0.59046,0.267409 0.353277,0.133672 0.787323,0.20051 1.302097,0.20051 0.454209,0 0.933643,-0.111445 1.438325,-0.334245 -0.02019,-0.222802 -0.03028,-0.445569 -0.03028,-0.668371 0,-0.71296 0.100907,-1.437111 0.30278,-2.172358 0.143404,-0.549752 0.334942,-0.893366 0.574279,-1.032053 0.09157,-0.189292 0.167449,-0.342011 0.282844,-0.586878 0.269295,-0.584787 0.483741,-1.018693 0.643322,-1.301651 0.85777,-1.58461 1.600828,-2.61275 2.229197,-3.084357 0.628362,-0.490483 1.35648,-0.735696 2.184319,-0.735696 h 0.194501 l -0.658305,3.706876 c -0.847784,0 -1.491121,0.05656 -1.929986,0.169738 -0.438855,0.113195 -0.892688,0.358466 -1.361469,0.735754 0.668266,0.773438 1.176976,1.895906 1.52607,3.367338 0.277228,1.153551 0.438587,2.119264 0.495512,2.915655 0.03823,0.06544 0.07688,0.129349 0.117873,0.183846 h 0.34296 l 0.03106,-0.07176 h 2.453628 c 0.02992,-0.603661 0.04492,-1.235629 0.04492,-1.895888 v -0.565955 c 0,-1.169604 0.07978,-2.225971 0.239366,-3.169199 0.179533,-0.773438 0.738089,-1.961942 1.675642,-3.565415 l 0.32915,-0.594236 c -0.31917,0.754578 -0.528655,1.509186 -0.628405,2.263765 -0.08976,0.754576 -0.134605,1.490291 -0.134605,2.207144 0,0.377276 0.005,0.73568 0.01493,1.075232 0.01,0.339566 0.015,0.669688 0.015,0.990393 0,0.67912 -0.0499,1.292263 -0.149631,1.839329 l 3.919816,-7.017592 c 0.09974,-0.188651 0.259295,-0.509368 0.478731,-0.962115 0.219421,-0.471606 0.458807,-0.9527 0.718139,-1.443169 0.259323,-0.509343 0.473769,-0.867734 0.643331,-1.075233 0.179526,-0.226386 0.379024,-0.339597 0.598452,-0.339597 0.149616,0 0.274285,0.07551 0.37402,0.226419 0.109722,0.150915 0.16455,0.330104 0.16455,0.537617 0,0.188636 -0.02992,0.35842 -0.08978,0.509335 -0.0499,0.132056 -0.119651,0.198079 -0.209422,0.198079 -0.119693,-0.03773 -0.244354,-0.150899 -0.374013,-0.339537 -0.1197,-0.18864 -0.254356,-0.282978 -0.403965,-0.282978 -0.209449,0 -0.31418,0.1792 -0.31418,0.537617 0.01,1.113002 0.124647,2.461859 0.344075,4.046471 0.229401,1.565751 0.588516,3.084317 1.077233,4.555748 l -2.872562,5.914018 h -3.261521 l -1.436242,2.688202 c 0,-0.60366 -0.04485,-1.122403 -0.134655,-1.556288 -0.08976,-0.433873 -0.289262,-0.811221 -0.598459,-1.131914 l -1.667463,-0.01182 c 0.02004,0.512016 0.04634,1.046462 0.08346,1.619599 0.08075,1.247684 0.20694,2.33944 0.378533,3.2752 0.171594,0.935761 0.388613,1.403701 0.651049,1.403701 h 2.028831 c 0.09085,-0.534716 0.237197,-1.058318 0.43907,-1.570764 0.121129,-0.334202 0.227106,-0.657306 0.317941,-0.969228 0.09085,-0.334203 0.136241,-0.724075 0.136241,-1.169681 l -0.03028,-0.334184 1.635151,3.174913 0.01514,0.167063 c 0,0.289642 -0.01009,0.52364 -0.03028,0.701881 h 0.984109 c 0.322959,-1.269963 0.666204,-2.306059 1.029569,-3.108139 0.353281,-0.802079 0.746947,-1.203127 1.180971,-1.203127 0.343187,0 0.721699,0.323102 1.135544,0.969228 1.009362,1.492765 1.670504,2.617897 1.983413,3.375427 l 2.271083,0.03338 c -0.454217,0.311923 -0.681322,0.690696 -0.681322,1.136291 l 0.01514,0.167124 c -0.377175,0 -0.764843,-0.02313 -1.160556,-0.06404 h -0.05011 c 0.251918,1.113092 0.377924,2.237355 0.377924,3.372689 0,1.114002 -0.100916,2.027478 -0.302789,2.740449 -0.201872,0.690674 -0.464336,1.203105 -0.787331,1.537309 -0.312866,0.334196 -0.635903,0.50131 -0.96899,0.50131 -0.50469,0 -0.963951,-0.323045 -1.377789,-0.969173 -0.413838,-0.646115 -0.620729,-1.548491 -0.620729,-2.707052 0,-0.467877 0.06056,-0.924656 0.181658,-1.370251 0.121123,-0.467885 0.267477,-0.701821 0.439071,-0.701821 0.100935,0 0.191765,0.100272 0.272515,0.300798 0.07065,0.178241 0.106012,0.367625 0.106012,0.568146 0,0.222802 -0.03533,0.401015 -0.106012,0.534696 -0.07065,0.111397 -0.156426,0.211678 -0.257361,0.300798 -0.100938,0.06685 -0.191759,0.178221 -0.272516,0.334185 -0.09084,0.133681 -0.136276,0.345401 -0.136276,0.635045 0,0.779797 0.181658,1.425901 0.545031,1.938331 0.36333,0.512449 0.772186,0.76866 1.226396,0.76866 0.373466,0 0.726761,-0.211661 1.059848,-0.634984 0.333093,-0.445597 0.575338,-1.158577 0.726738,-2.138906 -0.111022,0.245081 -0.242236,0.445633 -0.393638,0.601595 -0.151407,0.15596 -0.297797,0.23396 -0.439112,0.23396 -0.171593,0 -0.317941,-0.133722 -0.439077,-0.401084 l -0.363374,-0.868878 c 0.06056,0.133671 0.151436,0.200511 0.272558,0.200511 0.222066,0 0.484481,-0.211667 0.78729,-0.634983 0.3129,-0.445604 0.534981,-0.880098 0.666203,-1.303414 -0.03028,-1.001575 -0.161338,-1.947535 -0.393034,-2.837932 h -3.034464 c -0.587301,1.845428 -1.155888,4.144395 -1.705085,6.915241 0.807497,0.712959 1.534237,1.693262 2.180233,2.940944 0.635903,1.225396 1.241528,2.539996 1.816866,3.943636 l 0.605618,1.40363 c -0.353281,-0.53471 -0.741888,-0.8021 -1.165818,-0.8021 -0.50468,0 -1.029547,0.31195 -1.574607,0.93578 -0.54506,0.62385 -1.004331,1.33683 -1.377797,2.13891 -0.383515,0.80209 -0.575344,1.49279 -0.575344,2.07208 0,0.26735 0.04542,0.46785 0.136275,0.60152 0.08076,0.13369 0.176604,0.20058 0.287634,0.20058 0.08075,0 0.17664,-0.0446 0.287676,-0.13368 0.100936,-0.089 0.21198,-0.13367 0.333102,-0.13367 0.26243,0 0.393644,0.2896 0.393644,0.86888 0,0.20053 -0.03533,0.3788 -0.105969,0.53476 -0.07065,0.17824 -0.171614,0.26735 -0.302836,0.26735 -0.272523,0 -0.47942,-0.13367 -0.620728,-0.40103 -0.141308,-0.26736 -0.282644,-0.61273 -0.42396,-1.03607 -0.141307,-0.42331 -0.317955,-0.89118 -0.52992,-1.40364 -0.222058,-0.51242 -0.529913,-1.05831 -0.923564,-1.6376 0,-1.42591 0.378518,-2.82961 1.135544,-4.21097 0.74689,-1.40365 1.524136,-2.16119 2.331626,-2.27258 -0.817583,-0.824373 -1.640183,-1.269968 -2.467865,-1.336816 -0.383552,1.760136 -0.797433,3.420036 -1.241557,4.979646 -0.444116,1.53733 -0.938697,2.80729 -1.48375,3.80989 -0.55516,0.98032 -1.186002,1.47054 -1.892555,1.47054 h -0.227141 c 0.03028,-0.22279 0.04549,-0.43446 0.04549,-0.63497 0,-1.11402 -0.494631,-2.11665 -1.483807,-3.00786 -0.605618,-0.51244 -1.175881,-1.26998 -1.71084,-2.27258 -0.595531,0.46788 -1.165873,0.85775 -1.71089,1.16967 -0.545061,0.28965 -1.064866,0.43448 -1.559454,0.43448 -0.724657,0 -1.283569,-0.28825 -1.677044,-0.8642 l -1.057339,-0.0516 c 0.200401,0.82495 0.300599,1.64996 0.300599,2.47491 0,0.91662 -0.100198,1.66825 -0.300599,2.25489 -0.200401,0.5683 -0.455879,0.98993 -0.766498,1.26492 -0.310613,0.27498 -0.636266,0.41245 -0.97694,0.41245 -0.500999,0 -0.956933,-0.26577 -1.367746,-0.79742 -0.410821,-0.53163 -0.616222,-1.27411 -0.616222,-2.22739 0,-0.38498 0.06012,-0.76083 0.180364,-1.12748 0.120239,-0.38498 0.265517,-0.57745 0.435858,-0.57745 0.100193,0 0.190403,0.0825 0.270565,0.24746 0.07014,0.14666 0.105176,0.30251 0.105176,0.4675 0,0.18333 -0.03503,0.33001 -0.105176,0.44001 -0.07015,0.0917 -0.155351,0.17412 -0.25555,0.24746 -0.100195,0.0734 -0.190355,0.17417 -0.270517,0.3025 -0.09018,0.10999 -0.135255,0.28415 -0.135255,0.52247 0.02002,0.65996 0.205401,1.1916 0.556097,1.5949 0.350698,0.40331 0.751508,0.605 1.202406,0.605 0.370735,0 0.72142,-0.17415 1.052081,-0.52247 0.340678,-0.36664 0.581167,-0.95334 0.721445,-1.75996 -0.26052,0.4583 -0.536091,0.68747 -0.826667,0.68747 -0.160323,0 -0.305601,-0.11 -0.435863,-0.33 l -0.360719,-0.71494 c 0.07014,0.10999 0.160298,0.16498 0.270515,0.16498 0.230458,0 0.496031,-0.17416 0.796635,-0.52247 0.300555,-0.34832 0.515996,-0.70578 0.646259,-1.07243 -0.03007,-0.71496 -0.135288,-1.39328 -0.315625,-2.03491 l -3.156287,-0.165 c -0.551113,1.50328 -1.092165,3.35492 -1.623219,5.55481 0.801595,0.58662 1.523009,1.39327 2.164286,2.41987 0.63125,1.00827 1.232467,2.08991 1.803605,3.24485 l 0.601207,1.15491 c -0.350705,-0.43998 -0.731476,-0.65998 -1.142289,-0.65998 -0.500999,0 -1.022049,0.25669 -1.563125,0.77 -0.541076,0.49496 -1.00201,1.07244 -1.382769,1.7324 -0.380757,0.65997 -0.571118,1.2466 -0.571118,1.75991 0,0.20165 0.04008,0.35749 0.12024,0.46749 0.08016,0.11 0.180363,0.165 0.300602,0.165 0.08016,0 0.170316,-0.0367 0.270517,-0.11003 0.100201,-0.0734 0.215442,-0.10996 0.345705,-0.10996 0.250501,0 0.380739,0.23832 0.390755,0.71496 0,0.165 -0.03004,0.31168 -0.09015,0.44001 -0.07014,0.14664 -0.17534,0.21997 -0.315619,0.21997 z M 47.902884,116.039 c 0.661317,0 1.247488,-0.40331 1.758509,-1.20993 0.500954,-0.80663 0.956927,-1.83326 1.367746,-3.07986 -1.31261,0.58664 -2.580168,1.3291 -3.802598,2.22739 l -1.29256,0.85247 c 0.731452,0.80662 1.387749,1.20993 1.968903,1.20993 z m -6.718354,-2.41994 c 0.621231,0 1.302617,-0.21993 2.044088,-0.65992 0.741469,-0.43997 1.523016,-0.96245 2.344642,-1.56741 0.941869,-0.69664 1.913817,-1.32916 2.915809,-1.89747 0.991974,-0.58664 1.998951,-0.93496 3.020986,-1.04494 -0.6513,-0.38499 -1.317589,-0.57746 -1.998945,-0.57746 -0.981914,0 -1.97893,0.29332 -2.990945,0.87996 -1.012004,0.5683 -2.008998,1.20078 -2.990946,1.8974 -1.392758,1.04495 -2.68037,1.77827 -3.862714,2.19992 0.440872,0.5133 0.946892,0.76992 1.518025,0.76992 z m 10.926724,-5.5822 0.405822,-1.56742 c 0.260518,-1.02661 0.521081,-2.0074 0.781562,-2.94235 l -0.886781,-0.0275 -0.180362,0.46743 c -0.120241,0.275 -0.225441,0.55915 -0.315619,0.85247 -0.100201,0.29332 -0.150276,0.58664 -0.150276,0.87995 0,0.12833 0.015,0.2567 0.04505,0.38504 l -1.623198,-2.61244 v -0.0549 l -5.591137,-0.0825 c 0,0.89828 -0.200405,1.75077 -0.601202,2.55739 1.052089,-0.71496 2.04408,-1.0725 2.97593,-1.0725 1.583145,0 3.296545,1.07249 5.140209,3.21736 z m -10.550985,-1.01745 c 0.420837,0 0.74149,-0.055 0.961924,-0.165 0.340678,-0.14666 0.636291,-0.33913 0.886785,-0.57745 0.681352,-0.76997 1.021998,-1.71414 1.021998,-2.8324 v -0.10996 h -1.217423 c -1.222423,0 -2.414782,0.0183 -3.577085,0.055 0.150299,2.41987 0.791557,3.62982 1.923801,3.62982 z m 25.828829,-2.46861 c 0.656089,0 1.241577,-0.4902 1.756316,-1.47053 0.514781,-0.98032 0.979062,-2.23918 1.3929,-3.776512 -1.302043,0.712962 -2.558717,1.604232 -3.769951,2.673672 l -1.362628,1.10284 c 0.736797,0.98033 1.397925,1.47053 1.983363,1.47053 z m -7.562084,-1.78349 c -0.220558,-0.45476 -0.45013,-0.98333 -0.689459,-1.59199 l -0.21198,-0.46786 c -0.242244,0.0668 -0.474361,0.10022 -0.696423,0.10022 -0.186945,0 -0.366983,-0.0331 -0.542155,-0.0894 0.15042,0.2038 0.30084,0.40249 0.451253,0.60889 0.370742,0.36666 0.671342,0.84327 0.901802,1.42991 0.267902,0 0.523203,0.007 0.786962,0.0102 z m -1.012417,-0.0102 c -0.380761,-0.84329 -0.77153,-1.26491 -1.172327,-1.26491 -0.400797,0 -0.806644,0.41246 -1.21742,1.23743 0.811573,0 1.608189,0.009 2.389747,0.0275 z m -5.290538,-0.0275 c 0.330657,-1.13659 0.681386,-2.05324 1.052129,-2.749865 0.370698,-0.714963 0.781543,-1.07243 1.23244,-1.07243 0.340637,0 0.716397,0.265786 1.127218,0.797421 0.0255,0.03381 0.05099,0.06935 0.07649,0.10321 -0.03916,-0.346294 -0.11043,-0.692579 -0.221556,-1.038864 -0.171588,-0.557008 -0.378478,-1.125152 -0.620728,-1.704442 -0.242249,-0.601569 -0.464336,-1.225429 -0.666209,-1.871561 -0.04221,-0.135113 -0.07741,-0.272534 -0.110797,-0.410572 H 39.516227 l -0.03009,3.794818 c 0,1.429925 0.03508,2.804875 0.105223,4.124805 h 4.809572 c -0.09018,-0.84329 -0.310626,-1.56745 -0.661324,-2.17242 -0.360712,-0.623302 -0.786569,-0.934928 -1.277541,-0.934928 -0.130259,0 -0.2605,0.02752 -0.39076,0.08248 -0.220434,0.09166 -0.360722,0.21999 -0.420841,0.384958 -0.07015,0.165 -0.105222,0.33916 -0.105222,0.52249 l 0.01502,0.65998 c 0,0.21998 -0.03508,0.37583 -0.105222,0.46748 -0.07014,0.0917 -0.145261,0.13751 -0.225417,0.13751 -0.100199,0 -0.190409,-0.055 -0.270564,-0.16499 -0.08016,-0.11 -0.12024,-0.275 -0.12024,-0.49498 0,-0.45831 0.0952,-0.82496 0.285583,-1.09993 0.190374,-0.274977 0.410828,-0.476668 0.661322,-0.605004 0.250498,-0.128318 0.475943,-0.192477 0.676342,-0.192477 0.54107,0 1.002011,0.339158 1.382764,1.017451 0.380753,0.65997 0.621197,1.45745 0.721396,2.39239 h 5.606155 c 0.09018,-0.43998 0.230463,-0.87998 0.420842,-1.31995 0.120241,-0.29332 0.230483,-0.57748 0.330684,-0.85246 0.09018,-0.29332 0.135262,-0.577478 0.135262,-0.852468 l -0.03009,-0.302504 1.623247,2.612432 0.01501,0.32999 c 0,0.12832 -0.01,0.25664 -0.03004,0.38496 0.300604,0 0.596163,0.009 0.886744,0.0275 z m 7.097253,-1.1198 c 0.625811,0 1.312178,-0.26739 2.05911,-0.8021 0.746932,-0.53473 1.539318,-1.169721 2.377044,-1.904961 0.938718,-0.846634 1.912804,-1.615275 2.922131,-2.305965 1.009377,-0.712959 2.028824,-1.136346 3.05838,-1.27003 -0.65609,-0.467877 -1.327311,-0.70182 -2.013686,-0.70182 -0.989183,0 -1.993477,0.356488 -3.012938,1.069453 -1.029556,0.690684 -2.038967,1.459402 -3.028151,2.306036 -1.413071,1.269973 -2.715178,2.161167 -3.906233,2.673607 0.454224,0.62384 0.969005,0.93578 1.544343,0.93578 z m -3.456655,-5.283177 c 0.881446,-0.01423 1.705948,-0.29039 2.472554,-0.832755 0.777211,-0.556996 1.53425,-1.191991 2.271082,-1.904948 0.494596,-0.490165 0.994273,-0.93576 1.498911,-1.336803 -0.04968,-1.078759 -0.199911,-2.05451 -0.439944,-2.938218 h -3.461357 c -0.01826,0.419171 -0.03525,0.847413 -0.03525,1.400843 0,1.336805 0.08576,2.005235 0.257356,2.005235 0.07065,0 0.156468,-0.02227 0.257404,-0.06685 0.100936,-0.06684 0.191772,-0.100225 0.272515,-0.100225 0.232152,0 0.34822,0.211659 0.34822,0.634984 0,0.289634 -0.03533,0.534686 -0.105969,0.735207 -0.08075,0.200522 -0.186725,0.300796 -0.31794,0.300796 -0.161501,0 -0.323009,-0.100272 -0.484502,-0.300796 -0.171595,-0.222802 -0.297777,-0.512459 -0.378527,-0.868944 -0.141308,-0.646117 -0.33812,-1.09172 -0.590457,-1.336803 -0.0792,-0.07691 -0.171914,-0.149337 -0.270988,-0.219667 l 0.01121,0.204951 c 0,0.366641 -0.06516,0.733274 -0.195379,1.099924 -0.120246,0.366649 -0.265524,0.751655 -0.435863,1.154961 -0.170341,0.384982 -0.325666,0.788295 -0.465945,1.209941 -0.131547,0.378213 -0.198956,0.764813 -0.20714,1.159158 z m 14.463819,-1.534576 c 0.171593,-0.757517 0.333087,-1.515054 0.484501,-2.272583 0.239721,-1.119385 0.479435,-2.179129 0.719163,-3.205565 h -1.008651 l -0.07393,0.231163 c -0.121122,0.334203 -0.227097,0.679523 -0.317948,1.036006 -0.100936,0.356483 -0.151393,0.712978 -0.151393,1.069454 0,0.15596 0.01514,0.311959 0.04542,0.46792 l -1.429356,-2.804543 h -6.737556 c 0.224062,0.85477 0.365569,1.786678 0.414982,2.804543 1.019462,-0.80208 1.983435,-1.203127 2.891867,-1.203127 1.584664,0 3.305698,1.292245 5.162893,3.876732 z m -21.7711,-3.985978 h 6.564868 c 0.100463,-0.285764 0.196931,-0.573362 0.288187,-0.863348 0.06213,-0.21473 0.108828,-0.423171 0.14865,-0.62884 h -1.460692 v 1.331208 h -1.848525 v -1.331208 h -3.301128 c -0.118818,0.136042 -0.214749,0.370972 -0.281536,0.732019 -0.05011,0.261221 -0.08359,0.512812 -0.109824,0.760203 z m 26.267804,-2.76495 h 2.119688 c -0.34318,-0.77981 -0.686396,-1.169741 -1.029576,-1.169741 -0.353281,0 -0.716646,0.389931 -1.090112,1.169741 z m -13.429604,-0.03338 h 4.163645 l -1.4838,-3.108137 C 65.100659,84.261208 64.92849,83.181761 64.850561,81.69733 l -0.629243,-0.0045 c -0.299212,0.735702 -0.478774,1.141342 -0.538613,1.216811 0.209449,-0.490467 0.314174,-1.094193 0.314174,-1.811046 0,-1.433697 -0.304223,-2.952276 -0.912635,-4.55575 -0.424122,-1.130936 -0.870577,-1.919406 -1.338311,-2.38114 -0.01166,-0.0092 -0.02275,-0.013 -0.03455,-0.02342 -0.111023,-0.111397 -0.222073,-0.167124 -0.333102,-0.167124 -0.141308,0 -0.26243,0.155998 -0.363366,0.467922 -0.100936,0.311923 -0.151401,0.757517 -0.151401,1.336803 0,0.490154 0.0656,1.024873 0.196826,1.60415 0.131222,0.579286 0.353252,1.125155 0.666161,1.637602 0.312902,0.490156 0.746939,0.880106 1.302092,1.169739 h -3.52775 l -0.01514,3.97702 c 0,1.158562 0.01514,2.417424 0.04542,3.776509 0.434024,-0.891206 0.948811,-1.336863 1.544343,-1.336863 0.615716,0 1.155723,0.467941 1.620033,1.4037 z m -0.242244,-6e-5 c -0.444123,-0.712968 -0.898376,-1.069454 -1.362685,-1.069454 -0.494588,0 -0.933644,0.345386 -1.317204,1.036065 z M 53.19537,86.57014 c -0.04466,-0.206888 -0.06696,-0.486166 -0.06696,-0.837867 0,-0.993059 0.156305,-2.286141 0.468825,-3.879167 0.312551,-1.613714 0.767992,-2.844708 1.366307,-3.692946 C 54.52599,77.746402 54.106263,77.47744 53.704419,77.353309 53.302562,77.229178 52.82928,77.16715 52.284552,77.16715 h -1.272525 c -0.348273,0 -0.634055,0.310314 -0.857306,0.930977 -0.232177,0.599965 -0.34826,1.241323 -0.34826,1.924044 0,0.165511 0.0089,0.34139 0.02678,0.527581 l -1.446699,-3.351585 v -0.03102 h -2.397695 l -0.227741,-0.558598 c 0.0089,0.268954 0.0134,0.548225 0.0134,0.837866 0,1.05512 -0.08039,2.275795 -0.241132,3.66193 -0.160739,1.386173 -0.428634,2.772331 -0.803694,4.158468 l 7.983481,-0.09311 z m 21.438846,-8.442701 c -0.418914,-1.320516 -0.718141,-2.669372 -0.897666,-4.04647 -0.16956,-1.395975 -0.254341,-2.574988 -0.254341,-3.537077 v -0.396157 l -4.383621,7.923085 z" />
        <g
           id="g54-58-8-2"
           transform="translate(-45.559291,-25.691827)"
           style="fill:#000000" />
      </g>
    </g>
  </g>
</svg>
