<?xml version="1.0" encoding="UTF-8" standalone="no"?>
<!-- Created with Inkscape (http://www.inkscape.org/) -->

<svg
   width="297mm"
   height="210mm"
   viewBox="0 0 297 209.99999"
   version="1.1"
   id="svg1"
   inkscape:version="1.3.2 (091e20e, 2023-11-25, custom)"
   sodipodi:docname="takeiteasy lusikka.svg"
   inkscape:export-filename="lusikkatake.pdf"
   inkscape:export-xdpi="96"
   inkscape:export-ydpi="96"
   xmlns:inkscape="http://www.inkscape.org/namespaces/inkscape"
   xmlns:sodipodi="http://sodipodi.sourceforge.net/DTD/sodipodi-0.dtd"
   xmlns="http://www.w3.org/2000/svg"
   xmlns:svg="http://www.w3.org/2000/svg">
  <sodipodi:namedview
     id="namedview1"
     pagecolor="#ffffff"
     bordercolor="#000000"
     borderopacity="0.25"
     inkscape:showpageshadow="2"
     inkscape:pageopacity="0.0"
     inkscape:pagecheckerboard="0"
     inkscape:deskcolor="#d1d1d1"
     inkscape:document-units="mm"
     inkscape:zoom="0.2015873"
     inkscape:cx="756.49606"
     inkscape:cy="-151.29921"
     inkscape:window-width="1280"
     inkscape:window-height="657"
     inkscape:window-x="-8"
     inkscape:window-y="-8"
     inkscape:window-maximized="1"
     inkscape:current-layer="layer1" />
  <defs
     id="defs1" />
  <g
     inkscape:label="Taso 1"
     inkscape:groupmode="layer"
     id="layer1">
    <text
       xml:space="preserve"
       style="font-style:normal;font-variant:normal;font-weight:normal;font-stretch:normal;font-size:22.3802px;font-family:Colchester;-inkscape-font-specification:Colchester;letter-spacing:-0.0167851px;word-spacing:-0.00139875px;fill:#ffffff;fill-opacity:1;stroke:none;stroke-width:0.721627;stroke-dasharray:none"
       x="-259.46219"
       y="-56.192013"
       id="text9"
       transform="scale(-1)"><tspan
         sodipodi:role="line"
         id="tspan9"
         style="font-style:normal;font-variant:normal;font-weight:normal;font-stretch:normal;font-family:Arial;-inkscape-font-specification:Arial;fill:#ffffff;stroke-width:0.721627"
         x="-259.46219"
         y="-56.192013">missä mahdat </tspan><tspan
         sodipodi:role="line"
         style="font-style:normal;font-variant:normal;font-weight:normal;font-stretch:normal;font-family:Arial;-inkscape-font-specification:Arial;fill:#ffffff;stroke-width:0.721627"
         x="-259.46219"
         y="-27.638828"
         id="tspan11">olla nyt</tspan></text>
    <g
       id="text7-3"
       style="font-size:42.3333px;font-family:'Shock Graffiti';-inkscape-font-specification:'Shock Graffiti';text-align:end;letter-spacing:-0.03175px;word-spacing:-0.00264583px;text-anchor:end;stroke-width:1.365"
       transform="matrix(1.5831467,0,0,1.5831467,245.84405,-779.85599)"
       aria-label="puhelimen ääni&#10; arkeen takaisin" />
    <path
       style="fill:#000000;stroke:none;stroke-width:1.04616"
       d="m 185.06095,59.127148 0.2017,-0.189562 -2.2748,-2.420324 2.0731,2.609886 m 102.81175,81.905472 -4.15069,1.24208 c 2.17924,-1.27594 3.51461,-2.45509 4.65109,-4.75131 l -0.28657,2.92839 c 5.01261,-6.17625 2.73556,-14.53086 -3.65922,-18.59287 -2.81642,-1.78898 -6.58151,-2.19361 -9.10697,-4.35591 -3.80701,-3.25951 -5.67155,-7.88989 -9.84086,-10.88357 -15.11576,-10.853528 -31.34552,-21.135044 -41.93882,-36.933775 -0.83554,-1.246105 0.0937,-2.493073 -0.59003,-3.646209 -1.66046,-2.800207 -4.78084,-3.780186 -5.39608,-7.443044 -0.75716,-4.507801 0.80222,-8.957971 -0.5853,-13.504834 -2.05012,-6.718174 -7.59799,-13.206229 -13.36677,-17.066253 -6.9184,-4.629253 -15.6918,-9.425992 -24.0882,-5.920194 -7.36443,3.074944 -7.42242,12.031471 -5.48144,18.517463 0.6369,2.1285 1.37342,5.087313 3.17548,6.512078 l -1.82294,-4.364493 0.2017,-0.189562 c 1.41491,2.14082 2.19976,4.735227 3.48438,6.981415 3.91428,6.844266 9.73374,13.57449 17.59665,15.74972 4.73828,1.310826 9.66554,0.0326 14.4012,1.279316 0.73853,-0.996204 0.94538,-2.415813 1.89868,-3.23395 0.78821,-0.676478 2.43493,-0.661399 2.86371,-1.68178 0.53638,-1.276442 -0.16712,-3.305101 -0.0545,-4.699658 0.56198,-6.962289 -0.10478,-11.886073 -3.6573,-17.962451 l 2.7775,7.265945 0.63347,15.358907 -0.20169,0.189562 c -2.32669,0.08467 -3.72762,1.869885 -4.23558,3.980909 l -1.75461,-0.250198 -0.18956,-0.201702 3.0254,-2.843498 -0.18956,-0.201702 -8.89491,2.378439 -4.64605,-1.42738 2.54926,-0.116761 -1.36334,-0.238071 c -0.35453,-1.6621 -4.41875,-2.323771 -5.91649,-3.176098 -4.32752,-2.462685 -7.07258,-6.447331 -10.11631,-10.244825 l -0.2017,0.189576 c 3.54424,6.21783 8.74978,10.500821 15.4641,12.815842 -9.51449,-1.0684 -12.66303,-9.735112 -18.30759,-15.841247 l -0.20168,0.189562 9.79685,12.444386 -0.20169,0.189562 c -1.95046,-2.072181 -4.28077,-3.854882 -6.05946,-6.080643 -3.95248,-4.945976 -6.69584,-11.786492 -7.4879,-18.033279 l -0.18958,-0.20169 -1.10098,-2.383942 c -0.45003,2.204329 -0.18713,4.564649 0.57633,6.675684 l -0.20169,0.189562 c -0.62272,-1.721319 -0.84401,-3.487639 -0.81153,-5.315112 0.0323,-1.813928 0.0464,-3.616154 0.67351,-5.33996 2.58922,-7.117855 10.78105,-7.137353 16.87858,-5.079001 l 0.22596,-0.972091 3.08158,1.662062 -0.20169,0.189562 -0.5687,-0.605068 -0.2017,0.189562 12.06399,8.794092 0.2017,-0.189562 -8.78072,-7.321605 0.20169,-0.189575 c 1.69974,1.379799 3.82379,2.17662 5.52802,3.541187 5.22463,4.183294 10.89152,10.484905 12.45741,17.161208 1.05275,4.488483 -0.60356,9.199522 0.51559,13.570367 0.76327,2.980969 5.36657,5.269105 5.25429,7.977 -1.63853,-1.743343 -3.46727,-4.179118 -6.02015,-4.526321 -2.37058,-0.322419 -4.16539,2.064963 -3.80872,4.282876 0.34309,2.133499 2.37911,4.037885 3.79015,5.539188 l -0.80676,0.758274 c -1.50834,-2.454758 -3.11467,-5.396549 -5.85045,-6.65692 -3.56084,-1.640475 -8.44965,-0.53429 -12.326,-1.330453 -2.97477,-0.610984 -5.31064,-2.38545 -8.10187,-3.401269 0.67888,1.291778 3.022,2.180191 4.33586,2.762371 5.0373,2.232063 9.80644,1.419738 14.91669,2.694131 3.62307,0.903517 3.95723,4.074872 6.33285,6.147284 0.87062,0.75955 2.22235,-0.549884 3.39857,0.282571 11.13713,7.882174 20.74481,19.919263 28.13681,31.292333 2.33654,3.59492 4.00458,7.56971 6.32776,11.14653 2.84164,4.37502 7.15322,6.81775 10.27993,10.85076 2.49291,3.21557 3.27947,7.07105 5.47969,10.42417 4.52878,6.90172 13.57082,8.88957 19.78801,3.05392 M 178.4868,50.111583 l 0.20169,-0.189562 -0.92351,-1.790988 0.72182,1.98055 m 12.26022,10.888918 0.004,-0.130435 c 0.12668,0.06843 0.14257,0.286424 -0.004,0.130435 m -9.54559,-10.021512 0.2017,-0.189562 0.75826,0.806783 -0.95996,-0.617221 m 10.64002,10.512344 0.20168,-0.189575 0.56871,0.605081 -0.77039,-0.415506 m -11.18448,-11.899928 0.39128,0.0116 -0.39128,-0.0116 m 12.33401,12.718826 0.20169,-0.189562 0.56871,0.60508 -0.7704,-0.415518 m -2.27481,-2.420324 0.20169,-0.189562 0.75827,0.80677 -0.95996,-0.617208 m 3.43645,2.84797 0.2017,-0.189562 0.56871,0.605067 -0.77041,-0.415505 m -1.70611,-1.815243 0.20171,-0.189576 0.5687,0.605081 -0.77041,-0.415505 m 2.92287,2.570952 c -0.1466,-0.15599 0.07,-0.126684 0.13044,0.0039 l -0.13044,-0.0039 m -1.51653,-1.613553 c -0.14663,-0.15599 0.07,-0.126684 0.13043,0.0039 l -0.13043,-0.0039 m -15.61181,-16.475697 0.39126,0.0116 -0.39126,-0.0116 m -3.22265,-3.428784 0.20169,-0.189575 0.56873,0.605094 -0.77042,-0.415519 m 21.25585,21.807166 0.39126,0.0116 -0.39126,-0.0116 m -1.7061,-1.815243 0.20167,-0.189562 0.56872,0.605081 -0.77039,-0.415519 M 177.95335,44.15524 v -0.130435 c 0.12629,0.06843 0.14267,0.286413 0,0.130435 m -2.91064,-2.962216 -0.55661,-0.996333 0.20169,-0.189562 0.74618,1.198021 -0.39126,-0.0116 m 20.74214,21.530186 0.004,-0.130433 c 0.12669,0.06843 0.14258,0.286424 -0.004,0.130433 M 177.58644,43.361139 c -0.14666,-0.156004 0.0696,-0.126684 0.13043,0.0039 l -0.13043,-0.0039 m -1.58387,-1.550354 0.39126,0.0116 -0.39126,-0.0116 m 20.30801,20.798706 0.2017,-0.189562 1.93203,0.843151 -2.13373,-0.653589 m 2.58564,-1.290593 0.2017,-0.189574 -5.03684,-2.483408 -7.21674,-6.512374 c 1.60412,4.299282 7.85886,8.099559 12.05188,9.185356 m -21.6647,-19.143667 v -0.130422 c 0.1263,0.06843 0.14253,0.286387 0,0.130422 M 175.9045,40.76338 v -0.130434 c 0.12629,0.06843 0.14253,0.286385 0,0.130434 m -1.39418,-1.348664 c -2.40828,-5.013299 -0.82351,-10.473332 2.21536,-14.617719 l 0.18958,0.201689 c -2.92546,4.522339 -3.69743,9.186724 -2.01367,14.428145 l -0.39127,-0.01159 m 2.35417,1.965884 c -0.14654,-0.155977 0.0696,-0.126683 0.13041,0.0039 l -0.13041,-0.0039 m -1.3269,-1.411851 c -0.14667,-0.15599 0.0696,-0.126684 0.13041,0.0039 l -0.13041,-0.0039 m 1.0944,0.490821 -1.24209,-4.150688 0.20169,-0.189562 1.43167,4.352364 -0.39127,-0.0116 m 21.34064,19.068353 0.2017,-0.189575 -8.62756,-5.946136 c 1.12515,3.015622 5.58137,5.17085 8.42586,6.135711 m -10.71279,-8.164771 0.40339,-0.379124 -0.37913,-0.403379 -0.40339,0.379126 0.37913,0.403377 m 81.35305,79.282199 -0.18956,-0.2017 0.0243,-0.78251 0.2017,-0.18957 1.37547,-0.15318 c -2.5204,-2.19974 -2.4524,3.24632 -2.07459,4.6089 1.11295,4.0139 4.24083,7.27467 8.08073,8.73924 1.35112,0.51532 3.74748,1.16977 5.0201,0.13141 0.51248,-0.41813 0.6105,-1.38222 0.95286,-1.94664 2.12639,3.1332 -3.57943,3.19374 -5.3462,2.74561 -4.21131,-1.0682 -8.13587,-5.30139 -9.42978,-9.37062 -0.44374,-1.39548 -0.60578,-6.79284 2.1402,-6.34068 2.18794,0.36028 0.38617,2.44766 -0.75519,2.75975 m -69.49626,-68.014154 0.004,-0.130435 c 0.12669,0.06843 0.14258,0.286425 -0.004,0.130435 m -3.9875,-6.128675 0.20169,-0.189576 -3.82772,-2.860096 c 0.56625,1.513998 2.24879,2.359662 3.62603,3.049672 m 73.08037,74.521959 4.5011,6.40569 -0.20168,0.18957 -2.98459,-4.79216 c -0.47027,6.19428 7.39474,7.12198 11.06767,9.35068 -5.32118,1.70437 -13.1941,-5.81897 -12.3825,-11.15378 m -92.79535,-95.498112 0.39127,0.0116 -0.39127,-0.0116 m 75.56899,76.361472 0.20169,-0.18956 c 2.39071,4.88065 4.87426,7.7735 8.64733,11.62547 -4.38072,-1.48941 -7.44488,-7.39958 -8.84902,-11.43591 m 22.86487,26.75251 0.2017,-0.18958 0.75826,0.80679 -0.95996,-0.61721 m -8.45777,-11.42379 3.33178,-0.0925 -2.44457,3.05734 -0.88721,-2.96478 m 9.99856,12.25481 0.20169,-0.18956 0.56869,0.60507 -0.77038,-0.41551 m -18.98864,-25.45746 0.2017,-0.18957 3.85196,2.07758 -1.68185,-2.59777 0.2017,-0.18958 c 1.16163,1.3473 2.10951,3.19572 3.70059,4.11009 2.38268,1.36931 0.62983,-1.89796 -0.026,-2.62546 l -0.4034,0.37913 1.30273,2.19439 -2.07312,-2.60991 c 4.29264,-1.16065 -0.46341,-4.16639 -1.9761,-5.73998 3.55198,0.34864 7.81202,4.34229 9.69865,7.21861 1.30969,1.99673 1.17058,3.47313 3.44212,4.74197 l 0.2017,-0.18957 -2.28693,-2.02908 1.96842,-0.33063 0.0486,-1.56504 0.20168,-0.18957 c 0.67558,0.76736 1.03201,1.22467 0.52021,2.17013 l 3.49708,0.89166 -2.02906,2.28694 -0.75827,-0.80679 0.45189,-1.94417 -1.19802,0.74614 c 0.59008,1.37269 0.80252,2.79866 2.14442,3.68246 1.58892,1.04649 3.0744,0.63063 2.67963,-1.37893 4.91849,-1.47262 12.46682,6.73649 10.41407,11.4844 l -0.53232,-1.77886 -0.41552,0.77039 c -1.54283,-4.08022 -3.40441,-7.10739 -7.3446,-9.43109 l -0.2017,0.18957 1.52866,1.22229 -0.2017,0.18956 -2.51287,-1.05698 2.29905,1.63781 -0.20168,0.18956 c -4.40487,-2.34186 -9.23874,2.02945 -9.44846,6.37875 -0.0937,1.94469 1.3642,4.01344 2.62279,5.35464 -1.93614,-0.70864 -3.51903,-3.64883 -3.55737,-5.65951 -0.0249,-1.30647 0.98621,-2.41439 0.15123,-3.6802 -0.84745,-1.28476 -2.22328,-1.33863 -3.29236,-2.21812 -1.89196,-1.55649 -3.48432,-3.86877 -5.30834,-5.64699 -1.92188,-1.87362 -4.44574,-3.61221 -5.67908,-6.05826 m 3.84751,8.53944 2.18225,-0.91145 1.05252,3.94898 0.99634,-0.55658 c -0.37937,-2.21089 1.6255,0.0649 2.13375,0.65359 l -0.80678,0.75827 -0.16531,-0.98421 -1.23441,1.91992 -4.15836,-4.82852 m 1.11315,1.99268 0.39126,0.0116 -0.39126,-0.0116 m 15.24474,15.68104 c -0.14661,-0.15597 0.0701,-0.12668 0.13042,0.004 l -0.13042,-0.004 m -24.23482,-28.88368 3.58766,5.3649 4.52734,4.48171 c -1.32545,0.58772 -2.38888,-0.54495 -3.2825,-1.47321 -1.78165,-1.85074 -5.50678,-5.57016 -4.8325,-8.3734 m 25.20691,29.10963 c -0.1466,-0.156 0.0701,-0.12668 0.13041,0.004 l -0.13041,-0.004 m -2.15247,-2.15545 0.20171,-0.18956 2.70243,1.25866 -2.90414,-1.0691 m -68.62331,-73.013097 1.3876,-0.544445 0.18955,0.201689 -1.57715,0.342756 m 76.81232,61.517797 c -0.48805,0.45869 3.64575,2.6819 2.59331,4.78002 l -1.68185,-2.59777 0.81443,5.31234 0.46404,-2.33544 c 0.87057,1.28754 0.4972,2.69921 0.0682,4.1143 l -0.36701,-0.79465 -1.58929,0.73401 c -1.01763,1.41098 -2.4469,2.11173 -1.88801,4.05368 -1.15442,0.35377 -1.81776,0.34971 -2.7267,-0.47614 l 1.39973,-0.93571 c -1.60061,-0.53 -3.43621,0.076 -4.45704,-1.50888 l 4.68299,0.53679 -6.36484,-3.13455 c 2.14685,-1.05087 4.87301,1.35412 6.57867,2.55372 l 0.2017,-0.18957 c -1.48688,-1.55602 -3.29178,-2.54332 -5.23389,-3.43779 -0.6343,-0.29214 -1.98596,-0.74742 -2.09854,-1.57478 -0.16597,-1.21977 1.73418,-0.13502 2.07498,0.0777 2.15311,1.34422 3.92405,3.18923 6.05209,4.56781 0.008,-3.44057 -5.60819,-4.76513 -5.8666,-7.92467 -0.0885,-1.08259 1.10376,-0.62693 1.47462,-0.0958 1.68652,2.41586 2.95047,4.87002 5.00918,7.06042 l 0.4034,-0.37912 c -2.04388,-2.17511 -4.21896,-4.77005 -5.24726,-7.60373 2.37993,-0.92911 4.22002,5.84045 5.84021,7.42627 -0.69437,-1.91341 -2.15269,-3.4297 -2.75528,-5.37988 -0.17983,-0.58196 -0.20587,-2.24479 0.88215,-1.53287 1.35389,0.88592 1.21958,4.33577 2.30076,5.7511 l 0.2017,-0.18956 c -0.71945,-1.36395 -1.93419,-3.74694 -0.0562,-4.50558 -1.8584,-1.02802 -3.4064,-2.89757 -5.83097,-2.50847 -5.52405,0.88651 -6.5319,6.77224 -2.42635,9.88948 l -0.62934,1.35123 c -1.05484,-1.68296 -3.30323,-4.04364 -3.27026,-6.14802 0.0867,-5.5354 7.48832,-7.46321 11.44715,-4.95603 m -33.7442,-16.90713 0.74614,1.19803 -0.74614,-1.19803 m 1.32696,1.41186 1.38762,-0.54446 -1.38762,0.54446 m -4.34792,-5.03022 0.2017,-0.18956 2.83139,3.41667 -3.03309,-3.22711 m 6.86081,6.08719 0.2017,-0.18956 3.78094,5.18322 3.78963,3.27578 c -3.41216,-0.21693 -6.02839,-5.82961 -7.77227,-8.26944 m -3.63816,-2.65839 0.2017,-0.18958 0.56871,0.60508 -0.77041,-0.4155 m -8.8203,-18.680289 0.20168,-0.189576 -2.65395,-2.823715 0.20171,-0.189562 17.19443,13.848562 -0.20168,0.18957 -0.75828,-0.80678 -0.40338,0.37914 2.86775,2.24288 0.20171,-0.18957 -1.13742,-1.21016 0.2017,-0.18957 2.48863,1.8395 -0.2017,0.18957 -0.95995,-0.61722 -0.22596,0.9721 c -8.6839,-4.988039 -16.13214,-12.314129 -22.89358,-19.508097 l -0.20168,0.189562 1.70609,1.815241 -0.2017,0.189576 -12.3461,-12.327561 -0.2017,0.189562 12.93694,13.29174 13.32034,11.411904 -0.99634,0.556573 -2.50075,-1.448234 0.26999,3.924744 -12.43867,-15.659363 -0.40338,0.379136 1.70609,1.815243 -0.20169,0.189575 -3.41222,-3.630485 0.2017,-0.189575 0.95997,0.617208 0.2017,-0.189562 -0.94784,-1.008485 -0.6051,0.568712 -1.51652,-1.613553 -0.2017,0.189575 9.26454,10.665525 0.2017,-0.189575 -3.21051,-3.820048 0.20168,-0.189562 8.11501,9.846604 -0.2017,0.18956 -4.34792,-5.030223 -0.20169,0.189576 7.14292,9.620657 c -1.31219,-0.48026 -1.88465,-1.72462 -2.6874,-2.79225 -1.95465,-2.59963 -3.74752,-5.309564 -5.81266,-7.832034 -6.74953,-8.244157 -13.72763,-15.968588 -22.27536,-22.368364 -2.0866,-1.562248 -5.77955,-5.780519 -2.55686,-8.129858 3.00148,-2.188066 6.24875,2.386842 7.82411,4.31887 6.28498,7.707883 12.67232,15.063435 19.49498,22.322537 m 7.89673,16.889299 0.2017,-0.18957 0.94784,1.00847 -1.14954,-0.8189 m -41.13608,-43.767526 0.80678,-0.758263 0.18956,0.20169 -0.99634,0.556573 m 41.7533,42.807556 0.20168,-0.18955 1.12529,1.6014 0.80677,-0.75825 -0.7704,-0.41552 c 1.50776,-1.05785 3.33531,-2.14454 2.87222,-4.21897 l -0.84316,1.93204 -0.33062,-1.96842 0.98422,-0.16532 -1.32697,-1.41185 0.30638,2.75095 -4.90896,0.43532 0.0607,-1.95632 1.16166,0.42764 0.2017,-0.18957 -2.84351,-3.025403 c 2.31882,-0.339044 3.49247,2.771053 5.16681,3.880683 l 0.4034,-0.37914 c -0.43501,-1.02231 -0.27613,-1.52403 0.46401,-2.33543 l 4.77557,3.86856 c -0.54441,0.95703 -0.42086,1.60702 0.11675,2.54926 l -0.20169,0.18957 c -1.86968,-1.09317 -1.89005,-2.20679 -2.02461,-4.17494 l -2.24287,2.86775 -0.62933,1.35124 5.21532,2.31563 -1.75462,-0.25019 0.34277,1.57716 -0.2017,0.18958 -0.9357,-1.39974 -0.41552,0.77039 c -1.09292,-0.89685 -1.86673,-1.36696 -3.29541,-1.08122 l -1.48015,-2.78734 m -1.74249,-0.64146 0.20169,-0.18956 1.1374,1.21016 -1.33909,-1.0206 m -39.04279,-41.809719 0.19765,-0.05915 -0.19765,0.05915 m 44.25238,46.409779 c -0.14661,-0.15598 0.0701,-0.12669 0.13044,0.004 l -0.13044,-0.004 m -6.5125,-6.79438 0.20168,-0.18957 1.13741,1.21016 -1.33909,-1.02059 m -26.50303,-29.410898 0.20168,-0.189562 -1.51653,-1.613541 0.2017,-0.189575 8.35308,8.483246 0.20169,-0.189562 -1.13741,-1.210162 0.79466,-0.366997 c -3.75203,-3.970045 -9.52593,-6.92239 -12.37038,-11.545057 l 1.81524,-1.706099 5.30169,6.412973 5.30194,5.273138 0.40339,-0.379137 c -3.85574,-4.1024 -6.10212,-10.255161 -11.14808,-13.073709 l -3.41666,2.831371 c 1.20983,3.461388 4.30199,5.258241 7.01399,7.462673 m 24.61947,27.002708 0.2017,-0.18957 1.7061,1.81523 -1.9078,-1.62566 m -30.85094,-34.441114 0.39125,0.0116 1.46804,3.178597 c -1.25887,-0.565824 -1.93417,-1.84527 -1.85929,-3.190724 m -4.77556,-3.868569 0.98421,-0.165308 -0.60507,0.568712 -0.37914,-0.403404 m 45.50824,48.01523 0.39126,0.0116 -0.39126,-0.0116 m -5.11831,-5.44573 2.35969,-0.31852 -1.98055,0.7219 -0.37914,-0.40338 m -1.13739,-1.21016 2.14587,0.26232 -2.14587,-0.26232 m -30.89945,-32.876068 0.20169,-0.189562 0.94782,1.00846 -1.14951,-0.818898 m -7.39313,-7.866051 0.60508,-0.5687 0.18956,0.20169 -0.79464,0.36701 m 46.11332,47.446519 0.2017,-0.18958 0.52019,2.17013 -0.72189,-1.98055 m -33.02106,-33.920924 0.20169,-0.189562 -0.56871,-0.605094 0.36702,0.794656 m 34.75142,34.953634 0.33063,1.96842 -0.33063,-1.96842 m 24.61948,27.0027 1.24654,-2.31119 0.20171,-0.18956 c 1.60023,-0.42727 3.61182,-0.72314 3.08156,1.66204 l -1.32697,-1.41184 -1.39973,0.93571 1.70612,1.81524 0.20169,-0.18957 -0.16531,-0.98422 0.77039,0.41552 -1.0206,1.33909 -1.70609,-1.81524 -1.21017,1.13741 -0.37914,-0.40339 m -56.68058,-60.306399 0.39126,0.0116 -0.39126,-0.0116 m 58.61263,61.149539 0.56872,0.60509 -0.59297,0.17744 0.0242,-0.78253 m -10.23661,-10.89144 0.40338,-0.37915 c 2.48734,0.95888 4.64805,4.13708 6.46952,6.07507 -1.8677,-0.832 -5.92811,-3.9083 -6.8729,-5.69592 m -19.26309,-22.92034 1.12526,1.60143 c -1.52286,0.64556 -2.0828,-0.36311 -1.12526,-1.60143 m -39.88187,-40.008089 0.26232,-2.145871 -1.5893,0.73402 1.32698,1.411851 m 45.3308,47.422249 0.39126,0.0116 -0.39126,-0.0116 m -1.89568,-2.01693 0.20171,-0.18957 4.25536,1.69844 -3.31966,-0.29871 -1.13741,-1.21016 m -37.85279,-42.295037 0.2017,-0.189562 3.57752,4.614703 -0.40339,0.379137 -3.37583,-4.804278 M 177.12907,24.418388 c 4.75305,-3.052287 9.75211,-4.106214 15.11808,-1.293802 l -0.20169,0.189563 c -3.36493,-0.913737 -6.88428,-1.756102 -10.34203,-0.899521 -1.64453,0.407386 -2.97078,1.754116 -4.57436,2.00376 m 79.25118,83.916702 2.37183,-0.70977 c -2.38246,-1.40013 -0.9419,-3.09409 1.45239,-2.4988 3.23094,0.80327 4.7602,2.62963 6.89303,4.91146 l 0.20168,-0.18957 -1.32697,-1.41186 0.2017,-0.18957 4.54961,4.84066 c -1.68223,0.61942 -2.26412,-0.6703 -3.44017,-1.70491 -2.64301,-2.32513 -5.96053,-3.40942 -8.67234,-5.52414 l 0.2017,-0.18958 1.75461,0.25021 c -0.44736,-0.15403 -2.84912,-0.69523 -2.14462,0.57477 0.44635,0.80467 1.92159,1.1524 2.68816,1.57341 2.02384,1.11151 3.7853,2.40918 5.54484,3.90525 0.94055,0.79969 2.14017,1.4418 1.86133,2.80896 -2.68799,-2.85992 -7.14356,-8.43113 -11.56807,-5.84143 l -0.56871,-0.60509 m -6.8123,-7.65225 0.6051,-0.5687 0.91146,2.18226 -1.51656,-1.61356 m -32.98468,-35.094687 0.20169,-0.189563 4.00518,3.453038 -4.20687,-3.263475 m 42.67687,44.598547 1.94418,0.45191 -0.79464,0.36699 1.54078,0.83104 -2.69032,-1.64994 m -15.34281,-16.728433 0.20169,-0.189576 -2.46437,-2.622012 2.26268,2.811588 m 7.2278,6.881833 0.2017,-0.18958 0.75827,0.80678 -0.95997,-0.6172 m -4.73919,-5.042337 0.2017,-0.189575 -1.70609,-1.815242 1.50439,2.004817 m 1.71825,1.423965 0.2017,-0.189562 -1.13742,-1.210161 0.93572,1.399723 m 39.14782,38.418812 0.56872,0.60509 c 5.88199,-4.17729 -2.24884,-11.7504 -6.05565,-13.68148 -1.88466,-0.95603 -4.42068,-1.76482 -5.86281,0.19226 l 0.18956,0.20169 1.18588,-0.35488 0.37914,0.40339 -0.0116,0.39127 c -2.12677,0.62547 -2.67781,-1.5 -0.81993,-2.48313 1.57667,-0.83434 3.80051,0.25549 5.23299,0.9944 3.97748,2.05169 8.37827,6.28802 8.31277,11.10987 -0.0153,1.13613 -0.35738,2.60763 -1.24874,3.39658 -0.89219,0.78969 -2.14798,0.46486 -1.86979,-0.77506 m -17.06104,-18.15242 1.17378,0.0364 -0.79465,0.36701 -0.37913,-0.40338 m -0.70976,-2.37182 0.99634,-0.55658 0.37913,0.40338 -0.0365,1.17379 1.57716,-0.34276 -1.21016,1.13739 -1.7061,-1.81522 m 2.29906,1.6378 0.39126,0.0116 -0.39126,-0.0116 m -7.00186,-7.85393 0.20169,-0.18957 -0.75827,-0.80678 0.55658,0.99635 m 23.16356,23.43284 0.0116,-0.39125 -0.0116,0.39125 m -0.50808,-2.56137 0.2017,-0.18957 c -1.1389,-2.35804 -3.35837,-3.71742 -5.52169,-5.0666 l 5.31999,5.25617 m -91.27542,-104.523958 0.004,-0.130422 c 0.12669,0.06843 0.14254,0.286387 -0.004,0.130422 m 0.5136,0.277017 0.2017,-0.189576 0.56869,0.605081 -0.77039,-0.415505 m 13.91116,12.376069 0.20168,-0.189562 -1.7061,-1.815256 z"
       id="path5915-6" />
    <path
       style="fill:#000000;stroke:none;stroke-width:1.04616"
       d="m 282.56991,63.210873 -0.20169,-0.189562 2.27481,-2.420324 -2.07312,2.609886 m -102.8118,81.905467 4.15074,1.24209 c -2.17923,-1.27594 -3.51461,-2.45508 -4.65103,-4.7513 l 0.28649,2.92838 c -5.01259,-6.17625 -2.7355,-14.53085 3.65925,-18.59286 2.81642,-1.78898 6.5815,-2.19362 9.10699,-4.35593 3.80701,-3.25949 5.67156,-7.88988 9.84085,-10.88357 15.11576,-10.853523 31.34553,-21.135051 41.93883,-36.933783 0.83552,-1.246104 -0.0937,-2.493073 0.59001,-3.646208 1.66047,-2.800195 4.78086,-3.780173 5.39609,-7.443031 0.75715,-4.507802 -0.80221,-8.95797 0.58531,-13.504834 2.0501,-6.718175 7.59798,-13.206229 13.36675,-17.066254 6.91842,-4.629253 15.6918,-9.425992 24.08817,-5.920193 7.36448,3.074943 7.42239,12.031469 5.48146,18.517462 -0.63694,2.1285 -1.37336,5.087314 -3.17543,6.512078 l 1.8229,-4.364492 -0.20168,-0.189562 c -1.4149,2.140819 -2.19977,4.735227 -3.48439,6.981414 -3.91428,6.844267 -9.73375,13.574478 -17.59663,15.74972 -4.7383,1.310826 -9.66556,0.0326 -14.4012,1.279316 -0.73854,-0.996203 -0.94541,-2.415826 -1.89871,-3.233963 -0.78819,-0.676477 -2.43492,-0.661386 -2.8637,-1.681766 -0.53636,-1.276456 0.16712,-3.305102 0.0545,-4.699658 -0.56199,-6.96229 0.10477,-11.886074 3.6573,-17.962452 l -2.77752,7.265945 -0.63345,15.358907 0.20169,0.189562 c 2.32669,0.08467 3.72761,1.869873 4.23557,3.980909 l 1.75461,-0.250198 0.18957,-0.201702 -3.02542,-2.843497 0.18959,-0.201702 8.8949,2.378426 4.64603,-1.42738 -2.54926,-0.116761 1.36336,-0.238071 c 0.35452,-1.662088 4.41874,-2.323771 5.91649,-3.176085 4.3275,-2.462684 7.07256,-6.447331 10.11628,-10.244826 l 0.2017,0.189576 c -3.54423,6.21783 -8.74976,10.500809 -15.46408,12.815842 9.51448,-1.068399 12.66303,-9.735112 18.30757,-15.841259 l 0.20171,0.189574 -9.79687,12.444374 0.20169,0.189562 c 1.95046,-2.072168 4.28076,-3.85487 6.05945,-6.08063 3.95251,-4.945977 6.69585,-11.786492 7.48793,-18.033281 l 0.18956,-0.20169 1.10102,-2.38394 c 0.45004,2.204327 0.18703,4.564647 -0.57636,6.675683 l 0.20169,0.189562 c 0.62265,-1.721319 0.844,-3.48764 0.81149,-5.315113 -0.0324,-1.813927 -0.0463,-3.616153 -0.67349,-5.339958 -2.58922,-7.117855 -10.78105,-7.137354 -16.87856,-5.079002 l -0.22596,-0.97209 -3.08158,1.662061 0.20169,0.189562 0.5687,-0.605068 0.2017,0.189562 -12.064,8.794094 -0.20168,-0.189563 8.78072,-7.321606 -0.2017,-0.189575 c -1.69975,1.3798 -3.82378,2.176621 -5.52803,3.541188 -5.22463,4.183294 -10.89152,10.484905 -12.4574,17.161208 -1.05275,4.488484 0.60356,9.199521 -0.51559,13.570367 -0.76327,2.980968 -5.36658,5.269104 -5.25428,7.976986 1.63853,-1.74333 3.46726,-4.179105 6.02015,-4.526321 2.37057,-0.322406 4.16537,2.064964 3.8087,4.28289 -0.34306,2.133486 -2.37911,4.037872 -3.79015,5.539174 l 0.80678,0.758288 c 1.50832,-2.454759 3.11466,-5.396562 5.85044,-6.656933 3.56085,-1.640462 8.44964,-0.53429 12.32601,-1.330441 2.97476,-0.610996 5.31063,-2.38545 8.10185,-3.401269 -0.67888,1.291779 -3.02199,2.180191 -4.33584,2.762359 -5.03732,2.232062 -9.80645,1.419751 -14.91671,2.694131 -3.62304,0.903529 -3.95722,4.074872 -6.33283,6.147284 -0.87063,0.75955 -2.22235,-0.549871 -3.39858,0.282571 -11.13713,7.882173 -20.74481,19.919276 -28.1368,31.29235 -2.33655,3.59491 -4.00459,7.56972 -6.32777,11.14652 -2.84162,4.37504 -7.15323,6.81777 -10.27993,10.85078 -2.4929,3.21557 -3.27945,7.07105 -5.4797,10.42415 -4.52877,6.90171 -13.57081,8.88959 -19.78799,3.05393 M 289.144,54.195309 l -0.20169,-0.189563 0.92358,-1.790988 -0.72189,1.980551 m -12.26016,10.888904 -0.004,-0.130422 c -0.12669,0.06843 -0.14258,0.286425 0.004,0.130422 m 9.54559,-10.021498 -0.20168,-0.189563 -0.75828,0.806783 0.95996,-0.61722 m -10.63999,10.512344 -0.20171,-0.189575 -0.5687,0.605081 0.77041,-0.415506 m 11.18445,-11.899928 -0.39128,0.0116 0.39128,-0.0116 m -12.33401,12.718825 -0.20167,-0.189562 -0.56871,0.605068 0.77038,-0.415506 m 2.27481,-2.420324 -0.20169,-0.189574 -0.75825,0.806783 0.95994,-0.617209 m -3.43645,2.847958 -0.2017,-0.189564 -0.5687,0.605081 0.7704,-0.415517 m 1.70611,-1.815231 -0.20169,-0.189574 -0.5687,0.605081 0.77039,-0.415507 m -2.92287,2.57094 c 0.14663,-0.15599 -0.07,-0.126684 -0.13041,0.0039 l 0.13041,-0.0039 m 1.51654,-1.61354 c 0.14662,-0.155991 -0.07,-0.126685 -0.13043,0.0039 l 0.13043,-0.0039 m 15.61174,-16.475698 -0.39126,0.0116 0.39126,-0.0116 m 3.22264,-3.428796 -0.20168,-0.189562 -0.56871,0.605093 0.77039,-0.415531 m -21.25578,21.807178 -0.39124,0.0116 0.39124,-0.0116 m 1.70612,-1.815243 -0.20169,-0.189562 -0.56871,0.605081 0.7704,-0.415519 m 16.61466,-17.812235 -0.004,-0.130433 c -0.12668,0.06843 -0.14257,0.286411 0.004,0.130433 m 2.91074,-2.962216 0.55659,-0.996332 -0.2017,-0.189563 -0.74614,1.198022 0.39125,-0.0116 m -20.74216,21.530174 -0.004,-0.130433 c -0.12668,0.06843 -0.14256,0.286424 0.004,0.130433 m 18.19844,-19.3626 c 0.14662,-0.15599 -0.07,-0.126684 -0.13043,0.0039 l 0.13043,-0.0039 m 1.58376,-1.550353 -0.39126,0.0116 0.39126,-0.0116 m -20.30793,20.798706 -0.20168,-0.189562 -1.93206,0.843151 2.13374,-0.653589 m -2.58563,-1.290593 -0.20169,-0.189575 5.03682,-2.483395 7.21672,-6.512386 c -1.6041,4.29928 -7.85884,8.099559 -12.05185,9.185356 m 21.66469,-19.143668 -0.004,-0.130421 c -0.12669,0.06843 -0.14255,0.286399 0.004,0.130421 m 1.32696,-1.41185 -0.004,-0.130422 c -0.12668,0.06843 -0.14254,0.286385 0.004,0.130422 m 1.39422,-1.348664 c 2.40831,-5.013301 0.82353,-10.473333 -2.21542,-14.617706 l -0.18958,0.201688 c 2.9256,4.522326 3.69749,9.186723 2.01373,14.428145 l 0.39127,-0.0116 m -2.35417,1.965872 c 0.14659,-0.155978 -0.0701,-0.126684 -0.13044,0.0039 l 0.13044,-0.0039 m 1.32696,-1.411851 c 0.14661,-0.155977 -0.07,-0.126685 -0.13043,0.0039 l 0.13043,-0.0039 m -1.09442,0.490832 1.24209,-4.150688 -0.20169,-0.189562 -1.43166,4.352365 0.39126,-0.0116 m -21.34067,19.068353 -0.2017,-0.189574 8.62755,-5.946137 c -1.12514,3.015623 -5.58134,5.17085 -8.42585,6.135711 m 10.71278,-8.16477 -0.40338,-0.379137 0.37912,-0.403379 0.4034,0.379137 -0.37914,0.403379 m -81.35303,79.282194 0.18957,-0.20169 -0.0243,-0.78251 -0.20169,-0.18958 -1.37547,-0.15318 c 2.5204,-2.19975 2.45239,3.24631 2.07458,4.6089 -1.11295,4.01392 -4.24082,7.27468 -8.08072,8.73925 -1.35112,0.51532 -3.7475,1.16977 -5.02012,0.1314 -0.51247,-0.41812 -0.6105,-1.38221 -0.95286,-1.94663 -2.12638,3.13319 3.57943,3.19375 5.34621,2.74559 4.21131,-1.06819 8.13588,-5.30138 9.42978,-9.37061 0.44373,-1.39547 0.60578,-6.79285 -2.1402,-6.34068 -2.18795,0.36028 -0.38618,2.44768 0.7552,2.75974 m 69.49626,-68.01414 -0.004,-0.130435 c -0.12668,0.06843 -0.14257,0.286412 0.004,0.130435 m 3.9875,-6.128675 -0.2017,-0.189575 3.82773,-2.860097 c -0.56625,1.513998 -2.2488,2.359662 -3.62603,3.049672 m -73.08039,74.521965 -4.5011,6.40569 0.20169,0.18957 2.98458,-4.79214 c 0.47029,6.19426 -7.39473,7.12197 -11.06766,9.35066 5.32118,1.70437 13.19411,-5.81897 12.38249,-11.15378 m 92.79537,-95.498119 -0.39126,0.01159 0.39126,-0.01159 m -75.56899,76.361479 -0.2017,-0.18958 c -2.39072,4.88068 -4.87425,7.77352 -8.64732,11.62549 4.38071,-1.48943 7.44487,-7.39959 8.84902,-11.43591 m -22.86487,26.75251 -0.20171,-0.18958 -0.75825,0.80678 0.95996,-0.6172 m 8.45777,-11.42379 -3.33178,-0.0925 2.44456,3.05733 0.88722,-2.96477 m -9.99856,12.2548 -0.2017,-0.18956 -0.5687,0.60509 0.7704,-0.41553 m 18.98864,-25.45745 -0.2017,-0.18957 -3.85196,2.07758 1.68185,-2.59778 -0.20171,-0.18957 c -1.16163,1.3473 -2.10952,3.19571 -3.70059,4.11008 -2.38266,1.36931 -0.62982,-1.89794 0.026,-2.62547 l 0.40338,0.37914 -1.3027,2.19439 2.07311,-2.60989 c -4.29265,-1.16067 0.4634,-4.16641 1.97609,-5.73999 -3.55198,0.34863 -7.81202,4.34229 -9.69864,7.21861 -1.30969,1.99673 -1.17059,3.47313 -3.44213,4.74196 l -0.2017,-0.18958 2.28694,-2.02907 -1.96844,-0.33061 -0.0486,-1.56506 -0.2017,-0.18956 c -0.67557,0.76736 -1.032,1.22465 -0.5202,2.17013 l -3.49709,0.89166 2.02907,2.28694 0.75827,-0.80679 -0.45189,-1.94418 1.19803,0.74615 c -0.59007,1.37268 -0.80254,2.79866 -2.14443,3.68246 -1.58893,1.04649 -3.0744,0.63061 -2.67963,-1.37895 -4.91851,-1.47261 -12.4669,6.73653 -10.41405,11.48442 l 0.53226,-1.77888 0.41549,0.77041 c 1.54288,-4.08022 3.40447,-7.1074 7.34468,-9.43109 l 0.20169,0.18955 -1.52866,1.22229 0.20168,0.18957 2.51289,-1.05696 -2.29906,1.6378 0.20169,0.18956 c 4.40488,-2.34188 9.23873,2.02945 9.44845,6.37874 0.0937,1.94469 -1.36418,4.01345 -2.62278,5.35462 1.93614,-0.70862 3.51902,-3.64881 3.55738,-5.65949 0.0249,-1.30646 -0.98622,-2.41439 -0.15124,-3.6802 0.84747,-1.28476 2.22329,-1.33861 3.29235,-2.2181 1.89196,-1.55651 3.48434,-3.86878 5.30835,-5.647 1.92187,-1.87362 4.44576,-3.61221 5.67909,-6.05826 m -3.84752,8.53943 -2.18225,-0.91145 -1.05252,3.94899 -0.99635,-0.55659 c 0.37939,-2.21088 -1.6255,0.065 -2.13374,0.65358 l 0.80678,0.75829 0.16531,-0.98422 1.23442,1.91993 4.15835,-4.82853 m -1.11316,1.99268 -0.39124,0.0116 0.39124,-0.0116 m -15.24473,15.68105 c 0.1466,-0.15598 -0.0701,-0.12669 -0.13042,0.004 l 0.13042,-0.004 m 24.23482,-28.88369 -3.58765,5.3649 -4.52734,4.48172 c 1.32545,0.58771 2.38887,-0.54496 3.28249,-1.47323 1.78166,-1.85072 5.50678,-5.57013 4.8325,-8.37339 m -25.20692,29.10966 c 0.14661,-0.15598 -0.0701,-0.12669 -0.13041,0.004 l 0.13041,-0.004 m 2.15248,-2.15544 -0.20169,-0.18957 -2.70245,1.25867 2.90414,-1.0691 m 68.62332,-73.013107 -1.3876,-0.544446 -0.18957,0.20169 1.57717,0.342756 m -76.81235,61.517797 c 0.48805,0.45871 -3.6457,2.68191 -2.59331,4.78003 l 1.68186,-2.59778 -0.81444,5.31235 -0.46402,-2.33545 c -0.87059,1.28755 -0.4972,2.69922 -0.0684,4.11431 l 0.36701,-0.79466 1.5893,0.73403 c 1.01764,1.41097 2.44689,2.11172 1.88801,4.05367 1.15442,0.35377 1.81775,0.3497 2.7267,-0.47614 l -1.39974,-0.93571 c 1.60061,-0.53 3.43623,0.0761 4.45706,-1.50887 l -4.68299,0.53677 6.36484,-3.13453 c -2.14685,-1.05089 -4.87303,1.35411 -6.57867,2.55371 l -0.20171,-0.18957 c 1.48689,-1.55603 3.29177,-2.54333 5.2339,-3.4378 0.63431,-0.29213 1.98596,-0.7474 2.09854,-1.57477 0.16597,-1.21977 -1.73417,-0.13501 -2.07498,0.0777 -2.15313,1.34422 -3.92406,3.18922 -6.0521,4.56779 -0.008,-3.44055 5.6082,-4.76511 5.8666,-7.92465 0.0886,-1.08259 -1.10377,-0.62694 -1.47461,-0.0958 -1.68654,2.41584 -2.95048,4.87002 -5.0092,7.06043 l -0.40339,-0.37915 c 2.04388,-2.17508 4.21896,-4.77005 5.24726,-7.60372 -2.37994,-0.92912 -4.22003,5.84047 -5.84021,7.42629 0.69438,-1.91343 2.15269,-3.4297 2.75528,-5.37989 0.17982,-0.58196 0.20586,-2.24481 -0.88215,-1.53286 -1.3539,0.88591 -1.21959,4.33576 -2.30076,5.75109 l -0.2017,-0.18957 c 0.71944,-1.36394 1.93419,-3.74694 0.0562,-4.50556 1.85838,-1.02805 3.40638,-2.89757 5.83096,-2.50848 5.52406,0.8865 6.53191,6.77225 2.42636,9.88949 l 0.62933,1.35121 c 1.05484,-1.68294 3.30324,-4.04363 3.27027,-6.148 -0.0867,-5.53542 -7.48833,-7.46323 -11.44716,-4.95605 m 33.74421,-16.90713 -0.74614,1.19805 0.74614,-1.19805 m -1.32697,1.41187 -1.38761,-0.54445 1.38761,0.54445 m 4.34792,-5.03021 -0.2017,-0.18958 -2.83138,3.41667 3.03308,-3.22709 m -6.86079,6.08719 -0.20171,-0.18958 -3.78095,5.18323 -3.78961,3.27579 c 3.41214,-0.21695 6.02838,-5.82961 7.77227,-8.26944 m 3.63815,-2.65841 -0.20169,-0.18956 -0.56872,0.60508 0.77041,-0.41552 m 8.82031,-18.680293 -0.2017,-0.189574 2.65395,-2.823715 -0.2017,-0.189562 -17.19444,13.848564 0.2017,0.18956 0.75827,-0.80677 0.40338,0.37914 -2.86775,2.24287 -0.20169,-0.18956 1.1374,-1.21016 -0.2017,-0.18956 -2.48862,1.83948 0.20169,0.18958 0.95996,-0.61722 0.22595,0.9721 c 8.6839,-4.98805 16.13216,-12.314153 22.89357,-19.508122 l 0.20171,0.189576 -1.70611,1.815243 0.2017,0.189562 12.3461,-12.327561 0.2017,0.189575 -12.93694,13.291725 -13.32034,11.411912 0.99634,0.55656 2.50074,-1.44822 -0.26998,3.92473 12.43868,-15.659357 0.40337,0.37915 -1.70609,1.81523 0.20169,0.189575 3.41221,-3.630472 -0.2017,-0.189575 -0.95996,0.617195 -0.2017,-0.189562 0.94784,-1.008473 0.60509,0.568713 1.51654,-1.613554 0.20168,0.189562 -9.26453,10.665538 -0.20169,-0.189575 3.21051,-3.82006 -0.2017,-0.189562 -8.115,9.846607 0.2017,0.18956 4.34792,-5.030212 0.20169,0.189574 -7.14292,9.620648 c 1.31219,-0.48027 1.88465,-1.72463 2.6874,-2.79226 1.95465,-2.59964 3.74752,-5.30955 5.81266,-7.832014 6.74954,-8.24417 13.72764,-15.968601 22.27536,-22.368364 2.08659,-1.562261 5.77955,-5.78052 2.55687,-8.129859 -3.00149,-2.188064 -6.24876,2.386842 -7.82412,4.318871 -6.28498,7.70787 -12.67231,15.063422 -19.49499,22.322523 m -7.89671,16.889303 -0.20171,-0.18957 -0.94784,1.00846 1.14955,-0.81889 m 41.13608,-43.767517 -0.80679,-0.758262 -0.18957,0.201689 0.99636,0.556573 m -41.75331,42.807557 -0.20169,-0.18957 -1.12528,1.60143 -0.80676,-0.75827 0.77039,-0.41551 c -1.50776,-1.05786 -3.33531,-2.14456 -2.87222,-4.21899 l 0.84316,1.93206 0.33062,-1.96844 -0.98423,-0.16532 1.32698,-1.41186 -0.30637,2.75096 4.90897,0.43532 -0.0608,-1.95632 -1.16166,0.42766 -0.2017,-0.18957 2.84351,-3.02541 c -2.31881,-0.33905 -3.49247,2.77105 -5.16681,3.88069 l -0.40338,-0.37914 c 0.43499,-1.02232 0.27611,-1.52405 -0.46403,-2.33544 l -4.77557,3.86856 c 0.54441,0.95704 0.42086,1.60702 -0.11675,2.54926 l 0.20169,0.18956 c 1.86968,-1.09318 1.89005,-2.20678 2.02461,-4.17493 l 2.24287,2.86776 0.62934,1.35122 -5.21533,2.31564 1.75462,-0.2502 -0.34277,1.57718 0.20171,0.18957 0.93571,-1.39974 0.4155,0.77041 c 1.09292,-0.89687 1.86673,-1.36697 3.29541,-1.08123 l 1.48016,-2.78734 m 1.74248,-0.64147 -0.20169,-0.18956 -1.1374,1.21017 1.33909,-1.02061 m 39.04275,-41.809709 -0.19765,-0.05915 0.19765,0.05915 m -44.25238,46.409769 c 0.1466,-0.15598 -0.0701,-0.12668 -0.13044,0.004 l 0.13044,-0.004 m 6.51252,-6.79439 -0.20169,-0.18957 -1.13742,1.21017 1.33911,-1.0206 m 26.50301,-29.410891 -0.20168,-0.189563 1.51653,-1.613553 -0.2017,-0.189563 -8.35308,8.483247 -0.20169,-0.189563 1.13741,-1.210161 -0.79466,-0.36701 c 3.75203,-3.970046 9.52593,-6.922377 12.37038,-11.545046 l -1.81524,-1.706097 -5.30168,6.412973 -5.30195,5.273138 -0.40339,-0.379137 c 3.85574,-4.1024 6.10212,-10.255162 11.14808,-13.073709 l 3.41666,2.831371 c -1.20983,3.461388 -4.30199,5.25824 -7.01399,7.462673 m -24.61947,27.002701 -0.20169,-0.18957 -1.70611,1.81525 1.9078,-1.62568 m 30.85095,-34.441107 -0.39126,0.0116 -1.46804,3.178585 c 1.25888,-0.565826 1.93417,-1.845258 1.8593,-3.190712 m 4.77555,-3.868569 -0.98421,-0.165296 0.60507,0.5687 0.37914,-0.403404 m -45.50824,48.015253 -0.39126,0.0116 0.39126,-0.0116 m 5.11831,-5.44575 -2.35969,-0.3185 1.98055,0.7219 0.37914,-0.4034 m 1.13739,-1.21015 -2.14586,0.26233 2.14586,-0.26233 m 30.89946,-32.876081 -0.20168,-0.189562 -0.94784,1.00846 1.14952,-0.818898 m 7.39312,-7.866051 -0.60508,-0.5687 -0.18957,0.201689 0.79465,0.367011 m -46.11331,47.446522 -0.20171,-0.18957 -0.52019,2.17013 0.7219,-1.98056 m 33.02105,-33.920927 -0.20169,-0.189562 0.56871,-0.605094 -0.36702,0.794656 m -34.75142,34.953647 -0.33064,1.96843 0.33064,-1.96843 m -24.61948,27.00271 -1.24655,-2.3112 -0.20171,-0.18957 c -1.60023,-0.42728 -3.61178,-0.72311 -3.08158,1.66207 l 1.32698,-1.41185 1.39973,0.9357 -1.70611,1.81525 -0.20169,-0.18958 0.16532,-0.9842 -0.77039,0.4155 1.02059,1.33911 1.70609,-1.81525 1.21018,1.13741 0.37914,-0.40339 m 56.68058,-60.306422 -0.39126,0.0116 0.39126,-0.0116 m -58.61264,61.149562 -0.56871,0.60508 0.59296,0.17745 -0.0242,-0.78253 m 10.23663,-10.89145 -0.40338,-0.37913 c -2.48734,0.95887 -4.64805,4.13707 -6.46954,6.07506 1.8677,-0.832 5.92813,-3.90828 6.87292,-5.69593 m 19.2631,-22.92034 -1.12527,1.60143 c 1.52286,0.64555 2.0828,-0.36311 1.12527,-1.60143 m 39.88186,-40.008089 -0.26232,-2.145884 1.5893,0.73402 -1.32698,1.411864 m -45.33081,47.422269 -0.39125,0.0116 0.39125,-0.0116 m 1.89569,-2.01693 -0.20171,-0.18959 -4.25536,1.69846 3.31966,-0.29873 1.13741,-1.21014 m 37.8528,-42.29507 -0.20171,-0.189562 -3.57751,4.614703 0.40338,0.379137 3.37584,-4.804278 m 43.63683,-45.215305 c -4.75309,-3.052275 -9.75215,-4.106201 -15.11811,-1.293789 l 0.20169,0.189563 c 3.36492,-0.913749 6.88427,-1.756102 10.34202,-0.899522 1.64457,0.407387 2.97079,1.754118 4.5744,2.003748 m -79.25121,83.916705 -2.37183,-0.70977 c 2.38246,-1.40012 0.9419,-3.09408 -1.45239,-2.4988 -3.23094,0.80328 -4.7602,2.62962 -6.89303,4.91147 l -0.20168,-0.18957 1.32697,-1.41186 -0.2017,-0.18957 -4.54961,4.84065 c 1.68224,0.61944 2.26413,-0.67029 3.44016,-1.70489 2.64302,-2.32515 5.96054,-3.40944 8.67235,-5.52416 l -0.2017,-0.18957 -1.7546,0.25021 c 0.44735,-0.15403 2.84911,-0.69522 2.14461,0.57476 -0.44635,0.80467 -1.92159,1.15241 -2.68815,1.57341 -2.02385,1.11151 -3.78531,2.4092 -5.54485,3.90527 -0.94055,0.79968 -2.14017,1.44179 -1.86133,2.80895 2.68799,-2.85991 7.14356,-8.43113 11.56808,-5.84145 l 0.5687,-0.60508 m 6.8123,-7.65224 -0.6051,-0.56869 -0.91146,2.18225 1.51656,-1.61356 m 32.98468,-35.0947 -0.20169,-0.189562 -4.00516,3.453037 4.20685,-3.263475 m -42.67687,44.59856 -1.94419,0.45191 0.79465,0.36699 -1.54078,0.83104 2.69032,-1.64994 m 15.34281,-16.728447 -0.20169,-0.189562 2.46437,-2.622025 -2.26268,2.811587 m -7.2278,6.881837 -0.2017,-0.18957 -0.75827,0.80678 0.95997,-0.61721 m 4.73919,-5.042327 -0.2017,-0.189575 1.70609,-1.815242 -1.50439,2.004817 m -1.71825,1.423967 -0.20168,-0.18956 1.1374,-1.210166 -0.93572,1.399726 m -39.14779,38.41883 -0.56873,0.60506 c -5.88197,-4.17728 2.24881,-11.75039 6.05562,-13.68146 1.88466,-0.95603 4.42068,-1.76484 5.86283,0.19224 l -0.18957,0.2017 -1.1859,-0.35488 -0.37914,0.40339 0.0116,0.39125 c 2.1268,0.6255 2.67782,-1.49997 0.81994,-2.48312 -1.57669,-0.83432 -3.80051,0.2555 -5.23301,0.99443 -3.97747,2.05168 -8.37828,6.288 -8.31281,11.10986 0.0154,1.13612 0.35737,2.60761 1.2488,3.39656 0.8922,0.78969 2.14797,0.46488 1.86972,-0.77503 m 17.06111,-18.15244 -1.17378,0.0364 0.79465,0.36701 0.37913,-0.40339 m 0.70976,-2.37181 -0.99633,-0.55658 -0.37913,0.40339 0.0364,1.17377 -1.57715,-0.34275 1.21015,1.1374 1.70611,-1.81523 m -2.29906,1.63781 -0.39127,0.0116 0.39127,-0.0116 m 7.00186,-7.85394 -0.20169,-0.18957 0.75827,-0.80678 -0.55658,0.99635 m -23.16353,23.43285 -0.0128,-0.39126 0.0128,0.39126 m 0.50803,-2.56138 -0.2017,-0.18958 c 1.1389,-2.35801 3.35838,-3.71741 5.52169,-5.06659 l -5.31999,5.25617 m 91.27543,-104.523945 -0.004,-0.130434 c -0.12668,0.06843 -0.14253,0.286385 0.004,0.130434 m -0.51359,0.277003 -0.2017,-0.189562 -0.5687,0.605081 0.7704,-0.415519 m -13.91116,12.376081 -0.20169,-0.189562 1.70609,-1.815255 z"
       id="path5915-6-8" />
    <text
       xml:space="preserve"
       style="font-style:normal;font-variant:normal;font-weight:normal;font-stretch:normal;font-size:67.325px;font-family:'Shock Graffiti';-inkscape-font-specification:'Shock Graffiti';text-align:end;letter-spacing:-0.0168312px;text-anchor:end;fill:#000000;fill-opacity:1;stroke:#000000;stroke-width:0.739514;stroke-dasharray:none;stroke-opacity:1"
       x="28.66794"
       y="-79.896584"
       id="text1585"
       transform="matrix(0,1.0295043,-0.97134125,0,0,0)"><tspan
         sodipodi:role="line"
         x="28.66794"
         y="-79.896584"
         style="font-style:normal;font-variant:normal;font-weight:normal;font-stretch:normal;font-family:'Shock Graffiti';-inkscape-font-specification:'Shock Graffiti';text-align:start;text-anchor:start;stroke-width:0.739514"
         id="tspan1587">take</tspan></text>
    <text
       xml:space="preserve"
       style="font-style:normal;font-variant:normal;font-weight:normal;font-stretch:normal;font-size:67.325px;font-family:'Shock Graffiti';-inkscape-font-specification:'Shock Graffiti';text-align:end;letter-spacing:-0.0168312px;text-anchor:end;fill:#000000;fill-opacity:1;stroke:#000000;stroke-width:0.739514;stroke-dasharray:none;stroke-opacity:1"
       x="14.620301"
       y="-16.595251"
       id="text1585-6"
       transform="matrix(0,1.0295043,-0.97134125,0,0,0)"><tspan
         sodipodi:role="line"
         x="14.620301"
         y="-16.595251"
         style="font-style:normal;font-variant:normal;font-weight:normal;font-stretch:normal;font-family:'Shock Graffiti';-inkscape-font-specification:'Shock Graffiti';text-align:start;text-anchor:start;stroke-width:0.739514"
         id="tspan1587-1">it</tspan></text>
    <text
       xml:space="preserve"
       style="font-style:normal;font-variant:normal;font-weight:normal;font-stretch:normal;font-size:67.325px;font-family:'Shock Graffiti';-inkscape-font-specification:'Shock Graffiti';letter-spacing:-0.0409179px;word-spacing:-0.00340981px;fill:#000000;fill-opacity:1;stroke:none;stroke-width:1.75914;stroke-dasharray:none"
       x="62.968037"
       y="-15.02481"
       id="text10"
       transform="rotate(90)"><tspan
         sodipodi:role="line"
         id="tspan10"
         style="font-size:67.325px;stroke-width:1.75914"
         x="62.968037"
         y="-15.02481">easy</tspan></text>
  </g>
</svg>
