<?xml version="1.0" encoding="UTF-8" standalone="no"?>
<!-- Created with Inkscape (http://www.inkscape.org/) -->

<svg
   width="155mm"
   height="95mm"
   viewBox="0 0 155 95"
   version="1.1"
   id="svg1"
   inkscape:version="1.3.2 (091e20e, 2023-11-25, custom)"
   sodipodi:docname="la-artisti1.svg"
   inkscape:export-filename="limu blues brothers.png"
   inkscape:export-xdpi="96"
   inkscape:export-ydpi="96"
   xmlns:inkscape="http://www.inkscape.org/namespaces/inkscape"
   xmlns:sodipodi="http://sodipodi.sourceforge.net/DTD/sodipodi-0.dtd"
   xmlns:xlink="http://www.w3.org/1999/xlink"
   xmlns="http://www.w3.org/2000/svg"
   xmlns:svg="http://www.w3.org/2000/svg">
  <sodipodi:namedview
     id="namedview1"
     pagecolor="#ffffff"
     bordercolor="#000000"
     borderopacity="0.25"
     inkscape:showpageshadow="2"
     inkscape:pageopacity="0.0"
     inkscape:pagecheckerboard="true"
     inkscape:deskcolor="#d1d1d1"
     inkscape:document-units="mm"
     inkscape:zoom="1.0520974"
     inkscape:cx="300.35242"
     inkscape:cy="123.08746"
     inkscape:window-width="1264"
     inkscape:window-height="681"
     inkscape:window-x="0"
     inkscape:window-y="0"
     inkscape:window-maximized="0"
     inkscape:current-layer="layer1"
     showgrid="false" />
  <defs
     id="defs1">
    <pattern
       patternUnits="userSpaceOnUse"
       width="130"
       height="100"
       patternTransform="translate(230,45) scale(0.3)"
       preserveAspectRatio="xMidYMid"
       style="fill:#000000"
       id="rain-2-0"
       inkscape:label="Rain drops 2"
       inkscape:collect="always"
       inkscape:isstock="true">
      <path
         id="path14-9-7"
         style="fill-rule:nonzero;stroke-width:4.8561;stroke-linecap:square;paint-order:stroke markers fill;stop-color:#000000"
         d="M 40,0 C 33.36247,0 27.49731,3.246995 23.85938,8.224609 L 0,40 H 40 C 51.04568,40 60,31.045679 60,20 60,8.95432 51.04568,0 40,0 Z m 65,0 C 98.36247,0 92.49731,3.246995 88.84766,8.203125 L 65,40 h 40 c 11.04568,0 20,-8.954321 20,-20 C 125,8.95432 116.04568,0 105,0 Z M 0,50 V 90 C 11.04567,90 20,81.04567 20,70 20,58.95433 11.04567,50 0,50 Z m 65,0 c -6.63851,0 -12.50476,3.247697 -16.14258,8.22656 L 25,90 H 65 C 76.04568,90 85,81.04568 85,70 85,58.95432 76.04568,50 65,50 Z m 65,0 c -6.63474,0 -12.5121,3.232969 -16.15039,8.20703 L 90,90 h 40 z"
         sodipodi:nodetypes="sccssssccsssccscsccsssccccc" />
      <path
         style="opacity:1;fill-rule:nonzero;stroke-width:4.8561;stroke-linecap:square;paint-order:stroke markers fill;stop-color:#000000"
         d="m 125,100 h 5"
         id="path15-0" />
    </pattern>
    <pattern
       inkscape:collect="always"
       xlink:href="#rain-2-0"
       preserveAspectRatio="xMidYMid"
       id="pattern1"
       patternTransform="matrix(0.3,0,0,0.3,230,45)" />
    <pattern
       inkscape:collect="always"
       xlink:href="#rain-2-0"
       preserveAspectRatio="xMidYMid"
       id="pattern3"
       patternTransform="matrix(0.3,0,0,0.3,230,45)" />
    <pattern
       patternUnits="userSpaceOnUse"
       width="130"
       height="100"
       patternTransform="translate(230,45) scale(0.3)"
       preserveAspectRatio="xMidYMid"
       style="fill:#000000"
       id="rain-2-1-7"
       inkscape:label="Rain drops 2"
       inkscape:collect="always"
       inkscape:isstock="true">
      <path
         id="path14-9-3-6"
         style="fill-rule:nonzero;stroke-width:4.8561;stroke-linecap:square;paint-order:stroke markers fill;stop-color:#000000"
         d="M 40,0 C 33.36247,0 27.49731,3.246995 23.85938,8.224609 L 0,40 H 40 C 51.04568,40 60,31.045679 60,20 60,8.95432 51.04568,0 40,0 Z m 65,0 C 98.36247,0 92.49731,3.246995 88.84766,8.203125 L 65,40 h 40 c 11.04568,0 20,-8.954321 20,-20 C 125,8.95432 116.04568,0 105,0 Z M 0,50 V 90 C 11.04567,90 20,81.04567 20,70 20,58.95433 11.04567,50 0,50 Z m 65,0 c -6.63851,0 -12.50476,3.247697 -16.14258,8.22656 L 25,90 H 65 C 76.04568,90 85,81.04568 85,70 85,58.95432 76.04568,50 65,50 Z m 65,0 c -6.63474,0 -12.5121,3.232969 -16.15039,8.20703 L 90,90 h 40 z"
         sodipodi:nodetypes="sccssssccsssccscsccsssccccc" />
      <path
         style="opacity:1;fill-rule:nonzero;stroke-width:4.8561;stroke-linecap:square;paint-order:stroke markers fill;stop-color:#000000"
         d="m 125,100 h 5"
         id="path15-0-0" />
    </pattern>
    <pattern
       inkscape:collect="always"
       xlink:href="#rain-2-1-7"
       preserveAspectRatio="xMidYMid"
       id="pattern1-7"
       patternTransform="matrix(0.3,0,0,0.3,230,45)"
       x="0"
       y="0" />
    <pattern
       inkscape:collect="always"
       xlink:href="#rain-2-1-7"
       preserveAspectRatio="xMidYMid"
       id="pattern3-9"
       patternTransform="matrix(0.3,0,0,0.3,230,45)"
       x="0"
       y="0" />
  </defs>
  <g
     inkscape:label="Taso 1"
     inkscape:groupmode="layer"
     id="layer1">
    <rect
       class="fil0 str0"
       x="15.343246"
       y="0.29679501"
       width="125.88759"
       height="61.330952"
       id="rect1"
       style="clip-rule:evenodd;fill:#000000;fill-rule:evenodd;stroke:#000000;stroke-width:0.214415;stroke-miterlimit:22.9256;image-rendering:optimizeQuality;shape-rendering:geometricPrecision;text-rendering:geometricPrecision" />
    <path
       class="fil1 str1"
       d="m 124.98323,27.068966 c 10e-4,0.1681 -0.0691,0.184 -0.2344,0.2577 -0.1099,0.0491 -0.2932,0.0782 -0.3375,-0.0399 -0.0788,-0.2099 0.3854,-0.3153 0.5719,-0.2178 z m -2.5783,-1.6956 c 0,0.2426 0.0632,0.253 0.001,0.4909 -0.018,0.0696 -0.0509,0.1779 -0.0589,0.2356 -0.0132,0.0951 0.003,0.1933 -0.0143,0.2797 -0.0326,0.1657 -0.1695,0.1892 -0.2804,0.3078 -0.1008,0.1077 -0.1444,0.245 -0.3012,0.2869 0,-0.1745 -0.0168,-0.2421 -0.0292,-0.3655 -0.0164,-0.1639 0.0292,-0.203 0.0292,-0.386 0,-0.306 -0.2097,-0.944 -0.0209,-1.1644 0.0689,-0.0803 0.1157,-0.0646 0.2347,-0.092 0.2259,-0.0522 0.2768,-0.1355 0.4724,-0.1811 0.238,0.3555 -0.0327,0.3177 -0.0327,0.5881 z m 6.1427,-2.6031 c -0.0652,-0.1312 0.009,-0.2924 0.0202,-0.4681 0.0141,-0.2279 0.007,-0.326 0.2184,-0.3296 0.1207,0.2555 -0.0182,0.6894 -0.2386,0.7977 z m -8.3972,-0.3245 c -0.3465,-0.1784 -0.1204,-0.5441 0.0938,-0.5082 0.2055,0.0345 0.2148,0.4539 -0.0938,0.5082 z m 5.3259,-2.9861 c 0,-0.3112 0.6005,-0.1174 0.7308,-0.0446 0.1539,0.0858 0.1166,0.1452 0.2995,0.2231 0.839,0.3573 0.6701,0.5132 0.8739,0.6946 0.6026,0.5368 0.2316,0.229 0.4355,0.8713 0.1342,0.4229 0.0637,0.0628 0.0163,0.4482 -0.014,0.1136 0.008,0.2339 -0.0112,0.3481 -0.046,0.2717 -0.123,0.2982 -0.123,0.6939 0,0.119 0.1379,0.1506 0.237,0.1877 0.239,0.0896 0.2885,0.0736 0.5472,0.0736 0,0.2817 0.0196,1.0145 -0.1234,1.1835 -0.2011,0.2376 -0.5398,0.1698 -0.8175,0.0841 -0.4235,-0.1309 -0.3357,-0.1804 -0.7895,-0.0574 -0.1215,0.033 -0.5284,0.0806 -0.6559,0.034 -0.3331,-0.1218 -0.601,-0.2074 -0.8843,0.0922 l -0.0324,0.0329 c -0.007,0.006 -0.0283,0.0237 -0.0359,0.0295 -0.1697,0.1297 -0.174,0.0571 -0.284,0.2715 -0.0727,0.1416 -0.0709,0.1719 -0.171,0.221 -0.3088,0.1516 -0.5114,0.1857 -0.7875,-0.022 -0.2309,-0.1737 -0.2057,-0.7332 0.0634,-0.9961 0.237,-0.2314 0.4384,-0.52 0.5897,-0.6192 0.0708,-0.0464 0.2053,-0.1163 0.2554,-0.1694 0.2818,-0.2992 0.2424,-0.9918 0.0571,-1.3698 -0.0946,-0.1929 -0.107,-0.2435 -0.0294,-0.4647 0.0316,-0.0898 -0.0208,-0.2239 0.3588,-0.0934 0.1228,0.0421 0.1087,0.0514 0.1914,0.1353 0.2761,0.2793 0.1581,0.2574 0.3366,0.4802 0.2182,0.2724 -0.1126,0.557 0.335,0.7432 0.0732,0.0305 -0.0705,0.0272 0.0708,0.0272 0.2243,0 0.3131,0.0408 0.4213,-0.2649 0.1634,-0.4612 0.086,-0.4148 0.0222,-0.7339 -0.0745,-0.3727 -0.106,-0.6467 -0.2738,-1.0658 -0.1033,-0.2582 -0.3591,-0.3981 -0.5192,-0.5917 -0.1919,-0.2323 -0.3039,-0.2379 -0.3039,-0.3822 z m -6.7548,-1.3506 c -0.024,0.1184 -0.0285,0.1246 -0.153,0.1458 l -0.0174,-0.185 z m -0.2113,-0.4847 c -0.1453,0.005 -0.0469,0.0255 -0.1412,-0.0413 -0.1995,-0.1411 -0.1162,-0.2577 -0.0832,-0.3466 0.0877,-0.236 -0.0177,-0.434 0.1229,-0.5401 0.0548,0.0888 0.1293,0.8062 0.1015,0.928 z m -3.1415,-4.9717 c -0.2777,0.0398 -0.2883,-0.2288 -0.2464,-0.4484 0.1503,0.046 0.2833,0.2805 0.2464,0.4484 z m -11.5554,-6.5886001 c -0.0904,0 -0.1579,-0.1063 -0.196,-0.1633 0.043,-0.1847 0.1942,-0.3842 0.2647,-0.5848 0.0504,-0.1436 0.0362,-0.1629 0.1807,-0.2439 0.2741,-0.1537 0.6981,-0.2154 0.6981,0.1426 0,0.3457 -0.0578,0.3389 -0.4712,0.4763 -0.3282,0.1091 -0.2896,0.3731 -0.4763,0.3731 z m -3.2347,-2.4504 c 0,0.2546 0.4692,0.4872 -0.008,0.6459 -0.1204,0.04 -0.0509,-0.016 -0.149,0.0797 l -0.0834,0.1126 c -0.064,0.1187 -0.0658,0.2688 -0.1097,0.3804 -0.0822,0.2091 -0.1731,0.1455 -0.1731,0.4151 0,0.182 0.1548,0.3026 0.1961,0.4574 -0.1322,0.1975 -0.264004,0.1631 -0.469904,0.2815 -0.1488,0.0856 -0.2412,0.3213 -0.2796,0.5046 -0.0726,0.3464 -0.0328,0.2489 -0.273403,0.4781 -0.1605,0.1528 -0.1296,0.3558 -0.1861,0.5981 -0.2902,0.0676 -0.4078,-0.1086 -0.5945,0.2549 -0.1088,0.2117 -0.4246,0.8791 -0.6143,0.9867 -0.0729,0.0415 -0.163104,0.0453 -0.234604,0.0922 -0.0981,0.0643 -0.1571,0.2524 -0.2622,0.3586 -0.1821,0.1838 -0.3148,0.095 -0.4565,0.1969 -0.106,0.0762 -0.1502,0.2914 -0.2372,0.3836 -0.1305,0.1382 -0.3453,0.03 -0.3453,0.3082001 0,0.2522 0.0806,0.1558 -0.0627,0.3945 -0.2492,0.4149 -0.1547,0.4539 -0.1348,0.9139 0.005,0.1132 -0.017,0.1472 0.0274,0.2339 0.1202,0.2349 0.3475,0.0541 0.6275,0.0586 0.7236,0.0117 0.3928,-0.4395 0.6208,-0.9148 0.1636,0.0178 0.037,-0.0251 0.1567,0.1047 0.0686,0.0743 0.0777,0.0793 0.1678,0.1263 0.170804,0.0892 0.243304,0.063 0.492504,0.063 0.0205,0.2478 0.2362,0.2832 0.3924,0.3917 0.1567,0.1086 0.0628,0.2599 0.261,0.5558 0.2732,0 0.4731,-0.0304 0.672103,0.0467 0.139,0.0538 0.2667,0.0512 0.4061,0.0187 0.0926,-0.193 0.0372,-0.3887 0.0327,-0.5882 0.336904,-0.2255 0.563304,-0.1408 0.555804,-0.7183 -0.006,-0.4797 0.0944,-0.5999 0.48,-0.827 0.2633,-0.1552001 0.446,-0.6175001 0.7707,-0.2938001 0.2312,0.2305 0.3737,0.2282 0.6854,0.2963001 0.2461,0.0537 0.3262,0.0456 0.3499,-0.2223001 0.015,-0.1692 0.0175,-0.1514 0.1316,-0.2278 0.2713,0.0632 0.1893,0.2326 0.3811,0.305 0.1017,0.0384 0.1862,0.0153 0.302,0.0575 0.0922,0.0336 0.1464,0.0949 0.2644,0.0949 0.2462,0 -0.003,-0.3921008 0.3595,-0.3921008 0.1551,0 0.2469,0.3038 0.3922,0.3919008 0.149,0.0903 0.3919,0.1587 0.3919,0.3922 0,0.1111 -0.2762,0.3594 0.0654,0.3594 0.2287,0 0.0666,-0.365 0.3921,-0.392 0.0787,0.1176 0.042,0.2311 0.0826,0.3748 0.0214,0.0758 0.0481,0.047 0.0481,0.148 0,0.1297 -0.1629,0.1 -0.2941,0.1306 0.006,0.2712 0.1276,0.1815 0.2941,0.2613 -0.1602,0.2393 -0.4593,0.2063 -0.1279,0.5527 0.3712,0.3879 0.3881,0.2578 0.8784,0.2305 0.2672,-0.0148 0.4182,-0.0747 0.5565,0.1318 -0.0349,0.1303 -0.0981,0.1378 -0.0981,0.294 0,0.1379 0.0811,0.0247 0.0981,0.2287 -0.3005,0 -0.2929,-0.3594 -0.6209,-0.3594 -0.5983,0 -0.2915,-0.002 -0.7074,0.2074 -0.1518,0.0764 -0.218,0.152 -0.4362,0.152 -0.0901,-0.387 -0.3993,-0.3594 -0.7515,-0.3594 -0.3302,0 -0.3118,0.3587 -0.5689,0.4438 -0.2338,0.0774 -0.5036,0.1563 -0.5795,0.4377 -0.105,0.3889 0.3892,0.2148 0.5909,0.362 0.2466,0.1798 -0.1364,0.5861 0.6228,0.5861 0.3673,0 0.3093,-0.2336 0.6577,0.1919 0.3413,0.417 0.415,0.1009 1.29,0.2783 0.1531,0.0311 0.4335,0.1663 0.7443,0.236 0.416,0.0931 0.4119,0.1841 0.7208,0.2593 0.0967,0.0236 0.1065,0.0198 0.182,0.0467 0.3148,0.1125 0.3634,0.0987 0.6856,0.0987 0.2199,0 0.3522,0.2966 0.5253,0.3895 0.3017,0.162 0.1608,0.1817 0.1608,0.7213 -0.5097,0.0424 -0.3194,0.4211 -0.8498,0.4245 -0.229,10e-4 -0.209,0.008 -0.3343,0.1231 -0.2215,0.2039 -0.1948,-0.0382 -0.5246,0.3576 -0.2262,0.2714 -0.2178,0.1391 -0.317,0.5651 -0.2782,-0.006 -0.1903,-0.2585 -0.5016,-0.3807 -0.1282,-0.0502 -0.0893,-0.0524 -0.1985,-0.0987 -0.1952,-0.0828 -0.6396,0.181 -0.6396,0.5774 0,0.2425 0.1634,0.3973 0.1634,0.5554 0,0.1866 -0.2287,0.3089 -0.2287,0.6535 0,0.4869 0.2445,0.0259 -0.1284,0.6557 -0.1472,0.2486 -0.1441,0.1989 -0.2821,0.5021 -0.0602,0.1322 -0.0389,0.035 -0.0463,0.2167 -0.0185,0.4529 -0.2461,-0.172 -0.6226,0.3561 -0.3352,0.4702 -0.0642,0.5803 -0.0642,0.8178 0,0.1676 -0.4901,0.4583 -0.4901,0.7841 0,0.2995 3e-4,0.5656 0.0887,0.8589 0.0192,0.0639 0.0783,0.1902 0.0717,0.2558 -0.0166,0.161 -0.296,0.064 -0.4791,0.1676 -0.427,0.2413 -0.0556,0.8105 -0.0419,0.9732 0.0528,0.6299 0.1856,0.345 0.376,0.6368 0.0666,0.1023 0.043,0.1372 0.1079,0.2515 l 0.2458,0.473 c 0.1039,0.2095 0.2474,0.2113 0.3415,0.3447 0.0887,0.1262 0.1339,0.3856 0.1527,0.533 0.0261,0.204 -0.1886,0.2228 0.0132,0.4768 0.1885,0.2372 0.1363,0.2669 0.1363,0.5829 0.1074,0.0719 0.1873,0.0658 0.2289,0.196 0.0336,0.1052 0.0527,0.3092 0.0378,0.3678 -0.0423,0.1664 -0.135,0.138 -0.1535,0.2935 -10e-4,0.0115 0.0446,0.3033 0.0595,0.375 0.0211,0.1011 0.0866,0.2152 0.1181,0.3393 0.0596,0.2351 0.2802,0.4406 0.2306,0.6136 -0.0794,0.2768 -0.1422,0.3617 -0.0138,0.6399 0.1312,0.2846 0.0528,0.5914 0.1493,0.8635 0.0885,0.2496 0.26,0.398 0.4016,0.6113 0.0569,0.0857 0.1024,0.1371 0.1505,0.2089 -0.0587,0.1108 -0.0566,0.0793 -0.1308,0.1633 -0.1622,0.1834 -0.0522,0.3139 0.0214,0.5342 0.045,0.1345 0.0555,0.2672 0.0991,0.3911 0.0551,0.1566 0.1255,0.1501 0.1922,0.2659 0.0821,0.1425 0.0142,0.2396 0.0142,0.4098 0,0.1293 0.1899,0.2912 0.2286,0.4574 -0.1701,0.2321 -0.3594,0.0994 -0.3594,0.4574 0,0.1914 0.1011,0.2589 0.098,0.7188 -0.003,0.4207 0.1307,0.5835 0.1307,0.7188 0,0.1157 -0.0653,0.211 -0.0653,0.3267 0,0.1194 0.0356,0.1371 0.0202,0.2485 -0.0152,0.1089 -0.0528,0.154 -0.0528,0.2742 0,0.2012 0.196,0.3023 0.196,0.7189 0,0.0748 -0.1012,0.1578 -0.1365,0.2555 -0.0746,0.2062 -0.0712,0.9777 -0.1289,1.1127 -7e-4,0.002 -0.0222,0.0437 -0.032,0.0661 -0.0765,0.1773 -0.0788,0.4426 -0.1182,0.6005 -0.0374,0.1497 -0.0573,0.1847 -0.0959,0.3304 -0.0605,0.2287 -0.0113,0.3774 -0.0113,0.6079 0,0.2841 -0.2614,0.4581 -0.2614,0.8495 0,0.3556 0.1405,0.2198 -0.1057,0.4824 -0.1882,0.2007 -0.2782,0.5365 -0.1557,0.7918 l -0.2957,0.1944 c -0.1944,0.1416 -0.1968,0.4312 -0.4084,0.5719 -0.154,0.1023 -0.2434,0.128 -0.2434,0.3445 0,0.197 0.2516,0.4695 0.1633,0.6534 -0.2393,0.1149 -0.2548,-0.2336 -0.5881,-0.2613 -0.3406,0.3231 0.0653,0.5539 0.0653,0.6861 0,0.5385 -0.1306,0.336 -0.1306,0.5881 0,0.1312 0.1633,0.1365 0.1633,0.2941 0,0.1087 -0.1437,0.1862 -0.2273,0.1823 -0.0451,-0.002 -0.2187,-0.0915 -0.3281,-0.1169 -0.5751,0.3849 0.4492,0.8108 0.5342,0.8711 0.0753,0.0533 0.2037,0.2396 0.0212,0.2396 -0.3414,0 -0.3406,-0.4168 -0.5949,-0.1374 -0.0415,0.0457 -0.1074,0.141 -0.1239,0.2028 l -0.1454,-0.3447 c -0.0405,-0.1349 -0.4236,-0.6502 -0.6388,-0.6681 -0.1606,0.2398 0.006,0.5131 -0.24,0.7075 -0.1948,0.1542 -0.3578,0.0555 -0.5653,-3e-4 -0.0996,-0.0268 -0.1266,-0.015 -0.2076,-0.0538 0.0699,-0.0954 0.1218,-0.0772 0.2222,-0.1698 0.1483,-0.137 0.1924,-0.3087 0.3716,-0.4127 0.4823,-0.2799 -0.0219,-0.4947 0.3211,-0.7244 0.0937,0.0687 0.0588,0.0636 0.1197,0.1743 0.1582,0.2869 0.4546,0.1299 0.4952,-0.1171 0.009,-0.0579 -0.0144,-0.2261 -0.0286,-0.2838 -0.0825,-0.3344 -0.3557,-0.0876 -0.5537,-0.0347 -0.2162,-0.3228 -0.4365,-0.2656 -0.6487,0.005 -0.4374,0.5569 -0.2558,0.004 -0.5455,0.9902 -0.0344,0.1173 -0.0582,0.1527 -0.08,0.2467 -0.2099,0 -0.3023,-0.0383 -0.4202,0.0699 -0.3015,0.2771 -0.0967,0.5407 0.05,0.8556 0.0521,0.1117 0.1603,0.4794 0.2721,0.4794 0.2096,0 0.4169,-0.2747 0.5733,-0.0178 l 0.0889,0.1725 c 0.2013,0.3528 0.4559,0.1797 0.7727,0.2397 0.1719,0.0326 0.0992,0.161 0.3949,0.161 0.1499,0 0.2369,-0.0297 0.2891,-0.1386 0.0649,-0.1352 -0.0712,-0.2652 0.0203,-0.5321 0.0476,-0.1388 0.0113,-0.0722 0.0827,-0.1788 0.2377,0.0635 0.099,0.3268 0.5881,0.3268 0.1127,0 0.2768,-0.1971 0.341,-0.2798 0.0571,-0.0733 0.0975,-0.1058 0.1433,-0.1835 0.0443,-0.0753 0.0638,-0.1472 0.1039,-0.2228 0.2854,0.0237 0.2157,0.2574 0.2699,0.5142 0.0478,0.2268 0.5426,0.7606 0.7798,0.7884 0.2168,0.0254 0.1394,-0.008 0.3119,0.0802 0.485,0.2483 0.4968,-0.0704 0.8676,-0.1992 0.231,-0.0802 0.3554,-0.2213 0.6227,-0.1825 0.305,0.0442 0.2505,0.0983 0.4154,0.1424 -0.0138,-0.1657 -0.0979,-0.1373 -0.0979,-0.2614 0,-0.2257 0.1462,-0.3267 0.3267,-0.3267 0.1288,0 0.003,0.024 0.1404,0.0557 0.0699,0.0161 0.146,0.01 0.219,0.01 0.0632,0.2711 0.1176,0.294 0.3594,0.294 0.0973,0 0.1114,-0.0236 0.1471,-0.0488 0.006,-0.004 0.0126,-0.0107 0.0178,-0.0149 l 0.698,-0.3476 c 0.1822,-0.0748 0.3205,-0.0621 0.4532,-0.2003 0.1232,-0.1281 0.1937,-0.2203 0.3503,-0.3031 0.2997,0.2605 0.2507,0.4205 0.7433,0.2187 0.2689,-0.1101 0.4482,0.1011 0.6448,-0.2357 0.0935,-0.1602 0.2486,-0.2118 0.4417,-0.2118 0.151,0 0.1358,0.1105 0.1633,0.2288 0.1984,-0.004 0.1008,-0.0266 0.2523,-0.1073 0.3035,-0.1616 0.5435,-0.0701 0.7279,0.2053 -0.037,0.1589 -0.196,0.3185 -0.196,0.4247 0,0.2368 0.1574,0.2236 0.1115,0.6364 -0.0104,0.0941 0.009,0.1427 0.002,0.2058 -0.0141,0.1295 -0.134,0.1937 -0.2071,0.3062 -0.0781,0.1202 -0.0905,0.2737 -0.1618,0.3609 -0.0638,0.0781 -0.2241,0.1439 -0.3058,0.217 -0.0876,0.0784 -0.1304,0.2009 -0.2243,0.2657 -0.2858,0.197 -0.3948,0.2093 -0.3907,0.6549 0.003,0.3632 -0.2543,0.751 0.1629,0.751 0.1067,0 0.4559,-0.1682 0.5292,-0.2223 0.1459,-0.1078 0.1967,-0.3149 0.3463,-0.4378 0.0902,-0.074 0.1644,-0.0781 0.2454,-0.1467 0.1408,-0.119 0.0419,-0.1919 0.3093,-0.4749 0.0918,-0.0971 0.0788,-0.1377 0.1612,-0.2309 0.1201,-0.1359 0.3644,-0.1558 0.4566,-0.2948 0.1568,-0.2361 -0.132,-0.2474 0.2439,-0.5403 0.1493,-0.1162 0.2312,-0.2914 0.3752,-0.4089 0.1235,-0.1008 0.3716,-0.2131 0.3716,-0.4126 0,-0.2625 -0.2271,-0.4627 0.163,-0.7518 0.361,-0.2677 0.4759,-0.8816 0.5688,-1.0321 0.1432,-0.2321 0.3046,-0.2533 0.4334,-0.5142 0.0532,-0.1078 0.0577,-0.1096 0.1262,-0.2005 0.1078,-0.1431 0.2683,-0.1359 0.3559,-0.2976 0.0661,-0.1221 0.0296,-0.1373 0.0717,-0.2551 0.053,-0.1487 0.21,-0.1895 0.2653,-0.3881 0.0454,-0.1626 0.0941,-0.2835 0.1995,-0.4213 0.1338,-0.1749 0.166,-0.1787 0.2419,-0.4115 l 0.2171,-0.7631 c 0.032,-0.2869 0.0256,-0.2449 0.1271,-0.4936 0.1028,-0.2514 -0.004,-0.4532 0.1974,-0.7829 0.1376,-0.226 0.1494,-0.4943 0.2437,-0.7364 0.175,-0.4497 0.0101,-0.3903 0.0621,-0.7198 0.0465,-0.2937 0.44,-0.5047 0.453,-1.1175 0.009,-0.4293 -2e-4,-0.4875 0.3746,-0.671 0.2583,-0.1264 0.2166,-0.297 0.2491,-0.535 0.0174,-0.127 0.0612,-0.1655 0.0612,-0.2982 0,-0.1313 -0.0807,-0.1823 -0.0961,-0.3613 -0.0269,-0.3135 -0.1899,-0.4937 -0.1419,-0.7256 0.0652,-0.3141 0.1007,-0.0476 0.1973,-0.7524 0.0257,-0.1881 -0.0439,-0.2886 -0.01,-0.3981 0.082,-0.2639 0.3119,-0.2029 0.3119,-0.7357 0,-0.2206 -0.2287,-0.3406 -0.2287,-0.3922 0,-0.1221 0.0593,-0.176 0.0792,-0.2815 0.0261,-0.1375 -0.0383,-0.1587 -0.1381,-0.2148 -0.0554,-0.0311 -0.0539,-0.0171 -0.1154,-0.0809 -0.0991,-0.1027 -0.103,-0.353 -0.1108,-0.4771 -0.0161,-0.2561 0.1947,-0.2473 0.2708,-0.4955 0.2805,-0.9151 -0.0745,-0.8729 -0.0657,-1.0911 0.009,-0.2205 0.2433,-0.2345 0.2433,-0.4629 0,-0.0981 -0.1307,-0.1632 -0.1307,-0.2614 0,-0.1705 0.2941,-0.0754 0.2941,-0.2941 0,-0.4531 -0.1535,-0.2033 0.0319,-0.7848 0.0449,-0.141 0.0816,-0.2172 0.2026,-0.2876 l 0.3234,-0.1667 c 0.1586,-0.0576 0.2625,-0.0193 0.4502,-0.0399 0.4533,-0.0496 0.663,0.0746 0.8208,-0.094 0.2803,-0.2996 -0.0629,-1.012 0.2296,-1.012 0.1427,0 0.1186,0.0654 0.2614,0.0654 0.3968,0 1.0685,-0.0834 1.3874,0.0502 0.2356,0.0987 0.4757,0.1043 0.7375,0.1122 0.408,0.0121 0.2542,0.0621 0.7088,-0.0733 0.344,-0.1026 0.4899,-0.1032 0.7278,-0.4159 0.0934,-0.1225 0.1788,-0.1829 0.2618,-0.3263 0.051,-0.0881 0.1019,-0.3172 0.0944,-0.4542 -0.0336,-0.6104 -0.7026,-0.5702 -0.4719,-1.0652 0.1536,-0.3298 0.1841,-0.4146 0.4665,-0.6787 0.115,-0.1075 0.2233,-0.1197 0.3413,-0.2141 0.2492,-0.1989 0.3581,-0.4224 0.5782,-0.002 0.176,0.3363 0.2279,0.3057 0.5204,0.1203 0.3294,-0.2086 0.3177,-0.1783 0.3888,-0.5913 0.0438,-0.2543 0.0211,-0.1724 0.1659,-0.3242 0.1068,-0.1121 0.1045,-0.3008 0.1831,-0.503 0.0312,-0.0805 0.0355,-0.1157 0.0594,-0.202 0.0321,-0.1168 0.1097,-0.2525 0.1224,-0.3703 0.0492,-0.4625 -0.1649,-0.3287 0.1849,-0.8253 0.4033,-0.5729 0.0128,-0.6592 0.0128,-0.902 0,-0.1734 0.1634,-0.2358 0.1634,-0.5228 0,-0.3523 -0.3809,-0.4229 -0.6536,-0.3593 0.0198,-0.2372 0.5065,-0.6368 -0.1539,-1.0223 -0.161,-0.094 -0.1323,-0.1742 -0.2749,-0.2478 -0.3332,-0.172 -0.2315,0.0773 -0.6737,-0.3719 -0.1743,-0.1771 -0.4302,-0.3031 -0.5864,-0.4593 -0.1956,-0.1956 -0.2323,-0.4155 -0.5984,-0.447 -0.4365,-0.0375 -0.2862,0.0577 -0.5929,-0.1913 -0.3491,-0.2834 0.0478,-0.3061 -0.477,-0.8299 -0.1954,-0.1952 -0.3553,-0.3839 -0.6616,-0.3839 -0.3429,0 -0.5014,0.315 -0.6988,0.4448 -0.1792,0.1178 -0.282,0.0341 -0.5018,0.0863 -0.1819,0.0433 -0.2324,0.253 -0.3351,0.253 -0.1999,0 -0.0922,-0.2184 -0.6083,0.0126 -0.154,0.0689 -0.1652,0.1243 -0.2422,0.2479 -0.0636,0.1022 -0.155,0.1539 -0.277,0.213 -0.1588,0.0767 -0.2775,0.0975 -0.2775,0.2779 0,0.1875 0.1576,0.2335 0.2078,0.3822 0.0399,0.1183 -0.0771,0.2812 -0.0771,0.4674 0,0.2819 0.043,0.3257 -1e-4,0.6206 -0.0285,0.1955 -0.036,0.0818 -0.1236,0.2054 -0.0915,0.1293 -0.012,0.1351 -0.0138,0.2814 -9e-4,0.0626 -0.0341,0.1785 -0.0383,0.28 -0.007,0.1702 0.0299,0.1161 0.0985,0.2273 0.079,0.128 0.003,0.2529 -0.007,0.39 -0.0104,0.1368 0.0305,0.1836 -0.01,0.3843 -0.0537,0.2679 -0.1347,0.4223 -0.1347,0.7148 0,0.3071 0.1221,0.2941 -0.2288,0.2941 -0.1453,0 -0.328,-0.0795 -0.4247,-0.1308 v -0.294 c -0.1905,-0.1276 -0.3408,-0.1244 -0.412,-0.2087 -0.2088,-0.2469 0.0548,-0.4478 -0.2088,-0.8368 -0.4627,-0.683 0,-0.5223 0,-0.8168 0,-0.1171 -0.1291,-0.1104 -0.158,-0.2689 -0.0467,-0.2561 0.1051,-0.1685 -0.0743,-0.7404 -0.0377,-0.1202 -0.1006,-0.2166 -0.1271,-0.3303 -0.1699,0.0142 -0.1418,0.1125 -0.2146,0.2429 -0.0699,0.1253 -0.1131,0.1592 -0.1481,0.3114 l -0.0295,0.818 c -0.113,0.0598 -0.3267,0.171 -0.3267,-0.0327 0,-0.2386 0.2582,-0.1839 0.1177,-0.8365 -0.0367,-0.1707 -0.0492,-0.209 -0.2484,-0.209 -0.002,0.0272 -0.0335,0.2881 -0.0415,0.3178 -0.0577,0.2125 -0.8167,0.419 -0.3981,1.0366 0.0892,0.1316 0.2006,0.1486 0.3416,0.1486 0,0.2022 -0.0608,0.3905 -0.1307,0.5227 -0.1166,-0.0854 -0.1301,-0.2705 -0.275,-0.3459 l -0.2151,-0.0789 c -0.0269,-0.3228 0.0654,-0.2938 0.0654,-0.4901 0,-0.3671 -0.1688,-0.1671 0.0559,-0.7609 0.0604,-0.1599 0.145,-0.2215 0.1836,-0.4044 0.056,-0.265 0.0334,-0.7754 0.1525,-1.0237 0.179,0.0478 0.1095,0.16 0.1377,0.3523 0.0314,0.2134 0.3348,0.3923 0.431,0.1165 0.0351,-0.1007 -0.0276,-0.1645 -0.0366,-0.2465 -0.022,-0.2004 0.1784,-0.5615 0.003,-0.7904 -0.1463,-0.1908 -0.2989,-0.0824 -0.3824,0.0999 -0.0514,0.1125 -0.0398,0.1621 -0.1853,0.1742 -0.0422,-0.1582 -0.1307,-0.1093 -0.1307,-0.2287 0,-0.1555 0.2617,-0.2546 0.116,-0.9001 -0.0858,-0.3802 -0.0234,-0.9622 -0.41,-0.9622 -0.0813,0 -0.1229,0.0817 -0.1961,0.1306 -0.1384,-0.0926 -0.2182,-0.2253 -0.3505,-0.3356 -0.1753,-0.1462 -0.3419,-0.0668 -0.4663,-0.2524 0.1255,0 0.8112,0.146 0.7295,-0.3678 -0.0322,-0.2027 -0.0871,-0.3004 -0.1075,-0.5157 -0.0296,-0.3119 -0.1384,-0.1711 -0.1973,-0.4234 0.2869,-0.4285 0.2614,-0.175 0.2614,-0.8168 0,-0.4114 -0.2532,-0.6472 -0.5555,-0.8495 0.0568,-0.2433 0.1962,-0.2935 0.1962,-0.5555 0,-0.1672 -0.2183,-0.4839 -0.3248,-0.5574 -0.1164,-0.0803 -0.2089,-0.0715 -0.3165,-0.1409 -0.1102,-0.0709 -0.1111,-0.1553 -0.2157,-0.2417 -0.1589,-0.1308 -0.5886,-0.1512 -0.6706,-0.2442 -0.1495,-0.1695 0.0893,-0.5147 -0.5309,-0.5147 -0.1078,0 -0.2159,0.1732 -0.2467,0.2761 l -0.0877,0.4677 c -0.0331,0.1613 -0.125,0.1353 -0.2036,0.3192 -0.0321,0.0751 -0.0414,0.1168 -0.0716,0.1898 -0.0425,0.1029 -0.0353,0.1237 -0.142,0.1521 0,-0.2643 0.0439,-0.577 -0.0135,-0.8358 -0.1348,-0.6079 0.0789,-0.5046 0.0789,-0.7325 0,-0.1696 -0.541,-0.7729008 -0.6921,-0.8434008 -0.2438,-0.1137 -0.2042,-0.2282 -0.512,-0.4683 -0.2521,-0.1967 -0.4395,-0.346 -0.7256,-0.5161 -0.4716,-0.2801 -0.2739,-0.3939 -0.8803,-0.3939 -0.0295,-0.127 -0.0956,-0.2023 -0.1925,-0.2648 -0.0972,-0.0628 -0.1669,-0.1075 -0.2385,-0.219 -0.2032,-0.3164 -0.321,-0.1204 -0.5585,-0.3563 -0.2794,-0.2777 -0.6879,-0.6188 -1.0499,-0.7798 -0.662,-0.2946 -0.6572,-0.3402 -1.1618,-0.6679 -0.2305,-0.1497 -0.3635,-0.0953 -0.6165,-0.2985 -0.0717,-0.0575 -0.2055,-0.1295 -0.2988,-0.1585 -0.111,-0.0344 -0.2641,-0.0401 -0.3705,-0.087 -0.1227,-0.0541 -0.14,-0.146 -0.2249,-0.2326 l -0.882,-0.4902 c -0.1247,-0.0395 -0.2504,-0.0631 -0.3578,-0.0996 -0.1601,-0.0543 -0.1298,-0.0948 -0.3137,-0.1438 -0.1007,-0.0268 -0.2599,-0.045 -0.3619,-0.0955 -0.2971,-0.1472 -0.5915,-0.3618 -0.9437,-0.4286 -0.5488,-0.1042 -0.3055,-0.1839 -0.6289,-0.2859 -0.2225,-0.0703 -0.5737,-0.0425 -0.792,-0.1228 -0.2335,-0.0861 -0.2494,-0.3333 -0.6143,-0.3333 -0.1795,0 -0.2565,0.0418 -0.3911,0.0337 -0.1247,-0.007 -0.4644,-0.244 -0.8039,0.0455 -0.1783,0.152 -0.1848,0.482 -0.4812,0.2582 -0.3282,-0.2479 -0.5129,-0.0702 -0.5129,0.1526 z M 94.641919,23.710566 c -0.1826,-0.006 -0.2736,-0.1035 -0.3827,-0.1862 -0.355,-0.2692 0.009,-0.6384 0.2,-0.3984 0.1883,0.2368 0.4807,0.2078 0.1827,0.5846 z m 1.7217,-1.1144 0.3369,0.0246 c 0.1775,0.0179 0.1127,-0.0283 0.2716,-0.0126 0.2132,0.021 0.3164,0.1252 0.4732,0.1806 0.209,0.0739 0.284,0.0187 0.447004,0.1738 0.1425,0.1355 0.4794,0.3894 0.1914,0.5042 -0.2111,0.084 -0.2431,5e-4 -0.449304,0.0416 -0.1846,0.0369 -0.1097,0.0318 -0.2616,-0.0257 -0.0962,-0.0364 -0.1803,-0.034 -0.2667,-0.0158 -0.2799,0.0592 -0.4174,0.2355 -0.7425,-0.2499 -0.7943,0 -1.1626,-0.3998 -0.8213,-0.4593 0.1039,-0.0182 0.1834,-0.0204 0.2965,-0.0328 0.1036,-0.0113 0.1898,-0.0333 0.2706,-0.0561 0.1122,-0.0316 0.1567,-0.0726 0.2542,-0.0726 z m -2.4179,-14.6697001 c 0,0.214 0.0703,0.2064 -0.0123,0.4116 -0.0974,0.2422 -0.109,0.5292 -0.2625,0.7512 -0.1345,0.1943 -0.2154,0.1953 -0.2154,0.4381 0,0.0953 0.1386,0.1933 0.1752,0.2838 0.0689,0.1703 -0.0276,0.2292001 -0.0101,0.3985001 0.0153,0.1491 0.1057,0.2027 0.1604,0.2992 0.2432,0.4284 -0.0922,1.2376 0.3668,1.4957 0.2198,0.1236 0.1246,0.2424 0.1246,0.4633 0,0.1786 0.0605,0.2005 -0.008,0.3493 -0.2116,0.4607 -0.1315,0.3533 0.0671,0.7677 l 0.4167,0.6615 c 0.0452,0.0661 0.039,0.0548 0.0862,0.1097 l 0.0619,0.069 c 0.005,0.005 0.0115,0.0116 0.0163,0.0163 l 0.222,0.2682 c 0.0456,0.1406 5e-4,0.2187 0.0932,0.3315 0.0825,0.1005 0.1273,0.0644 0.2208,0.2039 -0.0519,0.1945 -0.1736,0.1101 -0.1958,0.3269 -0.067,0.6522 -0.1124,0.387 -0.5424,0.536 -0.1227,0.0425 -0.2584,0.1362 -0.2946,0.2607 -0.1204,0.4137 0.1657,0.3172 -0.2532,0.825 -0.0816,0.0989 -0.0625,0.0327 -0.0931,0.1705 -0.023,0.1034 -0.0152,0.1153 0.006,0.2325 0.0755,0.4194 -0.0645,0.2742 -0.0645,0.4909 0,0.2542 0.266,0.5982 -0.3274,0.7835 -0.3292,0.1028 -0.3456,0.3854 -0.4843,0.6265 -0.0518,0.0901 0.0339,0.0193 -0.1008,0.0952 -0.3868,0.218 -0.2327,0.1088 -0.474,0.5062 -0.1746,0.2872 -0.1333,0.2537 -0.195,0.5565 -0.0283,0.1389 -0.1113,0.2633 -0.1756,0.3798 -0.025,0.0454 -0.0438,0.0861 -0.068,0.128 -0.2019,0.3507 -0.0733,0.328 -0.1669,0.5846 -0.095,0.26 -0.1845,0.7731 0.0205,1.0228 0.3463,0.4218 0.27,0.3541 0.8235,0.6469 0.0929,0.0491 0.1405,0.1443 0.2145,0.2429 0.4063,0.5405 0.2002,0.2088 0.5289,0.4513 0.2701,0.1993 -0.0565,0.1251 0.573,0.3745 0.1252,0.0496 0.2278,0.0876 0.3512,0.1389 0.1733,0.0721 0.1415,0.1188 0.2788,0.2114 0.1455,0.0982 0.1993,0.0561 0.2156,0.2745 0.0129,0.1742 0.027,0.2635 0.1086,0.3813 0.1038,0.1499 0.1568,0.071 0.2748,0.2153 0.0863,0.1054 0.0838,0.2161 0.1974,0.2937 0.132,0.0899 0.2238,0.0255 0.3983,0.0255 0.0173,0.074 0.048,0.154 0.0803,0.2464 0.0995,0.2842 0.3017,0.4003 0.6059,0.407 0,0.1638 -0.0996,0.425 -0.1895,0.4967 -0.0958,0.0763 -0.366,0.141 -0.366,0.3201 0,0.3907 0.4682,0.3435 0.6174,0.3629 0.3045,0.0397 0.5637,0.2962 0.9787,0.3609 l 0.462504,0.0603 c 0.1348,0 0.185,-0.0652 0.3267,-0.0652 0.0893,0 0.1551,0.1926 0.3488,0.2719 0.0781,0.032 0.1495,0.0426 0.2114,0.0827 0.2053,0.1328 0.2869,0.2917 0.566403,0.3811 l 0.623804,0.3891 c 0.005,0.004 0.0129,0.0101 0.0184,0.0142 0.006,0.004 0.0135,0.01 0.0192,0.0135 0.1662,0.1154 0.3329,0.187 0.5232,0.261 0.2319,0.09 0.3537,0.2038 0.6453,0.3022 0.4547,0.1533 0.476,-7e-4 1.0215,0.5468 0.273,0.2738 0.4997,0.3635 0.7027,0.5716 0.1425,0.1464 0.2163,0.1558 0.3578,0.263 l 0.3667,0.5481 c 0.0747,0.217 0.1821,0.4759 0.4435,0.5367 l 0.0364,-0.0288 c 0.1658,-0.1607 0.0943,-0.4734 0.0943,-0.69 0,-0.3725 -0.3148,-0.8865 -0.4737,-1.2253 -0.0885,-0.1887 -0.1458,-0.4632 -0.2379,-0.6116 -0.2847,-0.459 -0.1542,-0.5359 -0.3948,-0.8794 -0.0647,-0.0925 -0.1013,-0.1663 -0.1762,-0.2485 -0.3034,-0.3328 -0.078,-0.43 -0.5602,-0.7156 -0.1341,-0.0794 -0.0938,-0.1142 -0.1085,-0.249 -0.0303,-0.2764 -0.1893,-0.3481 -0.3457,-0.5369 -0.095,-0.1147 -0.2218,-0.1931 -0.2999,-0.3209 -0.1438,-0.2351 -0.4075,-0.3311 -0.4922,-0.586 -0.0962,-0.2893 -0.2039,-0.2679 -0.3357,-0.5138 -0.0758,-0.1413 -0.1848,-0.2149 -0.2919,-0.3288 l -0.156,-0.1708 c -0.1049,-0.1157 -0.16,-0.2791 -0.3009,-0.4505 -0.0334,-0.0407 -0.255,-0.5483 -0.2625,-0.587 -0.087,-0.4517 0.0667,-0.2181 -0.223204,-0.6263 -0.1053,-0.1483 -0.1474,-0.2642 -0.301,-0.3525 l -0.136903,-0.0918 c 0,-0.2372 0.0826,-0.5149 0.137303,-0.7148 0.0457,-0.1674 -0.0156,-0.1594 -0.008,-0.3621 0.0136,-0.3634 0.0728,-0.2709 -0.0449,-0.6738 -0.12,-0.4108 -0.2833,-0.2552 -0.4022,-0.9374 -0.0544,-0.3118 -0.107,-0.5738 -0.107,-0.9058 0.1941,0.0452 0.3144,0.0895 0.4335,0.22 0.100603,0.1103 0.185003,0.2539 0.280003,0.3734 l 0.523501,0.4567 c 0.1994,0.1328 0.5679,0.1227 0.7489,-0.0118 0.3245,-0.2413 0.0721,-0.5716 0.0771,-0.7734 0.007,-0.3074 0.1874,-0.4964 0.0396,-0.8318 -0.1602,-0.3636 -0.2058,-0.1707 -0.2058,-0.7417 -1e-4,-0.1726 -0.0349,-0.2683 -0.12,-0.4028 l -0.1891,-0.2356 c -0.0288,-0.0399 -0.0391,-0.054 -0.0705,-0.0928 -0.1112,-0.1376 -0.1206,-0.4086 -0.1764,-0.6078 -0.0449,-0.1601 -0.1539,-0.2733 -0.1596,-0.4582 -0.006,-0.1839 0.085,-0.3074 0.108,-0.5045 0.01,-0.0839 -0.006,-0.1664 -0.052,-0.2397 -0.0577,-0.0922 -0.1489,-0.136 -0.257001,-0.136 -0.3141,0 -0.2388,0.1113 -0.466203,-0.1219 -0.0811,-0.0833 -0.2853,-0.2397 -0.2853,-0.3682 0,-0.2239 0.294003,-0.2868 0.294003,-0.5227 0,-0.1524 -0.085,-0.2346 -0.0977,-0.4251 -0.0249,-0.3744 -0.3355,-0.3761 -0.6054,-0.44 -0.409,-0.097 -0.2797,-0.1544 -0.7123,-0.0276 -0.116,0.0341 -0.2235,0.0425 -0.3209,0.0712 -0.337604,0.0994 -0.328104,0.0373 -0.681504,0.0373 -0.2292,0 -0.1932,0.071 -0.4203,-0.1025 -0.4339,-0.3312 -1.0828,-0.1067 -1.0828,-0.6816 l 0.1158,-0.0804 c 0.0165,-0.019 0.0613,-0.1042 0.0676,-0.1283 0.0335,-0.1269 0.008,-0.2792 0.0117,-0.4131 0.0139,-0.4826 0.0862,-0.5515 -0.2528,-0.9213 -0.0894,-0.0976 -0.4323,-0.7115 -0.4323,-0.8419 0,-0.3487 0.176,-0.2277 -0.0718,-0.5817 -0.0832,-0.1191001 -0.061,-0.1792001 -0.0594,-0.3653001 0.001,-0.1414 0.003,-0.2857 0.002,-0.4268 -0.002,-0.2191 -0.0669,-0.253 -0.0669,-0.3905 0,-0.4355 0.2741,-0.3702 0.1457,-1.0278 -0.0417,-0.2132 -7e-4,-0.1297 -0.1061,-0.286 -0.0993,-0.1471 -0.1382,-0.4179 -0.3663,-0.4179 -0.17,0 -0.3347,0.1615 -0.4116,0.2746 -0.0496,0.0732 -0.2092,0.4201 -0.2092,0.5096 z m 5.750707,34.5017001 c 0,0.0829 0.1188,0.2067 0.188,0.2368 0.1071,0.0465 0.295504,0.0246 0.432804,0.0246 0.0687,0.1027 0.0833,0.127 0.1351,0.2568 l 0.3945,0.7818 c 0.1875,0.1531 0.4246,0.1233 0.6003,0.0907 0.4142,-0.0771 0.2945,0.4893 0.9145,0.0328 0.1979,-0.1456 0.3035,-0.1715 0.5025,-0.2816 0.5131,-0.2841 0.2123,-0.2231 0.8609,-0.74 0.0843,-0.0671 0.0793,-0.0672 0.1468,-0.1474 0.0967,-0.1146 0.1337,-0.1702 0.2436,-0.2791 l 0.547,-0.5312 c 0.0854,-0.1373 0.0842,-0.2282 0.1952,-0.3602 l 0.1244,-0.137 c 0.0714,-0.0783 0.0574,-0.061 0.1068,-0.1547 0.137,-0.2597 0.0528,-0.1553 0.1003,-0.4551 0.0229,-0.1445 0.1533,-0.2133 0.184,-0.3388 0.0157,-0.0641 -0.006,-0.1789 0.0598,-0.4955 0.0765,-0.3662 0.0141,-0.6225 0.0141,-1.0315 0,-0.203 0.0463,-0.3983 0.0289,-0.5496 -0.0305,-0.2662 0.004,-0.2747 0.004,-0.5286 0,-0.2769 -0.1504,-0.3807 -0.2098,-0.607 l -0.0847,-0.7647 c 0.004,-0.7037 -0.016,-0.4463 -0.1157,-0.9298 -0.0162,-0.078 -0.01,-0.1255 -0.0286,-0.2002 -0.027,-0.1077 -0.0955,-0.21 -0.2147,-0.21 -0.2171,0 -0.1899,0.3182 -0.2351,0.5163 -0.0284,0.1242 -0.0187,0.1882 -0.0793,0.3128 -0.2127,0.4376 -0.0901,0.3627 -0.2018,0.5824 l -0.1177,0.2743 c -0.0473,0.1218 -0.0915,0.1556 -0.1486,0.2435 l -0.2117,0.3438 c -0.0849,0.1028 -0.186,0.1991 -0.2532,0.3348 -0.1343,0.2714 0.0528,0.3976 -0.2755,0.5087 -0.2386,0.0808 -0.3043,0.1635 -0.3806,0.4035 -0.1045,0.3283 -0.1396,0.5542 -0.3588,0.7848 -0.39,0.4101 -0.12,0.3516 -0.5477,0.6285 -0.257,0.1664 -0.1983,0.1794 -0.3725,0.4117 -0.4264,0.569 -0.919,0.6536 -1.0724,0.8879 -0.2909,0.4439 -0.2677,0.2221 -0.5038,0.4765 l -0.0304,0.035 c -0.111904,0.1248 -0.340704,0.3253 -0.340704,0.574 z m -3.888307,-10.357 c -0.1875,0 -0.2077,0.0109 -0.3991,-0.1891 -0.1907,-0.1992 -0.1496,-0.0404 -0.3524,-0.1376 -0.082,-0.1709 0.014,-0.4923 -0.0552,-0.664 -0.0484,-0.1197 -0.1108,-0.0808 -0.0899,-0.2317 0.0216,-0.1559 0.0471,-0.1339 0.0471,-0.3459 -0.4402,-0.1025 -0.1961,0.3969 -0.1961,0.4574 0,0.2078 -0.2614,0.2487 -0.2614,0.5881 0,0.1874 0.1725,0.2593 0.2614,0.392 -0.3613,0.5396 -0.1434,0.663 -0.0699,1.1481 0.0215,0.1411 0.0246,0.1493 0.051,0.2758 0.0527,0.2526 -0.0403,0.1397 0.1009,0.4219 0.0481,0.0963 0.013,0.0174 0.0484,0.115 0.1096,0.3028 0.1439,0.653 0.3924,0.653 0.2106,0 0.3482,-0.3123 0.4622,-0.5506 0.0514,-0.1075 0.0668,-0.1393 0.1586,-0.2008 0.3097,0.1638 0.1019,0.1866 0.4902,0.392 0,0.2164 0.002,0.323 0.1061,0.4494 0.4373,0.5337 0.5774,0.1168 0.331,-0.3311 -0.1009,-0.1835 -0.2305,-0.1457 -0.2424,-0.3784 -0.0349,-0.6839 -0.3254,-0.4605 -0.3254,-0.9161 0,-0.1575 0.2614,-0.3145 0.2614,-0.5227 0,-0.1571 -0.1212,-0.2106 -0.1634,-0.3921 0.0745,-0.1016 0.201,-0.1389 0.322,-0.2007 0.1511,-0.0772 0.1776,-0.1429 0.2988,-0.2241 0.1315,0.0881 0.0887,0.118 0.2692,0.1882 0.3995,0.1555 0.752704,0.1635 1.103404,-0.0898 0.0695,-0.0503 0.191,-0.1141 0.2504,-0.1742 0.094,-0.0953 0.0864,-0.1773 0.2394,-0.2182 0.0373,0.0778 0.0459,0.2544 0.0824,0.375 0.1024,0.3387 0.244,0.2857 0.501,0.4792 0.381803,0.2876 0.513403,0.1442 0.769207,-0.0244 0.7593,-0.5006 0.5451,-0.8055 0.8366,-0.8298 0.1543,0.3217 0.0593,0.4594 0.1409,0.5779 0.0436,0.0635 0.3647,0.2389 0.5452,0.2389 0.3068,0 0.6228,-0.1262 0.713,-0.3978 0.0982,-0.2953 0.0712,-0.4083 0.0712,-0.7131 0,-0.0771 -0.397,-0.5553 -0.7188,-0.5553 -0.1639,0 -0.2536,0.0301 -0.4057,0.0517 -0.0694,0.01 -0.1402,0.0101 -0.2057,0.0231 -0.1983,0.0389 -0.1623,0.1647 -0.3828,-0.1263 -0.1758,-0.2323 -0.4888,-0.4078 -0.7689,-0.4073 -0.293304,5e-4 -0.470204,-0.0832 -0.689807,0.0317 -0.1887,0.0987 -0.3192,0.2563 -0.3244,0.4924 h -0.0653 c -0.0409,-0.1528 -0.1826,-0.2103 -0.2207,-0.3675 -0.0545,-0.2252 0.0188,-0.1782 -0.1847,-0.4361 -0.3708,-0.4702 -0.4429,-0.3073 -1.065004,-0.3073 -0.2433,0 -0.2047,-0.2084 -0.4601,-0.2587 -0.3901,-0.0768 -0.9278,-0.3013 -1.2654,0.0363 -0.2598,0.2598 -0.1387,0.5728 -0.1921,0.9188 -0.0288,0.1871 -0.0601,0.3041 -2e-4,0.4695 0.0599,0.1656 0.1152,0.1776 0.1613,0.3618 0.0309,0.1234 0.0341,0.3308 0.1071,0.4483 3e-4,5e-4 0.5181,0.6052 -0.017,0.6052 z m 4.868411,6.1466 c 0.0516,0.1226 0.0228,0.1482 -0.0653,0.195 -0.0856,-0.0918 -0.0853,-0.1777 0.0653,-0.195 z m -0.841104,-0.4183 c 0.1358,-0.0199 0.1311,-0.0245 0.245004,0.0309 0.0482,0.3224 -0.296704,0.1567 -0.245004,-0.0309 z m 1.850204,-2.4582 c -0.0367,-0.1959 0.0494,-0.2305 0.0894,-0.4074 0.0444,-0.1964 -0.007,-0.3321 0.2381,-0.3063 0.1064,0.1416 0.0947,0.2638 -0.0115,0.4344 -0.0836,0.1341 -0.1414,0.2732 -0.316,0.2793 z m -1.695204,0.2258 c 0,0.312 -0.564803,0.2752 -0.588503,0.8817 -0.0117,0.2955 -0.0248,0.3937 -0.0708,0.6496 -0.0571,0.3181 0.0455,0.3417 0.1038,0.5924 -0.6842,0.4582 -0.3773,0.1686 -0.6888,0.2913 -0.3308,0.1304 -0.0261,0.3259 -0.544,0.469 -0.28,0.0773 -0.3355,0.2082 -0.3355,0.4485 0,0.103 0.2067,0.2355 0.2676,0.3205 0.0745,0.1039 0.0955,0.333 0.2552,0.333 0.2173,0 0.1995,-0.0774 0.3778,-0.1147 0.1726,-0.0362 0.4663,0.1381 0.770103,-0.0117 0.1134,-0.0559 0.2611,-0.2577 0.513004,-0.338 0.3378,-0.1078 0.2055,0.1832 0.7501,-0.1633 0.1003,-0.0639 0.5603,-0.1991 0.4856,-0.667 -0.0401,-0.2508 -0.2173,-0.188 -0.2173,-0.3717 0,-0.2961 0.3272,-0.2724 0.4988,-0.4486 0.1452,-0.149 0.02,-0.1668 0.2185,-0.2716 0.2193,-0.1157 0.2302,-0.0669 0.2302,-0.3906 0,-0.1763 -0.1066,-0.181 0.1491,-0.2426 0.0968,-0.0233 0.2076,-0.039 0.2953,-0.1976 0.1218,-0.2202 -0.1309,-0.5104 -0.2156,-0.6706 0.1585,-0.1671 0.224,-0.12 0.3152,-0.2403 0.2034,-0.268 -0.0791,-0.2264 0.1205,-0.6635 0.082,-0.1793 0.0239,-0.2536 0.1199,-0.501 0.1823,-0.4703 -0.0497,-0.3442 -0.2077,-0.6095 -0.0736,-0.1236 -0.1681,-0.3054 -0.3479,-0.3054 -0.1713,0 -0.3151,0.0619 -0.398,0.1576 l -0.2567,0.3313 c -0.2008,0.2591 -0.1625,0.5995 -0.4699,0.6736 -0.2314,0.0557 -0.2808,-0.0384 -0.3986,0.1569 -0.1046,0.1733 -0.002,0.1649 -0.2314,0.3569 -0.2187,0.1832 -0.2177,0.003 -0.4027,0.1173 -0.197604,0.1219 -0.0973,0.2123 -0.0973,0.4281 z m 26.237404,-6.2077 c -0.1827,-0.0153 -0.3988,-0.2763 -0.5895,-0.001 -0.0675,0.0975 -0.0474,0.1926 -0.0967,0.2953 -0.2665,0 -0.8189,-0.1231 -0.9499,0.0966 -0.1113,0.187 -0.0125,0.2316 -0.0123,0.3941 2e-4,0.2442 -0.2519,0.1943 -0.2464,0.7839 0.004,0.4539 -0.1783,0.4334 -0.2964,0.7164 -0.0596,0.1429 -0.0139,0.3007 -0.0384,0.4844 -0.0262,0.1967 -0.0903,0.2325 -0.0903,0.4978 0,0.1752 0.0444,0.108 0.009,0.2686 l -0.1499,0.5083 c -0.0326,0.1299 -0.002,0.1295 0.01,0.2686 0.263,0.0612 0.188,0.0438 0.4683,-0.0873 0.6343,-0.2968 0.4261,-0.2214 0.826,-0.9056 0.1603,-0.2743 -0.069,-0.1259 0.2617,-0.6205 0.302,-0.4517 0.0331,-0.5222 0.0124,-0.7716 0.1744,-0.1168 0.8822,-0.3826 0.8822,-0.7842 0,-0.7185 -0.1634,-0.4888 -0.1634,-0.6861 0,-0.2488 0.3624,0.0745 0.6307,-0.1862 0.2022,-0.1964 0.174,-0.2363 0.2739,-0.3473 0.1886,-0.2095 0.2333,0.037 0.4126,-0.1418 0.1487,-0.1483 0.0394,-0.3702 -0.1082,-0.3702 -0.1473,0 -0.1797,0.0803 -0.2782,0.1139 -0.1245,0.0425 -0.2511,-0.007 -0.3872,0.0375 -0.2479,0.0812 -0.1707,0.2545 -0.3802,0.4367 z m -33.099011,2.8424 c 0,0.3687 0.0521,0.2299 0.114,0.4088 0.0702,0.2032 -0.0621,0.2712 0.0968,0.72 0.065,0.1838 0.1159,0.1372 0.1159,0.3741 0,0.1325 0.009,0.0107 -0.0472,0.0834 -0.006,0.007 -0.0251,0.027 -0.0312,0.0342 -0.009,0.0103 -0.0451,0.0505 -0.0461,0.0519 -0.1245,0.1755 -0.2178,1.5631 0.5607,1.1817 0.167,-0.0819 0.1708,-0.2645 0.2128,-0.4438 0.0661,-0.2816 -0.0935,-0.3273 -0.0935,-0.4826 0,-0.11 0.412,-0.1849 0.1545,-0.8733 -0.1624,-0.4345 0.008,-0.568 -0.3034,-0.8074 -0.2196,-0.1687 -0.2105,-0.1791 -0.2105,-0.345 0.2762,-0.0643 0.502,-0.2552 0.2151,-0.4764 l -0.4765,-0.2424 c -0.2457,0 -0.0625,0.4175 -0.1569,0.6272 -0.0309,0.0688 -0.1045,0.1087 -0.1045,0.1896 z m 13.233111,-15.748 c 0,0.2147 -0.0336,0.319 0.1006,0.4253 0.064,0.0508 0.1042,0.056 0.1666,0.0386 0.1401,-0.0391 0.1911,-0.1483 0.2786,-0.2448 0.1634,-0.1807 0.125,-0.1024 0.4019,-0.1208 0.4156,-0.0277 0.3887,-0.8149 -0.3587,-0.5547 -0.2747,0.0957 -0.589,0.1319 -0.589,0.4564 z m -2.1565,-0.1633 c 0,0.3405 0.2617,0.3891 0.5792,0.3182 0.1392,-0.031 0.5643,-0.2355 0.5643,-0.4162 0,-0.0785 -0.0528,-0.096 -0.0979,-0.1634 -0.4643,0 -1.0456,-0.1527 -1.0456,0.2614 z m -7.809111,22.8705 c 0,0.2088 0.0908,0.7188 0.2613,0.7188 0.1278,0 0.2144,0.01 0.287,-0.1705 0.0873,-0.2162 0.1617,-0.8097 -0.189,-0.8097 -0.177,0 -0.3593,0.0519 -0.3593,0.2614 z m 22.087611,-25.7129 c 0,0.1327 0.002,0.0946 0.0455,0.1832 0.0372,0.0754 0.0338,0.0452 0.0731,0.1556 0.1684,0.4737 0.4369,0.167 0.4369,0.0859 0,-0.2093 -0.004,-0.1182 -0.1083,-0.2837 -0.0418,-0.0664 -0.0659,-0.1204 -0.1079,-0.1867 -0.1292,-0.2034 -0.3393,-0.0883 -0.3393,0.0457 z m 2.2219,5.5215 c 0,0.1585 0.002,0.1014 0.0654,0.1961 0.1292,-0.0108 0.1491,-0.0485 0.2107,-0.1486 0.1979,-0.3216 0.1433,-0.6442 -0.1454,-0.6682 -0.0732,0.1384 -0.1307,0.4096 -0.1307,0.6207 z m 0.0327,1.5356 c 0,0.4549 0.4902,-0.0104 0.4902,-0.1306 0,-0.3736 -0.4902,-0.1689 -0.4902,0.1306 z M 99.794326,3.8097659 c 0,0.1617 0.002,0.1407 0.0654,0.2614 0.371204,-0.0309 0.516704,-0.5228 0.228704,-0.5228 -0.173504,0 -0.294104,0.0843 -0.294104,0.2614 z m 18.461004,8.7561001 c 0,0.4828 0.4574,0.3281 0.4574,0.196 0,-0.3925 -0.4574,-0.4076 -0.4574,-0.196 z m -14.0499,32.182 c 0.1163,0.0616 0.155,0.1169 0.3173,-0.042 0.1247,-0.1222 0.2347,-0.6269 -0.1299,-0.2607 -0.1282,0.1286 -0.1407,0.1025 -0.1874,0.3027 z m 19.3431,-10.7818 c -0.0617,0.2645 -0.0894,0.4575 0.1634,0.4575 0.0868,-0.1642 0.0653,-0.1737 0.0653,-0.3922 l -0.1256,-0.1036 c -0.0561,0.0513 -0.055,0.0331 -0.1031,0.0383 z m -27.184911,4.4434 c 0,0.2527 0.3594,0.1971 0.3594,0 0,-0.0208 -0.0736,-0.0942 -0.0981,-0.1306 -0.1045,0 -0.2613,-0.0231 -0.2613,0.1306 z m 7.188311,-26.9218 c 0,0.3489 0.1993,0.2584 0.3267,0.2287 0,-0.187 -0.021,-0.3474 -0.3267,-0.2287 z m 1.1436,0 c 0,0.0601 0.0835,0.2439 0.2941,0.2614 0.1046,-0.4369 -0.2941,-0.397 -0.2941,-0.2614 z m 13.7884,4.084 v 0.1634 c 0.0706,0.0471 0.0962,0.0748 0.1962,0.098 0.0721,-0.1078 0.0653,-0.0367 0.0653,-0.2287 -0.1264,-0.0846 -0.1189,-0.1181 -0.2615,-0.0327 z m -15.5202,-2.6464 c 0.1405,-0.0117 0.0589,0.005 0.1634,-0.0654 -0.0573,-0.0856 -0.0165,-0.0675 -0.1306,-0.098 -0.0378,0.0787 -0.0328,0.0425 -0.0328,0.1634 z m 1.1763,-2.7118 c 0.0743,0.1404 -0.009,0.0593 0.0981,0.0981 0.0295,-0.0597 0.0252,-0.0409 0.0326,-0.1308 -0.0535,0.005 -0.1016,-10e-5 -0.1307,0.0327 z"
       id="path1-0"
       style="clip-rule:evenodd;fill:#ffffff;fill-rule:evenodd;stroke:#ff0000;stroke-width:0.0762;stroke-miterlimit:22.9256;image-rendering:optimizeQuality;shape-rendering:geometricPrecision;text-rendering:geometricPrecision" />
    <path
       class="fil2 str1"
       d="m 57.608819,32.141166 h -1.3595 v -7.6888 c 0,-0.5615 0.2293,-1.0715 0.5985,-1.4408 0.3693,-0.3693 0.8793,-0.5985 1.4408,-0.5985 h 5.417 c 0.5616,0 1.0716,0.2292 1.4409,0.5985 0.3692,0.3693 0.5984,0.8793 0.5984,1.4408 v 5.6495 c 0,0.5616 -0.2292,1.0715 -0.5984,1.4408 -0.2127,0.2128 -0.4721,0.379 -0.7611,0.4816 v -1.9224 -5.6495 c 0,-0.1862 -0.0767,-0.3561 -0.2001,-0.4796 -0.1236,-0.1235 -0.2935,-0.2002 -0.4797,-0.2002 h -5.417 c -0.1863,0 -0.3561,0.0767 -0.4796,0.2002 -0.1235,0.1235 -0.2002,0.2934 -0.2002,0.4796 v 6.3293 z m -4.0786,-9.7281 h 1.3595 v 7.6888 c 0,0.5616 -0.2292,1.0715 -0.5985,1.4408 -0.3693,0.3693 -0.8792,0.5985 -1.4408,0.5985 h -5.417 c -0.5615,0 -1.0716,-0.2292 -1.4409,-0.5985 -0.3692,-0.3693 -0.5984,-0.8792 -0.5984,-1.4408 v -5.6495 c 0,-0.5615 0.2292,-1.0715 0.5984,-1.4408 0.2128,-0.2127 0.4721,-0.3789 0.7611,-0.4816 v 1.9224 5.6495 c 0,0.1862 0.0767,0.3561 0.2002,0.4797 0.1235,0.1234 0.2934,0.2001 0.4796,0.2001 h 5.417 c 0.1864,0 0.3561,-0.0767 0.4796,-0.2001 0.1235,-0.1236 0.2002,-0.2935 0.2002,-0.4797 v -6.3293 z m -17.6318,9.7281 h -1.3595 v -7.6888 c 0,-0.5615 0.2292,-1.0715 0.5985,-1.4408 0.3693,-0.3693 0.8793,-0.5985 1.4408,-0.5985 h 5.4171 c 0.5615,0 1.0715,0.2292 1.4408,0.5985 0.3693,0.3693 0.5984,0.8793 0.5984,1.4408 v 5.6495 c 0,0.5616 -0.2291,1.0715 -0.5984,1.4408 -0.2126,0.2128 -0.4721,0.379 -0.7611,0.4816 v -1.9224 -5.6495 c 0,-0.1862 -0.0766,-0.3561 -0.2002,-0.4796 -0.1235,-0.1235 -0.2932,-0.2002 -0.4795,-0.2002 h -5.4171 c -0.1862,0 -0.3561,0.0767 -0.4795,0.2002 -0.1236,0.1235 -0.2003,0.2934 -0.2003,0.4796 v 6.3293 z m 45.0435,-2.6104 -2.3653,-4.0966 -0.9575,-1.6583 c -0.3962,-0.7694 -1.3058,-1.3627 -2.3542,-1.3627 l -6.1212,-10e-5 c -0.5614,0 -1.0715,0.2292 -1.4408,0.5985 -0.3693,0.3693 -0.5984,0.8793 -0.5984,1.4408 v 5.4171 c 0,0.5616 0.2291,1.0715 0.5984,1.4408 0.3693,0.3692 0.8794,0.5984 1.4408,0.5984 h 5.6497 c 0.5615,0 1.0714,-0.2292 1.4406,-0.5984 0.2127,-0.2128 0.379,-0.4721 0.4817,-0.7611 h -1.9223 -5.6497 c -0.1862,0 -0.356,-0.0767 -0.4795,-0.2002 -0.1236,-0.1235 -0.2002,-0.2932 -0.2002,-0.4795 v -5.4171 c 0,-0.1862 0.0766,-0.3561 0.2002,-0.4796 0.1235,-0.1235 0.2933,-0.2002 0.4795,-0.2002 h 5.5435 c 1.028,0 1.9229,0.5707 2.3557,1.3617 l 0.1731,0.2999 2.9532,5.115 h 0.185 c -0.005,0 -0.002,10e-5 0,10e-5 0.3754,0 0.6798,-0.3043 0.6798,-0.6798 0,-0.1402 -0.0425,-0.2706 -0.0921,-0.3387 z"
       id="path5"
       style="clip-rule:evenodd;fill:#ffffff;fill-rule:nonzero;stroke:#ff0000;stroke-width:0.0762;stroke-miterlimit:22.9256;image-rendering:optimizeQuality;shape-rendering:geometricPrecision;text-rendering:geometricPrecision" />
    <g
       id="g464-3-1-7-7-5"
       transform="matrix(0,5.9715154,6.1054342,0,-235.23112,-258.8009)"
       style="opacity:0.31;fill:#c8b7b7">
      <g
         id="g1-1-3-4-0-9"
         transform="matrix(0.29423852,0,0,0.22174976,34.413406,23.164125)"
         style="opacity:1;fill:#c8b7b7">
        <path
           d="m 54.895178,154.02093 q -0.340074,-1.0931 -0.825896,-1.0931 l -0.121455,0.0243 q 0,-0.94735 0.04858,-1.94328 -1.214553,0.60727 -2.453398,0.60727 -1.214553,0 -1.991867,-0.48582 -0.753023,-0.48582 -1.117389,-1.26313 -0.364366,-0.75303 -0.364366,-1.55463 0,-1.21456 0.704441,-2.21049 0.704441,-0.99593 1.967576,-0.99593 0.510113,0 0.995934,0.29149 0.510112,0.29149 0.510112,0.70444 0,0.24291 -0.218619,0.43724 -0.194329,0.17004 -0.412948,0.17004 -0.242911,0 -0.388657,-0.17004 -0.121456,-0.17004 -0.21862,-0.41295 -0.07287,-0.24291 -0.242911,-0.43724 -0.145746,-0.21862 -0.46153,-0.21862 -0.850187,0 -1.408882,0.87448 -0.558694,0.87448 -0.558694,1.96758 0,0.89877 0.46153,1.70037 0.485821,0.80161 1.554628,1.16597 -0.267201,-0.2672 -0.437239,-0.63156 -0.170037,-0.36437 -0.170037,-0.70445 0,-0.41294 0.291492,-0.70444 0.315784,-0.29149 0.631568,-0.58298 -0.145746,0.14574 -0.145746,0.43724 0,0.5344 0.46153,1.26313 0.485821,0.75303 0.947352,1.06881 1.093097,-0.0729 2.06474,-0.63157 l 0.121455,-4.78534 q -2.040449,-1.45746 -5.149705,-2.81776 -0.777314,1.94328 -2.137614,3.49791 -1.336009,1.53034 -2.866346,2.91493 l -1.020224,0.97164 q 0.582985,-0.85019 0.582985,-1.87041 0,-1.21455 -0.68015,-2.52627 -0.680149,-1.31172 -1.554628,-2.21049 -0.874478,-0.92306 -1.506046,-0.92306 -0.291493,0 -0.437239,0.21862 -0.145746,0.19433 -0.145746,0.46153 0,0.19433 0.09716,0.46153 0.09716,0.24291 0.09716,0.53441 0,0.63156 -0.631567,0.63156 -0.21862,0 -0.388658,-0.17003 -0.194328,-0.17004 -0.194328,-0.48583 0,-0.65585 0.291493,-0.99593 0.291493,-0.34007 0.753023,-0.68015 0.46153,-0.34007 1.020224,-0.85019 0.558695,-0.5344 1.190263,-1.48175 1.554628,0 3.060674,1.82183 1.530337,1.79754 1.651792,3.74082 0.89877,-1.96757 0.971643,-3.95944 -1.918994,-0.92306 -3.619369,-1.99187 -1.676083,-1.06881 -2.769181,-2.38052 -1.068807,-1.33601 -1.068807,-3.03639 v -0.36436 q 0.242911,0.0729 0.46153,0.0729 1.214553,0 2.186196,-2.38052 0.558694,-1.45747 1.651792,-2.74489 -0.510112,-1.43318 -0.850187,-2.74489 -0.315784,-1.31172 -0.315784,-2.50198 0,-1.74896 0.631568,-2.69631 0.655859,-0.94735 1.943285,-2.06474 l 0.340075,-0.34008 q -0.07287,-0.58298 -0.07287,-1.11739 0,-1.02022 0.315784,-1.8947 0.582985,0 1.165971,-0.41295 0.607276,-0.41294 1.238844,-0.99593 0.655859,-0.58299 1.3603,-1.06881 0.704441,-0.48582 1.481755,-0.48582 0.315783,0 0.46153,0.19433 0.170037,0.19433 0.170037,0.43724 0,0.21862 -0.121455,0.38866 -0.121455,0.17003 -0.388657,0.17003 -0.21862,0 -0.485821,-0.21862 -0.267202,-0.21862 -0.655859,-0.21862 -0.340075,0 -0.631568,0.43724 -0.291493,0.41295 -0.485821,0.97165 -0.170038,0.5344 -0.170038,0.87447 0,2.1862 0.607277,4.0809 0.607277,1.87042 1.384591,3.64366 0.534403,1.19027 0.971642,2.40482 1.433173,-0.14575 2.550562,-0.97164 l -0.04858,-5.27117 H 54.2879 q -0.534404,-0.0729 -1.311718,-0.0729 -1.457464,0 -1.457464,0.41295 0,0.17004 0.04858,0.41295 0.07287,0.24291 0.07287,0.43724 0,0.55869 -0.46153,0.55869 -0.315784,0 -0.534404,-0.17004 -0.218619,-0.19432 -0.218619,-0.51011 0,-0.38866 0.218619,-0.77731 0.242911,-0.41295 0.631568,-0.60728 0.704441,-0.34007 0.971642,-0.94735 0.267202,-0.60728 0.461531,-1.70038 0.534403,0.0972 1.60321,0.12146 -0.07287,-3.23071 -0.21862,-6.04847 0.315784,0 0.582986,-0.38866 0.267202,-0.38866 0.340075,-0.70444 -0.04858,3.37646 -0.04858,7.16586 2.769181,0 4.882504,-0.14575 2.137613,-0.14574 3.449331,-0.36436 -0.04858,0.0729 -0.194329,0.94735 -0.145746,0.85019 -0.145746,2.08903 0,1.0931 0.24291,2.30765 0.242911,-0.0486 0.485822,-0.0486 0.777314,0 1.578919,0.48582 0.801605,0.46153 0.801605,1.33601 0,0.63157 -0.558694,0.63157 -0.291493,0 -0.43724,-0.12146 -0.145746,-0.14574 -0.145746,-0.31578 0,-0.21862 0.09716,-0.46153 0.121456,-0.2672 0.121456,-0.5344 0,-0.34008 -0.340075,-0.58299 -0.340075,-0.24291 -0.971643,-0.24291 -0.534403,0 -1.165971,0.31578 -0.631568,0.31579 -1.190262,1.06881 -0.534404,0.75302 -0.850187,2.08903 v -5.65982 l -2.890637,-0.0243 q -1.263135,0 -2.74489,0.0729 0.971642,1.04451 0.971642,2.47768 0,1.48176 -1.020224,2.59915 v 6.68004 l 2.259069,-2.38052 q 0.971642,-0.92306 3.740823,-0.92306 0.607277,0 1.117389,0.0243 0.534404,0.0243 0.947352,0.0243 -1.190262,0.65586 -1.190262,1.96757 l 0.04858,0.80161 q -0.388657,-0.0972 -1.117389,-0.0972 -1.044516,0 -2.404815,0.19432 -1.3603,0.19433 -2.380525,0.60728 -1.020224,0.41295 -1.020224,1.04452 v 3.255 q 0.582985,0.21862 1.14168,0.70444 0.364366,0.29149 0.70444,0.51011 0.364366,0.21862 0.850188,0.21862 l 0.24291,-0.0486 -2.307651,2.62343 -0.121455,0.0243 q -0.315784,0 -0.510112,-0.0486 v 1.57892 q 1.38459,0.77732 2.259069,1.6518 0.874478,0.85018 0.874478,1.8947 0,0.82589 -0.704441,1.82183 -1.627501,2.4291 -2.453398,3.18213 z m 0.04858,-29.34361 q 0.777314,-1.06881 0.777314,-2.18619 0,-1.19027 -0.753023,-2.11333 z m -0.728732,16.76084 0.02429,-1.55463 -0.412948,-0.2915 q -0.364366,-0.29149 -0.753023,-0.51011 -0.388657,-0.24291 -0.777315,-0.24291 -0.170037,0 -0.340074,0.0729 l 2.331942,-2.62344 h 0.02429 q 0.09716,-5.41691 0.09716,-10.73665 -1.093098,0.77731 -2.453397,0.92306 0.874478,2.4534 0.874478,4.63959 0,3.8137 -2.817764,8.28326 0.825897,0.41294 1.651793,0.77731 1.336008,0.63157 2.550562,1.26314 z m 0.70444,8.57474 q 0.850188,-0.82589 0.850188,-1.65179 0,-0.85019 -0.850188,-1.74896 z m -5.295452,-11.56255 q 0.510113,-1.57891 0.510113,-3.23071 0,-2.38052 -0.777314,-4.83392 -0.753023,-2.47769 -1.676084,-4.85821 -1.38459,-3.40075 -1.943285,-6.2671 -0.68015,1.0931 -0.68015,2.47769 0,1.50605 0.582986,3.30359 0.582985,1.79754 1.38459,3.81369 0.923061,2.25907 1.676084,4.68818 0.777314,2.42911 0.92306,4.90679 z m -2.890636,-0.8016 q -0.777314,-3.13355 -1.943285,-6.04848 l -0.801606,-2.18619 q -1.068806,1.77325 -1.068806,3.18213 0,1.57892 1.068806,2.81776 1.068807,1.23885 2.744891,2.23478 z"
           id="text45-1-09-1-5-1-7"
           style="-inkscape-font-specification:'Soulside Betrayed';fill:#c8b7b7;stroke-width:0.587575"
           transform="scale(1.1403398,0.8769316)"
           aria-label="&#10;F" />
        <path
           d="m 47.959907,100.1371 0.02195,-1.295265 -0.373211,-0.263442 q -0.329303,-0.263443 -0.68056,-0.461025 -0.351258,-0.219536 -0.702515,-0.219536 -0.153674,0 -0.307349,0.06586 l 2.085588,-2.370985 h 0.04391 l 0.06586,-8.166726 q -1.075725,0 -2.041681,-0.878142 0.856189,2.305124 0.856189,4.346805 0,3.468663 -2.568568,7.508119 l 1.251354,0.592746 q 1.229399,0.570793 2.349031,1.141591 z m 0.153675,-12.952607 v -1.778239 q 0,-2.678335 -0.04391,-5.224948 -2.897871,0.329303 -2.897871,2.810056 0,0.92205 0.131722,1.405028 0.175628,0.746421 0.461025,1.295261 0.922049,1.492842 2.261217,1.492842 z m 0.439071,24.434317 Q 48.28921,110.6309 47.784279,110.6309 l -0.08781,0.022 0.04391,-1.64651 q -0.98791,0.43907 -1.97582,0.43907 -1.097679,0 -1.800193,-0.43907 -0.68056,-0.43908 -1.009864,-1.11964 -0.329303,-0.68056 -0.329303,-1.42698 0,-1.09768 0.636653,-1.99777 0.636654,-0.9001 1.778239,-0.9001 0.461025,0 0.900096,0.26344 0.461025,0.26345 0.461025,0.63666 0,0.21953 -0.197582,0.39516 -0.175629,0.15368 -0.373211,0.15368 -0.219535,0 -0.351257,-0.15368 -0.109768,-0.15367 -0.197582,-0.37321 -0.08781,-0.21953 -0.241489,-0.39516 -0.131721,-0.19758 -0.417118,-0.19758 -0.790328,0.0439 -1.273306,0.81228 -0.482979,0.76837 -0.482979,1.75628 0,0.81228 0.417118,1.53675 0.439071,0.74642 1.405028,1.05377 -0.548839,-0.57079 -0.548839,-1.20744 0,-0.35126 0.263443,-0.63666 0.285396,-0.26344 0.570792,-0.52688 -0.131721,0.15367 -0.131721,0.39516 0,0.50493 0.417118,1.16354 0.417117,0.65861 0.856189,0.944 0.856189,-0.0659 1.624563,-0.46102 l 0.131722,-4.61025 q -1.800192,-1.20745 -4.43462,-2.37098 -0.702514,1.75628 -1.931914,3.16131 -1.207446,1.38307 -2.59052,2.63443 l -0.92205,0.87814 q 0.526885,-0.76838 0.526885,-1.66847 0,-1.09768 -0.614699,-2.28317 -0.592747,-1.18549 -1.383075,-2.01973 -0.790328,-0.83424 -1.405028,-0.83424 -0.241489,0 -0.373211,0.17563 -0.131721,0.17563 -0.131721,0.43907 0,0.17563 0.08781,0.39517 0.08781,0.21953 0.08781,0.50493 0,0.54884 -0.570793,0.57079 -0.197582,0 -0.351257,-0.13172 -0.175629,-0.15367 -0.175629,-0.46102 0,-0.59275 0.263443,-0.9001 0.263443,-0.30735 0.680561,-0.6147 0.417117,-0.30735 0.922049,-0.76837 0.504932,-0.48298 1.075725,-1.339171 h 0.04391 q 1.339167,0 2.722242,1.624561 1.383075,1.62457 1.492842,3.4028 0.812282,-1.77823 0.878143,-3.57843 -1.756285,-0.83423 -3.293035,-1.822142 -1.514796,-0.98791 -2.480752,-2.195356 -0.965957,-1.2294 -0.965957,-2.788103 v -0.219536 q 0.219535,0.06586 0.417117,0.06586 0.702515,0 1.119632,-0.6147 0.439072,-0.636653 0.834236,-1.536749 0.526885,-1.317214 1.514796,-2.480753 -1.053771,-2.963731 -1.053771,-4.74197 0,-1.60261 0.570792,-2.436845 0.570793,-0.834236 1.734332,-1.866053 l 0.329303,-0.30735 q -0.06586,-0.526886 -0.06586,-1.009864 0,-0.92205 0.285396,-1.712378 0.526885,0 1.053771,-0.373211 0.548839,-0.37321 1.119632,-0.900096 0.592746,-0.526885 1.229399,-0.965957 0.636654,-0.439071 1.339168,-0.439071 0.285396,0 0.417117,0.197582 0.153675,0.175629 0.153675,0.373211 0,0.197582 -0.131721,0.351257 -0.109768,0.153675 -0.329303,0.153675 -0.197583,0 -0.439072,-0.197582 -0.241489,-0.197582 -0.592746,-0.197582 -1.119632,0 -1.119632,1.888006 0,1.141585 0.329304,2.568567 0.329303,1.426982 0.702514,2.590521 0.37321,1.141585 0.548839,1.558703 l -0.02195,-0.6147 q 0,-1.646517 0.768375,-2.678335 0.768375,-1.031817 2.305124,-1.800192 -0.06586,-3.183267 -0.197582,-5.97137 h 0.02195 q 0.153675,0 0.30735,-0.175628 0.175628,-0.175629 0.30735,-0.395164 0.131721,-0.24149 0.175628,-0.417118 l -0.02195,6.673883 q 1.997774,-0.856189 4.80783,-0.856189 1.273307,0 2.546613,0.08781 1.273307,0.08781 2.546614,0.109768 l -0.724468,0.68056 v 24.324541 l -1.339167,0.79033 0.900096,0.5708 q 0.702514,0.50493 1.426982,0.92204 0.746421,0.39517 1.405028,0.39517 0.175628,0 0.351257,-0.0439 -1.185493,0.52689 -1.756285,1.00987 -0.548839,0.50493 -0.768375,0.81228 -0.219536,0.3293 -0.417118,0.37321 l -0.219535,0.022 q -0.439072,0 -0.878143,-0.28539 -0.439071,-0.26345 -0.92205,-0.63666 -0.461025,-0.37321 -0.965956,-0.68056 -0.482979,-0.30735 -0.987911,-0.30735 -0.570793,0 -1.141585,0.52689 0,-0.39517 0.153675,-0.54884 l 2.28317,-2.28317 V 80.005677 l -3.029591,-0.04391 q -1.712378,0 -3.293035,0.153675 v 7.025141 q 1.009864,-0.197582 1.734332,-0.965957 0.746421,-0.790328 0.746421,-1.866053 0,-0.285396 -0.06586,-0.570793 -0.109768,-0.482978 -0.30735,-0.614699 -0.197582,-0.153675 -0.417118,-0.153675 l -0.526885,0.02195 q -0.263443,0 -0.373211,-0.153675 -0.109768,-0.153675 -0.109768,-0.329303 0,-0.219536 0.131722,-0.395164 0.131721,-0.175629 0.395164,-0.175629 0.548839,0 0.878143,0.417118 0.329303,0.417117 0.482978,0.965957 0.153675,0.548839 0.153675,0.98791 0,1.185492 -0.812282,2.019728 -0.790328,0.834235 -1.90996,1.053771 v 8.188679 q 0.526885,0.197582 1.053771,0.6147 0.351257,0.263443 0.680561,0.482979 0.351257,0.197582 0.68056,0.197582 l 0.241489,-0.04391 -2.085588,2.370984 -0.263443,0.02195 q -0.153675,0 -0.30735,-0.04391 0,0.658607 -0.02195,1.295257 1.361121,0.72447 2.195357,1.53675 0.856189,0.81228 0.856189,1.80019 0,0.74642 -0.636654,1.64652 -0.636653,0.87814 -1.29526,1.75628 -0.439071,0.81229 -1.141585,1.31722 0,1.58065 -0.02195,3.09545 z m 0.02195,-3.42476 q 1.009864,-0.83423 1.009864,-1.71237 0,-0.87815 -0.987911,-1.77824 0,1.77824 -0.02195,3.49061 z M 41.395791,96.822108 q -0.702514,-2.875917 -1.778238,-5.554252 l -0.680561,-1.888007 q -0.965957,1.60261 -0.965957,2.875917 0,1.448935 0.965957,2.568567 0.965957,1.097678 2.458799,1.997775 z m 2.634428,0.702514 q 0.461025,-1.426982 0.461025,-2.919824 0,-2.15145 -0.702514,-4.36876 -0.680561,-2.21731 -1.514796,-4.368759 -1.251353,-3.051545 -1.756285,-5.642066 -0.6147,0.965957 -0.6147,2.21731 0,1.361121 0.526886,2.985685 0.526885,1.624563 1.251353,3.424756 0.834235,2.063635 1.514796,4.258991 0.702514,2.173403 0.834235,4.412667 z"
           id="text45-73-3-8-9-1"
           style="-inkscape-font-specification:'Soulside Betrayed';fill:#c8b7b7;stroke-width:0.531034"
           transform="scale(1.0381903,0.96321454)"
           aria-label="&#10;N" />
        <path
           d="m 58.988007,118.47942 q -0.28622,-1.54118 -2.179677,-2.88422 -1.87144,-1.34303 -3.544728,-1.34303 -0.836643,0 -1.409084,0.46236 0.06605,-0.11009 0.946729,-0.79261 v -5.85651 q 0,-0.59446 -0.616475,-0.85866 -0.594457,-0.2642 -1.122864,-0.2642 -0.176135,0 -0.374288,0.044 l 2.113627,-2.11363 -0.02202,-4.79969 4.601541,-4.227253 q 1.717321,1.07883 3.45666,1.585219 1.739338,0.50639 2.928253,0.50639 0.198152,0 0.308237,-0.110085 0.110085,-0.132101 0.110085,-0.330254 -0.04403,-0.330254 -0.264204,-0.594457 -0.220169,-0.28622 -0.220169,-0.528407 0,-0.220169 0.176136,-0.352271 0.176135,-0.132101 0.396305,-0.132101 0.242186,0 0.418321,0.242186 0.176136,0.220169 0.176136,0.550423 0,0.770593 -0.682525,1.365051 v 12.131339 q 0,1.87144 -0.638492,3.21447 -0.638491,1.34303 -1.717321,2.4659 -1.07883,1.10084 -2.399847,2.22371 z m 1.629254,-3.06035 q 0.440339,-1.07883 0.572441,-2.06959 0.132101,-0.99077 0.132101,-2.3338 v -2.09161 q 0,-0.85866 -0.660508,-1.40908 -0.638491,-0.57244 -1.36505,-0.57244 -0.176136,0 -0.374288,0.044 l 2.377829,-2.37783 h 0.02202 v -3.94103 l 0.396305,-0.37429 q -0.28622,0.022 -0.594457,0.022 -1.122864,0 -2.597999,-0.396309 -1.475136,-0.396305 -2.950271,-1.321017 l 0.06605,13.122096 -0.990762,0.79261 q 0.220169,-0.11008 0.594457,-0.11008 1.056813,0 2.752118,0.77059 1.717321,0.77059 2.620016,2.24573 z"
           id="text45-65-3-5-6-9-4"
           style="-inkscape-font-specification:'Soulside Betrayed';fill:#c8b7b7;stroke-width:0.532567"
           transform="scale(1.1682569,0.85597612)"
           aria-label="o" />
        <rect
           style="fill:#c8b7b7;fill-rule:evenodd;stroke-width:0.0315865"
           id="rect53-0-94-9-1-72-2"
           width="0.32230687"
           height="0.12781133"
           x="62.68343"
           y="101.57484" />
        <rect
           style="fill:#c8b7b7;fill-rule:evenodd;stroke-width:0.684733"
           id="rect49-0-8-3-0-9"
           width="2.4895427"
           height="26.584759"
           x="57.845631"
           y="75.134636" />
        <g
           id="g54-58-8-2-0-8"
           transform="translate(-45.559291,-25.691827)"
           style="fill:#c8b7b7">
          <path
             d="m 113.71919,-140.55466 q -0.28884,-1.55531 -2.19966,-2.91066 -1.88859,-1.35535 -3.57722,-1.35535 -0.84432,0 -1.42201,0.4666 0.0889,-0.13331 0.95541,-0.79988 l -0.0222,-5.9102 q -0.37772,-0.68878 -0.88875,-0.88875 -0.51103,-0.19997 -1.22203,-0.19997 l 2.11078,-2.133 v -4.8437 l 4.64373,-4.26601 q 1.73307,1.08872 3.57723,1.59975 1.86638,0.48881 3.17729,0.51103 0.42215,0 0.42215,-0.46659 0,-0.33328 -0.22218,-0.59991 -0.22219,-0.28884 -0.26663,-0.55547 0,-0.19997 0.15553,-0.31106 0.17775,-0.13331 0.39994,-0.13331 0.24441,0 0.42216,0.2444 0.17775,0.22219 0.17775,0.55547 0,0.48882 -0.26663,0.88875 -0.2444,0.37772 -0.84431,0.95541 -0.57769,0.57769 -1.13316,1.0665 -0.53325,0.48882 -0.75544,0.71101 l -5.51026,5.82132 q 0.64434,-0.22219 1.44422,-0.22219 0.37772,0 0.77766,0.0222 0.39994,0.0222 0.84431,0.0222 0.84432,0 1.73307,-0.19997 0.88875,-0.22219 1.7775,-0.93319 l -0.46659,0.48882 q -1.8886,2.08856 -2.79957,2.4885 -1.11094,0.3555 -2.48851,0.3555 h -0.44437 q -0.77766,0 -1.48866,0.0667 v 3.64388 l -0.97763,0.79988 q 0.22219,-0.1111 0.59991,-0.1111 1.04428,0 2.75513,0.77766 1.73307,0.77766 2.64404,2.26632 0.44437,-1.04428 0.57769,-2.02191 0.13331,-0.97763 0.13331,-2.86623 l 2.91066,-0.97762 v 0.28884 q 0,1.84416 -0.57769,3.24395 -0.55547,1.39978 -2.42185,3.3106 -0.33328,0.3555 -1.02206,0.95541 -1.02207,0.91097 -1.22204,1.15537 z m -3.39947,-11.84262 6.22126,-6.51011 h -0.31106 q -1.13316,0 -2.77735,-0.37771 -1.62197,-0.39994 -3.17729,-1.33313 z"
             id="text45-7-6-2-1-6-7"
             style="-inkscape-font-specification:'Soulside Betrayed';fill:#c8b7b7;stroke-width:0.537449"
             transform="scale(1.0555673,-0.9473579)"
             aria-label="e" />
          <rect
             style="fill:#c8b7b7;fill-rule:evenodd;stroke-width:0.264583"
             id="rect50-02-1-7-3-7"
             width="2.222806"
             height="13.247924"
             x="114.16762"
             y="137.63614" />
        </g>
        <rect
           style="fill:#c8b7b7;fill-rule:evenodd;stroke-width:0.251666"
           id="rect52-4-4-0-81-6"
           width="1.0205278"
           height="47.685654"
           x="61.571949"
           y="85.714607" />
        <rect
           style="fill:#c8b7b7;fill-rule:evenodd;stroke-width:0.264583"
           id="rect53-1-9-2-0-9"
           width="1.111403"
           height="2.600683"
           x="60.468555"
           y="96.806999" />
        <rect
           style="fill:#c8b7b7;fill-rule:evenodd;stroke-width:0.264583"
           id="rect54-8-5-8-8-4"
           width="2.3117182"
           height="1.9560692"
           x="60.068447"
           y="101.63049" />
      </g>
    </g>
  </g>
</svg>
