<?xml version="1.0" encoding="UTF-8" standalone="no"?>
<!-- Created with Inkscape (http://www.inkscape.org/) -->

<svg
   width="140mm"
   height="117mm"
   viewBox="0 0 140 117"
   version="1.1"
   id="svg1"
   inkscape:version="1.3.2 (091e20e, 2023-11-25, custom)"
   sodipodi:docname="la-artisti2.svg"
   inkscape:export-filename="AONB.svg"
   inkscape:export-xdpi="96"
   inkscape:export-ydpi="96"
   xmlns:inkscape="http://www.inkscape.org/namespaces/inkscape"
   xmlns:sodipodi="http://sodipodi.sourceforge.net/DTD/sodipodi-0.dtd"
   xmlns:xlink="http://www.w3.org/1999/xlink"
   xmlns="http://www.w3.org/2000/svg"
   xmlns:svg="http://www.w3.org/2000/svg">
  <sodipodi:namedview
     id="namedview1"
     pagecolor="#ffffff"
     bordercolor="#000000"
     borderopacity="0.25"
     inkscape:showpageshadow="2"
     inkscape:pageopacity="0.0"
     inkscape:pagecheckerboard="true"
     inkscape:deskcolor="#d1d1d1"
     inkscape:document-units="mm"
     inkscape:zoom="1.0520974"
     inkscape:cx="397.30162"
     inkscape:cy="202.92798"
     inkscape:window-width="1264"
     inkscape:window-height="681"
     inkscape:window-x="0"
     inkscape:window-y="0"
     inkscape:window-maximized="0"
     inkscape:current-layer="layer1" />
  <defs
     id="defs1">
    <clipPath
       clipPathUnits="userSpaceOnUse"
       id="clipPath54">
      <path
         id="path54"
         style="stroke-width:0.0999999;stroke-linecap:square;paint-order:markers fill stroke;stop-color:#000000"
         d="m 1691.1994,-792.32001 h 1634.8919 v 92.82806 H 1691.1994 Z" />
    </clipPath>
    <clipPath
       clipPathUnits="userSpaceOnUse"
       id="clipPath55">
      <path
         id="path55"
         style="stroke-width:0.1;stroke-linecap:square;paint-order:markers fill stroke;stop-color:#000000"
         d="m 1736.6147,-745.57287 h 1589.4765 v 72.46715 H 1736.6147 Z" />
    </clipPath>
    <clipPath
       clipPathUnits="userSpaceOnUse"
       id="clipPath27">
      <rect
         style="fill:#000000;stroke:#000000;stroke-width:0;stroke-linejoin:bevel;paint-order:stroke markers fill;stop-color:#000000"
         id="rect5-4"
         width="20"
         height="200"
         x="530"
         y="595" />
    </clipPath>
    <clipPath
       clipPathUnits="userSpaceOnUse"
       id="clipPath25">
      <rect
         style="fill:#ff0000;stroke:none;stroke-width:3;stroke-linecap:square;stroke-linejoin:miter;paint-order:stroke markers fill;stop-color:#000000"
         id="rect25-8"
         width="78"
         height="45.033199"
         x="763.61322"
         y="452.82422" />
    </clipPath>
    <clipPath
       clipPathUnits="userSpaceOnUse"
       id="clipPath5">
      <path
         id="path13"
         style="stroke-width:0.1;stroke-linecap:square;paint-order:markers fill stroke;stop-color:#000000"
         d="M 438.25066,553.76374 H 1298.1212 V 755.15928 H 438.25066 Z"
         sodipodi:nodetypes="ccccc" />
    </clipPath>
    <pattern
       patternUnits="userSpaceOnUse"
       width="130"
       height="100"
       patternTransform="translate(230,45) scale(0.3)"
       preserveAspectRatio="xMidYMid"
       style="fill:#000000"
       id="rain-2"
       inkscape:label="Rain drops 2"
       inkscape:collect="always"
       inkscape:isstock="true">
      <path
         id="path14-9"
         style="fill-rule:nonzero;stroke-width:4.8561;stroke-linecap:square;paint-order:stroke markers fill;stop-color:#000000"
         d="M 40,0 C 33.36247,0 27.49731,3.246995 23.85938,8.224609 L 0,40 H 40 C 51.04568,40 60,31.045679 60,20 60,8.95432 51.04568,0 40,0 Z m 65,0 C 98.36247,0 92.49731,3.246995 88.84766,8.203125 L 65,40 h 40 c 11.04568,0 20,-8.954321 20,-20 C 125,8.95432 116.04568,0 105,0 Z M 0,50 V 90 C 11.04567,90 20,81.04567 20,70 20,58.95433 11.04567,50 0,50 Z m 65,0 c -6.63851,0 -12.50476,3.247697 -16.14258,8.22656 L 25,90 H 65 C 76.04568,90 85,81.04568 85,70 85,58.95432 76.04568,50 65,50 Z m 65,0 c -6.63474,0 -12.5121,3.232969 -16.15039,8.20703 L 90,90 h 40 z"
         sodipodi:nodetypes="sccssssccsssccscsccsssccccc" />
      <path
         style="opacity:1;fill-rule:nonzero;stroke-width:4.8561;stroke-linecap:square;paint-order:stroke markers fill;stop-color:#000000"
         d="m 125,100 h 5"
         id="path15" />
    </pattern>
    <pattern
       inkscape:collect="always"
       xlink:href="#rain-2"
       preserveAspectRatio="xMidYMid"
       id="pattern1"
       patternTransform="matrix(0.3,0,0,0.3,230,45)" />
    <pattern
       inkscape:collect="always"
       xlink:href="#rain-2"
       preserveAspectRatio="xMidYMid"
       id="pattern3"
       patternTransform="matrix(0.3,0,0,0.3,230,45)" />
    <pattern
       patternUnits="userSpaceOnUse"
       width="349.7577"
       height="27.6099"
       patternTransform="scale(0.2)"
       preserveAspectRatio="xMidYMid"
       id="shading5"
       style="fill:#000000"
       inkscape:label="Lines shading big"
       inkscape:collect="always"
       inkscape:isstock="true">
      <path
         id="path44"
         style="stroke-width:0.487199;stroke-linecap:square;paint-order:markers fill stroke;stop-color:#000000"
         d="m 349.5257,0 h 0.232 v 27.6099 h -0.232 z m -18.396,0 h 1.0542 v 27.6099 h -1.0542 z m -18.3961,0 h 1.8765 v 27.6099 h -1.8765 z m -18.3961,0 h 2.6988 v 27.6099 h -2.6988 z m -18.3961,0 h 3.5211 v 27.6099 h -3.5211 z m -18.3961,0 h 4.3434 v 27.6099 h -4.3434 z m -18.3961,0 h 5.1658 v 27.6099 h -5.1658 z m -18.3961,0 h 5.9881 v 27.6099 h -5.9881 z M 202.357,0 h 6.8104 v 27.6099 h -6.8104 z m -18.3961,0 h 7.6327 v 27.6099 h -7.6327 z m -18.3961,0 h 8.455 v 27.6099 h -8.455 z m -18.3961,0 h 9.2773 v 27.6099 h -9.2773 z m -18.396,0 h 10.0995 v 27.6099 h -10.0995 z m -18.3961,0 h 10.9218 V 27.6099 H 110.3766 Z M 91.9805,0 h 11.7441 V 27.6099 H 91.9805 Z M 73.5844,0 H 86.1509 V 27.6099 H 73.5844 Z M 55.1883,0 H 68.5771 V 27.6099 H 55.1883 Z M 36.7922,0 H 51.0033 V 27.6099 H 36.7922 Z M 18.3961,0 H 33.4295 V 27.6099 H 18.3961 Z M 0,0 H 15.8557 V 27.6099 H 0 Z"
         sodipodi:nodetypes="cccccccccc" />
    </pattern>
    <pattern
       patternUnits="userSpaceOnUse"
       width="24"
       height="10"
       preserveAspectRatio="xMidYMid"
       id="Wave"
       style="fill:#000000"
       x="0"
       y="0"
       inkscape:collect="always"
       inkscape:isstock="true"
       inkscape:label="">
      <g
         id="wave_g"
         style="display:inline">
        <path
           d="M 12,-2 C 9.1666695,-2 7.1679672,-0.56445187 5.4179687,0.68554687 3.6679703,1.9355456 2.1666645,3 0,3 V 5 C 2.8333305,5 4.8320328,3.5644519 6.5820312,2.3144531 8.3320297,1.0644544 9.8333355,0 12,0 14.166665,0 15.667971,1.0644544 17.417969,2.3144531 19.167967,3.5644519 21.166669,5 24,5 V 3 C 21.833335,3 20.332029,1.9355456 18.582031,0.68554687 16.832033,-0.56445189 14.833331,-2 12,-2 Z"
           id="path5" />
        <path
           d="M 12,3 C 9.1666695,3 7.1679672,4.4355481 5.4179687,5.6855469 3.6679703,6.9355456 2.1666645,8 0,8 v 2 C 2.8333305,10 4.8320328,8.5644519 6.5820312,7.3144531 8.3320297,6.0644544 9.8333355,5 12,5 14.166665,5 15.667971,6.0644544 17.417969,7.3144531 19.167967,8.5644519 21.166669,10 24,10 V 8 C 21.833335,8 20.332029,6.9355456 18.582031,5.6855469 16.832033,4.4355481 14.833331,3 12,3 Z"
           id="path6" />
        <path
           d="M 12,8 C 9.1666695,8 7.1679672,9.4355481 5.4179687,10.685547 3.6679703,11.935546 2.1666645,13 0,13 v 2 C 2.8333305,15 4.8320328,13.564452 6.5820312,12.314453 8.3320297,11.064454 9.8333355,10 12,10 c 2.166665,0 3.667971,1.064454 5.417969,2.314453 C 19.167967,13.564452 21.166669,15 24,15 V 13 C 21.833335,13 20.332029,11.935546 18.582031,10.685547 16.832033,9.4355481 14.833331,8 12,8 Z"
           id="path7" />
      </g>
    </pattern>
    <pattern
       inkscape:collect="always"
       xlink:href="#shading5"
       preserveAspectRatio="xMidYMid"
       id="pattern7"
       patternTransform="scale(0.2)"
       x="0"
       y="0" />
    <pattern
       inkscape:collect="always"
       xlink:href="#Wave"
       preserveAspectRatio="xMidYMid"
       id="pattern9"
       patternTransform="scale(1)" />
    <pattern
       inkscape:collect="always"
       xlink:href="#shading5"
       preserveAspectRatio="xMidYMid"
       id="pattern12"
       patternTransform="scale(0.2)"
       x="0"
       y="0" />
    <pattern
       inkscape:collect="always"
       xlink:href="#Wave"
       preserveAspectRatio="xMidYMid"
       id="pattern14"
       patternTransform="scale(1)" />
    <pattern
       inkscape:collect="always"
       patternUnits="userSpaceOnUse"
       width="4"
       height="1"
       patternTransform="translate(0,0) scale(2,2)"
       preserveAspectRatio="xMidYMid"
       id="Strips1_3"
       style="fill:#000000"
       inkscape:stockid="Stripes 04 (1:3)"
       inkscape:isstock="true"
       inkscape:label="Stripes 04 (1:3)">
      <rect
         style="stroke:none"
         x="0"
         y="-0.5"
         width="1"
         height="2"
         id="rect152" />
    </pattern>
    <pattern
       inkscape:collect="always"
       xlink:href="#Strips1_3"
       preserveAspectRatio="xMidYMid"
       id="pattern1-3"
       patternTransform="scale(2)"
       x="0"
       y="0" />
    <pattern
       inkscape:collect="always"
       xlink:href="#Strips1_3"
       preserveAspectRatio="xMidYMid"
       id="pattern3-7"
       patternTransform="scale(2)"
       x="0"
       y="0" />
    <pattern
       inkscape:collect="always"
       patternUnits="userSpaceOnUse"
       width="3"
       height="1"
       patternTransform="translate(0,0) scale(2,2)"
       preserveAspectRatio="xMidYMid"
       id="pattern92"
       style="fill:#000000"
       inkscape:stockid="Stripes 03 (1:2)"
       inkscape:isstock="true"
       inkscape:label="Stripes 03 (1:2)">
      <rect
         style="stroke:none"
         x="0"
         y="-0.5"
         width="1"
         height="2"
         id="rect91" />
    </pattern>
    <pattern
       inkscape:collect="always"
       xlink:href="#pattern92"
       preserveAspectRatio="xMidYMid"
       id="pattern1-1"
       patternTransform="scale(2)" />
    <pattern
       inkscape:collect="always"
       xlink:href="#pattern92"
       preserveAspectRatio="xMidYMid"
       id="pattern3-2"
       patternTransform="scale(2)" />
    <pattern
       inkscape:collect="always"
       xlink:href="#pattern92"
       preserveAspectRatio="xMidYMid"
       id="pattern5"
       patternTransform="scale(2)" />
    <pattern
       inkscape:collect="always"
       xlink:href="#pattern92"
       preserveAspectRatio="xMidYMid"
       id="pattern7-1"
       patternTransform="scale(2)" />
    <pattern
       inkscape:collect="always"
       xlink:href="#pattern92"
       preserveAspectRatio="xMidYMid"
       id="pattern9-5"
       patternTransform="scale(2)" />
  </defs>
  <g
     inkscape:label="Taso 1"
     inkscape:groupmode="layer"
     id="layer1">
    <g
       id="g464-3-1-7-7-5-1"
       transform="matrix(0,6.1384855,-6.2761488,0,380.19451,-254.60799)"
       style="opacity:0.31;fill:#c8b7b7">
      <g
         id="g1-1-3-4-0-9-3"
         transform="matrix(0.29423852,0,0,0.22174976,34.413406,23.164125)"
         style="opacity:1;fill:#c8b7b7">
        <path
           d="m 54.895178,154.02093 q -0.340074,-1.0931 -0.825896,-1.0931 l -0.121455,0.0243 q 0,-0.94735 0.04858,-1.94328 -1.214553,0.60727 -2.453398,0.60727 -1.214553,0 -1.991867,-0.48582 -0.753023,-0.48582 -1.117389,-1.26313 -0.364366,-0.75303 -0.364366,-1.55463 0,-1.21456 0.704441,-2.21049 0.704441,-0.99593 1.967576,-0.99593 0.510113,0 0.995934,0.29149 0.510112,0.29149 0.510112,0.70444 0,0.24291 -0.218619,0.43724 -0.194329,0.17004 -0.412948,0.17004 -0.242911,0 -0.388657,-0.17004 -0.121456,-0.17004 -0.21862,-0.41295 -0.07287,-0.24291 -0.242911,-0.43724 -0.145746,-0.21862 -0.46153,-0.21862 -0.850187,0 -1.408882,0.87448 -0.558694,0.87448 -0.558694,1.96758 0,0.89877 0.46153,1.70037 0.485821,0.80161 1.554628,1.16597 -0.267201,-0.2672 -0.437239,-0.63156 -0.170037,-0.36437 -0.170037,-0.70445 0,-0.41294 0.291492,-0.70444 0.315784,-0.29149 0.631568,-0.58298 -0.145746,0.14574 -0.145746,0.43724 0,0.5344 0.46153,1.26313 0.485821,0.75303 0.947352,1.06881 1.093097,-0.0729 2.06474,-0.63157 l 0.121455,-4.78534 q -2.040449,-1.45746 -5.149705,-2.81776 -0.777314,1.94328 -2.137614,3.49791 -1.336009,1.53034 -2.866346,2.91493 l -1.020224,0.97164 q 0.582985,-0.85019 0.582985,-1.87041 0,-1.21455 -0.68015,-2.52627 -0.680149,-1.31172 -1.554628,-2.21049 -0.874478,-0.92306 -1.506046,-0.92306 -0.291493,0 -0.437239,0.21862 -0.145746,0.19433 -0.145746,0.46153 0,0.19433 0.09716,0.46153 0.09716,0.24291 0.09716,0.53441 0,0.63156 -0.631567,0.63156 -0.21862,0 -0.388658,-0.17003 -0.194328,-0.17004 -0.194328,-0.48583 0,-0.65585 0.291493,-0.99593 0.291493,-0.34007 0.753023,-0.68015 0.46153,-0.34007 1.020224,-0.85019 0.558695,-0.5344 1.190263,-1.48175 1.554628,0 3.060674,1.82183 1.530337,1.79754 1.651792,3.74082 0.89877,-1.96757 0.971643,-3.95944 -1.918994,-0.92306 -3.619369,-1.99187 -1.676083,-1.06881 -2.769181,-2.38052 -1.068807,-1.33601 -1.068807,-3.03639 v -0.36436 q 0.242911,0.0729 0.46153,0.0729 1.214553,0 2.186196,-2.38052 0.558694,-1.45747 1.651792,-2.74489 -0.510112,-1.43318 -0.850187,-2.74489 -0.315784,-1.31172 -0.315784,-2.50198 0,-1.74896 0.631568,-2.69631 0.655859,-0.94735 1.943285,-2.06474 l 0.340075,-0.34008 q -0.07287,-0.58298 -0.07287,-1.11739 0,-1.02022 0.315784,-1.8947 0.582985,0 1.165971,-0.41295 0.607276,-0.41294 1.238844,-0.99593 0.655859,-0.58299 1.3603,-1.06881 0.704441,-0.48582 1.481755,-0.48582 0.315783,0 0.46153,0.19433 0.170037,0.19433 0.170037,0.43724 0,0.21862 -0.121455,0.38866 -0.121455,0.17003 -0.388657,0.17003 -0.21862,0 -0.485821,-0.21862 -0.267202,-0.21862 -0.655859,-0.21862 -0.340075,0 -0.631568,0.43724 -0.291493,0.41295 -0.485821,0.97165 -0.170038,0.5344 -0.170038,0.87447 0,2.1862 0.607277,4.0809 0.607277,1.87042 1.384591,3.64366 0.534403,1.19027 0.971642,2.40482 1.433173,-0.14575 2.550562,-0.97164 l -0.04858,-5.27117 H 54.2879 q -0.534404,-0.0729 -1.311718,-0.0729 -1.457464,0 -1.457464,0.41295 0,0.17004 0.04858,0.41295 0.07287,0.24291 0.07287,0.43724 0,0.55869 -0.46153,0.55869 -0.315784,0 -0.534404,-0.17004 -0.218619,-0.19432 -0.218619,-0.51011 0,-0.38866 0.218619,-0.77731 0.242911,-0.41295 0.631568,-0.60728 0.704441,-0.34007 0.971642,-0.94735 0.267202,-0.60728 0.461531,-1.70038 0.534403,0.0972 1.60321,0.12146 -0.07287,-3.23071 -0.21862,-6.04847 0.315784,0 0.582986,-0.38866 0.267202,-0.38866 0.340075,-0.70444 -0.04858,3.37646 -0.04858,7.16586 2.769181,0 4.882504,-0.14575 2.137613,-0.14574 3.449331,-0.36436 -0.04858,0.0729 -0.194329,0.94735 -0.145746,0.85019 -0.145746,2.08903 0,1.0931 0.24291,2.30765 0.242911,-0.0486 0.485822,-0.0486 0.777314,0 1.578919,0.48582 0.801605,0.46153 0.801605,1.33601 0,0.63157 -0.558694,0.63157 -0.291493,0 -0.43724,-0.12146 -0.145746,-0.14574 -0.145746,-0.31578 0,-0.21862 0.09716,-0.46153 0.121456,-0.2672 0.121456,-0.5344 0,-0.34008 -0.340075,-0.58299 -0.340075,-0.24291 -0.971643,-0.24291 -0.534403,0 -1.165971,0.31578 -0.631568,0.31579 -1.190262,1.06881 -0.534404,0.75302 -0.850187,2.08903 v -5.65982 l -2.890637,-0.0243 q -1.263135,0 -2.74489,0.0729 0.971642,1.04451 0.971642,2.47768 0,1.48176 -1.020224,2.59915 v 6.68004 l 2.259069,-2.38052 q 0.971642,-0.92306 3.740823,-0.92306 0.607277,0 1.117389,0.0243 0.534404,0.0243 0.947352,0.0243 -1.190262,0.65586 -1.190262,1.96757 l 0.04858,0.80161 q -0.388657,-0.0972 -1.117389,-0.0972 -1.044516,0 -2.404815,0.19432 -1.3603,0.19433 -2.380525,0.60728 -1.020224,0.41295 -1.020224,1.04452 v 3.255 q 0.582985,0.21862 1.14168,0.70444 0.364366,0.29149 0.70444,0.51011 0.364366,0.21862 0.850188,0.21862 l 0.24291,-0.0486 -2.307651,2.62343 -0.121455,0.0243 q -0.315784,0 -0.510112,-0.0486 v 1.57892 q 1.38459,0.77732 2.259069,1.6518 0.874478,0.85018 0.874478,1.8947 0,0.82589 -0.704441,1.82183 -1.627501,2.4291 -2.453398,3.18213 z m 0.04858,-29.34361 q 0.777314,-1.06881 0.777314,-2.18619 0,-1.19027 -0.753023,-2.11333 z m -0.728732,16.76084 0.02429,-1.55463 -0.412948,-0.2915 q -0.364366,-0.29149 -0.753023,-0.51011 -0.388657,-0.24291 -0.777315,-0.24291 -0.170037,0 -0.340074,0.0729 l 2.331942,-2.62344 h 0.02429 q 0.09716,-5.41691 0.09716,-10.73665 -1.093098,0.77731 -2.453397,0.92306 0.874478,2.4534 0.874478,4.63959 0,3.8137 -2.817764,8.28326 0.825897,0.41294 1.651793,0.77731 1.336008,0.63157 2.550562,1.26314 z m 0.70444,8.57474 q 0.850188,-0.82589 0.850188,-1.65179 0,-0.85019 -0.850188,-1.74896 z m -5.295452,-11.56255 q 0.510113,-1.57891 0.510113,-3.23071 0,-2.38052 -0.777314,-4.83392 -0.753023,-2.47769 -1.676084,-4.85821 -1.38459,-3.40075 -1.943285,-6.2671 -0.68015,1.0931 -0.68015,2.47769 0,1.50605 0.582986,3.30359 0.582985,1.79754 1.38459,3.81369 0.923061,2.25907 1.676084,4.68818 0.777314,2.42911 0.92306,4.90679 z m -2.890636,-0.8016 q -0.777314,-3.13355 -1.943285,-6.04848 l -0.801606,-2.18619 q -1.068806,1.77325 -1.068806,3.18213 0,1.57892 1.068806,2.81776 1.068807,1.23885 2.744891,2.23478 z"
           id="text45-1-09-1-5-1-7-8"
           style="-inkscape-font-specification:'Soulside Betrayed';fill:#c8b7b7;stroke-width:0.587575"
           transform="scale(1.1403398,0.8769316)"
           aria-label="&#10;F" />
        <path
           d="m 47.959907,100.1371 0.02195,-1.295265 -0.373211,-0.263442 q -0.329303,-0.263443 -0.68056,-0.461025 -0.351258,-0.219536 -0.702515,-0.219536 -0.153674,0 -0.307349,0.06586 l 2.085588,-2.370985 h 0.04391 l 0.06586,-8.166726 q -1.075725,0 -2.041681,-0.878142 0.856189,2.305124 0.856189,4.346805 0,3.468663 -2.568568,7.508119 l 1.251354,0.592746 q 1.229399,0.570793 2.349031,1.141591 z m 0.153675,-12.952607 v -1.778239 q 0,-2.678335 -0.04391,-5.224948 -2.897871,0.329303 -2.897871,2.810056 0,0.92205 0.131722,1.405028 0.175628,0.746421 0.461025,1.295261 0.922049,1.492842 2.261217,1.492842 z m 0.439071,24.434317 Q 48.28921,110.6309 47.784279,110.6309 l -0.08781,0.022 0.04391,-1.64651 q -0.98791,0.43907 -1.97582,0.43907 -1.097679,0 -1.800193,-0.43907 -0.68056,-0.43908 -1.009864,-1.11964 -0.329303,-0.68056 -0.329303,-1.42698 0,-1.09768 0.636653,-1.99777 0.636654,-0.9001 1.778239,-0.9001 0.461025,0 0.900096,0.26344 0.461025,0.26345 0.461025,0.63666 0,0.21953 -0.197582,0.39516 -0.175629,0.15368 -0.373211,0.15368 -0.219535,0 -0.351257,-0.15368 -0.109768,-0.15367 -0.197582,-0.37321 -0.08781,-0.21953 -0.241489,-0.39516 -0.131721,-0.19758 -0.417118,-0.19758 -0.790328,0.0439 -1.273306,0.81228 -0.482979,0.76837 -0.482979,1.75628 0,0.81228 0.417118,1.53675 0.439071,0.74642 1.405028,1.05377 -0.548839,-0.57079 -0.548839,-1.20744 0,-0.35126 0.263443,-0.63666 0.285396,-0.26344 0.570792,-0.52688 -0.131721,0.15367 -0.131721,0.39516 0,0.50493 0.417118,1.16354 0.417117,0.65861 0.856189,0.944 0.856189,-0.0659 1.624563,-0.46102 l 0.131722,-4.61025 q -1.800192,-1.20745 -4.43462,-2.37098 -0.702514,1.75628 -1.931914,3.16131 -1.207446,1.38307 -2.59052,2.63443 l -0.92205,0.87814 q 0.526885,-0.76838 0.526885,-1.66847 0,-1.09768 -0.614699,-2.28317 -0.592747,-1.18549 -1.383075,-2.01973 -0.790328,-0.83424 -1.405028,-0.83424 -0.241489,0 -0.373211,0.17563 -0.131721,0.17563 -0.131721,0.43907 0,0.17563 0.08781,0.39517 0.08781,0.21953 0.08781,0.50493 0,0.54884 -0.570793,0.57079 -0.197582,0 -0.351257,-0.13172 -0.175629,-0.15367 -0.175629,-0.46102 0,-0.59275 0.263443,-0.9001 0.263443,-0.30735 0.680561,-0.6147 0.417117,-0.30735 0.922049,-0.76837 0.504932,-0.48298 1.075725,-1.339171 h 0.04391 q 1.339167,0 2.722242,1.624561 1.383075,1.62457 1.492842,3.4028 0.812282,-1.77823 0.878143,-3.57843 -1.756285,-0.83423 -3.293035,-1.822142 -1.514796,-0.98791 -2.480752,-2.195356 -0.965957,-1.2294 -0.965957,-2.788103 v -0.219536 q 0.219535,0.06586 0.417117,0.06586 0.702515,0 1.119632,-0.6147 0.439072,-0.636653 0.834236,-1.536749 0.526885,-1.317214 1.514796,-2.480753 -1.053771,-2.963731 -1.053771,-4.74197 0,-1.60261 0.570792,-2.436845 0.570793,-0.834236 1.734332,-1.866053 l 0.329303,-0.30735 q -0.06586,-0.526886 -0.06586,-1.009864 0,-0.92205 0.285396,-1.712378 0.526885,0 1.053771,-0.373211 0.548839,-0.37321 1.119632,-0.900096 0.592746,-0.526885 1.229399,-0.965957 0.636654,-0.439071 1.339168,-0.439071 0.285396,0 0.417117,0.197582 0.153675,0.175629 0.153675,0.373211 0,0.197582 -0.131721,0.351257 -0.109768,0.153675 -0.329303,0.153675 -0.197583,0 -0.439072,-0.197582 -0.241489,-0.197582 -0.592746,-0.197582 -1.119632,0 -1.119632,1.888006 0,1.141585 0.329304,2.568567 0.329303,1.426982 0.702514,2.590521 0.37321,1.141585 0.548839,1.558703 l -0.02195,-0.6147 q 0,-1.646517 0.768375,-2.678335 0.768375,-1.031817 2.305124,-1.800192 -0.06586,-3.183267 -0.197582,-5.97137 h 0.02195 q 0.153675,0 0.30735,-0.175628 0.175628,-0.175629 0.30735,-0.395164 0.131721,-0.24149 0.175628,-0.417118 l -0.02195,6.673883 q 1.997774,-0.856189 4.80783,-0.856189 1.273307,0 2.546613,0.08781 1.273307,0.08781 2.546614,0.109768 l -0.724468,0.68056 v 24.324541 l -1.339167,0.79033 0.900096,0.5708 q 0.702514,0.50493 1.426982,0.92204 0.746421,0.39517 1.405028,0.39517 0.175628,0 0.351257,-0.0439 -1.185493,0.52689 -1.756285,1.00987 -0.548839,0.50493 -0.768375,0.81228 -0.219536,0.3293 -0.417118,0.37321 l -0.219535,0.022 q -0.439072,0 -0.878143,-0.28539 -0.439071,-0.26345 -0.92205,-0.63666 -0.461025,-0.37321 -0.965956,-0.68056 -0.482979,-0.30735 -0.987911,-0.30735 -0.570793,0 -1.141585,0.52689 0,-0.39517 0.153675,-0.54884 l 2.28317,-2.28317 V 80.005677 l -3.029591,-0.04391 q -1.712378,0 -3.293035,0.153675 v 7.025141 q 1.009864,-0.197582 1.734332,-0.965957 0.746421,-0.790328 0.746421,-1.866053 0,-0.285396 -0.06586,-0.570793 -0.109768,-0.482978 -0.30735,-0.614699 -0.197582,-0.153675 -0.417118,-0.153675 l -0.526885,0.02195 q -0.263443,0 -0.373211,-0.153675 -0.109768,-0.153675 -0.109768,-0.329303 0,-0.219536 0.131722,-0.395164 0.131721,-0.175629 0.395164,-0.175629 0.548839,0 0.878143,0.417118 0.329303,0.417117 0.482978,0.965957 0.153675,0.548839 0.153675,0.98791 0,1.185492 -0.812282,2.019728 -0.790328,0.834235 -1.90996,1.053771 v 8.188679 q 0.526885,0.197582 1.053771,0.6147 0.351257,0.263443 0.680561,0.482979 0.351257,0.197582 0.68056,0.197582 l 0.241489,-0.04391 -2.085588,2.370984 -0.263443,0.02195 q -0.153675,0 -0.30735,-0.04391 0,0.658607 -0.02195,1.295257 1.361121,0.72447 2.195357,1.53675 0.856189,0.81228 0.856189,1.80019 0,0.74642 -0.636654,1.64652 -0.636653,0.87814 -1.29526,1.75628 -0.439071,0.81229 -1.141585,1.31722 0,1.58065 -0.02195,3.09545 z m 0.02195,-3.42476 q 1.009864,-0.83423 1.009864,-1.71237 0,-0.87815 -0.987911,-1.77824 0,1.77824 -0.02195,3.49061 z M 41.395791,96.822108 q -0.702514,-2.875917 -1.778238,-5.554252 l -0.680561,-1.888007 q -0.965957,1.60261 -0.965957,2.875917 0,1.448935 0.965957,2.568567 0.965957,1.097678 2.458799,1.997775 z m 2.634428,0.702514 q 0.461025,-1.426982 0.461025,-2.919824 0,-2.15145 -0.702514,-4.36876 -0.680561,-2.21731 -1.514796,-4.368759 -1.251353,-3.051545 -1.756285,-5.642066 -0.6147,0.965957 -0.6147,2.21731 0,1.361121 0.526886,2.985685 0.526885,1.624563 1.251353,3.424756 0.834235,2.063635 1.514796,4.258991 0.702514,2.173403 0.834235,4.412667 z"
           id="text45-73-3-8-9-1-8"
           style="-inkscape-font-specification:'Soulside Betrayed';fill:#c8b7b7;stroke-width:0.531034"
           transform="scale(1.0381903,0.96321454)"
           aria-label="&#10;N" />
        <path
           d="m 58.988007,118.47942 q -0.28622,-1.54118 -2.179677,-2.88422 -1.87144,-1.34303 -3.544728,-1.34303 -0.836643,0 -1.409084,0.46236 0.06605,-0.11009 0.946729,-0.79261 v -5.85651 q 0,-0.59446 -0.616475,-0.85866 -0.594457,-0.2642 -1.122864,-0.2642 -0.176135,0 -0.374288,0.044 l 2.113627,-2.11363 -0.02202,-4.79969 4.601541,-4.227253 q 1.717321,1.07883 3.45666,1.585219 1.739338,0.50639 2.928253,0.50639 0.198152,0 0.308237,-0.110085 0.110085,-0.132101 0.110085,-0.330254 -0.04403,-0.330254 -0.264204,-0.594457 -0.220169,-0.28622 -0.220169,-0.528407 0,-0.220169 0.176136,-0.352271 0.176135,-0.132101 0.396305,-0.132101 0.242186,0 0.418321,0.242186 0.176136,0.220169 0.176136,0.550423 0,0.770593 -0.682525,1.365051 v 12.131339 q 0,1.87144 -0.638492,3.21447 -0.638491,1.34303 -1.717321,2.4659 -1.07883,1.10084 -2.399847,2.22371 z m 1.629254,-3.06035 q 0.440339,-1.07883 0.572441,-2.06959 0.132101,-0.99077 0.132101,-2.3338 v -2.09161 q 0,-0.85866 -0.660508,-1.40908 -0.638491,-0.57244 -1.36505,-0.57244 -0.176136,0 -0.374288,0.044 l 2.377829,-2.37783 h 0.02202 v -3.94103 l 0.396305,-0.37429 q -0.28622,0.022 -0.594457,0.022 -1.122864,0 -2.597999,-0.396309 -1.475136,-0.396305 -2.950271,-1.321017 l 0.06605,13.122096 -0.990762,0.79261 q 0.220169,-0.11008 0.594457,-0.11008 1.056813,0 2.752118,0.77059 1.717321,0.77059 2.620016,2.24573 z"
           id="text45-65-3-5-6-9-4-7"
           style="-inkscape-font-specification:'Soulside Betrayed';fill:#c8b7b7;stroke-width:0.532567"
           transform="scale(1.1682569,0.85597612)"
           aria-label="o" />
        <rect
           style="fill:#c8b7b7;fill-rule:evenodd;stroke-width:0.0315865"
           id="rect53-0-94-9-1-72-2-4"
           width="0.32230687"
           height="0.12781133"
           x="62.68343"
           y="101.57484" />
        <rect
           style="fill:#c8b7b7;fill-rule:evenodd;stroke-width:0.684733"
           id="rect49-0-8-3-0-9-8"
           width="2.4895427"
           height="26.584759"
           x="57.845631"
           y="75.134636" />
        <g
           id="g54-58-8-2-0-8-2"
           transform="translate(-45.559291,-25.691827)"
           style="fill:#c8b7b7">
          <path
             d="m 113.71919,-140.55466 q -0.28884,-1.55531 -2.19966,-2.91066 -1.88859,-1.35535 -3.57722,-1.35535 -0.84432,0 -1.42201,0.4666 0.0889,-0.13331 0.95541,-0.79988 l -0.0222,-5.9102 q -0.37772,-0.68878 -0.88875,-0.88875 -0.51103,-0.19997 -1.22203,-0.19997 l 2.11078,-2.133 v -4.8437 l 4.64373,-4.26601 q 1.73307,1.08872 3.57723,1.59975 1.86638,0.48881 3.17729,0.51103 0.42215,0 0.42215,-0.46659 0,-0.33328 -0.22218,-0.59991 -0.22219,-0.28884 -0.26663,-0.55547 0,-0.19997 0.15553,-0.31106 0.17775,-0.13331 0.39994,-0.13331 0.24441,0 0.42216,0.2444 0.17775,0.22219 0.17775,0.55547 0,0.48882 -0.26663,0.88875 -0.2444,0.37772 -0.84431,0.95541 -0.57769,0.57769 -1.13316,1.0665 -0.53325,0.48882 -0.75544,0.71101 l -5.51026,5.82132 q 0.64434,-0.22219 1.44422,-0.22219 0.37772,0 0.77766,0.0222 0.39994,0.0222 0.84431,0.0222 0.84432,0 1.73307,-0.19997 0.88875,-0.22219 1.7775,-0.93319 l -0.46659,0.48882 q -1.8886,2.08856 -2.79957,2.4885 -1.11094,0.3555 -2.48851,0.3555 h -0.44437 q -0.77766,0 -1.48866,0.0667 v 3.64388 l -0.97763,0.79988 q 0.22219,-0.1111 0.59991,-0.1111 1.04428,0 2.75513,0.77766 1.73307,0.77766 2.64404,2.26632 0.44437,-1.04428 0.57769,-2.02191 0.13331,-0.97763 0.13331,-2.86623 l 2.91066,-0.97762 v 0.28884 q 0,1.84416 -0.57769,3.24395 -0.55547,1.39978 -2.42185,3.3106 -0.33328,0.3555 -1.02206,0.95541 -1.02207,0.91097 -1.22204,1.15537 z m -3.39947,-11.84262 6.22126,-6.51011 h -0.31106 q -1.13316,0 -2.77735,-0.37771 -1.62197,-0.39994 -3.17729,-1.33313 z"
             id="text45-7-6-2-1-6-7-7"
             style="-inkscape-font-specification:'Soulside Betrayed';fill:#c8b7b7;stroke-width:0.537449"
             transform="scale(1.0555673,-0.9473579)"
             aria-label="e" />
          <rect
             style="fill:#c8b7b7;fill-rule:evenodd;stroke-width:0.264583"
             id="rect50-02-1-7-3-7-4"
             width="2.222806"
             height="13.247924"
             x="114.16762"
             y="137.63614" />
        </g>
        <rect
           style="fill:#c8b7b7;fill-rule:evenodd;stroke-width:0.251666"
           id="rect52-4-4-0-81-6-8"
           width="1.0205278"
           height="47.685654"
           x="61.571949"
           y="85.714607" />
        <rect
           style="fill:#c8b7b7;fill-rule:evenodd;stroke-width:0.264583"
           id="rect53-1-9-2-0-9-8"
           width="1.111403"
           height="2.600683"
           x="60.468555"
           y="96.806999" />
        <rect
           style="fill:#c8b7b7;fill-rule:evenodd;stroke-width:0.264583"
           id="rect54-8-5-8-8-4-8"
           width="2.3117182"
           height="1.9560692"
           x="60.068447"
           y="101.63049" />
      </g>
    </g>
    <path
       style="fill:#ffffff"
       d="m 63.925845,79.271659 c -0.257,-0.0229 -0.81644,-0.0825 -2.28851,-0.24378 -0.47626,-0.0522 -0.96334,-0.11955 -1.08241,-0.14972 -0.11906,-0.0302 -0.4809,-0.098 -0.80407,-0.15083 -0.73889,-0.1207 -2.46551,-0.50291 -3.01787,-0.66804 -0.16015,-0.0479 -0.58344,-0.17458 -0.94064,-0.28155 -0.89868,-0.26913 -2.65496,-0.88751 -3.1235,-1.09977 -0.068,-0.0308 -0.49946,-0.2207 -0.9587,-0.42194 -0.68708,-0.30108 -1.89065,-0.89009 -2.87611,-1.40753 -0.161817,-0.085 -0.653232,-0.37339 -1.391657,-0.8168 -0.983458,-0.59055 -2.65738,-1.7648 -3.563172,-2.49955 -1.858741,-1.50775 -3.683994,-3.26779 -4.879774,-4.70544 -0.789442,-0.94912 -1.444269,-1.7934 -1.918153,-2.4731 -0.483373,-0.69331 -0.994431,-1.45756 -1.105376,-1.653 -0.05677,-0.10002 -0.230575,-0.38827 -0.386225,-0.64056 -0.599232,-0.97128 -1.327913,-2.36638 -1.884794,-3.60853 -0.203594,-0.45412 -0.395674,-0.88072 -0.426845,-0.948 -0.319061,-0.68865 -0.975106,-2.58698 -1.395034,-4.03666 -0.228666,-0.78941 -0.561372,-2.2423 -0.707289,-3.08866 -0.273315,-1.5853 -0.328826,-2.01513 -0.49762,-3.85318 -0.06908,-0.75217 -0.06908,-4.14074 0,-4.89292 0.241977,-2.63496 0.447064,-3.89632 1.009345,-6.20789 0.307127,-1.26262 1.18452,-3.89414 1.590598,-4.7706 0.03117,-0.0673 0.223251,-0.49388 0.426845,-0.94801 0.556881,-1.24214 1.285562,-2.63724 1.884794,-3.60853 0.15565,-0.25229 0.329451,-0.54054 0.386225,-0.64055 0.110945,-0.19544 0.622003,-0.95969 1.105376,-1.653 0.473884,-0.67971 1.128711,-1.52398 1.918153,-2.4731 1.19578,-1.43765 3.021033,-3.19769 4.879774,-4.70544 0.905792,-0.73475 2.579714,-1.908999 3.563172,-2.499549 0.738425,-0.44341 1.22984,-0.73184 1.391657,-0.8168 0.98546,-0.51744 2.18903,-1.10645 2.87611,-1.40753 0.45924,-0.20124 0.89066,-0.39112 0.9587,-0.42194 0.46854,-0.21227 2.22482,-0.83064 3.1235,-1.09977 0.3572,-0.10697 0.78049,-0.23367 0.94064,-0.28155 0.55236,-0.1651304 2.27898,-0.5473404 3.01787,-0.6680404 0.32317,-0.0528 0.68501,-0.12067 0.80407,-0.15084 0.11907,-0.0302 0.60615,-0.0975 1.08241,-0.14972 0.47625,-0.0522 1.14425,-0.12958 1.48443,-0.17201 0.84522,-0.1054 5.40181,-0.1054 6.24702,0 0.34018,0.0424 1.00818,0.11983 1.48444,0.17201 0.47626,0.0522 0.96334,0.11956 1.0824,0.14972 0.11907,0.0302 0.4809,0.098 0.80408,0.15084 0.73888,0.1207 2.4655,0.50291 3.01786,0.6680404 0.16016,0.0479 0.58345,0.17458 0.94064,0.28155 0.89869,0.26913 2.65497,0.8875 3.12351,1.09977 0.068,0.0308 0.49945,0.2207 0.9587,0.42194 0.687069,0.30108 1.890639,0.89009 2.876099,1.40753 0.16182,0.085 0.65324,0.37339 1.39166,0.8168 0.29135,0.17495 1.37236,0.88336 1.7937,1.17545 2.43582,1.688609 4.96708,4.012089 6.90316,6.336519 0.49914,0.59926 1.29364,1.63306 1.6647,2.16612 0.49065,0.70484 0.995,1.45936 1.10492,1.653 0.0568,0.10001 0.23057,0.38826 0.38622,0.64055 0.59923,0.97129 1.32792,2.36639 1.8848,3.60853 0.20359,0.45413 0.39567,0.88073 0.42684,0.94801 0.319062,0.68865 0.975116,2.58697 1.395046,4.03666 0.45445,1.56888 0.9115,3.96039 1.08121,5.65744 0.161,1.61001 0.17705,1.94822 0.17705,3.73085 0,1.78264 -0.016,2.12085 -0.17705,3.73086 -0.16971,1.69705 -0.62676,4.08856 -1.08121,5.65744 -0.41993,1.44968 -1.075984,3.34801 -1.395046,4.03666 -0.0312,0.0673 -0.22325,0.49388 -0.42684,0.948 -0.55688,1.24215 -1.28557,2.63725 -1.8848,3.60853 -0.15565,0.25229 -0.32945,0.54054 -0.38622,0.64056 -0.10992,0.19364 -0.61427,0.94816 -1.10492,1.653 -2.15627,3.0976 -5.36628,6.28317 -8.56786,8.50264 -0.42134,0.29209 -1.50235,1.0005 -1.7937,1.17545 -0.73842,0.44341 -1.22984,0.73183 -1.39166,0.8168 -0.98546,0.51744 -2.18903,1.10645 -2.876099,1.40753 -0.45925,0.20124 -0.89066,0.39111 -0.9587,0.42194 -0.46854,0.21226 -2.22482,0.83064 -3.12351,1.09977 -0.35719,0.10697 -0.78048,0.23367 -0.94064,0.28155 -0.55236,0.16513 -2.27898,0.54734 -3.01786,0.66804 -0.32318,0.0528 -0.68501,0.12079 -0.80408,0.1511 -0.11906,0.0303 -0.62006,0.0981 -1.11333,0.15072 -0.49326,0.0526 -1.10559,0.12677 -1.36073,0.16485 -0.43328,0.0647 -4.96752,0.12828 -5.53572,0.0777 z m 5.7522,-4.09502 c 0.7484,-0.0822 1.48598,-0.17651 1.63907,-0.20952 0.15308,-0.033 0.45925,-0.0896 0.68037,-0.12568 0.87556,-0.14299 2.2368,-0.46432 3.27813,-0.77383 1.08633,-0.32288 1.54985,-0.48189 2.56685,-0.88056 0.27214,-0.10669 0.63398,-0.24743 0.80407,-0.31276 1.21676,-0.46734 3.694009,-1.79467 5.102759,-2.73409 0.95738,-0.63843 1.12115,-0.75352 1.61978,-1.13831 0.26153,-0.20184 0.56712,-0.43578 0.67907,-0.51988 0.46762,-0.35126 1.74334,-1.48938 2.46802,-2.20181 1.1578,-1.13823 2.09534,-2.18654 2.87181,-3.2111 0.17009,-0.22444 0.33709,-0.44074 0.37111,-0.48069 0.22064,-0.25905 1.30302,-1.8827 1.75885,-2.63843 0.44936,-0.74497 1.6301,-3.04991 1.84853,-3.60853 0.0658,-0.16819 0.20785,-0.52599 0.31574,-0.7951 0.4029,-1.00496 0.56297,-1.46114 0.89064,-2.5382 0.31609,-1.03901 0.67662,-2.5263 0.78577,-3.24156 0.0385,-0.2523 0.0941,-0.55505 0.12347,-0.67278 0.0294,-0.11774 0.1279,-0.84709 0.21889,-1.62078 0.14676,-1.248 0.16543,-1.63099 0.16543,-3.39447 0,-1.76347 -0.0187,-2.14647 -0.16543,-3.39446 -0.091,-0.77369 -0.18949,-1.50305 -0.21889,-1.62078 -0.0294,-0.11774 -0.085,-0.42049 -0.12347,-0.67278 -0.10915,-0.71526 -0.46968,-2.20255 -0.78577,-3.24156 -0.32767,-1.07706 -0.48774,-1.53324 -0.89064,-2.5382 -0.10789,-0.26911 -0.24997,-0.62691 -0.31574,-0.7951 -0.21843,-0.55862 -1.39917,-2.86356 -1.84853,-3.60853 -0.45583,-0.75573 -1.53821,-2.37938 -1.75885,-2.63844 -0.034,-0.0399 -0.20102,-0.25625 -0.37111,-0.48069 -0.77647,-1.02455 -1.71401,-2.07286 -2.87181,-3.21109 -0.72468,-0.71244 -2.0004,-1.85055 -2.46802,-2.20182 -0.11195,-0.0841 -0.41754,-0.31804 -0.67907,-0.51987 -0.49863,-0.3848 -0.6624,-0.49989 -1.61978,-1.13831 -1.40875,-0.93942 -3.885999,-2.26675 -5.102759,-2.734099 -0.17009,-0.0653 -0.53193,-0.20607 -0.80407,-0.31275 -1.017,-0.39867 -1.48052,-0.55769 -2.56685,-0.88057 -1.04133,-0.3095 -2.40257,-0.63083 -3.27813,-0.77382 -0.22112,-0.0361 -0.52729,-0.0927 -0.68037,-0.12568 -0.15309,-0.033 -0.90458,-0.13199 -1.67,-0.21995 -1.22656,-0.14096 -1.63013,-0.15993 -3.40184,-0.15993 -1.7717,0 -2.17527,0.019 -3.40184,0.15993 -0.76541,0.088 -1.51691,0.18694 -1.66999,0.21995 -0.15309,0.033 -0.45925,0.0896 -0.68037,0.12568 -0.87557,0.14299 -2.23681,0.46432 -3.27814,0.77382 -1.08632,0.32288 -1.54985,0.4819 -2.56684,0.88057 -0.27215,0.10668 -0.63398,0.24742 -0.80407,0.31275 -1.21676,0.467349 -3.69402,1.794679 -5.10276,2.734099 -0.957388,0.63842 -1.121156,0.75351 -1.61978,1.13831 -0.261537,0.20183 -0.567121,0.43578 -0.679075,0.51987 -1.344197,1.00973 -3.8639,3.51325 -4.954685,4.92287 -0.0263,0.034 -0.179384,0.22837 -0.340184,0.43195 -0.1608,0.20359 -0.340732,0.43753 -0.39985,0.51988 -0.05912,0.0823 -0.188054,0.26198 -0.286524,0.39919 -0.459687,0.64056 -1.085425,1.58981 -1.48855,2.25815 -0.449352,0.74497 -1.630093,3.04991 -1.848529,3.60853 -0.06577,0.16819 -0.207851,0.52599 -0.315739,0.7951 -0.402894,1.00496 -0.562965,1.46114 -0.890635,2.5382 -0.316094,1.03901 -0.676622,2.5263 -0.785774,3.24156 -0.0385,0.25229 -0.09406,0.55504 -0.123464,0.67278 -0.0294,0.11773 -0.127907,0.84709 -0.218894,1.62078 -0.146765,1.24799 -0.165431,1.63099 -0.165431,3.39446 0,1.76348 0.01867,2.14647 0.165431,3.39447 0.09099,0.77369 0.189489,1.50304 0.218894,1.62078 0.0294,0.11773 0.08496,0.42048 0.123464,0.67278 0.109152,0.71526 0.46968,2.20255 0.785774,3.24156 0.32767,1.07706 0.487741,1.53324 0.890635,2.5382 0.107888,0.26911 0.24997,0.62691 0.315739,0.7951 0.218436,0.55862 1.399177,2.86356 1.848529,3.60853 0.403125,0.66834 1.028863,1.61759 1.48855,2.25814 0.09847,0.13722 0.227406,0.31686 0.286524,0.3992 0.05912,0.0823 0.23905,0.31629 0.39985,0.51987 0.1608,0.20359 0.313883,0.39797 0.340184,0.43196 1.08608,1.40354 3.616286,3.9175 4.954685,4.92286 0.111954,0.0841 0.417538,0.31804 0.679075,0.51988 0.498624,0.38479 0.662392,0.49988 1.61978,1.13831 1.40874,0.93942 3.886,2.26675 5.10276,2.73409 0.17009,0.0653 0.53192,0.20607 0.80407,0.31276 1.01699,0.39867 1.48052,0.55768 2.56684,0.88056 1.04133,0.30951 2.40257,0.63084 3.27814,0.77383 0.22112,0.0361 0.52728,0.0923 0.68037,0.12495 0.49157,0.10472 2.41457,0.31309 3.37091,0.36526 1.45521,0.0794 3.5858,0.0151 5.13369,-0.15501 z m -25.018991,-31.2208 v -22.44667 l 4.529861,0.0157 4.52986,0.0157 1.96594,5.81034 c 1.08126,3.19569 2.09603,6.20254 2.25504,6.6819 0.15901,0.47935 0.30823,0.87155 0.3316,0.87155 0.0234,0 0.0575,-0.0482 0.0758,-0.10703 0.0183,-0.0589 0.12037,-0.32722 0.22678,-0.59633 0.30351,-0.76752 0.48415,-1.2382 0.71591,-1.86542 0.11809,-0.31957 0.2414,-0.63608 0.27404,-0.70336 0.0326,-0.0673 0.17554,-0.42507 0.31757,-0.7951 0.14202,-0.37003 0.33914,-0.8792 0.43806,-1.13149 0.0989,-0.25229 0.27408,-0.70642 0.38928,-1.00917 0.11519,-0.30274 0.29656,-0.77063 0.40303,-1.03974 0.10648,-0.26911 0.24555,-0.62691 0.30904,-0.7951 0.0635,-0.1682 0.20257,-0.52599 0.30904,-0.7951 0.10648,-0.26911 0.28784,-0.737 0.40304,-1.03975 0.11519,-0.30275 0.29621,-0.77063 0.40225,-1.03974 0.10605,-0.26911 0.24476,-0.62691 0.30826,-0.7951 0.11371,-0.30121 0.41303,-1.06269 0.54694,-1.39143 l 0.0685,-0.16819 2.46014,0.001 2.46013,10e-4 0.25924,0.65619 c 0.14258,0.36091 0.40228,1.00023 0.5771,1.42072 0.17483,0.42048 0.46587,1.12231 0.64675,1.55962 0.18089,0.4373 0.45698,1.10473 0.61354,1.48316 0.15656,0.37844 0.41275,0.9977 0.56931,1.37614 0.31471,0.76069 0.77738,1.87545 1.26289,3.04278 0.17489,0.42049 0.49775,1.20489 0.71746,1.74311 0.21972,0.53822 0.42525,1.03363 0.45675,1.10091 0.0315,0.0673 0.15703,0.37002 0.27897,0.67277 0.12194,0.30275 0.24716,0.6055 0.27826,0.67278 0.0311,0.0673 0.15252,0.35546 0.26981,0.6404 0.11728,0.28494 0.23657,0.52493 0.26509,0.53332 0.0285,0.008 0.22507,-0.49997 0.43679,-1.12969 0.33181,-0.98689 0.55793,-1.63874 1.4049,-4.05011 0.0768,-0.21865 0.26739,-0.76911 0.42352,-1.22323 0.15614,-0.45413 0.53797,-1.55503 0.84852,-2.44646 0.31054,-0.89143 0.69764,-2.0061 0.86021,-2.47704 0.28258,-0.81861 0.56385,-1.62439 1.05679,-3.0275 l 0.22562,-0.6422 h 4.046799 4.0468 l 0.0155,22.43159 0.0156,22.43159 -2.9081,-0.0159 -2.90809,-0.0159 -0.0145,-5.53512 -0.0145,-5.53511 -2.514879,-0.016 -2.51487,-0.016 -0.094,-0.25926 c -0.0517,-0.14259 -0.18087,-0.47943 -0.28701,-0.74855 -0.2019,-0.51196 -0.25487,-0.64854 -0.83025,-2.14065 -0.19458,-0.50458 -0.47731,-1.22431 -0.6283,-1.59939 -0.15099,-0.37508 -0.27452,-0.71453 -0.27452,-0.75433 0,-0.0398 -0.0315,-0.062 -0.07,-0.0493 -0.0385,0.0127 -0.14597,0.24204 -0.23887,0.50968 -0.2888,0.83199 -0.9012,2.5756 -1.33093,3.78935 -0.22629,0.63913 -0.47606,1.35472 -0.55505,1.59019 -0.16085,0.4795 -0.48985,1.41809 -1.14698,3.27215 -0.24442,0.68959 -0.49512,1.40518 -0.55711,1.5902 -0.062,0.18501 -0.25475,0.73546 -0.42835,1.22323 -0.17359,0.48776 -0.42543,1.20335 -0.55964,1.5902 -0.66724,1.92334 -1.05251,3.01122 -1.08456,3.0625 -0.0312,0.0499 -5.4711,0.0882 -5.4711,0.0384 0,-0.0101 -0.32087,-0.95273 -0.71304,-2.09479 -0.39218,-1.14205 -0.96152,-2.80581 -1.26522,-3.69724 -0.3037,-0.89143 -0.87529,-2.55655 -1.27021,-3.70027 -0.39492,-1.14373 -0.89634,-2.60243 -1.11426,-3.24157 -1.22174,-3.58312 -1.57702,-4.58547 -1.62004,-4.57061 -0.0263,0.009 -0.20312,0.43567 -0.39299,0.948 -0.18987,0.51233 -0.36354,0.97279 -0.38592,1.02325 -0.0224,0.0505 -0.0928,0.24312 -0.15638,0.42813 -0.0636,0.18501 -0.37316,1.03822 -0.68787,1.89601 -0.31471,0.85779 -0.59967,1.6353 -0.63325,1.72781 l -0.0611,0.16819 h -2.37524 -2.37523 v 5.5657 5.5657 h -2.907032 -2.907027 z m 22.114831,15.30607 c 0.18271,-0.5927 1.64043,-4.92394 2.12535,-6.31492 0.17003,-0.48777 0.56388,-1.6162 0.87522,-2.50763 0.31133,-0.89143 0.61693,-1.77215 0.6791,-1.95717 0.0622,-0.18501 0.32589,-0.94188 0.58603,-1.68194 0.26013,-0.74005 0.49663,-1.42124 0.52556,-1.51375 l 0.0526,-0.16819 h -4.94382 c -3.3369,0 -4.94381,0.0204 -4.94381,0.0627 0,0.0501 2.15974,6.48276 2.4123,7.18491 0.0952,0.26469 1.16844,3.50188 1.53092,4.6177 0.16938,0.5214 0.44344,1.36772 0.60902,1.88072 0.16558,0.51299 0.30679,0.93271 0.3138,0.93271 0.007,0 0.087,-0.24082 0.17773,-0.53516 z m -15.96849,-5.03053 c 0.11911,-0.31957 0.30368,-0.80122 0.41015,-1.07033 0.10648,-0.26911 0.24554,-0.6269 0.30904,-0.7951 0.0635,-0.16819 0.1967,-0.51223 0.296,-0.76452 0.0993,-0.25229 0.33936,-0.87155 0.53345,-1.37613 0.19409,-0.50459 0.41757,-1.08256 0.49661,-1.28439 0.19716,-0.5034 0.42147,-1.08039 0.6182,-1.5902 0.0909,-0.23548 0.19004,-0.48318 0.22038,-0.55046 0.0303,-0.0673 0.15866,-0.39755 0.28514,-0.73394 0.27949,-0.74336 0.45214,-1.19182 0.70638,-1.83484 0.1064,-0.26911 0.29566,-0.76965 0.42058,-1.1123 l 0.22714,-0.623 -0.53973,-1.57881 c -0.29685,-0.86835 -0.87486,-2.55587 -1.28447,-3.75005 -0.40961,-1.19418 -0.90996,-2.65288 -1.11188,-3.24156 -0.20192,-0.58868 -0.69969,-2.04237 -1.10616,-3.23042 -0.40647,-1.18804 -0.7557,-2.17657 -0.77607,-2.19671 -0.0204,-0.0202 -0.037,5.91836 -0.037,13.19668 0,8.21562 0.0219,13.21129 0.0579,13.17522 0.0318,-0.032 0.15531,-0.31957 0.27442,-0.63914 z m 31.335759,-12.29347 c 0,-7.25002 -0.0234,-12.78276 -0.054,-12.78276 -0.0297,0 -0.12477,0.2133 -0.21122,0.474 -0.12997,0.39195 -0.54399,1.57486 -1.214829,3.47092 -0.0595,0.16819 -0.23657,0.67736 -0.39346,1.13149 -0.1569,0.45412 -0.42699,1.22476 -0.6002,1.71252 -0.17322,0.48776 -0.36675,1.03822 -0.43009,1.22323 -0.0633,0.18501 -0.2435,0.70091 -0.40038,1.14644 -0.15688,0.44552 -0.40781,1.16111 -0.55763,1.5902 -0.14982,0.42908 -0.45397,1.29708 -0.6759,1.92888 -0.46219,1.31581 -0.47223,1.03443 0.0845,2.36806 0.17554,0.42048 0.46715,1.12231 0.64804,1.55962 0.18089,0.4373 0.45982,1.11161 0.61986,1.49845 0.16004,0.38685 0.44232,1.07492 0.62729,1.52904 0.18497,0.45413 0.36207,0.88073 0.39356,0.94801 0.0315,0.0673 0.15702,0.37002 0.27896,0.67277 0.12194,0.30275 0.24677,0.6055 0.27741,0.67278 0.0306,0.0673 0.15548,0.37003 0.27742,0.67278 0.121939,0.30275 0.247189,0.60549 0.278329,0.67277 0.0311,0.0673 0.15689,0.37003 0.27944,0.67278 0.12255,0.30275 0.25902,0.63302 0.30327,0.73394 0.0443,0.10091 0.14343,0.34174 0.2204,0.53516 0.077,0.19342 0.16455,0.35168 0.19462,0.35168 0.0315,0 0.0547,-5.42151 0.0547,-12.78276 z m -10.452929,-0.48202 c 0,-0.0666 -0.5471,-1.54499 -1.36074,-3.67696 -0.17331,-0.45413 -0.42381,-1.11467 -0.55666,-1.46788 -0.13286,-0.35321 -0.38336,-1.01375 -0.55667,-1.46788 -0.17331,-0.45412 -0.42381,-1.11467 -0.55666,-1.46787 -0.13286,-0.35321 -0.38372,-1.01376 -0.55748,-1.46788 -0.9171,-2.3969 -2.08429,-5.78674 -2.19694,-6.38052 -0.0235,-0.12371 -0.0616,-0.22493 -0.0848,-0.22493 -0.0232,0 -0.0889,0.22707 -0.14604,0.50459 -0.17253,0.83762 -0.54379,2.29715 -0.81066,3.18702 -0.1729,0.5765 -0.91587,2.73958 -1.1689,3.40313 -0.0834,0.21865 -0.26551,0.7003 -0.40473,1.07033 -0.13922,0.37003 -0.39493,1.04433 -0.56824,1.49846 -0.17331,0.45412 -0.42902,1.12843 -0.56824,1.49845 -0.13922,0.37003 -0.32071,0.85168 -0.40331,1.07033 -0.0826,0.21865 -0.21653,0.57645 -0.29762,0.7951 -0.0811,0.21865 -0.28934,0.76911 -0.46276,1.22323 -0.64795,1.69677 -0.63562,1.65714 -0.5639,1.8128 l 0.0665,0.14437 h 5.5989 c 3.18798,0 5.5989,-0.0232 5.5989,-0.0539 z M 59.256045,17.228649 V 14.90451 l 2.01018,-0.007 c 1.10559,-0.004 2.06584,-0.007 2.13388,-0.007 0.068,0 0.15153,0.003 0.18555,0.007 0.04,0.004 0.0618,0.826819 0.0618,2.330939 v 2.32414 h -2.19573 -2.19574 z m 8.65923,0.007 c 0,-2.157349 0.007,-2.318549 0.10824,-2.339429 0.0595,-0.0123 1.04761,-0.0148 2.19573,-0.005 l 2.08749,0.0169 v 2.322549 2.32254 h -2.19573 -2.19573 z"
       id="path14" />
  </g>
</svg>
